<?xml version="1.0" encoding="UTF-8"?>
<svg xmlns="http://www.w3.org/2000/svg" xmlns:xlink="http://www.w3.org/1999/xlink" width="319.919983" height="107.040001" viewBox="0 0 319.919983 107.040001">
<path fill-rule="nonzero" fill="rgb(60.000002%, 60.000002%, 60.000002%)" fill-opacity="1" d="M 6.316406 59.167969 L 6.316406 42.386719 L 10.832031 42.386719 L 10.832031 43.699219 L 7.753906 43.699219 L 7.753906 57.886719 L 10.832031 57.886719 L 10.832031 59.167969 Z M 6.316406 59.167969 "/>
<path fill-rule="nonzero" fill="rgb(100%, 50.196081%, 0%)" fill-opacity="1" d="M 20.5625 44.667969 L 20.5625 56.730469 L 19.046875 56.730469 L 19.046875 46.308594 L 16.203125 48.042969 L 15.546875 46.964844 L 19.234375 44.667969 Z M 23.15625 55.855469 L 23.15625 57.089844 L 15.984375 57.089844 L 15.984375 55.855469 Z M 23.15625 55.855469 "/>
<path fill-rule="nonzero" fill="rgb(60.000002%, 60.000002%, 60.000002%)" fill-opacity="1" d="M 30.054688 54.121094 C 30.46875 54.121094 30.820312 54.261719 31.101562 54.542969 C 31.382812 54.824219 31.523438 55.164062 31.523438 55.558594 C 31.523438 55.777344 31.496094 56.003906 31.445312 56.230469 C 31.390625 56.449219 31.296875 56.699219 31.164062 56.980469 L 29.710938 60.324219 L 28.335938 60.324219 L 29.195312 56.761719 C 29.015625 56.636719 28.875 56.472656 28.773438 56.261719 C 28.667969 56.042969 28.617188 55.808594 28.617188 55.558594 C 28.617188 55.164062 28.75 54.824219 29.023438 54.542969 C 29.304688 54.261719 29.648438 54.121094 30.054688 54.121094 Z M 30.054688 54.121094 "/>
<path fill-rule="nonzero" fill="rgb(100%, 50.196081%, 0%)" fill-opacity="1" d="M 40.328125 44.480469 C 41.109375 44.480469 41.773438 44.632812 42.328125 44.933594 C 42.890625 45.226562 43.316406 45.636719 43.609375 46.167969 C 43.910156 46.691406 44.0625 47.277344 44.0625 47.933594 C 44.0625 48.507812 43.960938 49.070312 43.765625 49.621094 C 43.566406 50.164062 43.25 50.730469 42.8125 51.324219 C 42.382812 51.917969 41.816406 52.582031 41.109375 53.308594 C 40.398438 54.039062 39.53125 54.867188 38.5 55.792969 L 44.359375 55.792969 L 44.171875 57.089844 L 36.78125 57.089844 L 36.78125 55.855469 C 37.71875 54.960938 38.515625 54.179688 39.171875 53.511719 C 39.835938 52.835938 40.382812 52.242188 40.8125 51.730469 C 41.238281 51.222656 41.570312 50.761719 41.8125 50.355469 C 42.0625 49.941406 42.234375 49.542969 42.328125 49.167969 C 42.421875 48.785156 42.46875 48.394531 42.46875 47.996094 C 42.46875 47.300781 42.269531 46.753906 41.875 46.355469 C 41.488281 45.949219 40.945312 45.746094 40.25 45.746094 C 39.644531 45.746094 39.144531 45.851562 38.75 46.058594 C 38.363281 46.269531 37.972656 46.601562 37.578125 47.058594 L 36.53125 46.246094 C 37.019531 45.652344 37.566406 45.210938 38.171875 44.917969 C 38.773438 44.628906 39.492188 44.480469 40.328125 44.480469 Z M 40.328125 44.480469 "/>
<path fill-rule="nonzero" fill="rgb(60.000002%, 60.000002%, 60.000002%)" fill-opacity="1" d="M 51.699219 54.121094 C 52.113281 54.121094 52.464844 54.261719 52.746094 54.542969 C 53.027344 54.824219 53.167969 55.164062 53.167969 55.558594 C 53.167969 55.777344 53.140625 56.003906 53.089844 56.230469 C 53.035156 56.449219 52.941406 56.699219 52.808594 56.980469 L 51.355469 60.324219 L 49.980469 60.324219 L 50.839844 56.761719 C 50.660156 56.636719 50.519531 56.472656 50.417969 56.261719 C 50.3125 56.042969 50.261719 55.808594 50.261719 55.558594 C 50.261719 55.164062 50.394531 54.824219 50.667969 54.542969 C 50.949219 54.261719 51.292969 54.121094 51.699219 54.121094 Z M 51.699219 54.121094 "/>
<path fill-rule="nonzero" fill="rgb(100%, 50.196081%, 0%)" fill-opacity="1" d="M 61.957031 44.480469 C 62.738281 44.480469 63.410156 44.621094 63.972656 44.902344 C 64.542969 45.175781 64.988281 45.550781 65.300781 46.027344 C 65.613281 46.496094 65.769531 47.011719 65.769531 47.574219 C 65.769531 48.074219 65.652344 48.535156 65.425781 48.949219 C 65.207031 49.355469 64.914062 49.691406 64.550781 49.949219 C 64.183594 50.210938 63.785156 50.382812 63.347656 50.464844 C 63.824219 50.507812 64.277344 50.648438 64.707031 50.886719 C 65.132812 51.128906 65.480469 51.464844 65.753906 51.902344 C 66.023438 52.332031 66.160156 52.867188 66.160156 53.511719 C 66.160156 54.230469 65.976562 54.878906 65.613281 55.449219 C 65.257812 56.023438 64.757812 56.476562 64.113281 56.808594 C 63.464844 57.128906 62.710938 57.292969 61.847656 57.292969 C 61.160156 57.292969 60.472656 57.160156 59.785156 56.902344 C 59.097656 56.632812 58.511719 56.210938 58.035156 55.636719 L 59.066406 54.808594 C 59.417969 55.226562 59.839844 55.539062 60.332031 55.746094 C 60.820312 55.945312 61.316406 56.042969 61.816406 56.042969 C 62.679688 56.042969 63.355469 55.820312 63.847656 55.371094 C 64.335938 54.914062 64.582031 54.292969 64.582031 53.511719 C 64.582031 52.917969 64.464844 52.457031 64.238281 52.121094 C 64.007812 51.777344 63.699219 51.535156 63.316406 51.386719 C 62.941406 51.230469 62.503906 51.152344 62.003906 51.152344 L 60.957031 51.152344 L 61.144531 49.964844 L 61.878906 49.964844 C 62.285156 49.964844 62.664062 49.886719 63.019531 49.730469 C 63.382812 49.574219 63.675781 49.335938 63.894531 49.011719 C 64.121094 48.691406 64.238281 48.285156 64.238281 47.792969 C 64.238281 47.105469 64.007812 46.585938 63.550781 46.230469 C 63.101562 45.867188 62.550781 45.683594 61.894531 45.683594 C 61.351562 45.683594 60.878906 45.777344 60.472656 45.964844 C 60.074219 46.152344 59.675781 46.441406 59.269531 46.824219 L 58.425781 45.902344 C 58.957031 45.402344 59.519531 45.042969 60.113281 44.824219 C 60.707031 44.597656 61.320312 44.480469 61.957031 44.480469 Z M 61.957031 44.480469 "/>
<path fill-rule="nonzero" fill="rgb(60.000002%, 60.000002%, 60.000002%)" fill-opacity="1" d="M 73.339844 54.121094 C 73.753906 54.121094 74.105469 54.261719 74.386719 54.542969 C 74.667969 54.824219 74.808594 55.164062 74.808594 55.558594 C 74.808594 55.777344 74.78125 56.003906 74.730469 56.230469 C 74.675781 56.449219 74.582031 56.699219 74.449219 56.980469 L 72.996094 60.324219 L 71.621094 60.324219 L 72.480469 56.761719 C 72.300781 56.636719 72.160156 56.472656 72.058594 56.261719 C 71.953125 56.042969 71.902344 55.808594 71.902344 55.558594 C 71.902344 55.164062 72.035156 54.824219 72.308594 54.542969 C 72.589844 54.261719 72.933594 54.121094 73.339844 54.121094 Z M 73.339844 54.121094 "/>
<path fill-rule="nonzero" fill="rgb(100%, 50.196081%, 0%)" fill-opacity="1" d="M 83.695312 44.480469 L 84.960938 45.011719 L 81.664062 52.855469 L 88.289062 52.855469 L 88.289062 54.074219 L 80.054688 54.074219 L 80.054688 52.964844 Z M 86.679688 49.339844 L 86.679688 57.089844 L 85.226562 57.089844 L 85.210938 53.152344 L 85.414062 49.339844 Z M 86.679688 49.339844 "/>
<path fill-rule="nonzero" fill="rgb(60.000002%, 60.000002%, 60.000002%)" fill-opacity="1" d="M 94.984375 54.121094 C 95.398438 54.121094 95.75 54.261719 96.03125 54.542969 C 96.3125 54.824219 96.453125 55.164062 96.453125 55.558594 C 96.453125 55.777344 96.425781 56.003906 96.375 56.230469 C 96.320312 56.449219 96.226562 56.699219 96.09375 56.980469 L 94.640625 60.324219 L 93.265625 60.324219 L 94.125 56.761719 C 93.945312 56.636719 93.804688 56.472656 93.703125 56.261719 C 93.597656 56.042969 93.546875 55.808594 93.546875 55.558594 C 93.546875 55.164062 93.679688 54.824219 93.953125 54.542969 C 94.234375 54.261719 94.578125 54.121094 94.984375 54.121094 Z M 94.984375 54.121094 "/>
<path fill-rule="nonzero" fill="rgb(100%, 50.196081%, 0%)" fill-opacity="1" d="M 109.179688 44.667969 L 108.960938 45.886719 L 104.054688 45.886719 L 104.054688 49.792969 C 104.429688 49.597656 104.78125 49.460938 105.117188 49.386719 C 105.460938 49.304688 105.820312 49.261719 106.195312 49.261719 C 106.871094 49.261719 107.464844 49.414062 107.976562 49.714844 C 108.484375 50.019531 108.882812 50.460938 109.164062 51.042969 C 109.445312 51.628906 109.585938 52.332031 109.585938 53.152344 C 109.585938 53.976562 109.414062 54.699219 109.070312 55.324219 C 108.726562 55.949219 108.242188 56.433594 107.617188 56.777344 C 106.992188 57.121094 106.246094 57.292969 105.382812 57.292969 C 104.640625 57.292969 103.976562 57.160156 103.382812 56.902344 C 102.796875 56.632812 102.265625 56.261719 101.789062 55.792969 L 102.726562 54.902344 C 103.101562 55.289062 103.507812 55.574219 103.945312 55.761719 C 104.382812 55.949219 104.867188 56.042969 105.398438 56.042969 C 106.21875 56.042969 106.855469 55.800781 107.304688 55.308594 C 107.761719 54.808594 107.992188 54.082031 107.992188 53.121094 C 107.992188 52.445312 107.890625 51.917969 107.695312 51.542969 C 107.496094 51.160156 107.226562 50.882812 106.882812 50.714844 C 106.546875 50.550781 106.171875 50.464844 105.757812 50.464844 C 105.390625 50.464844 105.070312 50.503906 104.789062 50.574219 C 104.507812 50.636719 104.183594 50.738281 103.820312 50.871094 L 102.601562 50.871094 L 102.601562 44.667969 Z M 109.179688 44.667969 "/>
<path fill-rule="nonzero" fill="rgb(60.000002%, 60.000002%, 60.000002%)" fill-opacity="1" d="M 116.625 54.121094 C 117.039062 54.121094 117.390625 54.261719 117.671875 54.542969 C 117.953125 54.824219 118.09375 55.164062 118.09375 55.558594 C 118.09375 55.777344 118.066406 56.003906 118.015625 56.230469 C 117.960938 56.449219 117.867188 56.699219 117.734375 56.980469 L 116.28125 60.324219 L 114.90625 60.324219 L 115.765625 56.761719 C 115.585938 56.636719 115.445312 56.472656 115.34375 56.261719 C 115.238281 56.042969 115.1875 55.808594 115.1875 55.558594 C 115.1875 55.164062 115.320312 54.824219 115.59375 54.542969 C 115.875 54.261719 116.21875 54.121094 116.625 54.121094 Z M 116.625 54.121094 "/>
<path fill-rule="nonzero" fill="rgb(100%, 50.196081%, 0%)" fill-opacity="1" d="M 128.089844 44.480469 C 128.566406 44.480469 129.011719 44.542969 129.417969 44.667969 C 129.824219 44.785156 130.199219 44.960938 130.542969 45.199219 L 129.949219 46.230469 C 129.667969 46.054688 129.363281 45.925781 129.042969 45.839844 C 128.730469 45.746094 128.402344 45.699219 128.058594 45.699219 C 127.402344 45.699219 126.839844 45.925781 126.371094 46.371094 C 125.910156 46.808594 125.5625 47.429688 125.324219 48.230469 C 125.09375 49.035156 124.984375 49.976562 124.996094 51.058594 L 125.011719 51.636719 C 125.011719 53.167969 125.207031 54.292969 125.605469 55.011719 C 126.011719 55.722656 126.671875 56.074219 127.589844 56.074219 C 128.371094 56.074219 128.957031 55.792969 129.355469 55.230469 C 129.75 54.667969 129.949219 53.910156 129.949219 52.949219 C 129.949219 52.273438 129.855469 51.738281 129.667969 51.339844 C 129.488281 50.945312 129.234375 50.664062 128.902344 50.496094 C 128.566406 50.332031 128.183594 50.246094 127.746094 50.246094 C 127.097656 50.246094 126.53125 50.441406 126.042969 50.824219 C 125.550781 51.210938 125.152344 51.707031 124.839844 52.308594 L 124.808594 50.964844 C 125.214844 50.269531 125.675781 49.769531 126.199219 49.464844 C 126.730469 49.152344 127.324219 48.996094 127.980469 48.996094 C 128.625 48.996094 129.214844 49.144531 129.746094 49.433594 C 130.277344 49.714844 130.699219 50.148438 131.011719 50.730469 C 131.332031 51.304688 131.496094 52.035156 131.496094 52.917969 C 131.496094 53.835938 131.316406 54.621094 130.964844 55.277344 C 130.621094 55.925781 130.152344 56.425781 129.558594 56.777344 C 128.964844 57.121094 128.308594 57.292969 127.589844 57.292969 C 126.839844 57.292969 126.199219 57.152344 125.667969 56.871094 C 125.144531 56.582031 124.722656 56.167969 124.402344 55.636719 C 124.078125 55.105469 123.84375 54.472656 123.699219 53.730469 C 123.550781 52.980469 123.480469 52.144531 123.480469 51.214844 C 123.480469 49.851562 123.660156 48.664062 124.027344 47.652344 C 124.390625 46.644531 124.917969 45.863281 125.605469 45.308594 C 126.292969 44.757812 127.121094 44.480469 128.089844 44.480469 Z M 128.089844 44.480469 "/>
<path fill-rule="nonzero" fill="rgb(60.000002%, 60.000002%, 60.000002%)" fill-opacity="1" d="M 138.269531 54.121094 C 138.683594 54.121094 139.035156 54.261719 139.316406 54.542969 C 139.597656 54.824219 139.738281 55.164062 139.738281 55.558594 C 139.738281 55.777344 139.710938 56.003906 139.660156 56.230469 C 139.605469 56.449219 139.511719 56.699219 139.378906 56.980469 L 137.925781 60.324219 L 136.550781 60.324219 L 137.410156 56.761719 C 137.230469 56.636719 137.089844 56.472656 136.988281 56.261719 C 136.882812 56.042969 136.832031 55.808594 136.832031 55.558594 C 136.832031 55.164062 136.964844 54.824219 137.238281 54.542969 C 137.519531 54.261719 137.863281 54.121094 138.269531 54.121094 Z M 138.269531 54.121094 "/>
<path fill-rule="nonzero" fill="rgb(60.000002%, 60.000002%, 60.000002%)" fill-opacity="1" d="M 149.660156 55.699219 C 149.660156 55.410156 149.734375 55.144531 149.878906 54.902344 C 150.015625 54.664062 150.203125 54.476562 150.441406 54.339844 C 150.671875 54.195312 150.9375 54.121094 151.238281 54.121094 C 151.542969 54.121094 151.816406 54.195312 152.066406 54.339844 C 152.308594 54.476562 152.496094 54.664062 152.628906 54.902344 C 152.765625 55.144531 152.832031 55.410156 152.832031 55.699219 C 152.832031 55.992188 152.765625 56.261719 152.628906 56.511719 C 152.496094 56.753906 152.308594 56.945312 152.066406 57.089844 C 151.816406 57.222656 151.542969 57.292969 151.238281 57.292969 C 150.9375 57.292969 150.671875 57.222656 150.441406 57.089844 C 150.203125 56.945312 150.015625 56.753906 149.878906 56.511719 C 149.734375 56.261719 149.660156 55.992188 149.660156 55.699219 Z M 156.160156 55.699219 C 156.160156 55.410156 156.226562 55.144531 156.363281 54.902344 C 156.507812 54.664062 156.695312 54.476562 156.925781 54.339844 C 157.164062 54.195312 157.433594 54.121094 157.738281 54.121094 C 158.039062 54.121094 158.308594 54.195312 158.550781 54.339844 C 158.800781 54.476562 158.992188 54.664062 159.128906 54.902344 C 159.261719 55.144531 159.332031 55.410156 159.332031 55.699219 C 159.332031 55.992188 159.261719 56.261719 159.128906 56.511719 C 158.992188 56.753906 158.800781 56.945312 158.550781 57.089844 C 158.308594 57.222656 158.039062 57.292969 157.738281 57.292969 C 157.433594 57.292969 157.164062 57.222656 156.925781 57.089844 C 156.695312 56.945312 156.507812 56.753906 156.363281 56.511719 C 156.226562 56.261719 156.160156 55.992188 156.160156 55.699219 Z M 156.160156 55.699219 "/>
<path fill-rule="nonzero" fill="rgb(60.000002%, 60.000002%, 60.000002%)" fill-opacity="1" d="M 243.6875 29.121094 L 243.6875 12.339844 L 248.203125 12.339844 L 248.203125 13.652344 L 245.125 13.652344 L 245.125 27.839844 L 248.203125 27.839844 L 248.203125 29.121094 Z M 243.6875 29.121094 "/>
<path fill-rule="nonzero" fill="rgb(60.000002%, 60.000002%, 60.000002%)" fill-opacity="1" d="M 255.023438 20.730469 C 255.023438 21.667969 255.101562 22.511719 255.257812 23.261719 C 255.421875 24.003906 255.667969 24.679688 255.992188 25.292969 C 256.3125 25.910156 256.714844 26.492188 257.195312 27.042969 C 257.671875 27.605469 258.234375 28.167969 258.882812 28.730469 L 258.085938 29.574219 C 257.117188 28.769531 256.28125 27.949219 255.585938 27.105469 C 254.898438 26.273438 254.367188 25.347656 253.992188 24.324219 C 253.625 23.292969 253.445312 22.097656 253.445312 20.730469 C 253.445312 19.367188 253.625 18.167969 253.992188 17.136719 C 254.367188 16.105469 254.898438 15.175781 255.585938 14.339844 C 256.28125 13.507812 257.117188 12.695312 258.085938 11.902344 L 258.882812 12.730469 C 258.234375 13.304688 257.667969 13.871094 257.179688 14.433594 C 256.699219 14.988281 256.296875 15.570312 255.976562 16.183594 C 255.664062 16.789062 255.421875 17.464844 255.257812 18.214844 C 255.101562 18.957031 255.023438 19.792969 255.023438 20.730469 Z M 255.023438 20.730469 "/>
<path fill-rule="nonzero" fill="rgb(100%, 50.196081%, 0%)" fill-opacity="1" d="M 268.753906 14.621094 L 268.753906 26.683594 L 267.238281 26.683594 L 267.238281 16.261719 L 264.394531 17.996094 L 263.738281 16.917969 L 267.425781 14.621094 Z M 271.347656 25.808594 L 271.347656 27.042969 L 264.175781 27.042969 L 264.175781 25.808594 Z M 271.347656 25.808594 "/>
<path fill-rule="nonzero" fill="rgb(60.000002%, 60.000002%, 60.000002%)" fill-opacity="1" d="M 278.246094 24.074219 C 278.660156 24.074219 279.011719 24.214844 279.292969 24.496094 C 279.574219 24.777344 279.714844 25.117188 279.714844 25.511719 C 279.714844 25.730469 279.6875 25.957031 279.636719 26.183594 C 279.582031 26.402344 279.488281 26.652344 279.355469 26.933594 L 277.902344 30.277344 L 276.527344 30.277344 L 277.386719 26.714844 C 277.207031 26.589844 277.066406 26.425781 276.964844 26.214844 C 276.859375 25.996094 276.808594 25.761719 276.808594 25.511719 C 276.808594 25.117188 276.941406 24.777344 277.214844 24.496094 C 277.496094 24.214844 277.839844 24.074219 278.246094 24.074219 Z M 278.246094 24.074219 "/>
<path fill-rule="nonzero" fill="rgb(100%, 50.196081%, 0%)" fill-opacity="1" d="M 288.519531 14.433594 C 289.300781 14.433594 289.964844 14.585938 290.519531 14.886719 C 291.082031 15.179688 291.507812 15.589844 291.800781 16.121094 C 292.101562 16.644531 292.253906 17.230469 292.253906 17.886719 C 292.253906 18.460938 292.152344 19.023438 291.957031 19.574219 C 291.757812 20.117188 291.441406 20.683594 291.003906 21.277344 C 290.574219 21.871094 290.007812 22.535156 289.300781 23.261719 C 288.589844 23.992188 287.722656 24.820312 286.691406 25.746094 L 292.550781 25.746094 L 292.363281 27.042969 L 284.972656 27.042969 L 284.972656 25.808594 C 285.910156 24.914062 286.707031 24.132812 287.363281 23.464844 C 288.027344 22.789062 288.574219 22.195312 289.003906 21.683594 C 289.429688 21.175781 289.761719 20.714844 290.003906 20.308594 C 290.253906 19.894531 290.425781 19.496094 290.519531 19.121094 C 290.613281 18.738281 290.660156 18.347656 290.660156 17.949219 C 290.660156 17.253906 290.460938 16.707031 290.066406 16.308594 C 289.679688 15.902344 289.136719 15.699219 288.441406 15.699219 C 287.835938 15.699219 287.335938 15.804688 286.941406 16.011719 C 286.554688 16.222656 286.164062 16.554688 285.769531 17.011719 L 284.722656 16.199219 C 285.210938 15.605469 285.757812 15.164062 286.363281 14.871094 C 286.964844 14.582031 287.683594 14.433594 288.519531 14.433594 Z M 288.519531 14.433594 "/>
<path fill-rule="nonzero" fill="rgb(60.000002%, 60.000002%, 60.000002%)" fill-opacity="1" d="M 301.46875 20.730469 C 301.46875 19.792969 301.390625 18.957031 301.234375 18.214844 C 301.078125 17.464844 300.835938 16.789062 300.515625 16.183594 C 300.191406 15.570312 299.789062 14.988281 299.3125 14.433594 C 298.832031 13.871094 298.265625 13.304688 297.609375 12.730469 L 298.40625 11.902344 C 299.382812 12.695312 300.21875 13.507812 300.90625 14.339844 C 301.601562 15.175781 302.132812 16.105469 302.5 17.136719 C 302.875 18.167969 303.0625 19.367188 303.0625 20.730469 C 303.0625 22.097656 302.875 23.292969 302.5 24.324219 C 302.132812 25.347656 301.601562 26.273438 300.90625 27.105469 C 300.21875 27.949219 299.382812 28.769531 298.40625 29.574219 L 297.609375 28.730469 C 298.253906 28.167969 298.816406 27.605469 299.296875 27.042969 C 299.785156 26.492188 300.1875 25.910156 300.5 25.292969 C 300.820312 24.679688 301.0625 24.003906 301.21875 23.261719 C 301.382812 22.511719 301.46875 21.667969 301.46875 20.730469 Z M 301.46875 20.730469 "/>
<path fill-rule="nonzero" fill="rgb(60.000002%, 60.000002%, 60.000002%)" fill-opacity="1" d="M 310.710938 24.074219 C 311.125 24.074219 311.476562 24.214844 311.757812 24.496094 C 312.039062 24.777344 312.179688 25.117188 312.179688 25.511719 C 312.179688 25.730469 312.152344 25.957031 312.101562 26.183594 C 312.046875 26.402344 311.953125 26.652344 311.820312 26.933594 L 310.367188 30.277344 L 308.992188 30.277344 L 309.851562 26.714844 C 309.671875 26.589844 309.53125 26.425781 309.429688 26.214844 C 309.324219 25.996094 309.273438 25.761719 309.273438 25.511719 C 309.273438 25.117188 309.40625 24.777344 309.679688 24.496094 C 309.960938 24.214844 310.304688 24.074219 310.710938 24.074219 Z M 310.710938 24.074219 "/>
<path fill-rule="nonzero" fill="rgb(60.000002%, 60.000002%, 60.000002%)" fill-opacity="1" d="M 255.023438 41.761719 C 255.023438 42.699219 255.101562 43.542969 255.257812 44.292969 C 255.421875 45.035156 255.667969 45.710938 255.992188 46.324219 C 256.3125 46.941406 256.714844 47.523438 257.195312 48.074219 C 257.671875 48.636719 258.234375 49.199219 258.882812 49.761719 L 258.085938 50.605469 C 257.117188 49.800781 256.28125 48.980469 255.585938 48.136719 C 254.898438 47.304688 254.367188 46.378906 253.992188 45.355469 C 253.625 44.324219 253.445312 43.128906 253.445312 41.761719 C 253.445312 40.398438 253.625 39.199219 253.992188 38.167969 C 254.367188 37.136719 254.898438 36.207031 255.585938 35.371094 C 256.28125 34.539062 257.117188 33.726562 258.085938 32.933594 L 258.882812 33.761719 C 258.234375 34.335938 257.667969 34.902344 257.179688 35.464844 C 256.699219 36.019531 256.296875 36.601562 255.976562 37.214844 C 255.664062 37.820312 255.421875 38.496094 255.257812 39.246094 C 255.101562 39.988281 255.023438 40.824219 255.023438 41.761719 Z M 255.023438 41.761719 "/>
<path fill-rule="nonzero" fill="rgb(100%, 50.196081%, 0%)" fill-opacity="1" d="M 266.863281 35.464844 C 267.644531 35.464844 268.316406 35.605469 268.878906 35.886719 C 269.449219 36.160156 269.894531 36.535156 270.207031 37.011719 C 270.519531 37.480469 270.675781 37.996094 270.675781 38.558594 C 270.675781 39.058594 270.558594 39.519531 270.332031 39.933594 C 270.113281 40.339844 269.820312 40.675781 269.457031 40.933594 C 269.089844 41.195312 268.691406 41.367188 268.253906 41.449219 C 268.730469 41.492188 269.183594 41.632812 269.613281 41.871094 C 270.039062 42.113281 270.386719 42.449219 270.660156 42.886719 C 270.929688 43.316406 271.066406 43.851562 271.066406 44.496094 C 271.066406 45.214844 270.882812 45.863281 270.519531 46.433594 C 270.164062 47.007812 269.664062 47.460938 269.019531 47.792969 C 268.371094 48.113281 267.617188 48.277344 266.753906 48.277344 C 266.066406 48.277344 265.378906 48.144531 264.691406 47.886719 C 264.003906 47.617188 263.417969 47.195312 262.941406 46.621094 L 263.972656 45.792969 C 264.324219 46.210938 264.746094 46.523438 265.238281 46.730469 C 265.726562 46.929688 266.222656 47.027344 266.722656 47.027344 C 267.585938 47.027344 268.261719 46.804688 268.753906 46.355469 C 269.242188 45.898438 269.488281 45.277344 269.488281 44.496094 C 269.488281 43.902344 269.371094 43.441406 269.144531 43.105469 C 268.914062 42.761719 268.605469 42.519531 268.222656 42.371094 C 267.847656 42.214844 267.410156 42.136719 266.910156 42.136719 L 265.863281 42.136719 L 266.050781 40.949219 L 266.785156 40.949219 C 267.191406 40.949219 267.570312 40.871094 267.925781 40.714844 C 268.289062 40.558594 268.582031 40.320312 268.800781 39.996094 C 269.027344 39.675781 269.144531 39.269531 269.144531 38.777344 C 269.144531 38.089844 268.914062 37.570312 268.457031 37.214844 C 268.007812 36.851562 267.457031 36.667969 266.800781 36.667969 C 266.257812 36.667969 265.785156 36.761719 265.378906 36.949219 C 264.980469 37.136719 264.582031 37.425781 264.175781 37.808594 L 263.332031 36.886719 C 263.863281 36.386719 264.425781 36.027344 265.019531 35.808594 C 265.613281 35.582031 266.226562 35.464844 266.863281 35.464844 Z M 266.863281 35.464844 "/>
<path fill-rule="nonzero" fill="rgb(60.000002%, 60.000002%, 60.000002%)" fill-opacity="1" d="M 278.246094 45.105469 C 278.660156 45.105469 279.011719 45.246094 279.292969 45.527344 C 279.574219 45.808594 279.714844 46.148438 279.714844 46.542969 C 279.714844 46.761719 279.6875 46.988281 279.636719 47.214844 C 279.582031 47.433594 279.488281 47.683594 279.355469 47.964844 L 277.902344 51.308594 L 276.527344 51.308594 L 277.386719 47.746094 C 277.207031 47.621094 277.066406 47.457031 276.964844 47.246094 C 276.859375 47.027344 276.808594 46.792969 276.808594 46.542969 C 276.808594 46.148438 276.941406 45.808594 277.214844 45.527344 C 277.496094 45.246094 277.839844 45.105469 278.246094 45.105469 Z M 278.246094 45.105469 "/>
<path fill-rule="nonzero" fill="rgb(100%, 50.196081%, 0%)" fill-opacity="1" d="M 288.597656 35.464844 L 289.863281 35.996094 L 286.566406 43.839844 L 293.191406 43.839844 L 293.191406 45.058594 L 284.957031 45.058594 L 284.957031 43.949219 Z M 291.582031 40.324219 L 291.582031 48.074219 L 290.128906 48.074219 L 290.113281 44.136719 L 290.316406 40.324219 Z M 291.582031 40.324219 "/>
<path fill-rule="nonzero" fill="rgb(60.000002%, 60.000002%, 60.000002%)" fill-opacity="1" d="M 301.46875 41.761719 C 301.46875 40.824219 301.390625 39.988281 301.234375 39.246094 C 301.078125 38.496094 300.835938 37.820312 300.515625 37.214844 C 300.191406 36.601562 299.789062 36.019531 299.3125 35.464844 C 298.832031 34.902344 298.265625 34.335938 297.609375 33.761719 L 298.40625 32.933594 C 299.382812 33.726562 300.21875 34.539062 300.90625 35.371094 C 301.601562 36.207031 302.132812 37.136719 302.5 38.167969 C 302.875 39.199219 303.0625 40.398438 303.0625 41.761719 C 303.0625 43.128906 302.875 44.324219 302.5 45.355469 C 302.132812 46.378906 301.601562 47.304688 300.90625 48.136719 C 300.21875 48.980469 299.382812 49.800781 298.40625 50.605469 L 297.609375 49.761719 C 298.253906 49.199219 298.816406 48.636719 299.296875 48.074219 C 299.785156 47.523438 300.1875 46.941406 300.5 46.324219 C 300.820312 45.710938 301.0625 45.035156 301.21875 44.292969 C 301.382812 43.542969 301.46875 42.699219 301.46875 41.761719 Z M 301.46875 41.761719 "/>
<path fill-rule="nonzero" fill="rgb(60.000002%, 60.000002%, 60.000002%)" fill-opacity="1" d="M 310.710938 45.105469 C 311.125 45.105469 311.476562 45.246094 311.757812 45.527344 C 312.039062 45.808594 312.179688 46.148438 312.179688 46.542969 C 312.179688 46.761719 312.152344 46.988281 312.101562 47.214844 C 312.046875 47.433594 311.953125 47.683594 311.820312 47.964844 L 310.367188 51.308594 L 308.992188 51.308594 L 309.851562 47.746094 C 309.671875 47.621094 309.53125 47.457031 309.429688 47.246094 C 309.324219 47.027344 309.273438 46.792969 309.273438 46.542969 C 309.273438 46.148438 309.40625 45.808594 309.679688 45.527344 C 309.960938 45.246094 310.304688 45.105469 310.710938 45.105469 Z M 310.710938 45.105469 "/>
<path fill-rule="nonzero" fill="rgb(60.000002%, 60.000002%, 60.000002%)" fill-opacity="1" d="M 255.019531 64.296875 C 255.019531 65.234375 255.097656 66.078125 255.253906 66.828125 C 255.417969 67.570312 255.664062 68.246094 255.988281 68.859375 C 256.308594 69.476562 256.710938 70.058594 257.191406 70.609375 C 257.667969 71.171875 258.230469 71.734375 258.878906 72.296875 L 258.082031 73.140625 C 257.113281 72.335938 256.277344 71.515625 255.582031 70.671875 C 254.894531 69.839844 254.363281 68.914062 253.988281 67.890625 C 253.621094 66.859375 253.441406 65.664062 253.441406 64.296875 C 253.441406 62.933594 253.621094 61.734375 253.988281 60.703125 C 254.363281 59.671875 254.894531 58.742188 255.582031 57.90625 C 256.277344 57.074219 257.113281 56.261719 258.082031 55.46875 L 258.878906 56.296875 C 258.230469 56.871094 257.664062 57.4375 257.175781 58 C 256.695312 58.554688 256.292969 59.136719 255.972656 59.75 C 255.660156 60.355469 255.417969 61.03125 255.253906 61.78125 C 255.097656 62.523438 255.019531 63.359375 255.019531 64.296875 Z M 255.019531 64.296875 "/>
<path fill-rule="nonzero" fill="rgb(100%, 50.196081%, 0%)" fill-opacity="1" d="M 270.800781 58.1875 L 270.582031 59.40625 L 265.675781 59.40625 L 265.675781 63.3125 C 266.050781 63.117188 266.402344 62.980469 266.738281 62.90625 C 267.082031 62.824219 267.441406 62.78125 267.816406 62.78125 C 268.492188 62.78125 269.085938 62.933594 269.597656 63.234375 C 270.105469 63.539062 270.503906 63.980469 270.785156 64.5625 C 271.066406 65.148438 271.207031 65.851562 271.207031 66.671875 C 271.207031 67.496094 271.035156 68.21875 270.691406 68.84375 C 270.347656 69.46875 269.863281 69.953125 269.238281 70.296875 C 268.613281 70.640625 267.867188 70.8125 267.003906 70.8125 C 266.261719 70.8125 265.597656 70.679688 265.003906 70.421875 C 264.417969 70.152344 263.886719 69.78125 263.410156 69.3125 L 264.347656 68.421875 C 264.722656 68.808594 265.128906 69.09375 265.566406 69.28125 C 266.003906 69.46875 266.488281 69.5625 267.019531 69.5625 C 267.839844 69.5625 268.476562 69.320312 268.925781 68.828125 C 269.382812 68.328125 269.613281 67.601562 269.613281 66.640625 C 269.613281 65.964844 269.511719 65.4375 269.316406 65.0625 C 269.117188 64.679688 268.847656 64.402344 268.503906 64.234375 C 268.167969 64.070312 267.792969 63.984375 267.378906 63.984375 C 267.011719 63.984375 266.691406 64.023438 266.410156 64.09375 C 266.128906 64.15625 265.804688 64.257812 265.441406 64.390625 L 264.222656 64.390625 L 264.222656 58.1875 Z M 270.800781 58.1875 "/>
<path fill-rule="nonzero" fill="rgb(60.000002%, 60.000002%, 60.000002%)" fill-opacity="1" d="M 278.246094 67.640625 C 278.660156 67.640625 279.011719 67.78125 279.292969 68.0625 C 279.574219 68.34375 279.714844 68.683594 279.714844 69.078125 C 279.714844 69.296875 279.6875 69.523438 279.636719 69.75 C 279.582031 69.96875 279.488281 70.21875 279.355469 70.5 L 277.902344 73.84375 L 276.527344 73.84375 L 277.386719 70.28125 C 277.207031 70.15625 277.066406 69.992188 276.964844 69.78125 C 276.859375 69.5625 276.808594 69.328125 276.808594 69.078125 C 276.808594 68.683594 276.941406 68.34375 277.214844 68.0625 C 277.496094 67.78125 277.839844 67.640625 278.246094 67.640625 Z M 278.246094 67.640625 "/>
<path fill-rule="nonzero" fill="rgb(100%, 50.196081%, 0%)" fill-opacity="1" d="M 289.707031 58 C 290.183594 58 290.628906 58.0625 291.035156 58.1875 C 291.441406 58.304688 291.816406 58.480469 292.160156 58.71875 L 291.566406 59.75 C 291.285156 59.574219 290.980469 59.445312 290.660156 59.359375 C 290.347656 59.265625 290.019531 59.21875 289.675781 59.21875 C 289.019531 59.21875 288.457031 59.445312 287.988281 59.890625 C 287.527344 60.328125 287.179688 60.949219 286.941406 61.75 C 286.710938 62.554688 286.601562 63.496094 286.613281 64.578125 L 286.628906 65.15625 C 286.628906 66.6875 286.824219 67.8125 287.222656 68.53125 C 287.628906 69.242188 288.289062 69.59375 289.207031 69.59375 C 289.988281 69.59375 290.574219 69.3125 290.972656 68.75 C 291.367188 68.1875 291.566406 67.429688 291.566406 66.46875 C 291.566406 65.792969 291.472656 65.257812 291.285156 64.859375 C 291.105469 64.464844 290.851562 64.183594 290.519531 64.015625 C 290.183594 63.851562 289.800781 63.765625 289.363281 63.765625 C 288.714844 63.765625 288.148438 63.960938 287.660156 64.34375 C 287.167969 64.730469 286.769531 65.226562 286.457031 65.828125 L 286.425781 64.484375 C 286.832031 63.789062 287.292969 63.289062 287.816406 62.984375 C 288.347656 62.671875 288.941406 62.515625 289.597656 62.515625 C 290.242188 62.515625 290.832031 62.664062 291.363281 62.953125 C 291.894531 63.234375 292.316406 63.667969 292.628906 64.25 C 292.949219 64.824219 293.113281 65.554688 293.113281 66.4375 C 293.113281 67.355469 292.933594 68.140625 292.582031 68.796875 C 292.238281 69.445312 291.769531 69.945312 291.175781 70.296875 C 290.582031 70.640625 289.925781 70.8125 289.207031 70.8125 C 288.457031 70.8125 287.816406 70.671875 287.285156 70.390625 C 286.761719 70.101562 286.339844 69.6875 286.019531 69.15625 C 285.695312 68.625 285.460938 67.992188 285.316406 67.25 C 285.167969 66.5 285.097656 65.664062 285.097656 64.734375 C 285.097656 63.371094 285.277344 62.183594 285.644531 61.171875 C 286.007812 60.164062 286.535156 59.382812 287.222656 58.828125 C 287.910156 58.277344 288.738281 58 289.707031 58 Z M 289.707031 58 "/>
<path fill-rule="nonzero" fill="rgb(60.000002%, 60.000002%, 60.000002%)" fill-opacity="1" d="M 301.46875 64.296875 C 301.46875 63.359375 301.390625 62.523438 301.234375 61.78125 C 301.078125 61.03125 300.835938 60.355469 300.515625 59.75 C 300.191406 59.136719 299.789062 58.554688 299.3125 58 C 298.832031 57.4375 298.265625 56.871094 297.609375 56.296875 L 298.40625 55.46875 C 299.382812 56.261719 300.21875 57.074219 300.90625 57.90625 C 301.601562 58.742188 302.132812 59.671875 302.5 60.703125 C 302.875 61.734375 303.0625 62.933594 303.0625 64.296875 C 303.0625 65.664062 302.875 66.859375 302.5 67.890625 C 302.132812 68.914062 301.601562 69.839844 300.90625 70.671875 C 300.21875 71.515625 299.382812 72.335938 298.40625 73.140625 L 297.609375 72.296875 C 298.253906 71.734375 298.816406 71.171875 299.296875 70.609375 C 299.785156 70.058594 300.1875 69.476562 300.5 68.859375 C 300.820312 68.246094 301.0625 67.570312 301.21875 66.828125 C 301.382812 66.078125 301.46875 65.234375 301.46875 64.296875 Z M 301.46875 64.296875 "/>
<path fill-rule="nonzero" fill="rgb(60.000002%, 60.000002%, 60.000002%)" fill-opacity="1" d="M 310.710938 67.640625 C 311.125 67.640625 311.476562 67.78125 311.757812 68.0625 C 312.039062 68.34375 312.179688 68.683594 312.179688 69.078125 C 312.179688 69.296875 312.152344 69.523438 312.101562 69.75 C 312.046875 69.96875 311.953125 70.21875 311.820312 70.5 L 310.367188 73.84375 L 308.992188 73.84375 L 309.851562 70.28125 C 309.671875 70.15625 309.53125 69.992188 309.429688 69.78125 C 309.324219 69.5625 309.273438 69.328125 309.273438 69.078125 C 309.273438 68.683594 309.40625 68.34375 309.679688 68.0625 C 309.960938 67.78125 310.304688 67.640625 310.710938 67.640625 Z M 310.710938 67.640625 "/>
<path fill-rule="nonzero" fill="rgb(60.000002%, 60.000002%, 60.000002%)" fill-opacity="1" d="M 257.171875 90.253906 C 257.171875 89.964844 257.246094 89.699219 257.390625 89.457031 C 257.527344 89.21875 257.714844 89.03125 257.953125 88.894531 C 258.183594 88.75 258.449219 88.675781 258.75 88.675781 C 259.054688 88.675781 259.328125 88.75 259.578125 88.894531 C 259.820312 89.03125 260.007812 89.21875 260.140625 89.457031 C 260.277344 89.699219 260.34375 89.964844 260.34375 90.253906 C 260.34375 90.546875 260.277344 90.816406 260.140625 91.066406 C 260.007812 91.308594 259.820312 91.5 259.578125 91.644531 C 259.328125 91.777344 259.054688 91.847656 258.75 91.847656 C 258.449219 91.847656 258.183594 91.777344 257.953125 91.644531 C 257.714844 91.5 257.527344 91.308594 257.390625 91.066406 C 257.246094 90.816406 257.171875 90.546875 257.171875 90.253906 Z M 263.671875 90.253906 C 263.671875 89.964844 263.738281 89.699219 263.875 89.457031 C 264.019531 89.21875 264.207031 89.03125 264.4375 88.894531 C 264.675781 88.75 264.945312 88.675781 265.25 88.675781 C 265.550781 88.675781 265.820312 88.75 266.0625 88.894531 C 266.3125 89.03125 266.503906 89.21875 266.640625 89.457031 C 266.773438 89.699219 266.84375 89.964844 266.84375 90.253906 C 266.84375 90.546875 266.773438 90.816406 266.640625 91.066406 C 266.503906 91.308594 266.3125 91.5 266.0625 91.644531 C 265.820312 91.777344 265.550781 91.847656 265.25 91.847656 C 264.945312 91.847656 264.675781 91.777344 264.4375 91.644531 C 264.207031 91.5 264.019531 91.308594 263.875 91.066406 C 263.738281 90.816406 263.671875 90.546875 263.671875 90.253906 Z M 263.671875 90.253906 "/>
<path fill="none" stroke-width="2" stroke-linecap="butt" stroke-linejoin="miter" stroke="rgb(40.000001%, 40.000001%, 40.000001%)" stroke-opacity="1" stroke-miterlimit="10" d="M 249.999302 69.59939 L 279.760009 69.59939 " transform="matrix(0.751174, 0, 0, 0.751174, 0.000000000000021316, 0)"/>
<path fill-rule="nonzero" fill="rgb(40.000001%, 40.000001%, 40.000001%)" fill-opacity="1" stroke-width="2" stroke-linecap="butt" stroke-linejoin="miter" stroke="rgb(40.000001%, 40.000001%, 40.000001%)" stroke-opacity="1" stroke-miterlimit="10" d="M 287.757907 69.59939 L 279.760009 72.272289 L 279.760009 66.93169 Z M 287.757907 69.59939 " transform="matrix(0.751174, 0, 0, 0.751174, 0.000000000000021316, 0)"/>
</svg>
