<?xml version="1.0" encoding="UTF-8"?>
<svg xmlns="http://www.w3.org/2000/svg" xmlns:xlink="http://www.w3.org/1999/xlink" width="270.959991" height="100.079994" viewBox="0 0 270.959991 100.079994">
<path fill-rule="nonzero" fill="rgb(60.000002%, 60.000002%, 60.000002%)" fill-opacity="1" d="M 6.316406 29.101562 L 6.316406 12.335938 L 10.832031 12.335938 L 10.832031 13.632812 L 7.753906 13.632812 L 7.753906 27.820312 L 10.832031 27.820312 L 10.832031 29.101562 Z M 6.316406 29.101562 "/>
<path fill-rule="nonzero" fill="rgb(0%, 49.803922%, 100%)" fill-opacity="1" d="M 20.550781 14.617188 L 20.550781 26.664062 L 19.035156 26.664062 L 19.035156 16.257812 L 16.191406 17.992188 L 15.535156 16.914062 L 19.222656 14.617188 Z M 23.144531 25.789062 L 23.144531 27.023438 L 15.972656 27.023438 L 15.972656 25.789062 Z M 23.144531 25.789062 "/>
<path fill-rule="nonzero" fill="rgb(60.000002%, 60.000002%, 60.000002%)" fill-opacity="1" d="M 30.039062 24.054688 C 30.453125 24.054688 30.796875 24.203125 31.070312 24.492188 C 31.351562 24.773438 31.492188 25.113281 31.492188 25.507812 C 31.492188 25.71875 31.464844 25.9375 31.414062 26.164062 C 31.359375 26.382812 31.273438 26.632812 31.148438 26.914062 L 29.679688 30.257812 L 28.320312 30.257812 L 29.179688 26.695312 C 29 26.570312 28.859375 26.40625 28.757812 26.195312 C 28.652344 25.976562 28.601562 25.75 28.601562 25.507812 C 28.601562 25.101562 28.734375 24.757812 29.007812 24.476562 C 29.289062 24.195312 29.632812 24.054688 30.039062 24.054688 Z M 30.039062 24.054688 "/>
<path fill-rule="nonzero" fill="rgb(0%, 49.803922%, 100%)" fill-opacity="1" d="M 40.304688 14.414062 C 41.085938 14.414062 41.75 14.566406 42.304688 14.867188 C 42.855469 15.171875 43.28125 15.582031 43.585938 16.101562 C 43.886719 16.625 44.039062 17.21875 44.039062 17.882812 C 44.039062 18.457031 43.9375 19.015625 43.742188 19.554688 C 43.542969 20.097656 43.226562 20.671875 42.789062 21.273438 C 42.351562 21.867188 41.777344 22.53125 41.070312 23.257812 C 40.371094 23.976562 39.507812 24.804688 38.476562 25.742188 L 44.320312 25.742188 L 44.132812 27.023438 L 36.757812 27.023438 L 36.757812 25.789062 C 37.695312 24.894531 38.492188 24.113281 39.148438 23.445312 C 39.804688 22.769531 40.34375 22.179688 40.773438 21.679688 C 41.210938 21.171875 41.546875 20.707031 41.789062 20.289062 C 42.027344 19.875 42.195312 19.476562 42.289062 19.101562 C 42.390625 18.726562 42.445312 18.335938 42.445312 17.929688 C 42.445312 17.234375 42.246094 16.6875 41.851562 16.289062 C 41.453125 15.882812 40.914062 15.679688 40.226562 15.679688 C 39.609375 15.679688 39.105469 15.789062 38.710938 16.007812 C 38.324219 16.21875 37.9375 16.550781 37.554688 17.007812 L 36.507812 16.195312 C 36.996094 15.59375 37.542969 15.144531 38.148438 14.851562 C 38.75 14.5625 39.46875 14.414062 40.304688 14.414062 Z M 40.304688 14.414062 "/>
<path fill-rule="nonzero" fill="rgb(60.000002%, 60.000002%, 60.000002%)" fill-opacity="1" d="M 51.667969 24.054688 C 52.082031 24.054688 52.425781 24.203125 52.699219 24.492188 C 52.980469 24.773438 53.121094 25.113281 53.121094 25.507812 C 53.121094 25.71875 53.09375 25.9375 53.042969 26.164062 C 52.988281 26.382812 52.902344 26.632812 52.777344 26.914062 L 51.308594 30.257812 L 49.949219 30.257812 L 50.808594 26.695312 C 50.628906 26.570312 50.488281 26.40625 50.386719 26.195312 C 50.28125 25.976562 50.230469 25.75 50.230469 25.507812 C 50.230469 25.101562 50.363281 24.757812 50.636719 24.476562 C 50.917969 24.195312 51.261719 24.054688 51.667969 24.054688 Z M 51.667969 24.054688 "/>
<path fill-rule="nonzero" fill="rgb(0%, 49.803922%, 100%)" fill-opacity="1" d="M 61.917969 14.414062 C 62.699219 14.414062 63.371094 14.554688 63.933594 14.835938 C 64.496094 15.117188 64.933594 15.5 65.246094 15.976562 C 65.558594 16.445312 65.714844 16.960938 65.714844 17.523438 C 65.714844 18.023438 65.605469 18.476562 65.386719 18.882812 C 65.167969 19.289062 64.871094 19.628906 64.496094 19.898438 C 64.128906 20.160156 63.730469 20.332031 63.292969 20.414062 C 63.78125 20.445312 64.238281 20.582031 64.667969 20.820312 C 65.09375 21.0625 65.441406 21.398438 65.714844 21.835938 C 65.984375 22.265625 66.121094 22.800781 66.121094 23.445312 C 66.121094 24.164062 65.9375 24.8125 65.574219 25.382812 C 65.21875 25.957031 64.71875 26.410156 64.074219 26.742188 C 63.425781 27.0625 62.671875 27.226562 61.808594 27.226562 C 61.121094 27.226562 60.433594 27.09375 59.746094 26.835938 C 59.058594 26.578125 58.472656 26.15625 57.996094 25.570312 L 59.027344 24.742188 C 59.378906 25.160156 59.800781 25.472656 60.292969 25.679688 C 60.78125 25.878906 61.277344 25.976562 61.777344 25.976562 C 62.640625 25.976562 63.3125 25.753906 63.792969 25.304688 C 64.28125 24.847656 64.527344 24.226562 64.527344 23.445312 C 64.527344 22.863281 64.410156 22.398438 64.183594 22.054688 C 63.964844 21.710938 63.660156 21.46875 63.277344 21.320312 C 62.890625 21.175781 62.453125 21.101562 61.964844 21.101562 L 60.917969 21.101562 L 61.105469 19.898438 L 61.839844 19.898438 C 62.246094 19.898438 62.625 19.828125 62.980469 19.679688 C 63.332031 19.523438 63.625 19.285156 63.855469 18.960938 C 64.082031 18.628906 64.199219 18.222656 64.199219 17.742188 C 64.199219 17.054688 63.96875 16.535156 63.511719 16.179688 C 63.050781 15.816406 62.5 15.632812 61.855469 15.632812 C 61.3125 15.632812 60.839844 15.726562 60.433594 15.914062 C 60.035156 16.101562 59.636719 16.390625 59.230469 16.773438 L 58.386719 15.851562 C 58.917969 15.351562 59.480469 14.988281 60.074219 14.757812 C 60.667969 14.53125 61.28125 14.414062 61.917969 14.414062 Z M 61.917969 14.414062 "/>
<path fill-rule="nonzero" fill="rgb(60.000002%, 60.000002%, 60.000002%)" fill-opacity="1" d="M 73.296875 24.054688 C 73.710938 24.054688 74.054688 24.203125 74.328125 24.492188 C 74.609375 24.773438 74.75 25.113281 74.75 25.507812 C 74.75 25.71875 74.722656 25.9375 74.671875 26.164062 C 74.617188 26.382812 74.53125 26.632812 74.40625 26.914062 L 72.9375 30.257812 L 71.578125 30.257812 L 72.4375 26.695312 C 72.257812 26.570312 72.117188 26.40625 72.015625 26.195312 C 71.910156 25.976562 71.859375 25.75 71.859375 25.507812 C 71.859375 25.101562 71.992188 24.757812 72.265625 24.476562 C 72.546875 24.195312 72.890625 24.054688 73.296875 24.054688 Z M 73.296875 24.054688 "/>
<path fill-rule="nonzero" fill="rgb(60.000002%, 60.000002%, 60.000002%)" fill-opacity="1" d="M 84.6875 25.632812 C 84.6875 25.34375 84.757812 25.078125 84.890625 24.835938 C 85.027344 24.597656 85.214844 24.410156 85.453125 24.273438 C 85.695312 24.128906 85.964844 24.054688 86.265625 24.054688 C 86.570312 24.054688 86.839844 24.128906 87.078125 24.273438 C 87.320312 24.410156 87.511719 24.597656 87.65625 24.835938 C 87.792969 25.078125 87.859375 25.34375 87.859375 25.632812 C 87.859375 25.925781 87.792969 26.195312 87.65625 26.445312 C 87.511719 26.6875 87.320312 26.878906 87.078125 27.023438 C 86.839844 27.15625 86.570312 27.226562 86.265625 27.226562 C 85.964844 27.226562 85.695312 27.15625 85.453125 27.023438 C 85.214844 26.878906 85.027344 26.6875 84.890625 26.445312 C 84.757812 26.195312 84.6875 25.925781 84.6875 25.632812 Z M 91.171875 25.632812 C 91.171875 25.34375 91.238281 25.078125 91.375 24.835938 C 91.507812 24.597656 91.695312 24.410156 91.9375 24.273438 C 92.175781 24.128906 92.445312 24.054688 92.75 24.054688 C 93.050781 24.054688 93.320312 24.128906 93.5625 24.273438 C 93.800781 24.410156 93.988281 24.597656 94.125 24.835938 C 94.269531 25.078125 94.34375 25.34375 94.34375 25.632812 C 94.34375 25.925781 94.269531 26.195312 94.125 26.445312 C 93.988281 26.6875 93.800781 26.878906 93.5625 27.023438 C 93.320312 27.15625 93.050781 27.226562 92.75 27.226562 C 92.445312 27.226562 92.175781 27.15625 91.9375 27.023438 C 91.695312 26.878906 91.507812 26.6875 91.375 26.445312 C 91.238281 26.195312 91.171875 25.925781 91.171875 25.632812 Z M 91.171875 25.632812 "/>
<path fill-rule="nonzero" fill="rgb(60.000002%, 60.000002%, 60.000002%)" fill-opacity="1" d="M 6.316406 50.121094 L 6.316406 33.355469 L 10.832031 33.355469 L 10.832031 34.652344 L 7.753906 34.652344 L 7.753906 48.839844 L 10.832031 48.839844 L 10.832031 50.121094 Z M 6.316406 50.121094 "/>
<path fill-rule="nonzero" fill="rgb(100%, 50.196081%, 0%)" fill-opacity="1" d="M 22.425781 45.964844 C 22.425781 46.351562 22.488281 46.632812 22.613281 46.808594 C 22.738281 46.976562 22.929688 47.101562 23.191406 47.183594 L 22.832031 48.246094 C 22.414062 48.191406 22.054688 48.0625 21.753906 47.855469 C 21.449219 47.648438 21.226562 47.335938 21.082031 46.917969 C 20.738281 47.355469 20.308594 47.691406 19.800781 47.917969 C 19.289062 48.136719 18.726562 48.246094 18.113281 48.246094 C 17.164062 48.246094 16.414062 47.980469 15.863281 47.449219 C 15.320312 46.917969 15.050781 46.210938 15.050781 45.324219 C 15.050781 44.347656 15.429688 43.597656 16.191406 43.074219 C 16.949219 42.554688 18.054688 42.292969 19.503906 42.292969 L 20.894531 42.292969 L 20.894531 41.496094 C 20.894531 40.808594 20.691406 40.324219 20.285156 40.042969 C 19.886719 39.753906 19.335938 39.605469 18.628906 39.605469 C 18.316406 39.605469 17.949219 39.648438 17.535156 39.730469 C 17.117188 39.804688 16.660156 39.929688 16.160156 40.105469 L 15.769531 38.949219 C 16.351562 38.742188 16.898438 38.589844 17.410156 38.496094 C 17.917969 38.402344 18.402344 38.355469 18.863281 38.355469 C 20.050781 38.355469 20.941406 38.632812 21.535156 39.183594 C 22.128906 39.738281 22.425781 40.480469 22.425781 41.417969 Z M 18.503906 47.089844 C 18.972656 47.089844 19.417969 46.976562 19.847656 46.746094 C 20.273438 46.507812 20.621094 46.179688 20.894531 45.761719 L 20.894531 43.308594 L 19.535156 43.308594 C 18.480469 43.308594 17.742188 43.492188 17.316406 43.855469 C 16.886719 44.222656 16.675781 44.707031 16.675781 45.308594 C 16.675781 45.894531 16.824219 46.335938 17.128906 46.636719 C 17.429688 46.941406 17.886719 47.089844 18.503906 47.089844 Z M 18.503906 47.089844 "/>
<path fill-rule="nonzero" fill="rgb(60.000002%, 60.000002%, 60.000002%)" fill-opacity="1" d="M 30.039062 45.074219 C 30.453125 45.074219 30.796875 45.222656 31.070312 45.511719 C 31.351562 45.792969 31.492188 46.132812 31.492188 46.527344 C 31.492188 46.738281 31.464844 46.957031 31.414062 47.183594 C 31.359375 47.402344 31.273438 47.652344 31.148438 47.933594 L 29.679688 51.277344 L 28.320312 51.277344 L 29.179688 47.714844 C 29 47.589844 28.859375 47.425781 28.757812 47.214844 C 28.652344 46.996094 28.601562 46.769531 28.601562 46.527344 C 28.601562 46.121094 28.734375 45.777344 29.007812 45.496094 C 29.289062 45.214844 29.632812 45.074219 30.039062 45.074219 Z M 30.039062 45.074219 "/>
<path fill-rule="nonzero" fill="rgb(100%, 50.196081%, 0%)" fill-opacity="1" d="M 38.773438 39.792969 C 39.117188 39.335938 39.511719 38.980469 39.960938 38.730469 C 40.417969 38.480469 40.921875 38.355469 41.476562 38.355469 C 42.320312 38.355469 43 38.566406 43.523438 38.980469 C 44.042969 39.386719 44.421875 39.960938 44.664062 40.699219 C 44.902344 41.441406 45.023438 42.304688 45.023438 43.292969 C 45.023438 44.253906 44.875 45.105469 44.585938 45.855469 C 44.304688 46.597656 43.882812 47.179688 43.320312 47.605469 C 42.765625 48.035156 42.085938 48.246094 41.273438 48.246094 C 40.167969 48.246094 39.308594 47.851562 38.695312 47.058594 L 38.585938 48.042969 L 37.257812 48.042969 L 37.257812 34.730469 L 38.773438 34.542969 Z M 40.914062 47.027344 C 41.703125 47.027344 42.3125 46.722656 42.742188 46.105469 C 43.167969 45.492188 43.382812 44.554688 43.382812 43.292969 C 43.382812 42.460938 43.296875 41.773438 43.132812 41.230469 C 42.964844 40.679688 42.714844 40.269531 42.382812 39.996094 C 42.046875 39.714844 41.636719 39.574219 41.148438 39.574219 C 40.617188 39.574219 40.152344 39.738281 39.757812 40.058594 C 39.359375 40.371094 39.03125 40.722656 38.773438 41.105469 L 38.773438 45.792969 C 39.011719 46.167969 39.320312 46.472656 39.695312 46.699219 C 40.070312 46.917969 40.476562 47.027344 40.914062 47.027344 Z M 40.914062 47.027344 "/>
<path fill-rule="nonzero" fill="rgb(60.000002%, 60.000002%, 60.000002%)" fill-opacity="1" d="M 51.667969 45.074219 C 52.082031 45.074219 52.425781 45.222656 52.699219 45.511719 C 52.980469 45.792969 53.121094 46.132812 53.121094 46.527344 C 53.121094 46.738281 53.09375 46.957031 53.042969 47.183594 C 52.988281 47.402344 52.902344 47.652344 52.777344 47.933594 L 51.308594 51.277344 L 49.949219 51.277344 L 50.808594 47.714844 C 50.628906 47.589844 50.488281 47.425781 50.386719 47.214844 C 50.28125 46.996094 50.230469 46.769531 50.230469 46.527344 C 50.230469 46.121094 50.363281 45.777344 50.636719 45.496094 C 50.917969 45.214844 51.261719 45.074219 51.667969 45.074219 Z M 51.667969 45.074219 "/>
<path fill-rule="nonzero" fill="rgb(100%, 50.196081%, 0%)" fill-opacity="1" d="M 63.167969 46.949219 C 63.644531 46.949219 64.089844 46.871094 64.496094 46.714844 C 64.910156 46.558594 65.292969 46.363281 65.636719 46.121094 L 66.386719 47.105469 C 65.96875 47.460938 65.46875 47.742188 64.886719 47.949219 C 64.300781 48.144531 63.730469 48.246094 63.167969 48.246094 C 62.230469 48.246094 61.425781 48.042969 60.761719 47.636719 C 60.09375 47.230469 59.589844 46.664062 59.246094 45.933594 C 58.902344 45.195312 58.730469 44.332031 58.730469 43.339844 C 58.730469 42.394531 58.902344 41.542969 59.246094 40.792969 C 59.597656 40.035156 60.105469 39.441406 60.761719 39.011719 C 61.425781 38.574219 62.234375 38.355469 63.183594 38.355469 C 63.796875 38.355469 64.371094 38.449219 64.902344 38.636719 C 65.433594 38.816406 65.917969 39.089844 66.355469 39.464844 L 65.621094 40.464844 C 65.214844 40.183594 64.808594 39.976562 64.402344 39.839844 C 64.003906 39.695312 63.59375 39.621094 63.167969 39.621094 C 62.355469 39.621094 61.683594 39.929688 61.152344 40.542969 C 60.621094 41.160156 60.355469 42.089844 60.355469 43.339844 C 60.355469 44.183594 60.472656 44.871094 60.714844 45.402344 C 60.964844 45.933594 61.296875 46.324219 61.714844 46.574219 C 62.140625 46.824219 62.625 46.949219 63.167969 46.949219 Z M 63.167969 46.949219 "/>
<path fill-rule="nonzero" fill="rgb(60.000002%, 60.000002%, 60.000002%)" fill-opacity="1" d="M 73.296875 45.074219 C 73.710938 45.074219 74.054688 45.222656 74.328125 45.511719 C 74.609375 45.792969 74.75 46.132812 74.75 46.527344 C 74.75 46.738281 74.722656 46.957031 74.671875 47.183594 C 74.617188 47.402344 74.53125 47.652344 74.40625 47.933594 L 72.9375 51.277344 L 71.578125 51.277344 L 72.4375 47.714844 C 72.257812 47.589844 72.117188 47.425781 72.015625 47.214844 C 71.910156 46.996094 71.859375 46.769531 71.859375 46.527344 C 71.859375 46.121094 71.992188 45.777344 72.265625 45.496094 C 72.546875 45.214844 72.890625 45.074219 73.296875 45.074219 Z M 73.296875 45.074219 "/>
<path fill-rule="nonzero" fill="rgb(60.000002%, 60.000002%, 60.000002%)" fill-opacity="1" d="M 84.6875 46.652344 C 84.6875 46.363281 84.757812 46.097656 84.890625 45.855469 C 85.027344 45.617188 85.214844 45.429688 85.453125 45.292969 C 85.695312 45.148438 85.964844 45.074219 86.265625 45.074219 C 86.570312 45.074219 86.839844 45.148438 87.078125 45.292969 C 87.320312 45.429688 87.511719 45.617188 87.65625 45.855469 C 87.792969 46.097656 87.859375 46.363281 87.859375 46.652344 C 87.859375 46.945312 87.792969 47.214844 87.65625 47.464844 C 87.511719 47.707031 87.320312 47.898438 87.078125 48.042969 C 86.839844 48.175781 86.570312 48.246094 86.265625 48.246094 C 85.964844 48.246094 85.695312 48.175781 85.453125 48.042969 C 85.214844 47.898438 85.027344 47.707031 84.890625 47.464844 C 84.757812 47.214844 84.6875 46.945312 84.6875 46.652344 Z M 91.171875 46.652344 C 91.171875 46.363281 91.238281 46.097656 91.375 45.855469 C 91.507812 45.617188 91.695312 45.429688 91.9375 45.292969 C 92.175781 45.148438 92.445312 45.074219 92.75 45.074219 C 93.050781 45.074219 93.320312 45.148438 93.5625 45.292969 C 93.800781 45.429688 93.988281 45.617188 94.125 45.855469 C 94.269531 46.097656 94.34375 46.363281 94.34375 46.652344 C 94.34375 46.945312 94.269531 47.214844 94.125 47.464844 C 93.988281 47.707031 93.800781 47.898438 93.5625 48.042969 C 93.320312 48.175781 93.050781 48.246094 92.75 48.246094 C 92.445312 48.246094 92.175781 48.175781 91.9375 48.042969 C 91.695312 47.898438 91.507812 47.707031 91.375 47.464844 C 91.238281 47.214844 91.171875 46.945312 91.171875 46.652344 Z M 91.171875 46.652344 "/>
<path fill-rule="nonzero" fill="rgb(60.000002%, 60.000002%, 60.000002%)" fill-opacity="1" d="M 6.316406 72.644531 L 6.316406 55.878906 L 10.832031 55.878906 L 10.832031 57.175781 L 7.753906 57.175781 L 7.753906 71.363281 L 10.832031 71.363281 L 10.832031 72.644531 Z M 6.316406 72.644531 "/>
<path fill-rule="nonzero" fill="rgb(30.19608%, 60.000002%, 0%)" fill-opacity="1" d="M 18.410156 60.878906 C 18.941406 60.878906 19.402344 60.972656 19.800781 61.160156 C 20.195312 61.339844 20.527344 61.644531 20.800781 62.082031 C 21.070312 62.511719 21.269531 63.105469 21.394531 63.863281 L 21.894531 61.082031 L 23.269531 61.082031 L 22.347656 66.128906 L 22.816406 68.597656 C 22.867188 68.847656 22.957031 69.042969 23.082031 69.175781 C 23.207031 69.3125 23.382812 69.425781 23.613281 69.519531 L 23.082031 70.785156 C 22.632812 70.710938 22.261719 70.542969 21.972656 70.269531 C 21.691406 69.988281 21.507812 69.59375 21.425781 69.082031 L 21.269531 68.066406 C 21.101562 68.546875 20.886719 68.996094 20.628906 69.410156 C 20.378906 69.816406 20.066406 70.144531 19.691406 70.394531 C 19.316406 70.644531 18.855469 70.769531 18.316406 70.769531 C 17.230469 70.769531 16.382812 70.371094 15.769531 69.566406 C 15.164062 68.765625 14.863281 67.546875 14.863281 65.910156 C 14.863281 64.933594 14.992188 64.066406 15.253906 63.316406 C 15.523438 62.558594 15.917969 61.964844 16.441406 61.535156 C 16.960938 61.097656 17.617188 60.878906 18.410156 60.878906 Z M 18.535156 62.097656 C 17.878906 62.097656 17.371094 62.425781 17.019531 63.082031 C 16.675781 63.730469 16.503906 64.671875 16.503906 65.910156 C 16.503906 67.160156 16.664062 68.082031 16.988281 68.675781 C 17.320312 69.261719 17.808594 69.550781 18.457031 69.550781 C 18.675781 69.550781 18.898438 69.503906 19.128906 69.410156 C 19.367188 69.308594 19.597656 69.125 19.816406 68.863281 C 20.042969 68.59375 20.261719 68.207031 20.472656 67.707031 C 20.679688 67.207031 20.855469 66.558594 21.003906 65.753906 C 20.835938 64.785156 20.632812 64.035156 20.394531 63.503906 C 20.164062 62.972656 19.894531 62.609375 19.582031 62.410156 C 19.277344 62.203125 18.929688 62.097656 18.535156 62.097656 Z M 18.535156 62.097656 "/>
<path fill-rule="nonzero" fill="rgb(60.000002%, 60.000002%, 60.000002%)" fill-opacity="1" d="M 30.039062 67.597656 C 30.453125 67.597656 30.796875 67.746094 31.070312 68.035156 C 31.351562 68.316406 31.492188 68.65625 31.492188 69.050781 C 31.492188 69.261719 31.464844 69.480469 31.414062 69.707031 C 31.359375 69.925781 31.273438 70.175781 31.148438 70.457031 L 29.679688 73.800781 L 28.320312 73.800781 L 29.179688 70.238281 C 29 70.113281 28.859375 69.949219 28.757812 69.738281 C 28.652344 69.519531 28.601562 69.292969 28.601562 69.050781 C 28.601562 68.644531 28.734375 68.300781 29.007812 68.019531 C 29.289062 67.738281 29.632812 67.597656 30.039062 67.597656 Z M 30.039062 67.597656 "/>
<path fill-rule="nonzero" fill="rgb(30.19608%, 60.000002%, 0%)" fill-opacity="1" d="M 40.695312 57.082031 C 41.351562 57.082031 41.949219 57.207031 42.492188 57.457031 C 43.042969 57.707031 43.484375 58.074219 43.820312 58.550781 C 44.152344 59.03125 44.320312 59.605469 44.320312 60.269531 C 44.320312 60.90625 44.195312 61.4375 43.945312 61.863281 C 43.703125 62.28125 43.375 62.609375 42.960938 62.847656 C 42.554688 63.078125 42.101562 63.230469 41.601562 63.300781 C 42.027344 63.34375 42.460938 63.433594 42.898438 63.566406 C 43.335938 63.691406 43.734375 63.890625 44.101562 64.160156 C 44.464844 64.421875 44.757812 64.777344 44.976562 65.222656 C 45.195312 65.671875 45.304688 66.238281 45.304688 66.925781 C 45.304688 67.71875 45.109375 68.402344 44.726562 68.972656 C 44.351562 69.546875 43.859375 69.988281 43.257812 70.300781 C 42.652344 70.613281 42 70.769531 41.304688 70.769531 C 40.742188 70.769531 40.195312 70.664062 39.664062 70.457031 C 39.140625 70.238281 38.65625 69.917969 38.210938 69.488281 L 38.460938 68.457031 C 38.78125 68.832031 39.164062 69.109375 39.601562 69.285156 C 40.039062 69.453125 40.558594 69.535156 41.164062 69.535156 C 41.632812 69.535156 42.0625 69.4375 42.460938 69.238281 C 42.855469 69.042969 43.167969 68.75 43.398438 68.363281 C 43.636719 67.96875 43.757812 67.488281 43.757812 66.925781 C 43.757812 65.957031 43.476562 65.222656 42.914062 64.722656 C 42.359375 64.222656 41.5625 63.972656 40.523438 63.972656 L 39.539062 63.972656 L 39.710938 62.816406 L 40.664062 62.816406 C 41.078125 62.816406 41.453125 62.734375 41.789062 62.566406 C 42.132812 62.402344 42.402344 62.140625 42.601562 61.785156 C 42.808594 61.433594 42.914062 60.972656 42.914062 60.410156 C 42.914062 59.671875 42.703125 59.136719 42.289062 58.800781 C 41.871094 58.457031 41.351562 58.285156 40.726562 58.285156 C 40.027344 58.285156 39.496094 58.5 39.132812 58.925781 C 38.777344 59.34375 38.601562 59.988281 38.601562 60.863281 L 38.601562 74.191406 L 37.085938 74.394531 L 37.085938 60.832031 C 37.085938 60.050781 37.230469 59.386719 37.523438 58.832031 C 37.8125 58.269531 38.226562 57.839844 38.757812 57.535156 C 39.296875 57.234375 39.945312 57.082031 40.695312 57.082031 Z M 40.695312 57.082031 "/>
<path fill-rule="nonzero" fill="rgb(60.000002%, 60.000002%, 60.000002%)" fill-opacity="1" d="M 51.667969 67.597656 C 52.082031 67.597656 52.425781 67.746094 52.699219 68.035156 C 52.980469 68.316406 53.121094 68.65625 53.121094 69.050781 C 53.121094 69.261719 53.09375 69.480469 53.042969 69.707031 C 52.988281 69.925781 52.902344 70.175781 52.777344 70.457031 L 51.308594 73.800781 L 49.949219 73.800781 L 50.808594 70.238281 C 50.628906 70.113281 50.488281 69.949219 50.386719 69.738281 C 50.28125 69.519531 50.230469 69.292969 50.230469 69.050781 C 50.230469 68.644531 50.363281 68.300781 50.636719 68.019531 C 50.917969 67.738281 51.261719 67.597656 51.667969 67.597656 Z M 51.667969 67.597656 "/>
<path fill-rule="nonzero" fill="rgb(30.19608%, 60.000002%, 0%)" fill-opacity="1" d="M 65.574219 60.863281 L 67.105469 61.207031 L 63.214844 70.253906 C 62.953125 70.847656 62.800781 71.449219 62.761719 72.066406 C 62.730469 72.679688 62.808594 73.386719 62.996094 74.191406 L 61.777344 74.394531 C 61.578125 74.007812 61.441406 73.574219 61.371094 73.097656 C 61.308594 72.617188 61.300781 72.128906 61.355469 71.628906 C 61.40625 71.136719 61.519531 70.667969 61.699219 70.222656 C 61.5 69.378906 61.253906 68.515625 60.964844 67.628906 C 60.683594 66.746094 60.371094 65.902344 60.027344 65.097656 C 59.683594 64.285156 59.324219 63.5625 58.949219 62.925781 C 58.582031 62.28125 58.21875 61.785156 57.855469 61.441406 L 59.386719 60.894531 C 59.800781 61.375 60.203125 62.003906 60.589844 62.785156 C 60.984375 63.566406 61.347656 64.453125 61.683594 65.441406 C 62.027344 66.433594 62.316406 67.496094 62.558594 68.628906 Z M 65.574219 60.863281 "/>
<path fill-rule="nonzero" fill="rgb(60.000002%, 60.000002%, 60.000002%)" fill-opacity="1" d="M 73.296875 67.597656 C 73.710938 67.597656 74.054688 67.746094 74.328125 68.035156 C 74.609375 68.316406 74.75 68.65625 74.75 69.050781 C 74.75 69.261719 74.722656 69.480469 74.671875 69.707031 C 74.617188 69.925781 74.53125 70.175781 74.40625 70.457031 L 72.9375 73.800781 L 71.578125 73.800781 L 72.4375 70.238281 C 72.257812 70.113281 72.117188 69.949219 72.015625 69.738281 C 71.910156 69.519531 71.859375 69.292969 71.859375 69.050781 C 71.859375 68.644531 71.992188 68.300781 72.265625 68.019531 C 72.546875 67.738281 72.890625 67.597656 73.296875 67.597656 Z M 73.296875 67.597656 "/>
<path fill-rule="nonzero" fill="rgb(60.000002%, 60.000002%, 60.000002%)" fill-opacity="1" d="M 84.6875 69.175781 C 84.6875 68.886719 84.757812 68.621094 84.890625 68.378906 C 85.027344 68.140625 85.214844 67.953125 85.453125 67.816406 C 85.695312 67.671875 85.964844 67.597656 86.265625 67.597656 C 86.570312 67.597656 86.839844 67.671875 87.078125 67.816406 C 87.320312 67.953125 87.511719 68.140625 87.65625 68.378906 C 87.792969 68.621094 87.859375 68.886719 87.859375 69.175781 C 87.859375 69.46875 87.792969 69.738281 87.65625 69.988281 C 87.511719 70.230469 87.320312 70.421875 87.078125 70.566406 C 86.839844 70.699219 86.570312 70.769531 86.265625 70.769531 C 85.964844 70.769531 85.695312 70.699219 85.453125 70.566406 C 85.214844 70.421875 85.027344 70.230469 84.890625 69.988281 C 84.757812 69.738281 84.6875 69.46875 84.6875 69.175781 Z M 91.171875 69.175781 C 91.171875 68.886719 91.238281 68.621094 91.375 68.378906 C 91.507812 68.140625 91.695312 67.953125 91.9375 67.816406 C 92.175781 67.671875 92.445312 67.597656 92.75 67.597656 C 93.050781 67.597656 93.320312 67.671875 93.5625 67.816406 C 93.800781 67.953125 93.988281 68.140625 94.125 68.378906 C 94.269531 68.621094 94.34375 68.886719 94.34375 69.175781 C 94.34375 69.46875 94.269531 69.738281 94.125 69.988281 C 93.988281 70.230469 93.800781 70.421875 93.5625 70.566406 C 93.320312 70.699219 93.050781 70.769531 92.75 70.769531 C 92.445312 70.769531 92.175781 70.699219 91.9375 70.566406 C 91.695312 70.421875 91.507812 70.230469 91.375 69.988281 C 91.238281 69.738281 91.171875 69.46875 91.171875 69.175781 Z M 91.171875 69.175781 "/>
<path fill-rule="nonzero" fill="rgb(60.000002%, 60.000002%, 60.000002%)" fill-opacity="1" d="M 171.46875 29.101562 L 171.46875 12.335938 L 175.984375 12.335938 L 175.984375 13.632812 L 172.90625 13.632812 L 172.90625 27.820312 L 175.984375 27.820312 L 175.984375 29.101562 Z M 171.46875 29.101562 "/>
<path fill-rule="nonzero" fill="rgb(60.000002%, 60.000002%, 60.000002%)" fill-opacity="1" d="M 182.792969 20.710938 C 182.792969 21.648438 182.871094 22.492188 183.027344 23.242188 C 183.191406 23.984375 183.433594 24.660156 183.746094 25.273438 C 184.066406 25.890625 184.46875 26.472656 184.949219 27.023438 C 185.4375 27.585938 186.003906 28.148438 186.652344 28.710938 L 185.855469 29.539062 C 184.886719 28.746094 184.050781 27.929688 183.355469 27.085938 C 182.65625 26.253906 182.125 25.328125 181.761719 24.304688 C 181.394531 23.273438 181.214844 22.078125 181.214844 20.710938 C 181.214844 19.347656 181.394531 18.15625 181.761719 17.132812 C 182.125 16.101562 182.65625 15.171875 183.355469 14.335938 C 184.050781 13.503906 184.886719 12.6875 185.855469 11.882812 L 186.652344 12.726562 C 185.996094 13.300781 185.425781 13.867188 184.949219 14.429688 C 184.46875 14.984375 184.066406 15.566406 183.746094 16.179688 C 183.433594 16.785156 183.191406 17.457031 183.027344 18.195312 C 182.871094 18.9375 182.792969 19.773438 182.792969 20.710938 Z M 182.792969 20.710938 "/>
<path fill-rule="nonzero" fill="rgb(0%, 49.803922%, 100%)" fill-opacity="1" d="M 196.519531 14.617188 L 196.519531 26.664062 L 195.003906 26.664062 L 195.003906 16.257812 L 192.160156 17.992188 L 191.503906 16.914062 L 195.191406 14.617188 Z M 199.113281 25.789062 L 199.113281 27.023438 L 191.941406 27.023438 L 191.941406 25.789062 Z M 199.113281 25.789062 "/>
<path fill-rule="nonzero" fill="rgb(60.000002%, 60.000002%, 60.000002%)" fill-opacity="1" d="M 206.003906 24.054688 C 206.417969 24.054688 206.761719 24.203125 207.035156 24.492188 C 207.316406 24.773438 207.457031 25.113281 207.457031 25.507812 C 207.457031 25.71875 207.429688 25.9375 207.378906 26.164062 C 207.324219 26.382812 207.238281 26.632812 207.113281 26.914062 L 205.644531 30.257812 L 204.285156 30.257812 L 205.144531 26.695312 C 204.964844 26.570312 204.824219 26.40625 204.722656 26.195312 C 204.617188 25.976562 204.566406 25.75 204.566406 25.507812 C 204.566406 25.101562 204.699219 24.757812 204.972656 24.476562 C 205.253906 24.195312 205.597656 24.054688 206.003906 24.054688 Z M 206.003906 24.054688 "/>
<path fill-rule="nonzero" fill="rgb(100%, 50.196081%, 0%)" fill-opacity="1" d="M 220.023438 24.945312 C 220.023438 25.332031 220.085938 25.613281 220.210938 25.789062 C 220.335938 25.957031 220.527344 26.082031 220.789062 26.164062 L 220.429688 27.226562 C 220.011719 27.171875 219.652344 27.042969 219.351562 26.835938 C 219.046875 26.628906 218.824219 26.316406 218.679688 25.898438 C 218.335938 26.335938 217.90625 26.671875 217.398438 26.898438 C 216.886719 27.117188 216.324219 27.226562 215.710938 27.226562 C 214.761719 27.226562 214.011719 26.960938 213.460938 26.429688 C 212.917969 25.898438 212.648438 25.191406 212.648438 24.304688 C 212.648438 23.328125 213.027344 22.578125 213.789062 22.054688 C 214.546875 21.535156 215.652344 21.273438 217.101562 21.273438 L 218.492188 21.273438 L 218.492188 20.476562 C 218.492188 19.789062 218.289062 19.304688 217.882812 19.023438 C 217.484375 18.734375 216.933594 18.585938 216.226562 18.585938 C 215.914062 18.585938 215.546875 18.628906 215.132812 18.710938 C 214.714844 18.785156 214.257812 18.910156 213.757812 19.085938 L 213.367188 17.929688 C 213.949219 17.722656 214.496094 17.570312 215.007812 17.476562 C 215.515625 17.382812 216 17.335938 216.460938 17.335938 C 217.648438 17.335938 218.539062 17.613281 219.132812 18.164062 C 219.726562 18.71875 220.023438 19.460938 220.023438 20.398438 Z M 216.101562 26.070312 C 216.570312 26.070312 217.015625 25.957031 217.445312 25.726562 C 217.871094 25.488281 218.21875 25.160156 218.492188 24.742188 L 218.492188 22.289062 L 217.132812 22.289062 C 216.078125 22.289062 215.339844 22.472656 214.914062 22.835938 C 214.484375 23.203125 214.273438 23.6875 214.273438 24.289062 C 214.273438 24.875 214.421875 25.316406 214.726562 25.617188 C 215.027344 25.921875 215.484375 26.070312 216.101562 26.070312 Z M 216.101562 26.070312 "/>
<path fill-rule="nonzero" fill="rgb(60.000002%, 60.000002%, 60.000002%)" fill-opacity="1" d="M 227.632812 24.054688 C 228.046875 24.054688 228.390625 24.203125 228.664062 24.492188 C 228.945312 24.773438 229.085938 25.113281 229.085938 25.507812 C 229.085938 25.71875 229.058594 25.9375 229.007812 26.164062 C 228.953125 26.382812 228.867188 26.632812 228.742188 26.914062 L 227.273438 30.257812 L 225.914062 30.257812 L 226.773438 26.695312 C 226.59375 26.570312 226.453125 26.40625 226.351562 26.195312 C 226.246094 25.976562 226.195312 25.75 226.195312 25.507812 C 226.195312 25.101562 226.328125 24.757812 226.601562 24.476562 C 226.882812 24.195312 227.226562 24.054688 227.632812 24.054688 Z M 227.632812 24.054688 "/>
<path fill-rule="nonzero" fill="rgb(30.19608%, 60.000002%, 0%)" fill-opacity="1" d="M 237.636719 17.335938 C 238.167969 17.335938 238.628906 17.429688 239.027344 17.617188 C 239.421875 17.796875 239.753906 18.101562 240.027344 18.539062 C 240.296875 18.96875 240.496094 19.5625 240.621094 20.320312 L 241.121094 17.539062 L 242.496094 17.539062 L 241.574219 22.585938 L 242.042969 25.054688 C 242.09375 25.304688 242.183594 25.5 242.308594 25.632812 C 242.433594 25.769531 242.609375 25.882812 242.839844 25.976562 L 242.308594 27.242188 C 241.859375 27.167969 241.488281 27 241.199219 26.726562 C 240.917969 26.445312 240.734375 26.050781 240.652344 25.539062 L 240.496094 24.523438 C 240.328125 25.003906 240.113281 25.453125 239.855469 25.867188 C 239.605469 26.273438 239.292969 26.601562 238.917969 26.851562 C 238.542969 27.101562 238.082031 27.226562 237.542969 27.226562 C 236.457031 27.226562 235.609375 26.828125 234.996094 26.023438 C 234.390625 25.222656 234.089844 24.003906 234.089844 22.367188 C 234.089844 21.390625 234.21875 20.523438 234.480469 19.773438 C 234.75 19.015625 235.144531 18.421875 235.667969 17.992188 C 236.1875 17.554688 236.84375 17.335938 237.636719 17.335938 Z M 237.761719 18.554688 C 237.105469 18.554688 236.597656 18.882812 236.246094 19.539062 C 235.902344 20.1875 235.730469 21.128906 235.730469 22.367188 C 235.730469 23.617188 235.890625 24.539062 236.214844 25.132812 C 236.546875 25.71875 237.035156 26.007812 237.683594 26.007812 C 237.902344 26.007812 238.125 25.960938 238.355469 25.867188 C 238.59375 25.765625 238.824219 25.582031 239.042969 25.320312 C 239.269531 25.050781 239.488281 24.664062 239.699219 24.164062 C 239.90625 23.664062 240.082031 23.015625 240.230469 22.210938 C 240.0625 21.242188 239.859375 20.492188 239.621094 19.960938 C 239.390625 19.429688 239.121094 19.066406 238.808594 18.867188 C 238.503906 18.660156 238.15625 18.554688 237.761719 18.554688 Z M 237.761719 18.554688 "/>
<path fill-rule="nonzero" fill="rgb(60.000002%, 60.000002%, 60.000002%)" fill-opacity="1" d="M 250.84375 20.710938 C 250.84375 19.773438 250.757812 18.9375 250.59375 18.195312 C 250.4375 17.457031 250.195312 16.785156 249.875 16.179688 C 249.5625 15.566406 249.160156 14.984375 248.671875 14.429688 C 248.191406 13.867188 247.628906 13.300781 246.984375 12.726562 L 247.78125 11.882812 C 248.757812 12.6875 249.59375 13.503906 250.28125 14.335938 C 250.96875 15.171875 251.492188 16.101562 251.859375 17.132812 C 252.234375 18.15625 252.421875 19.347656 252.421875 20.710938 C 252.421875 22.078125 252.234375 23.273438 251.859375 24.304688 C 251.492188 25.328125 250.96875 26.253906 250.28125 27.085938 C 249.59375 27.929688 248.757812 28.746094 247.78125 29.539062 L 246.984375 28.710938 C 247.628906 28.148438 248.191406 27.585938 248.671875 27.023438 C 249.160156 26.472656 249.5625 25.890625 249.875 25.273438 C 250.195312 24.660156 250.4375 23.984375 250.59375 23.242188 C 250.757812 22.492188 250.84375 21.648438 250.84375 20.710938 Z M 250.84375 20.710938 "/>
<path fill-rule="nonzero" fill="rgb(60.000002%, 60.000002%, 60.000002%)" fill-opacity="1" d="M 260.078125 24.054688 C 260.492188 24.054688 260.835938 24.203125 261.109375 24.492188 C 261.390625 24.773438 261.53125 25.113281 261.53125 25.507812 C 261.53125 25.71875 261.503906 25.9375 261.453125 26.164062 C 261.398438 26.382812 261.3125 26.632812 261.1875 26.914062 L 259.71875 30.257812 L 258.359375 30.257812 L 259.21875 26.695312 C 259.039062 26.570312 258.898438 26.40625 258.796875 26.195312 C 258.691406 25.976562 258.640625 25.75 258.640625 25.507812 C 258.640625 25.101562 258.773438 24.757812 259.046875 24.476562 C 259.328125 24.195312 259.671875 24.054688 260.078125 24.054688 Z M 260.078125 24.054688 "/>
<path fill-rule="nonzero" fill="rgb(60.000002%, 60.000002%, 60.000002%)" fill-opacity="1" d="M 182.792969 41.730469 C 182.792969 42.667969 182.871094 43.511719 183.027344 44.261719 C 183.191406 45.003906 183.433594 45.679688 183.746094 46.292969 C 184.066406 46.910156 184.46875 47.492188 184.949219 48.042969 C 185.4375 48.605469 186.003906 49.167969 186.652344 49.730469 L 185.855469 50.558594 C 184.886719 49.765625 184.050781 48.949219 183.355469 48.105469 C 182.65625 47.273438 182.125 46.347656 181.761719 45.324219 C 181.394531 44.292969 181.214844 43.097656 181.214844 41.730469 C 181.214844 40.367188 181.394531 39.175781 181.761719 38.152344 C 182.125 37.121094 182.65625 36.191406 183.355469 35.355469 C 184.050781 34.523438 184.886719 33.707031 185.855469 32.902344 L 186.652344 33.746094 C 185.996094 34.320312 185.425781 34.886719 184.949219 35.449219 C 184.46875 36.003906 184.066406 36.585938 183.746094 37.199219 C 183.433594 37.804688 183.191406 38.476562 183.027344 39.214844 C 182.871094 39.957031 182.792969 40.792969 182.792969 41.730469 Z M 182.792969 41.730469 "/>
<path fill-rule="nonzero" fill="rgb(0%, 49.803922%, 100%)" fill-opacity="1" d="M 194.644531 35.433594 C 195.425781 35.433594 196.089844 35.585938 196.644531 35.886719 C 197.195312 36.191406 197.621094 36.601562 197.925781 37.121094 C 198.226562 37.644531 198.378906 38.238281 198.378906 38.902344 C 198.378906 39.476562 198.277344 40.035156 198.082031 40.574219 C 197.882812 41.117188 197.566406 41.691406 197.128906 42.292969 C 196.691406 42.886719 196.117188 43.550781 195.410156 44.277344 C 194.710938 44.996094 193.847656 45.824219 192.816406 46.761719 L 198.660156 46.761719 L 198.472656 48.042969 L 191.097656 48.042969 L 191.097656 46.808594 C 192.035156 45.914062 192.832031 45.132812 193.488281 44.464844 C 194.144531 43.789062 194.683594 43.199219 195.113281 42.699219 C 195.550781 42.191406 195.886719 41.726562 196.128906 41.308594 C 196.367188 40.894531 196.535156 40.496094 196.628906 40.121094 C 196.730469 39.746094 196.785156 39.355469 196.785156 38.949219 C 196.785156 38.253906 196.585938 37.707031 196.191406 37.308594 C 195.792969 36.902344 195.253906 36.699219 194.566406 36.699219 C 193.949219 36.699219 193.445312 36.808594 193.050781 37.027344 C 192.664062 37.238281 192.277344 37.570312 191.894531 38.027344 L 190.847656 37.214844 C 191.335938 36.613281 191.882812 36.164062 192.488281 35.871094 C 193.089844 35.582031 193.808594 35.433594 194.644531 35.433594 Z M 194.644531 35.433594 "/>
<path fill-rule="nonzero" fill="rgb(60.000002%, 60.000002%, 60.000002%)" fill-opacity="1" d="M 206.003906 45.074219 C 206.417969 45.074219 206.761719 45.222656 207.035156 45.511719 C 207.316406 45.792969 207.457031 46.132812 207.457031 46.527344 C 207.457031 46.738281 207.429688 46.957031 207.378906 47.183594 C 207.324219 47.402344 207.238281 47.652344 207.113281 47.933594 L 205.644531 51.277344 L 204.285156 51.277344 L 205.144531 47.714844 C 204.964844 47.589844 204.824219 47.425781 204.722656 47.214844 C 204.617188 46.996094 204.566406 46.769531 204.566406 46.527344 C 204.566406 46.121094 204.699219 45.777344 204.972656 45.496094 C 205.253906 45.214844 205.597656 45.074219 206.003906 45.074219 Z M 206.003906 45.074219 "/>
<path fill-rule="nonzero" fill="rgb(100%, 50.196081%, 0%)" fill-opacity="1" d="M 214.742188 39.792969 C 215.085938 39.335938 215.480469 38.980469 215.929688 38.730469 C 216.386719 38.480469 216.890625 38.355469 217.445312 38.355469 C 218.289062 38.355469 218.96875 38.566406 219.492188 38.980469 C 220.011719 39.386719 220.390625 39.960938 220.632812 40.699219 C 220.871094 41.441406 220.992188 42.304688 220.992188 43.292969 C 220.992188 44.253906 220.84375 45.105469 220.554688 45.855469 C 220.273438 46.597656 219.851562 47.179688 219.289062 47.605469 C 218.734375 48.035156 218.054688 48.246094 217.242188 48.246094 C 216.136719 48.246094 215.277344 47.851562 214.664062 47.058594 L 214.554688 48.042969 L 213.226562 48.042969 L 213.226562 34.730469 L 214.742188 34.542969 Z M 216.882812 47.027344 C 217.671875 47.027344 218.28125 46.722656 218.710938 46.105469 C 219.136719 45.492188 219.351562 44.554688 219.351562 43.292969 C 219.351562 42.460938 219.265625 41.773438 219.101562 41.230469 C 218.933594 40.679688 218.683594 40.269531 218.351562 39.996094 C 218.015625 39.714844 217.605469 39.574219 217.117188 39.574219 C 216.585938 39.574219 216.121094 39.738281 215.726562 40.058594 C 215.328125 40.371094 215 40.722656 214.742188 41.105469 L 214.742188 45.792969 C 214.980469 46.167969 215.289062 46.472656 215.664062 46.699219 C 216.039062 46.917969 216.445312 47.027344 216.882812 47.027344 Z M 216.882812 47.027344 "/>
<path fill-rule="nonzero" fill="rgb(60.000002%, 60.000002%, 60.000002%)" fill-opacity="1" d="M 227.632812 45.074219 C 228.046875 45.074219 228.390625 45.222656 228.664062 45.511719 C 228.945312 45.792969 229.085938 46.132812 229.085938 46.527344 C 229.085938 46.738281 229.058594 46.957031 229.007812 47.183594 C 228.953125 47.402344 228.867188 47.652344 228.742188 47.933594 L 227.273438 51.277344 L 225.914062 51.277344 L 226.773438 47.714844 C 226.59375 47.589844 226.453125 47.425781 226.351562 47.214844 C 226.246094 46.996094 226.195312 46.769531 226.195312 46.527344 C 226.195312 46.121094 226.328125 45.777344 226.601562 45.496094 C 226.882812 45.214844 227.226562 45.074219 227.632812 45.074219 Z M 227.632812 45.074219 "/>
<path fill-rule="nonzero" fill="rgb(30.19608%, 60.000002%, 0%)" fill-opacity="1" d="M 238.292969 34.558594 C 238.949219 34.558594 239.546875 34.683594 240.089844 34.933594 C 240.640625 35.183594 241.082031 35.550781 241.417969 36.027344 C 241.75 36.507812 241.917969 37.082031 241.917969 37.746094 C 241.917969 38.382812 241.792969 38.914062 241.542969 39.339844 C 241.300781 39.757812 240.972656 40.085938 240.558594 40.324219 C 240.152344 40.554688 239.699219 40.707031 239.199219 40.777344 C 239.625 40.820312 240.058594 40.910156 240.496094 41.042969 C 240.933594 41.167969 241.332031 41.367188 241.699219 41.636719 C 242.0625 41.898438 242.355469 42.253906 242.574219 42.699219 C 242.792969 43.148438 242.902344 43.714844 242.902344 44.402344 C 242.902344 45.195312 242.707031 45.878906 242.324219 46.449219 C 241.949219 47.023438 241.457031 47.464844 240.855469 47.777344 C 240.25 48.089844 239.597656 48.246094 238.902344 48.246094 C 238.339844 48.246094 237.792969 48.140625 237.261719 47.933594 C 236.738281 47.714844 236.253906 47.394531 235.808594 46.964844 L 236.058594 45.933594 C 236.378906 46.308594 236.761719 46.585938 237.199219 46.761719 C 237.636719 46.929688 238.15625 47.011719 238.761719 47.011719 C 239.230469 47.011719 239.660156 46.914062 240.058594 46.714844 C 240.453125 46.519531 240.765625 46.226562 240.996094 45.839844 C 241.234375 45.445312 241.355469 44.964844 241.355469 44.402344 C 241.355469 43.433594 241.074219 42.699219 240.511719 42.199219 C 239.957031 41.699219 239.160156 41.449219 238.121094 41.449219 L 237.136719 41.449219 L 237.308594 40.292969 L 238.261719 40.292969 C 238.675781 40.292969 239.050781 40.210938 239.386719 40.042969 C 239.730469 39.878906 240 39.617188 240.199219 39.261719 C 240.40625 38.910156 240.511719 38.449219 240.511719 37.886719 C 240.511719 37.148438 240.300781 36.613281 239.886719 36.277344 C 239.46875 35.933594 238.949219 35.761719 238.324219 35.761719 C 237.625 35.761719 237.09375 35.976562 236.730469 36.402344 C 236.375 36.820312 236.199219 37.464844 236.199219 38.339844 L 236.199219 51.667969 L 234.683594 51.871094 L 234.683594 38.308594 C 234.683594 37.527344 234.828125 36.863281 235.121094 36.308594 C 235.410156 35.746094 235.824219 35.316406 236.355469 35.011719 C 236.894531 34.710938 237.542969 34.558594 238.292969 34.558594 Z M 238.292969 34.558594 "/>
<path fill-rule="nonzero" fill="rgb(60.000002%, 60.000002%, 60.000002%)" fill-opacity="1" d="M 250.84375 41.730469 C 250.84375 40.792969 250.757812 39.957031 250.59375 39.214844 C 250.4375 38.476562 250.195312 37.804688 249.875 37.199219 C 249.5625 36.585938 249.160156 36.003906 248.671875 35.449219 C 248.191406 34.886719 247.628906 34.320312 246.984375 33.746094 L 247.78125 32.902344 C 248.757812 33.707031 249.59375 34.523438 250.28125 35.355469 C 250.96875 36.191406 251.492188 37.121094 251.859375 38.152344 C 252.234375 39.175781 252.421875 40.367188 252.421875 41.730469 C 252.421875 43.097656 252.234375 44.292969 251.859375 45.324219 C 251.492188 46.347656 250.96875 47.273438 250.28125 48.105469 C 249.59375 48.949219 248.757812 49.765625 247.78125 50.558594 L 246.984375 49.730469 C 247.628906 49.167969 248.191406 48.605469 248.671875 48.042969 C 249.160156 47.492188 249.5625 46.910156 249.875 46.292969 C 250.195312 45.679688 250.4375 45.003906 250.59375 44.261719 C 250.757812 43.511719 250.84375 42.667969 250.84375 41.730469 Z M 250.84375 41.730469 "/>
<path fill-rule="nonzero" fill="rgb(60.000002%, 60.000002%, 60.000002%)" fill-opacity="1" d="M 260.074219 45.074219 C 260.488281 45.074219 260.832031 45.222656 261.105469 45.511719 C 261.386719 45.792969 261.527344 46.132812 261.527344 46.527344 C 261.527344 46.738281 261.5 46.957031 261.449219 47.183594 C 261.394531 47.402344 261.308594 47.652344 261.183594 47.933594 L 259.714844 51.277344 L 258.355469 51.277344 L 259.214844 47.714844 C 259.035156 47.589844 258.894531 47.425781 258.792969 47.214844 C 258.6875 46.996094 258.636719 46.769531 258.636719 46.527344 C 258.636719 46.121094 258.769531 45.777344 259.042969 45.496094 C 259.324219 45.214844 259.667969 45.074219 260.074219 45.074219 Z M 260.074219 45.074219 "/>
<path fill-rule="nonzero" fill="rgb(60.000002%, 60.000002%, 60.000002%)" fill-opacity="1" d="M 182.792969 64.253906 C 182.792969 65.191406 182.871094 66.035156 183.027344 66.785156 C 183.191406 67.527344 183.433594 68.203125 183.746094 68.816406 C 184.066406 69.433594 184.46875 70.015625 184.949219 70.566406 C 185.4375 71.128906 186.003906 71.691406 186.652344 72.253906 L 185.855469 73.082031 C 184.886719 72.289062 184.050781 71.472656 183.355469 70.628906 C 182.65625 69.796875 182.125 68.871094 181.761719 67.847656 C 181.394531 66.816406 181.214844 65.621094 181.214844 64.253906 C 181.214844 62.890625 181.394531 61.699219 181.761719 60.675781 C 182.125 59.644531 182.65625 58.714844 183.355469 57.878906 C 184.050781 57.046875 184.886719 56.230469 185.855469 55.425781 L 186.652344 56.269531 C 185.996094 56.84375 185.425781 57.410156 184.949219 57.972656 C 184.46875 58.527344 184.066406 59.109375 183.746094 59.722656 C 183.433594 60.328125 183.191406 61 183.027344 61.738281 C 182.871094 62.480469 182.792969 63.316406 182.792969 64.253906 Z M 182.792969 64.253906 "/>
<path fill-rule="nonzero" fill="rgb(0%, 49.803922%, 100%)" fill-opacity="1" d="M 194.628906 57.957031 C 195.410156 57.957031 196.082031 58.097656 196.644531 58.378906 C 197.207031 58.660156 197.644531 59.042969 197.957031 59.519531 C 198.269531 59.988281 198.425781 60.503906 198.425781 61.066406 C 198.425781 61.566406 198.316406 62.019531 198.097656 62.425781 C 197.878906 62.832031 197.582031 63.171875 197.207031 63.441406 C 196.839844 63.703125 196.441406 63.875 196.003906 63.957031 C 196.492188 63.988281 196.949219 64.125 197.378906 64.363281 C 197.804688 64.605469 198.152344 64.941406 198.425781 65.378906 C 198.695312 65.808594 198.832031 66.34375 198.832031 66.988281 C 198.832031 67.707031 198.648438 68.355469 198.285156 68.925781 C 197.929688 69.5 197.429688 69.953125 196.785156 70.285156 C 196.136719 70.605469 195.382812 70.769531 194.519531 70.769531 C 193.832031 70.769531 193.144531 70.636719 192.457031 70.378906 C 191.769531 70.121094 191.183594 69.699219 190.707031 69.113281 L 191.738281 68.285156 C 192.089844 68.703125 192.511719 69.015625 193.003906 69.222656 C 193.492188 69.421875 193.988281 69.519531 194.488281 69.519531 C 195.351562 69.519531 196.023438 69.296875 196.503906 68.847656 C 196.992188 68.390625 197.238281 67.769531 197.238281 66.988281 C 197.238281 66.40625 197.121094 65.941406 196.894531 65.597656 C 196.675781 65.253906 196.371094 65.011719 195.988281 64.863281 C 195.601562 64.71875 195.164062 64.644531 194.675781 64.644531 L 193.628906 64.644531 L 193.816406 63.441406 L 194.550781 63.441406 C 194.957031 63.441406 195.335938 63.371094 195.691406 63.222656 C 196.042969 63.066406 196.335938 62.828125 196.566406 62.503906 C 196.792969 62.171875 196.910156 61.765625 196.910156 61.285156 C 196.910156 60.597656 196.679688 60.078125 196.222656 59.722656 C 195.761719 59.359375 195.210938 59.175781 194.566406 59.175781 C 194.023438 59.175781 193.550781 59.269531 193.144531 59.457031 C 192.746094 59.644531 192.347656 59.933594 191.941406 60.316406 L 191.097656 59.394531 C 191.628906 58.894531 192.191406 58.53125 192.785156 58.300781 C 193.378906 58.074219 193.992188 57.957031 194.628906 57.957031 Z M 194.628906 57.957031 "/>
<path fill-rule="nonzero" fill="rgb(60.000002%, 60.000002%, 60.000002%)" fill-opacity="1" d="M 206.003906 67.597656 C 206.417969 67.597656 206.761719 67.746094 207.035156 68.035156 C 207.316406 68.316406 207.457031 68.65625 207.457031 69.050781 C 207.457031 69.261719 207.429688 69.480469 207.378906 69.707031 C 207.324219 69.925781 207.238281 70.175781 207.113281 70.457031 L 205.644531 73.800781 L 204.285156 73.800781 L 205.144531 70.238281 C 204.964844 70.113281 204.824219 69.949219 204.722656 69.738281 C 204.617188 69.519531 204.566406 69.292969 204.566406 69.050781 C 204.566406 68.644531 204.699219 68.300781 204.972656 68.019531 C 205.253906 67.738281 205.597656 67.597656 206.003906 67.597656 Z M 206.003906 67.597656 "/>
<path fill-rule="nonzero" fill="rgb(100%, 50.196081%, 0%)" fill-opacity="1" d="M 217.507812 69.472656 C 217.984375 69.472656 218.429688 69.394531 218.835938 69.238281 C 219.25 69.082031 219.632812 68.886719 219.976562 68.644531 L 220.726562 69.628906 C 220.308594 69.984375 219.808594 70.265625 219.226562 70.472656 C 218.640625 70.667969 218.070312 70.769531 217.507812 70.769531 C 216.570312 70.769531 215.765625 70.566406 215.101562 70.160156 C 214.433594 69.753906 213.929688 69.1875 213.585938 68.457031 C 213.242188 67.71875 213.070312 66.855469 213.070312 65.863281 C 213.070312 64.917969 213.242188 64.066406 213.585938 63.316406 C 213.9375 62.558594 214.445312 61.964844 215.101562 61.535156 C 215.765625 61.097656 216.574219 60.878906 217.523438 60.878906 C 218.136719 60.878906 218.710938 60.972656 219.242188 61.160156 C 219.773438 61.339844 220.257812 61.613281 220.695312 61.988281 L 219.960938 62.988281 C 219.554688 62.707031 219.148438 62.5 218.742188 62.363281 C 218.34375 62.21875 217.933594 62.144531 217.507812 62.144531 C 216.695312 62.144531 216.023438 62.453125 215.492188 63.066406 C 214.960938 63.683594 214.695312 64.613281 214.695312 65.863281 C 214.695312 66.707031 214.8125 67.394531 215.054688 67.925781 C 215.304688 68.457031 215.636719 68.847656 216.054688 69.097656 C 216.480469 69.347656 216.964844 69.472656 217.507812 69.472656 Z M 217.507812 69.472656 "/>
<path fill-rule="nonzero" fill="rgb(60.000002%, 60.000002%, 60.000002%)" fill-opacity="1" d="M 227.632812 67.597656 C 228.046875 67.597656 228.390625 67.746094 228.664062 68.035156 C 228.945312 68.316406 229.085938 68.65625 229.085938 69.050781 C 229.085938 69.261719 229.058594 69.480469 229.007812 69.707031 C 228.953125 69.925781 228.867188 70.175781 228.742188 70.457031 L 227.273438 73.800781 L 225.914062 73.800781 L 226.773438 70.238281 C 226.59375 70.113281 226.453125 69.949219 226.351562 69.738281 C 226.246094 69.519531 226.195312 69.292969 226.195312 69.050781 C 226.195312 68.644531 226.328125 68.300781 226.601562 68.019531 C 226.882812 67.738281 227.226562 67.597656 227.632812 67.597656 Z M 227.632812 67.597656 "/>
<path fill-rule="nonzero" fill="rgb(30.19608%, 60.000002%, 0%)" fill-opacity="1" d="M 241.542969 60.863281 L 243.074219 61.207031 L 239.183594 70.253906 C 238.921875 70.847656 238.769531 71.449219 238.730469 72.066406 C 238.699219 72.679688 238.777344 73.386719 238.964844 74.191406 L 237.746094 74.394531 C 237.546875 74.007812 237.410156 73.574219 237.339844 73.097656 C 237.277344 72.617188 237.269531 72.128906 237.324219 71.628906 C 237.375 71.136719 237.488281 70.667969 237.667969 70.222656 C 237.46875 69.378906 237.222656 68.515625 236.933594 67.628906 C 236.652344 66.746094 236.339844 65.902344 235.996094 65.097656 C 235.652344 64.285156 235.292969 63.5625 234.917969 62.925781 C 234.550781 62.28125 234.1875 61.785156 233.824219 61.441406 L 235.355469 60.894531 C 235.769531 61.375 236.171875 62.003906 236.558594 62.785156 C 236.953125 63.566406 237.316406 64.453125 237.652344 65.441406 C 237.996094 66.433594 238.285156 67.496094 238.527344 68.628906 Z M 241.542969 60.863281 "/>
<path fill-rule="nonzero" fill="rgb(60.000002%, 60.000002%, 60.000002%)" fill-opacity="1" d="M 250.84375 64.253906 C 250.84375 63.316406 250.757812 62.480469 250.59375 61.738281 C 250.4375 61 250.195312 60.328125 249.875 59.722656 C 249.5625 59.109375 249.160156 58.527344 248.671875 57.972656 C 248.191406 57.410156 247.628906 56.84375 246.984375 56.269531 L 247.78125 55.425781 C 248.757812 56.230469 249.59375 57.046875 250.28125 57.878906 C 250.96875 58.714844 251.492188 59.644531 251.859375 60.675781 C 252.234375 61.699219 252.421875 62.890625 252.421875 64.253906 C 252.421875 65.621094 252.234375 66.816406 251.859375 67.847656 C 251.492188 68.871094 250.96875 69.796875 250.28125 70.628906 C 249.59375 71.472656 248.757812 72.289062 247.78125 73.082031 L 246.984375 72.253906 C 247.628906 71.691406 248.191406 71.128906 248.671875 70.566406 C 249.160156 70.015625 249.5625 69.433594 249.875 68.816406 C 250.195312 68.203125 250.4375 67.527344 250.59375 66.785156 C 250.757812 66.035156 250.84375 65.191406 250.84375 64.253906 Z M 250.84375 64.253906 "/>
<path fill-rule="nonzero" fill="rgb(60.000002%, 60.000002%, 60.000002%)" fill-opacity="1" d="M 260.074219 67.597656 C 260.488281 67.597656 260.832031 67.746094 261.105469 68.035156 C 261.386719 68.316406 261.527344 68.65625 261.527344 69.050781 C 261.527344 69.261719 261.5 69.480469 261.449219 69.707031 C 261.394531 69.925781 261.308594 70.175781 261.183594 70.457031 L 259.714844 73.800781 L 258.355469 73.800781 L 259.214844 70.238281 C 259.035156 70.113281 258.894531 69.949219 258.792969 69.738281 C 258.6875 69.519531 258.636719 69.292969 258.636719 69.050781 C 258.636719 68.644531 258.769531 68.300781 259.042969 68.019531 C 259.324219 67.738281 259.667969 67.597656 260.074219 67.597656 Z M 260.074219 67.597656 "/>
<path fill-rule="nonzero" fill="rgb(60.000002%, 60.000002%, 60.000002%)" fill-opacity="1" d="M 184.953125 90.195312 C 184.953125 89.90625 185.023438 89.640625 185.15625 89.398438 C 185.292969 89.160156 185.480469 88.972656 185.71875 88.835938 C 185.960938 88.691406 186.230469 88.617188 186.53125 88.617188 C 186.835938 88.617188 187.105469 88.691406 187.34375 88.835938 C 187.585938 88.972656 187.777344 89.160156 187.921875 89.398438 C 188.058594 89.640625 188.125 89.90625 188.125 90.195312 C 188.125 90.488281 188.058594 90.757812 187.921875 91.007812 C 187.777344 91.25 187.585938 91.441406 187.34375 91.585938 C 187.105469 91.71875 186.835938 91.789062 186.53125 91.789062 C 186.230469 91.789062 185.960938 91.71875 185.71875 91.585938 C 185.480469 91.441406 185.292969 91.25 185.15625 91.007812 C 185.023438 90.757812 184.953125 90.488281 184.953125 90.195312 Z M 191.4375 90.195312 C 191.4375 89.90625 191.503906 89.640625 191.640625 89.398438 C 191.773438 89.160156 191.960938 88.972656 192.203125 88.835938 C 192.441406 88.691406 192.710938 88.617188 193.015625 88.617188 C 193.316406 88.617188 193.585938 88.691406 193.828125 88.835938 C 194.066406 88.972656 194.253906 89.160156 194.390625 89.398438 C 194.535156 89.640625 194.609375 89.90625 194.609375 90.195312 C 194.609375 90.488281 194.535156 90.757812 194.390625 91.007812 C 194.253906 91.25 194.066406 91.441406 193.828125 91.585938 C 193.585938 91.71875 193.316406 91.789062 193.015625 91.789062 C 192.710938 91.789062 192.441406 91.71875 192.203125 91.585938 C 191.960938 91.441406 191.773438 91.25 191.640625 91.007812 C 191.503906 90.757812 191.4375 90.488281 191.4375 90.195312 Z M 191.4375 90.195312 "/>
<path fill="none" stroke-width="2" stroke-linecap="butt" stroke-linejoin="miter" stroke="rgb(40.000001%, 40.000001%, 40.000001%)" stroke-opacity="1" stroke-miterlimit="10" d="M 159.99799 59.637601 L 189.762154 59.637601 " transform="matrix(0.750693, 0, 0, 0.750693, 0, 0.000000000000010658)"/>
<path fill-rule="nonzero" fill="rgb(40.000001%, 40.000001%, 40.000001%)" fill-opacity="1" stroke-width="2" stroke-linecap="butt" stroke-linejoin="miter" stroke="rgb(40.000001%, 40.000001%, 40.000001%)" stroke-opacity="1" stroke-miterlimit="10" d="M 197.759972 59.637601 L 189.762154 62.312213 L 189.762154 56.968193 Z M 197.759972 59.637601 " transform="matrix(0.750693, 0, 0, 0.750693, 0, 0.000000000000010658)"/>
</svg>
