<?xml version="1.0" encoding="UTF-8"?>
<svg xmlns="http://www.w3.org/2000/svg" xmlns:xlink="http://www.w3.org/1999/xlink" width="419.039978" height="77.040001" viewBox="0 0 419.039978 77.040001">
<path fill-rule="nonzero" fill="rgb(60.000002%, 60.000002%, 60.000002%)" fill-opacity="1" d="M 6.3125 29.0625 L 6.3125 12.3125 L 10.8125 12.3125 L 10.8125 13.625 L 7.734375 13.625 L 7.734375 27.78125 L 10.8125 27.78125 L 10.8125 29.0625 Z M 6.3125 29.0625 "/>
<path fill-rule="nonzero" fill="rgb(30.19608%, 60.000002%, 0%)" fill-opacity="1" d="M 20.515625 14.609375 L 20.515625 26.625 L 19 26.625 L 19 16.234375 L 16.15625 17.96875 L 15.5 16.890625 L 19.1875 14.609375 Z M 23.109375 25.75 L 23.109375 26.984375 L 15.953125 26.984375 L 15.953125 25.75 Z M 23.109375 25.75 "/>
<path fill-rule="nonzero" fill="rgb(60.000002%, 60.000002%, 60.000002%)" fill-opacity="1" d="M 29.984375 24.03125 C 30.398438 24.03125 30.75 24.171875 31.03125 24.453125 C 31.3125 24.734375 31.453125 25.074219 31.453125 25.46875 C 31.453125 25.679688 31.425781 25.898438 31.375 26.125 C 31.320312 26.34375 31.226562 26.59375 31.09375 26.875 L 29.640625 30.21875 L 28.265625 30.21875 L 29.140625 26.65625 C 28.953125 26.53125 28.804688 26.367188 28.703125 26.15625 C 28.597656 25.9375 28.546875 25.710938 28.546875 25.46875 C 28.546875 25.0625 28.679688 24.726562 28.953125 24.453125 C 29.234375 24.171875 29.578125 24.03125 29.984375 24.03125 Z M 29.984375 24.03125 "/>
<path fill-rule="nonzero" fill="rgb(30.19608%, 60.000002%, 0%)" fill-opacity="1" d="M 41.359375 25.59375 C 41.359375 25.304688 41.433594 25.042969 41.578125 24.8125 C 41.714844 24.574219 41.902344 24.386719 42.140625 24.25 C 42.371094 24.105469 42.636719 24.03125 42.9375 24.03125 C 43.242188 24.03125 43.515625 24.105469 43.765625 24.25 C 44.007812 24.386719 44.195312 24.574219 44.328125 24.8125 C 44.464844 25.042969 44.53125 25.304688 44.53125 25.59375 C 44.53125 25.898438 44.464844 26.167969 44.328125 26.40625 C 44.195312 26.648438 44.007812 26.839844 43.765625 26.984375 C 43.515625 27.117188 43.242188 27.1875 42.9375 27.1875 C 42.636719 27.1875 42.371094 27.117188 42.140625 26.984375 C 41.902344 26.839844 41.714844 26.648438 41.578125 26.40625 C 41.433594 26.167969 41.359375 25.898438 41.359375 25.59375 Z M 47.828125 25.59375 C 47.828125 25.304688 47.894531 25.042969 48.03125 24.8125 C 48.175781 24.574219 48.363281 24.386719 48.59375 24.25 C 48.832031 24.105469 49.101562 24.03125 49.40625 24.03125 C 49.707031 24.03125 49.976562 24.105469 50.21875 24.25 C 50.46875 24.386719 50.660156 24.574219 50.796875 24.8125 C 50.929688 25.042969 51 25.304688 51 25.59375 C 51 25.898438 50.929688 26.167969 50.796875 26.40625 C 50.660156 26.648438 50.46875 26.839844 50.21875 26.984375 C 49.976562 27.117188 49.707031 27.1875 49.40625 27.1875 C 49.101562 27.1875 48.832031 27.117188 48.59375 26.984375 C 48.363281 26.839844 48.175781 26.648438 48.03125 26.40625 C 47.894531 26.167969 47.828125 25.898438 47.828125 25.59375 Z M 47.828125 25.59375 "/>
<path fill-rule="nonzero" fill="rgb(60.000002%, 60.000002%, 60.000002%)" fill-opacity="1" d="M 62.378906 24.03125 C 62.792969 24.03125 63.144531 24.171875 63.425781 24.453125 C 63.707031 24.734375 63.847656 25.074219 63.847656 25.46875 C 63.847656 25.679688 63.820312 25.898438 63.769531 26.125 C 63.714844 26.34375 63.621094 26.59375 63.488281 26.875 L 62.035156 30.21875 L 60.660156 30.21875 L 61.535156 26.65625 C 61.347656 26.53125 61.199219 26.367188 61.097656 26.15625 C 60.992188 25.9375 60.941406 25.710938 60.941406 25.46875 C 60.941406 25.0625 61.074219 24.726562 61.347656 24.453125 C 61.628906 24.171875 61.972656 24.03125 62.378906 24.03125 Z M 62.378906 24.03125 "/>
<path fill-rule="nonzero" fill="rgb(30.19608%, 60.000002%, 0%)" fill-opacity="1" d="M 72.632812 14.40625 C 73.414062 14.40625 74.078125 14.558594 74.632812 14.859375 C 75.183594 15.152344 75.609375 15.5625 75.914062 16.09375 C 76.214844 16.617188 76.367188 17.203125 76.367188 17.859375 C 76.367188 18.433594 76.265625 18.992188 76.070312 19.53125 C 75.871094 20.074219 75.554688 20.640625 75.117188 21.234375 C 74.6875 21.828125 74.121094 22.492188 73.414062 23.21875 C 72.703125 23.949219 71.839844 24.777344 70.820312 25.703125 L 76.648438 25.703125 L 76.460938 26.984375 L 69.101562 26.984375 L 69.101562 25.75 C 70.039062 24.855469 70.835938 24.074219 71.492188 23.40625 C 72.148438 22.730469 72.6875 22.140625 73.117188 21.640625 C 73.542969 21.132812 73.875 20.671875 74.117188 20.265625 C 74.367188 19.851562 74.539062 19.453125 74.632812 19.078125 C 74.726562 18.703125 74.773438 18.3125 74.773438 17.90625 C 74.773438 17.21875 74.574219 16.671875 74.179688 16.265625 C 73.792969 15.859375 73.257812 15.65625 72.570312 15.65625 C 71.953125 15.65625 71.449219 15.765625 71.054688 15.984375 C 70.667969 16.195312 70.28125 16.527344 69.898438 16.984375 L 68.851562 16.171875 C 69.339844 15.578125 69.882812 15.136719 70.476562 14.84375 C 71.078125 14.554688 71.796875 14.40625 72.632812 14.40625 Z M 72.632812 14.40625 "/>
<path fill-rule="nonzero" fill="rgb(60.000002%, 60.000002%, 60.000002%)" fill-opacity="1" d="M 86.070312 12.3125 L 86.070312 29.0625 L 81.554688 29.0625 L 81.554688 27.78125 L 84.632812 27.78125 L 84.632812 13.625 L 81.554688 13.625 L 81.554688 12.3125 Z M 86.070312 12.3125 "/>
<path fill-rule="nonzero" fill="rgb(60.000002%, 60.000002%, 60.000002%)" fill-opacity="1" d="M 6.3125 50.050781 L 6.3125 33.300781 L 10.8125 33.300781 L 10.8125 34.613281 L 7.734375 34.613281 L 7.734375 48.769531 L 10.8125 48.769531 L 10.8125 50.050781 Z M 6.3125 50.050781 "/>
<path fill-rule="nonzero" fill="rgb(100%, 50.196081%, 0%)" fill-opacity="1" d="M 22.390625 45.910156 C 22.390625 46.285156 22.453125 46.5625 22.578125 46.738281 C 22.703125 46.90625 22.894531 47.03125 23.15625 47.113281 L 22.796875 48.175781 C 22.378906 48.121094 22.019531 47.992188 21.71875 47.785156 C 21.414062 47.578125 21.191406 47.265625 21.046875 46.847656 C 20.710938 47.285156 20.289062 47.621094 19.78125 47.847656 C 19.269531 48.066406 18.707031 48.175781 18.09375 48.175781 C 17.144531 48.175781 16.394531 47.910156 15.84375 47.378906 C 15.300781 46.847656 15.03125 46.140625 15.03125 45.253906 C 15.03125 44.277344 15.410156 43.527344 16.171875 43.003906 C 16.929688 42.484375 18.03125 42.222656 19.46875 42.222656 L 20.859375 42.222656 L 20.859375 41.441406 C 20.859375 40.753906 20.660156 40.269531 20.265625 39.988281 C 19.867188 39.699219 19.316406 39.550781 18.609375 39.550781 C 18.296875 39.550781 17.925781 39.59375 17.5 39.675781 C 17.082031 39.75 16.628906 39.871094 16.140625 40.035156 L 15.75 38.894531 C 16.332031 38.6875 16.878906 38.535156 17.390625 38.441406 C 17.898438 38.347656 18.382812 38.300781 18.84375 38.300781 C 20.019531 38.300781 20.90625 38.578125 21.5 39.128906 C 22.09375 39.683594 22.390625 40.425781 22.390625 41.363281 Z M 18.46875 47.035156 C 18.9375 47.035156 19.382812 46.917969 19.8125 46.675781 C 20.238281 46.4375 20.585938 46.109375 20.859375 45.691406 L 20.859375 43.253906 L 19.5 43.253906 C 18.457031 43.253906 17.71875 43.4375 17.28125 43.800781 C 16.851562 44.15625 16.640625 44.636719 16.640625 45.238281 C 16.640625 45.824219 16.789062 46.269531 17.09375 46.582031 C 17.40625 46.886719 17.863281 47.035156 18.46875 47.035156 Z M 18.46875 47.035156 "/>
<path fill-rule="nonzero" fill="rgb(60.000002%, 60.000002%, 60.000002%)" fill-opacity="1" d="M 29.984375 45.019531 C 30.398438 45.019531 30.75 45.160156 31.03125 45.441406 C 31.3125 45.722656 31.453125 46.0625 31.453125 46.457031 C 31.453125 46.667969 31.425781 46.886719 31.375 47.113281 C 31.320312 47.332031 31.226562 47.582031 31.09375 47.863281 L 29.640625 51.207031 L 28.265625 51.207031 L 29.140625 47.644531 C 28.953125 47.519531 28.804688 47.355469 28.703125 47.144531 C 28.597656 46.925781 28.546875 46.699219 28.546875 46.457031 C 28.546875 46.050781 28.679688 45.714844 28.953125 45.441406 C 29.234375 45.160156 29.578125 45.019531 29.984375 45.019531 Z M 29.984375 45.019531 "/>
<path fill-rule="nonzero" fill="rgb(100%, 50.196081%, 0%)" fill-opacity="1" d="M 41.359375 46.582031 C 41.359375 46.292969 41.433594 46.03125 41.578125 45.800781 C 41.714844 45.5625 41.902344 45.375 42.140625 45.238281 C 42.371094 45.09375 42.636719 45.019531 42.9375 45.019531 C 43.242188 45.019531 43.515625 45.09375 43.765625 45.238281 C 44.007812 45.375 44.195312 45.5625 44.328125 45.800781 C 44.464844 46.03125 44.53125 46.292969 44.53125 46.582031 C 44.53125 46.886719 44.464844 47.15625 44.328125 47.394531 C 44.195312 47.636719 44.007812 47.828125 43.765625 47.972656 C 43.515625 48.105469 43.242188 48.175781 42.9375 48.175781 C 42.636719 48.175781 42.371094 48.105469 42.140625 47.972656 C 41.902344 47.828125 41.714844 47.636719 41.578125 47.394531 C 41.433594 47.15625 41.359375 46.886719 41.359375 46.582031 Z M 47.828125 46.582031 C 47.828125 46.292969 47.894531 46.03125 48.03125 45.800781 C 48.175781 45.5625 48.363281 45.375 48.59375 45.238281 C 48.832031 45.09375 49.101562 45.019531 49.40625 45.019531 C 49.707031 45.019531 49.976562 45.09375 50.21875 45.238281 C 50.46875 45.375 50.660156 45.5625 50.796875 45.800781 C 50.929688 46.03125 51 46.292969 51 46.582031 C 51 46.886719 50.929688 47.15625 50.796875 47.394531 C 50.660156 47.636719 50.46875 47.828125 50.21875 47.972656 C 49.976562 48.105469 49.707031 48.175781 49.40625 48.175781 C 49.101562 48.175781 48.832031 48.105469 48.59375 47.972656 C 48.363281 47.828125 48.175781 47.636719 48.03125 47.394531 C 47.894531 47.15625 47.828125 46.886719 47.828125 46.582031 Z M 47.828125 46.582031 "/>
<path fill-rule="nonzero" fill="rgb(60.000002%, 60.000002%, 60.000002%)" fill-opacity="1" d="M 62.378906 45.019531 C 62.792969 45.019531 63.144531 45.160156 63.425781 45.441406 C 63.707031 45.722656 63.847656 46.0625 63.847656 46.457031 C 63.847656 46.667969 63.820312 46.886719 63.769531 47.113281 C 63.714844 47.332031 63.621094 47.582031 63.488281 47.863281 L 62.035156 51.207031 L 60.660156 51.207031 L 61.535156 47.644531 C 61.347656 47.519531 61.199219 47.355469 61.097656 47.144531 C 60.992188 46.925781 60.941406 46.699219 60.941406 46.457031 C 60.941406 46.050781 61.074219 45.714844 61.347656 45.441406 C 61.628906 45.160156 61.972656 45.019531 62.378906 45.019531 Z M 62.378906 45.019531 "/>
<path fill-rule="nonzero" fill="rgb(100%, 50.196081%, 0%)" fill-opacity="1" d="M 71.101562 39.738281 C 71.453125 39.28125 71.855469 38.925781 72.304688 38.675781 C 72.761719 38.425781 73.261719 38.300781 73.804688 38.300781 C 74.648438 38.300781 75.328125 38.511719 75.851562 38.925781 C 76.371094 39.332031 76.75 39.90625 76.992188 40.644531 C 77.230469 41.386719 77.351562 42.25 77.351562 43.238281 C 77.351562 44.1875 77.203125 45.035156 76.914062 45.785156 C 76.632812 46.535156 76.214844 47.125 75.664062 47.550781 C 75.109375 47.96875 74.421875 48.175781 73.601562 48.175781 C 72.507812 48.175781 71.648438 47.78125 71.023438 46.988281 L 70.914062 47.972656 L 69.601562 47.972656 L 69.601562 34.691406 L 71.101562 34.503906 Z M 73.242188 46.957031 C 74.03125 46.957031 74.640625 46.65625 75.070312 46.050781 C 75.496094 45.4375 75.710938 44.496094 75.710938 43.222656 C 75.710938 42.402344 75.625 41.714844 75.460938 41.160156 C 75.292969 40.609375 75.042969 40.199219 74.710938 39.925781 C 74.375 39.65625 73.964844 39.519531 73.476562 39.519531 C 72.953125 39.519531 72.492188 39.675781 72.085938 39.988281 C 71.6875 40.300781 71.359375 40.652344 71.101562 41.035156 L 71.101562 45.738281 C 71.351562 46.105469 71.664062 46.402344 72.039062 46.628906 C 72.414062 46.847656 72.8125 46.957031 73.242188 46.957031 Z M 73.242188 46.957031 "/>
<path fill-rule="nonzero" fill="rgb(60.000002%, 60.000002%, 60.000002%)" fill-opacity="1" d="M 86.070312 33.300781 L 86.070312 50.050781 L 81.554688 50.050781 L 81.554688 48.769531 L 84.632812 48.769531 L 84.632812 34.613281 L 81.554688 34.613281 L 81.554688 33.300781 Z M 86.070312 33.300781 "/>
<path fill-rule="nonzero" fill="rgb(60.000002%, 60.000002%, 60.000002%)" fill-opacity="1" d="M 6.3125 72.535156 L 6.3125 55.785156 L 10.8125 55.785156 L 10.8125 57.097656 L 7.734375 57.097656 L 7.734375 71.253906 L 10.8125 71.253906 L 10.8125 72.535156 Z M 6.3125 72.535156 "/>
<path fill-rule="nonzero" fill="rgb(0%, 49.803922%, 100%)" fill-opacity="1" d="M 18.390625 60.785156 C 18.921875 60.785156 19.382812 60.878906 19.78125 61.066406 C 20.175781 61.246094 20.503906 61.550781 20.765625 61.988281 C 21.035156 62.417969 21.234375 63.003906 21.359375 63.753906 L 21.859375 60.988281 L 23.234375 60.988281 L 22.3125 66.035156 L 22.78125 68.488281 C 22.832031 68.738281 22.921875 68.933594 23.046875 69.066406 C 23.171875 69.203125 23.347656 69.316406 23.578125 69.410156 L 23.046875 70.675781 C 22.597656 70.601562 22.226562 70.433594 21.9375 70.160156 C 21.65625 69.890625 21.472656 69.496094 21.390625 68.972656 L 21.234375 67.957031 C 21.066406 68.449219 20.851562 68.894531 20.59375 69.300781 C 20.34375 69.707031 20.03125 70.035156 19.65625 70.285156 C 19.28125 70.535156 18.820312 70.660156 18.28125 70.660156 C 17.207031 70.660156 16.363281 70.261719 15.75 69.457031 C 15.144531 68.65625 14.84375 67.4375 14.84375 65.800781 C 14.84375 64.832031 14.972656 63.972656 15.234375 63.222656 C 15.503906 62.464844 15.898438 61.871094 16.421875 61.441406 C 16.941406 61.003906 17.597656 60.785156 18.390625 60.785156 Z M 18.5 62.003906 C 17.851562 62.003906 17.351562 62.332031 17 62.988281 C 16.644531 63.636719 16.46875 64.574219 16.46875 65.800781 C 16.46875 67.0625 16.632812 67.984375 16.96875 68.566406 C 17.300781 69.152344 17.785156 69.441406 18.421875 69.441406 C 18.648438 69.441406 18.878906 69.394531 19.109375 69.300781 C 19.347656 69.199219 19.578125 69.015625 19.796875 68.753906 C 20.023438 68.484375 20.238281 68.097656 20.4375 67.597656 C 20.644531 67.097656 20.820312 66.453125 20.96875 65.660156 C 20.8125 64.683594 20.613281 63.933594 20.375 63.410156 C 20.132812 62.878906 19.859375 62.515625 19.546875 62.316406 C 19.242188 62.109375 18.894531 62.003906 18.5 62.003906 Z M 18.5 62.003906 "/>
<path fill-rule="nonzero" fill="rgb(60.000002%, 60.000002%, 60.000002%)" fill-opacity="1" d="M 29.984375 67.503906 C 30.398438 67.503906 30.75 67.644531 31.03125 67.925781 C 31.3125 68.207031 31.453125 68.546875 31.453125 68.941406 C 31.453125 69.152344 31.425781 69.371094 31.375 69.597656 C 31.320312 69.816406 31.226562 70.066406 31.09375 70.347656 L 29.640625 73.691406 L 28.265625 73.691406 L 29.140625 70.128906 C 28.953125 70.003906 28.804688 69.839844 28.703125 69.628906 C 28.597656 69.410156 28.546875 69.183594 28.546875 68.941406 C 28.546875 68.535156 28.679688 68.199219 28.953125 67.925781 C 29.234375 67.644531 29.578125 67.503906 29.984375 67.503906 Z M 29.984375 67.503906 "/>
<path fill-rule="nonzero" fill="rgb(0%, 40.000001%, 80.000001%)" fill-opacity="1" d="M 41.359375 69.066406 C 41.359375 68.777344 41.433594 68.515625 41.578125 68.285156 C 41.714844 68.046875 41.902344 67.859375 42.140625 67.722656 C 42.371094 67.578125 42.636719 67.503906 42.9375 67.503906 C 43.242188 67.503906 43.515625 67.578125 43.765625 67.722656 C 44.007812 67.859375 44.195312 68.046875 44.328125 68.285156 C 44.464844 68.515625 44.53125 68.777344 44.53125 69.066406 C 44.53125 69.371094 44.464844 69.640625 44.328125 69.878906 C 44.195312 70.121094 44.007812 70.3125 43.765625 70.457031 C 43.515625 70.589844 43.242188 70.660156 42.9375 70.660156 C 42.636719 70.660156 42.371094 70.589844 42.140625 70.457031 C 41.902344 70.3125 41.714844 70.121094 41.578125 69.878906 C 41.433594 69.640625 41.359375 69.371094 41.359375 69.066406 Z M 47.828125 69.066406 C 47.828125 68.777344 47.894531 68.515625 48.03125 68.285156 C 48.175781 68.046875 48.363281 67.859375 48.59375 67.722656 C 48.832031 67.578125 49.101562 67.503906 49.40625 67.503906 C 49.707031 67.503906 49.976562 67.578125 50.21875 67.722656 C 50.46875 67.859375 50.660156 68.046875 50.796875 68.285156 C 50.929688 68.515625 51 68.777344 51 69.066406 C 51 69.371094 50.929688 69.640625 50.796875 69.878906 C 50.660156 70.121094 50.46875 70.3125 50.21875 70.457031 C 49.976562 70.589844 49.707031 70.660156 49.40625 70.660156 C 49.101562 70.660156 48.832031 70.589844 48.59375 70.457031 C 48.363281 70.3125 48.175781 70.121094 48.03125 69.878906 C 47.894531 69.640625 47.828125 69.371094 47.828125 69.066406 Z M 47.828125 69.066406 "/>
<path fill-rule="nonzero" fill="rgb(60.000002%, 60.000002%, 60.000002%)" fill-opacity="1" d="M 62.378906 67.503906 C 62.792969 67.503906 63.144531 67.644531 63.425781 67.925781 C 63.707031 68.207031 63.847656 68.546875 63.847656 68.941406 C 63.847656 69.152344 63.820312 69.371094 63.769531 69.597656 C 63.714844 69.816406 63.621094 70.066406 63.488281 70.347656 L 62.035156 73.691406 L 60.660156 73.691406 L 61.535156 70.128906 C 61.347656 70.003906 61.199219 69.839844 61.097656 69.628906 C 60.992188 69.410156 60.941406 69.183594 60.941406 68.941406 C 60.941406 68.535156 61.074219 68.199219 61.347656 67.925781 C 61.628906 67.644531 61.972656 67.503906 62.378906 67.503906 Z M 62.378906 67.503906 "/>
<path fill-rule="nonzero" fill="rgb(0%, 49.803922%, 100%)" fill-opacity="1" d="M 73.039062 56.988281 C 73.683594 56.988281 74.28125 57.121094 74.835938 57.378906 C 75.386719 57.628906 75.824219 57.996094 76.148438 58.472656 C 76.480469 58.941406 76.648438 59.511719 76.648438 60.175781 C 76.648438 60.8125 76.523438 61.34375 76.273438 61.769531 C 76.03125 62.1875 75.703125 62.515625 75.289062 62.753906 C 74.882812 62.984375 74.433594 63.136719 73.945312 63.207031 C 74.371094 63.25 74.804688 63.339844 75.242188 63.472656 C 75.679688 63.597656 76.074219 63.796875 76.429688 64.066406 C 76.792969 64.328125 77.085938 64.683594 77.304688 65.128906 C 77.523438 65.578125 77.632812 66.140625 77.632812 66.816406 C 77.632812 67.609375 77.4375 68.292969 77.054688 68.863281 C 76.679688 69.4375 76.1875 69.878906 75.585938 70.191406 C 74.980469 70.503906 74.328125 70.660156 73.632812 70.660156 C 73.078125 70.660156 72.539062 70.554688 72.007812 70.347656 C 71.476562 70.128906 70.992188 69.8125 70.554688 69.394531 L 70.789062 68.347656 C 71.121094 68.722656 71.507812 69 71.945312 69.175781 C 72.382812 69.34375 72.898438 69.425781 73.492188 69.425781 C 73.960938 69.425781 74.390625 69.328125 74.789062 69.128906 C 75.183594 68.933594 75.496094 68.640625 75.726562 68.253906 C 75.964844 67.871094 76.085938 67.390625 76.085938 66.816406 C 76.085938 65.847656 75.808594 65.121094 75.257812 64.628906 C 74.703125 64.128906 73.902344 63.878906 72.851562 63.878906 L 71.867188 63.878906 L 72.054688 62.707031 L 72.992188 62.707031 C 73.40625 62.707031 73.789062 62.628906 74.132812 62.472656 C 74.476562 62.308594 74.746094 62.050781 74.945312 61.707031 C 75.140625 61.355469 75.242188 60.890625 75.242188 60.316406 C 75.242188 59.589844 75.03125 59.058594 74.617188 58.722656 C 74.199219 58.378906 73.679688 58.207031 73.054688 58.207031 C 72.355469 58.207031 71.824219 58.417969 71.460938 58.832031 C 71.105469 59.25 70.929688 59.894531 70.929688 60.769531 L 70.929688 74.066406 L 69.429688 74.285156 L 69.429688 60.738281 C 69.429688 59.957031 69.574219 59.292969 69.867188 58.738281 C 70.15625 58.175781 70.570312 57.746094 71.101562 57.441406 C 71.640625 57.140625 72.289062 56.988281 73.039062 56.988281 Z M 73.039062 56.988281 "/>
<path fill-rule="nonzero" fill="rgb(60.000002%, 60.000002%, 60.000002%)" fill-opacity="1" d="M 86.070312 55.785156 L 86.070312 72.535156 L 81.554688 72.535156 L 81.554688 71.253906 L 84.632812 71.253906 L 84.632812 57.097656 L 81.554688 57.097656 L 81.554688 55.785156 Z M 86.070312 55.785156 "/>
<path fill-rule="nonzero" fill="rgb(60.000002%, 60.000002%, 60.000002%)" fill-opacity="1" d="M 169.714844 50.050781 L 169.714844 33.300781 L 174.214844 33.300781 L 174.214844 34.613281 L 171.136719 34.613281 L 171.136719 48.769531 L 174.214844 48.769531 L 174.214844 50.050781 Z M 169.714844 50.050781 "/>
<path fill-rule="nonzero" fill="rgb(30.19608%, 60.000002%, 0%)" fill-opacity="1" d="M 183.917969 35.597656 L 183.917969 47.613281 L 182.402344 47.613281 L 182.402344 37.222656 L 179.558594 38.957031 L 178.902344 37.878906 L 182.589844 35.597656 Z M 186.511719 46.738281 L 186.511719 47.972656 L 179.355469 47.972656 L 179.355469 46.738281 Z M 186.511719 46.738281 "/>
<path fill-rule="nonzero" fill="rgb(60.000002%, 60.000002%, 60.000002%)" fill-opacity="1" d="M 193.386719 45.019531 C 193.800781 45.019531 194.152344 45.160156 194.433594 45.441406 C 194.714844 45.722656 194.855469 46.0625 194.855469 46.457031 C 194.855469 46.667969 194.828125 46.886719 194.777344 47.113281 C 194.722656 47.332031 194.628906 47.582031 194.496094 47.863281 L 193.042969 51.207031 L 191.667969 51.207031 L 192.542969 47.644531 C 192.355469 47.519531 192.207031 47.355469 192.105469 47.144531 C 192 46.925781 191.949219 46.699219 191.949219 46.457031 C 191.949219 46.050781 192.082031 45.714844 192.355469 45.441406 C 192.636719 45.160156 192.980469 45.019531 193.386719 45.019531 Z M 193.386719 45.019531 "/>
<path fill-rule="nonzero" fill="rgb(30.19608%, 60.000002%, 0%)" fill-opacity="1" d="M 204.761719 46.582031 C 204.761719 46.292969 204.835938 46.03125 204.980469 45.800781 C 205.117188 45.5625 205.304688 45.375 205.542969 45.238281 C 205.773438 45.09375 206.039062 45.019531 206.339844 45.019531 C 206.644531 45.019531 206.917969 45.09375 207.167969 45.238281 C 207.410156 45.375 207.597656 45.5625 207.730469 45.800781 C 207.867188 46.03125 207.933594 46.292969 207.933594 46.582031 C 207.933594 46.886719 207.867188 47.15625 207.730469 47.394531 C 207.597656 47.636719 207.410156 47.828125 207.167969 47.972656 C 206.917969 48.105469 206.644531 48.175781 206.339844 48.175781 C 206.039062 48.175781 205.773438 48.105469 205.542969 47.972656 C 205.304688 47.828125 205.117188 47.636719 204.980469 47.394531 C 204.835938 47.15625 204.761719 46.886719 204.761719 46.582031 Z M 211.230469 46.582031 C 211.230469 46.292969 211.296875 46.03125 211.433594 45.800781 C 211.578125 45.5625 211.765625 45.375 211.996094 45.238281 C 212.234375 45.09375 212.503906 45.019531 212.808594 45.019531 C 213.109375 45.019531 213.378906 45.09375 213.621094 45.238281 C 213.871094 45.375 214.0625 45.5625 214.199219 45.800781 C 214.332031 46.03125 214.402344 46.292969 214.402344 46.582031 C 214.402344 46.886719 214.332031 47.15625 214.199219 47.394531 C 214.0625 47.636719 213.871094 47.828125 213.621094 47.972656 C 213.378906 48.105469 213.109375 48.175781 212.808594 48.175781 C 212.503906 48.175781 212.234375 48.105469 211.996094 47.972656 C 211.765625 47.828125 211.578125 47.636719 211.433594 47.394531 C 211.296875 47.15625 211.230469 46.886719 211.230469 46.582031 Z M 211.230469 46.582031 "/>
<path fill-rule="nonzero" fill="rgb(60.000002%, 60.000002%, 60.000002%)" fill-opacity="1" d="M 225.78125 45.019531 C 226.195312 45.019531 226.546875 45.160156 226.828125 45.441406 C 227.109375 45.722656 227.25 46.0625 227.25 46.457031 C 227.25 46.667969 227.222656 46.886719 227.171875 47.113281 C 227.117188 47.332031 227.023438 47.582031 226.890625 47.863281 L 225.4375 51.207031 L 224.0625 51.207031 L 224.9375 47.644531 C 224.75 47.519531 224.601562 47.355469 224.5 47.144531 C 224.394531 46.925781 224.34375 46.699219 224.34375 46.457031 C 224.34375 46.050781 224.476562 45.714844 224.75 45.441406 C 225.03125 45.160156 225.375 45.019531 225.78125 45.019531 Z M 225.78125 45.019531 "/>
<path fill-rule="nonzero" fill="rgb(30.19608%, 60.000002%, 0%)" fill-opacity="1" d="M 236.035156 35.394531 C 236.816406 35.394531 237.480469 35.546875 238.035156 35.847656 C 238.585938 36.140625 239.011719 36.550781 239.316406 37.082031 C 239.617188 37.605469 239.769531 38.191406 239.769531 38.847656 C 239.769531 39.421875 239.667969 39.980469 239.472656 40.519531 C 239.273438 41.0625 238.957031 41.628906 238.519531 42.222656 C 238.089844 42.816406 237.523438 43.480469 236.816406 44.207031 C 236.105469 44.9375 235.242188 45.765625 234.222656 46.691406 L 240.050781 46.691406 L 239.863281 47.972656 L 232.503906 47.972656 L 232.503906 46.738281 C 233.441406 45.84375 234.238281 45.0625 234.894531 44.394531 C 235.550781 43.71875 236.089844 43.128906 236.519531 42.628906 C 236.945312 42.121094 237.277344 41.660156 237.519531 41.253906 C 237.769531 40.839844 237.941406 40.441406 238.035156 40.066406 C 238.128906 39.691406 238.175781 39.300781 238.175781 38.894531 C 238.175781 38.207031 237.976562 37.660156 237.582031 37.253906 C 237.195312 36.847656 236.660156 36.644531 235.972656 36.644531 C 235.355469 36.644531 234.851562 36.753906 234.457031 36.972656 C 234.070312 37.183594 233.683594 37.515625 233.300781 37.972656 L 232.253906 37.160156 C 232.742188 36.566406 233.285156 36.125 233.878906 35.832031 C 234.480469 35.542969 235.199219 35.394531 236.035156 35.394531 Z M 236.035156 35.394531 "/>
<path fill-rule="nonzero" fill="rgb(60.000002%, 60.000002%, 60.000002%)" fill-opacity="1" d="M 247.378906 45.019531 C 247.792969 45.019531 248.144531 45.160156 248.425781 45.441406 C 248.707031 45.722656 248.847656 46.0625 248.847656 46.457031 C 248.847656 46.667969 248.820312 46.886719 248.769531 47.113281 C 248.714844 47.332031 248.621094 47.582031 248.488281 47.863281 L 247.035156 51.207031 L 245.660156 51.207031 L 246.535156 47.644531 C 246.347656 47.519531 246.199219 47.355469 246.097656 47.144531 C 245.992188 46.925781 245.941406 46.699219 245.941406 46.457031 C 245.941406 46.050781 246.074219 45.714844 246.347656 45.441406 C 246.628906 45.160156 246.972656 45.019531 247.378906 45.019531 Z M 247.378906 45.019531 "/>
<path fill-rule="nonzero" fill="rgb(100%, 50.196081%, 0%)" fill-opacity="1" d="M 261.378906 45.910156 C 261.378906 46.285156 261.441406 46.5625 261.566406 46.738281 C 261.691406 46.90625 261.882812 47.03125 262.144531 47.113281 L 261.785156 48.175781 C 261.367188 48.121094 261.007812 47.992188 260.707031 47.785156 C 260.402344 47.578125 260.179688 47.265625 260.035156 46.847656 C 259.699219 47.285156 259.277344 47.621094 258.769531 47.847656 C 258.257812 48.066406 257.695312 48.175781 257.082031 48.175781 C 256.132812 48.175781 255.382812 47.910156 254.832031 47.378906 C 254.289062 46.847656 254.019531 46.140625 254.019531 45.253906 C 254.019531 44.277344 254.398438 43.527344 255.160156 43.003906 C 255.917969 42.484375 257.019531 42.222656 258.457031 42.222656 L 259.847656 42.222656 L 259.847656 41.441406 C 259.847656 40.753906 259.648438 40.269531 259.253906 39.988281 C 258.855469 39.699219 258.304688 39.550781 257.597656 39.550781 C 257.285156 39.550781 256.914062 39.59375 256.488281 39.675781 C 256.070312 39.75 255.617188 39.871094 255.128906 40.035156 L 254.738281 38.894531 C 255.320312 38.6875 255.867188 38.535156 256.378906 38.441406 C 256.886719 38.347656 257.371094 38.300781 257.832031 38.300781 C 259.007812 38.300781 259.894531 38.578125 260.488281 39.128906 C 261.082031 39.683594 261.378906 40.425781 261.378906 41.363281 Z M 257.457031 47.035156 C 257.925781 47.035156 258.371094 46.917969 258.800781 46.675781 C 259.226562 46.4375 259.574219 46.109375 259.847656 45.691406 L 259.847656 43.253906 L 258.488281 43.253906 C 257.445312 43.253906 256.707031 43.4375 256.269531 43.800781 C 255.839844 44.15625 255.628906 44.636719 255.628906 45.238281 C 255.628906 45.824219 255.777344 46.269531 256.082031 46.582031 C 256.394531 46.886719 256.851562 47.035156 257.457031 47.035156 Z M 257.457031 47.035156 "/>
<path fill-rule="nonzero" fill="rgb(60.000002%, 60.000002%, 60.000002%)" fill-opacity="1" d="M 268.976562 45.019531 C 269.390625 45.019531 269.742188 45.160156 270.023438 45.441406 C 270.304688 45.722656 270.445312 46.0625 270.445312 46.457031 C 270.445312 46.667969 270.417969 46.886719 270.367188 47.113281 C 270.3125 47.332031 270.21875 47.582031 270.085938 47.863281 L 268.632812 51.207031 L 267.257812 51.207031 L 268.132812 47.644531 C 267.945312 47.519531 267.796875 47.355469 267.695312 47.144531 C 267.589844 46.925781 267.539062 46.699219 267.539062 46.457031 C 267.539062 46.050781 267.671875 45.714844 267.945312 45.441406 C 268.226562 45.160156 268.570312 45.019531 268.976562 45.019531 Z M 268.976562 45.019531 "/>
<path fill-rule="nonzero" fill="rgb(100%, 50.196081%, 0%)" fill-opacity="1" d="M 280.347656 46.582031 C 280.347656 46.292969 280.421875 46.03125 280.566406 45.800781 C 280.703125 45.5625 280.890625 45.375 281.128906 45.238281 C 281.359375 45.09375 281.625 45.019531 281.925781 45.019531 C 282.230469 45.019531 282.503906 45.09375 282.753906 45.238281 C 282.996094 45.375 283.183594 45.5625 283.316406 45.800781 C 283.453125 46.03125 283.519531 46.292969 283.519531 46.582031 C 283.519531 46.886719 283.453125 47.15625 283.316406 47.394531 C 283.183594 47.636719 282.996094 47.828125 282.753906 47.972656 C 282.503906 48.105469 282.230469 48.175781 281.925781 48.175781 C 281.625 48.175781 281.359375 48.105469 281.128906 47.972656 C 280.890625 47.828125 280.703125 47.636719 280.566406 47.394531 C 280.421875 47.15625 280.347656 46.886719 280.347656 46.582031 Z M 286.816406 46.582031 C 286.816406 46.292969 286.882812 46.03125 287.019531 45.800781 C 287.164062 45.5625 287.351562 45.375 287.582031 45.238281 C 287.820312 45.09375 288.089844 45.019531 288.394531 45.019531 C 288.695312 45.019531 288.964844 45.09375 289.207031 45.238281 C 289.457031 45.375 289.648438 45.5625 289.785156 45.800781 C 289.917969 46.03125 289.988281 46.292969 289.988281 46.582031 C 289.988281 46.886719 289.917969 47.15625 289.785156 47.394531 C 289.648438 47.636719 289.457031 47.828125 289.207031 47.972656 C 288.964844 48.105469 288.695312 48.175781 288.394531 48.175781 C 288.089844 48.175781 287.820312 48.105469 287.582031 47.972656 C 287.351562 47.828125 287.164062 47.636719 287.019531 47.394531 C 286.882812 47.15625 286.816406 46.886719 286.816406 46.582031 Z M 286.816406 46.582031 "/>
<path fill-rule="nonzero" fill="rgb(60.000002%, 60.000002%, 60.000002%)" fill-opacity="1" d="M 301.371094 45.019531 C 301.785156 45.019531 302.136719 45.160156 302.417969 45.441406 C 302.699219 45.722656 302.839844 46.0625 302.839844 46.457031 C 302.839844 46.667969 302.8125 46.886719 302.761719 47.113281 C 302.707031 47.332031 302.613281 47.582031 302.480469 47.863281 L 301.027344 51.207031 L 299.652344 51.207031 L 300.527344 47.644531 C 300.339844 47.519531 300.191406 47.355469 300.089844 47.144531 C 299.984375 46.925781 299.933594 46.699219 299.933594 46.457031 C 299.933594 46.050781 300.066406 45.714844 300.339844 45.441406 C 300.621094 45.160156 300.964844 45.019531 301.371094 45.019531 Z M 301.371094 45.019531 "/>
<path fill-rule="nonzero" fill="rgb(100%, 50.196081%, 0%)" fill-opacity="1" d="M 310.089844 39.738281 C 310.441406 39.28125 310.84375 38.925781 311.292969 38.675781 C 311.75 38.425781 312.25 38.300781 312.792969 38.300781 C 313.636719 38.300781 314.316406 38.511719 314.839844 38.925781 C 315.359375 39.332031 315.738281 39.90625 315.980469 40.644531 C 316.21875 41.386719 316.339844 42.25 316.339844 43.238281 C 316.339844 44.1875 316.191406 45.035156 315.902344 45.785156 C 315.621094 46.535156 315.203125 47.125 314.652344 47.550781 C 314.097656 47.96875 313.410156 48.175781 312.589844 48.175781 C 311.496094 48.175781 310.636719 47.78125 310.011719 46.988281 L 309.902344 47.972656 L 308.589844 47.972656 L 308.589844 34.691406 L 310.089844 34.503906 Z M 312.230469 46.957031 C 313.019531 46.957031 313.628906 46.65625 314.058594 46.050781 C 314.484375 45.4375 314.699219 44.496094 314.699219 43.222656 C 314.699219 42.402344 314.613281 41.714844 314.449219 41.160156 C 314.28125 40.609375 314.03125 40.199219 313.699219 39.925781 C 313.363281 39.65625 312.953125 39.519531 312.464844 39.519531 C 311.941406 39.519531 311.480469 39.675781 311.074219 39.988281 C 310.675781 40.300781 310.347656 40.652344 310.089844 41.035156 L 310.089844 45.738281 C 310.339844 46.105469 310.652344 46.402344 311.027344 46.628906 C 311.402344 46.847656 311.800781 46.957031 312.230469 46.957031 Z M 312.230469 46.957031 "/>
<path fill-rule="nonzero" fill="rgb(60.000002%, 60.000002%, 60.000002%)" fill-opacity="1" d="M 322.964844 45.019531 C 323.378906 45.019531 323.730469 45.160156 324.011719 45.441406 C 324.292969 45.722656 324.433594 46.0625 324.433594 46.457031 C 324.433594 46.667969 324.40625 46.886719 324.355469 47.113281 C 324.300781 47.332031 324.207031 47.582031 324.074219 47.863281 L 322.621094 51.207031 L 321.246094 51.207031 L 322.121094 47.644531 C 321.933594 47.519531 321.785156 47.355469 321.683594 47.144531 C 321.578125 46.925781 321.527344 46.699219 321.527344 46.457031 C 321.527344 46.050781 321.660156 45.714844 321.933594 45.441406 C 322.214844 45.160156 322.558594 45.019531 322.964844 45.019531 Z M 322.964844 45.019531 "/>
<path fill-rule="nonzero" fill="rgb(0%, 40.000001%, 80.000001%)" fill-opacity="1" d="M 332.96875 38.300781 C 333.5 38.300781 333.960938 38.394531 334.359375 38.582031 C 334.753906 38.761719 335.082031 39.066406 335.34375 39.503906 C 335.613281 39.933594 335.8125 40.519531 335.9375 41.269531 L 336.4375 38.503906 L 337.8125 38.503906 L 336.890625 43.550781 L 337.359375 46.003906 C 337.410156 46.253906 337.5 46.449219 337.625 46.582031 C 337.75 46.71875 337.925781 46.832031 338.15625 46.925781 L 337.625 48.191406 C 337.175781 48.117188 336.804688 47.949219 336.515625 47.675781 C 336.234375 47.40625 336.050781 47.011719 335.96875 46.488281 L 335.8125 45.472656 C 335.644531 45.964844 335.429688 46.410156 335.171875 46.816406 C 334.921875 47.222656 334.609375 47.550781 334.234375 47.800781 C 333.859375 48.050781 333.398438 48.175781 332.859375 48.175781 C 331.785156 48.175781 330.941406 47.777344 330.328125 46.972656 C 329.722656 46.171875 329.421875 44.953125 329.421875 43.316406 C 329.421875 42.347656 329.550781 41.488281 329.8125 40.738281 C 330.082031 39.980469 330.476562 39.386719 331 38.957031 C 331.519531 38.519531 332.175781 38.300781 332.96875 38.300781 Z M 333.078125 39.519531 C 332.429688 39.519531 331.929688 39.847656 331.578125 40.503906 C 331.222656 41.152344 331.046875 42.089844 331.046875 43.316406 C 331.046875 44.578125 331.210938 45.5 331.546875 46.082031 C 331.878906 46.667969 332.363281 46.957031 333 46.957031 C 333.226562 46.957031 333.457031 46.910156 333.6875 46.816406 C 333.925781 46.714844 334.15625 46.53125 334.375 46.269531 C 334.601562 46 334.816406 45.613281 335.015625 45.113281 C 335.222656 44.613281 335.398438 43.96875 335.546875 43.175781 C 335.390625 42.199219 335.191406 41.449219 334.953125 40.925781 C 334.710938 40.394531 334.4375 40.03125 334.125 39.832031 C 333.820312 39.625 333.472656 39.519531 333.078125 39.519531 Z M 333.078125 39.519531 "/>
<path fill-rule="nonzero" fill="rgb(60.000002%, 60.000002%, 60.000002%)" fill-opacity="1" d="M 344.5625 45.019531 C 344.976562 45.019531 345.328125 45.160156 345.609375 45.441406 C 345.890625 45.722656 346.03125 46.0625 346.03125 46.457031 C 346.03125 46.667969 346.003906 46.886719 345.953125 47.113281 C 345.898438 47.332031 345.804688 47.582031 345.671875 47.863281 L 344.21875 51.207031 L 342.84375 51.207031 L 343.71875 47.644531 C 343.53125 47.519531 343.382812 47.355469 343.28125 47.144531 C 343.175781 46.925781 343.125 46.699219 343.125 46.457031 C 343.125 46.050781 343.257812 45.714844 343.53125 45.441406 C 343.8125 45.160156 344.15625 45.019531 344.5625 45.019531 Z M 344.5625 45.019531 "/>
<path fill-rule="nonzero" fill="rgb(0%, 40.000001%, 80.000001%)" fill-opacity="1" d="M 355.9375 46.582031 C 355.9375 46.292969 356.011719 46.03125 356.15625 45.800781 C 356.292969 45.5625 356.480469 45.375 356.71875 45.238281 C 356.949219 45.09375 357.214844 45.019531 357.515625 45.019531 C 357.820312 45.019531 358.09375 45.09375 358.34375 45.238281 C 358.585938 45.375 358.773438 45.5625 358.90625 45.800781 C 359.042969 46.03125 359.109375 46.292969 359.109375 46.582031 C 359.109375 46.886719 359.042969 47.15625 358.90625 47.394531 C 358.773438 47.636719 358.585938 47.828125 358.34375 47.972656 C 358.09375 48.105469 357.820312 48.175781 357.515625 48.175781 C 357.214844 48.175781 356.949219 48.105469 356.71875 47.972656 C 356.480469 47.828125 356.292969 47.636719 356.15625 47.394531 C 356.011719 47.15625 355.9375 46.886719 355.9375 46.582031 Z M 362.40625 46.582031 C 362.40625 46.292969 362.472656 46.03125 362.609375 45.800781 C 362.753906 45.5625 362.941406 45.375 363.171875 45.238281 C 363.410156 45.09375 363.679688 45.019531 363.984375 45.019531 C 364.285156 45.019531 364.554688 45.09375 364.796875 45.238281 C 365.046875 45.375 365.238281 45.5625 365.375 45.800781 C 365.507812 46.03125 365.578125 46.292969 365.578125 46.582031 C 365.578125 46.886719 365.507812 47.15625 365.375 47.394531 C 365.238281 47.636719 365.046875 47.828125 364.796875 47.972656 C 364.554688 48.105469 364.285156 48.175781 363.984375 48.175781 C 363.679688 48.175781 363.410156 48.105469 363.171875 47.972656 C 362.941406 47.828125 362.753906 47.636719 362.609375 47.394531 C 362.472656 47.15625 362.40625 46.886719 362.40625 46.582031 Z M 362.40625 46.582031 "/>
<path fill-rule="nonzero" fill="rgb(60.000002%, 60.000002%, 60.000002%)" fill-opacity="1" d="M 376.957031 45.019531 C 377.371094 45.019531 377.722656 45.160156 378.003906 45.441406 C 378.285156 45.722656 378.425781 46.0625 378.425781 46.457031 C 378.425781 46.667969 378.398438 46.886719 378.347656 47.113281 C 378.292969 47.332031 378.199219 47.582031 378.066406 47.863281 L 376.613281 51.207031 L 375.238281 51.207031 L 376.113281 47.644531 C 375.925781 47.519531 375.777344 47.355469 375.675781 47.144531 C 375.570312 46.925781 375.519531 46.699219 375.519531 46.457031 C 375.519531 46.050781 375.652344 45.714844 375.925781 45.441406 C 376.207031 45.160156 376.550781 45.019531 376.957031 45.019531 Z M 376.957031 45.019531 "/>
<path fill-rule="nonzero" fill="rgb(0%, 40.000001%, 80.000001%)" fill-opacity="1" d="M 387.617188 34.503906 C 388.261719 34.503906 388.859375 34.636719 389.414062 34.894531 C 389.964844 35.144531 390.402344 35.511719 390.726562 35.988281 C 391.058594 36.457031 391.226562 37.027344 391.226562 37.691406 C 391.226562 38.328125 391.101562 38.859375 390.851562 39.285156 C 390.609375 39.703125 390.28125 40.03125 389.867188 40.269531 C 389.460938 40.5 389.011719 40.652344 388.523438 40.722656 C 388.949219 40.765625 389.382812 40.855469 389.820312 40.988281 C 390.257812 41.113281 390.652344 41.3125 391.007812 41.582031 C 391.371094 41.84375 391.664062 42.199219 391.882812 42.644531 C 392.101562 43.09375 392.210938 43.65625 392.210938 44.332031 C 392.210938 45.125 392.015625 45.808594 391.632812 46.378906 C 391.257812 46.953125 390.765625 47.394531 390.164062 47.707031 C 389.558594 48.019531 388.90625 48.175781 388.210938 48.175781 C 387.65625 48.175781 387.117188 48.070312 386.585938 47.863281 C 386.054688 47.644531 385.570312 47.328125 385.132812 46.910156 L 385.367188 45.863281 C 385.699219 46.238281 386.085938 46.515625 386.523438 46.691406 C 386.960938 46.859375 387.476562 46.941406 388.070312 46.941406 C 388.539062 46.941406 388.96875 46.84375 389.367188 46.644531 C 389.761719 46.449219 390.074219 46.15625 390.304688 45.769531 C 390.542969 45.386719 390.664062 44.90625 390.664062 44.332031 C 390.664062 43.363281 390.386719 42.636719 389.835938 42.144531 C 389.28125 41.644531 388.480469 41.394531 387.429688 41.394531 L 386.445312 41.394531 L 386.632812 40.222656 L 387.570312 40.222656 C 387.984375 40.222656 388.367188 40.144531 388.710938 39.988281 C 389.054688 39.824219 389.324219 39.566406 389.523438 39.222656 C 389.71875 38.871094 389.820312 38.40625 389.820312 37.832031 C 389.820312 37.105469 389.609375 36.574219 389.195312 36.238281 C 388.777344 35.894531 388.257812 35.722656 387.632812 35.722656 C 386.933594 35.722656 386.402344 35.933594 386.039062 36.347656 C 385.683594 36.765625 385.507812 37.410156 385.507812 38.285156 L 385.507812 51.582031 L 384.007812 51.800781 L 384.007812 38.253906 C 384.007812 37.472656 384.152344 36.808594 384.445312 36.253906 C 384.734375 35.691406 385.148438 35.261719 385.679688 34.957031 C 386.21875 34.65625 386.867188 34.503906 387.617188 34.503906 Z M 387.617188 34.503906 "/>
<path fill-rule="nonzero" fill="rgb(60.000002%, 60.000002%, 60.000002%)" fill-opacity="1" d="M 400.648438 33.300781 L 400.648438 50.050781 L 396.132812 50.050781 L 396.132812 48.769531 L 399.210938 48.769531 L 399.210938 34.613281 L 396.132812 34.613281 L 396.132812 33.300781 Z M 400.648438 33.300781 "/>
<path fill="none" stroke-width="2" stroke-linecap="butt" stroke-linejoin="miter" stroke="rgb(40.000001%, 40.000001%, 40.000001%)" stroke-opacity="1" stroke-miterlimit="10" d="M 158.000413 59.999299 L 187.757731 59.999299 " transform="matrix(0.749553, 0, 0, 0.749553, 0, 0)"/>
<path fill-rule="nonzero" fill="rgb(40.000001%, 40.000001%, 40.000001%)" fill-opacity="1" stroke-width="2" stroke-linecap="butt" stroke-linejoin="miter" stroke="rgb(40.000001%, 40.000001%, 40.000001%)" stroke-opacity="1" stroke-miterlimit="10" d="M 195.762501 59.999299 L 187.757731 62.667556 L 187.757731 57.331042 Z M 195.762501 59.999299 " transform="matrix(0.749553, 0, 0, 0.749553, 0, 0)"/>
</svg>
