<?xml version="1.0" encoding="UTF-8"?>
<svg xmlns="http://www.w3.org/2000/svg" xmlns:xlink="http://www.w3.org/1999/xlink" width="307.919983" height="31.92" viewBox="0 0 307.919983 31.92">
<defs>
<clipPath id="clip-0">
<path clip-rule="nonzero" d="M 91 0 L 140 0 L 140 30.726562 L 91 30.726562 Z M 91 0 "/>
</clipPath>
</defs>
<path fill-rule="nonzero" fill="rgb(60.000002%, 60.000002%, 60.000002%)" fill-opacity="1" d="M 6.308594 23.0625 L 6.308594 6.3125 L 10.808594 6.3125 L 10.808594 7.625 L 7.730469 7.625 L 7.730469 21.78125 L 10.808594 21.78125 L 10.808594 23.0625 Z M 6.308594 23.0625 "/>
<path fill-rule="nonzero" fill="rgb(100%, 50.196081%, 0%)" fill-opacity="1" d="M 20.511719 8.609375 L 20.511719 20.625 L 18.996094 20.625 L 18.996094 10.234375 L 16.152344 11.96875 L 15.496094 10.890625 L 19.183594 8.609375 Z M 23.105469 19.75 L 23.105469 20.984375 L 15.949219 20.984375 L 15.949219 19.75 Z M 23.105469 19.75 "/>
<path fill-rule="nonzero" fill="rgb(60.000002%, 60.000002%, 60.000002%)" fill-opacity="1" d="M 29.980469 18.03125 C 30.394531 18.03125 30.746094 18.171875 31.027344 18.453125 C 31.308594 18.734375 31.449219 19.074219 31.449219 19.46875 C 31.449219 19.679688 31.421875 19.898438 31.371094 20.125 C 31.316406 20.34375 31.222656 20.59375 31.089844 20.875 L 29.636719 24.21875 L 28.261719 24.21875 L 29.136719 20.65625 C 28.949219 20.53125 28.800781 20.367188 28.699219 20.15625 C 28.59375 19.9375 28.542969 19.710938 28.542969 19.46875 C 28.542969 19.0625 28.675781 18.726562 28.949219 18.453125 C 29.230469 18.171875 29.574219 18.03125 29.980469 18.03125 Z M 29.980469 18.03125 "/>
<path fill-rule="nonzero" fill="rgb(100%, 50.196081%, 0%)" fill-opacity="1" d="M 40.230469 8.40625 C 41.011719 8.40625 41.675781 8.558594 42.230469 8.859375 C 42.78125 9.152344 43.207031 9.5625 43.511719 10.09375 C 43.8125 10.617188 43.964844 11.203125 43.964844 11.859375 C 43.964844 12.433594 43.863281 12.992188 43.667969 13.53125 C 43.46875 14.074219 43.152344 14.640625 42.714844 15.234375 C 42.285156 15.828125 41.71875 16.492188 41.011719 17.21875 C 40.300781 17.949219 39.4375 18.777344 38.417969 19.703125 L 44.246094 19.703125 L 44.058594 20.984375 L 36.699219 20.984375 L 36.699219 19.75 C 37.636719 18.855469 38.433594 18.074219 39.089844 17.40625 C 39.746094 16.730469 40.285156 16.140625 40.714844 15.640625 C 41.140625 15.132812 41.472656 14.671875 41.714844 14.265625 C 41.964844 13.851562 42.136719 13.453125 42.230469 13.078125 C 42.324219 12.703125 42.371094 12.3125 42.371094 11.90625 C 42.371094 11.21875 42.171875 10.671875 41.777344 10.265625 C 41.390625 9.859375 40.855469 9.65625 40.167969 9.65625 C 39.550781 9.65625 39.046875 9.765625 38.652344 9.984375 C 38.265625 10.195312 37.878906 10.527344 37.496094 10.984375 L 36.449219 10.171875 C 36.9375 9.578125 37.480469 9.136719 38.074219 8.84375 C 38.675781 8.554688 39.394531 8.40625 40.230469 8.40625 Z M 40.230469 8.40625 "/>
<path fill-rule="nonzero" fill="rgb(60.000002%, 60.000002%, 60.000002%)" fill-opacity="1" d="M 51.570312 18.03125 C 51.984375 18.03125 52.335938 18.171875 52.617188 18.453125 C 52.898438 18.734375 53.039062 19.074219 53.039062 19.46875 C 53.039062 19.679688 53.011719 19.898438 52.960938 20.125 C 52.90625 20.34375 52.8125 20.59375 52.679688 20.875 L 51.226562 24.21875 L 49.851562 24.21875 L 50.726562 20.65625 C 50.539062 20.53125 50.390625 20.367188 50.289062 20.15625 C 50.183594 19.9375 50.132812 19.710938 50.132812 19.46875 C 50.132812 19.0625 50.265625 18.726562 50.539062 18.453125 C 50.820312 18.171875 51.164062 18.03125 51.570312 18.03125 Z M 51.570312 18.03125 "/>
<path fill-rule="nonzero" fill="rgb(100%, 50.196081%, 0%)" fill-opacity="1" d="M 61.804688 8.40625 C 62.585938 8.40625 63.257812 8.546875 63.820312 8.828125 C 64.390625 9.101562 64.828125 9.476562 65.132812 9.953125 C 65.445312 10.421875 65.601562 10.9375 65.601562 11.5 C 65.601562 12 65.492188 12.453125 65.273438 12.859375 C 65.054688 13.265625 64.761719 13.605469 64.398438 13.875 C 64.03125 14.136719 63.632812 14.308594 63.195312 14.390625 C 63.671875 14.421875 64.125 14.558594 64.554688 14.796875 C 64.980469 15.039062 65.328125 15.375 65.601562 15.8125 C 65.871094 16.242188 66.007812 16.777344 66.007812 17.421875 C 66.007812 18.132812 65.824219 18.773438 65.460938 19.34375 C 65.105469 19.917969 64.605469 20.371094 63.960938 20.703125 C 63.3125 21.023438 62.5625 21.1875 61.710938 21.1875 C 61.023438 21.1875 60.335938 21.054688 59.648438 20.796875 C 58.960938 20.539062 58.375 20.117188 57.898438 19.53125 L 58.914062 18.703125 C 59.265625 19.121094 59.6875 19.433594 60.179688 19.640625 C 60.667969 19.839844 61.164062 19.9375 61.664062 19.9375 C 62.527344 19.9375 63.203125 19.714844 63.695312 19.265625 C 64.183594 18.808594 64.429688 18.195312 64.429688 17.421875 C 64.429688 16.828125 64.3125 16.367188 64.085938 16.03125 C 63.855469 15.6875 63.546875 15.445312 63.164062 15.296875 C 62.789062 15.140625 62.351562 15.0625 61.851562 15.0625 L 60.820312 15.0625 L 61.007812 13.875 L 61.726562 13.875 C 62.132812 13.875 62.511719 13.796875 62.867188 13.640625 C 63.21875 13.484375 63.511719 13.246094 63.742188 12.921875 C 63.96875 12.601562 64.085938 12.199219 64.085938 11.71875 C 64.085938 11.03125 63.855469 10.511719 63.398438 10.15625 C 62.949219 9.792969 62.402344 9.609375 61.757812 9.609375 C 61.214844 9.609375 60.742188 9.703125 60.335938 9.890625 C 59.9375 10.078125 59.539062 10.367188 59.132812 10.75 L 58.289062 9.828125 C 58.820312 9.328125 59.382812 8.96875 59.976562 8.75 C 60.570312 8.523438 61.179688 8.40625 61.804688 8.40625 Z M 61.804688 8.40625 "/>
<path fill-rule="nonzero" fill="rgb(60.000002%, 60.000002%, 60.000002%)" fill-opacity="1" d="M 75.257812 6.3125 L 75.257812 23.0625 L 70.742188 23.0625 L 70.742188 21.78125 L 73.820312 21.78125 L 73.820312 7.625 L 70.742188 7.625 L 70.742188 6.3125 Z M 75.257812 6.3125 "/>
<path fill-rule="nonzero" fill="rgb(60.000002%, 60.000002%, 60.000002%)" fill-opacity="1" d="M 133.707031 23.0625 L 133.707031 6.3125 L 138.207031 6.3125 L 138.207031 7.625 L 135.128906 7.625 L 135.128906 21.78125 L 138.207031 21.78125 L 138.207031 23.0625 Z M 133.707031 23.0625 "/>
<path fill-rule="nonzero" fill="rgb(100%, 50.196081%, 0%)" fill-opacity="1" d="M 147.910156 8.609375 L 147.910156 20.625 L 146.394531 20.625 L 146.394531 10.234375 L 143.550781 11.96875 L 142.894531 10.890625 L 146.582031 8.609375 Z M 150.503906 19.75 L 150.503906 20.984375 L 143.347656 20.984375 L 143.347656 19.75 Z M 150.503906 19.75 "/>
<path fill-rule="nonzero" fill="rgb(60.000002%, 60.000002%, 60.000002%)" fill-opacity="1" d="M 157.375 18.03125 C 157.789062 18.03125 158.140625 18.171875 158.421875 18.453125 C 158.703125 18.734375 158.84375 19.074219 158.84375 19.46875 C 158.84375 19.679688 158.816406 19.898438 158.765625 20.125 C 158.710938 20.34375 158.617188 20.59375 158.484375 20.875 L 157.03125 24.21875 L 155.65625 24.21875 L 156.53125 20.65625 C 156.34375 20.53125 156.195312 20.367188 156.09375 20.15625 C 155.988281 19.9375 155.9375 19.710938 155.9375 19.46875 C 155.9375 19.0625 156.070312 18.726562 156.34375 18.453125 C 156.625 18.171875 156.96875 18.03125 157.375 18.03125 Z M 157.375 18.03125 "/>
<path fill-rule="nonzero" fill="rgb(100%, 50.196081%, 0%)" fill-opacity="1" d="M 167.625 8.40625 C 168.40625 8.40625 169.070312 8.558594 169.625 8.859375 C 170.175781 9.152344 170.601562 9.5625 170.90625 10.09375 C 171.207031 10.617188 171.359375 11.203125 171.359375 11.859375 C 171.359375 12.433594 171.257812 12.992188 171.0625 13.53125 C 170.863281 14.074219 170.546875 14.640625 170.109375 15.234375 C 169.679688 15.828125 169.113281 16.492188 168.40625 17.21875 C 167.695312 17.949219 166.832031 18.777344 165.8125 19.703125 L 171.640625 19.703125 L 171.453125 20.984375 L 164.09375 20.984375 L 164.09375 19.75 C 165.03125 18.855469 165.828125 18.074219 166.484375 17.40625 C 167.140625 16.730469 167.679688 16.140625 168.109375 15.640625 C 168.535156 15.132812 168.867188 14.671875 169.109375 14.265625 C 169.359375 13.851562 169.53125 13.453125 169.625 13.078125 C 169.71875 12.703125 169.765625 12.3125 169.765625 11.90625 C 169.765625 11.21875 169.566406 10.671875 169.171875 10.265625 C 168.785156 9.859375 168.25 9.65625 167.5625 9.65625 C 166.945312 9.65625 166.441406 9.765625 166.046875 9.984375 C 165.660156 10.195312 165.273438 10.527344 164.890625 10.984375 L 163.84375 10.171875 C 164.332031 9.578125 164.875 9.136719 165.46875 8.84375 C 166.070312 8.554688 166.789062 8.40625 167.625 8.40625 Z M 167.625 8.40625 "/>
<path fill-rule="nonzero" fill="rgb(60.000002%, 60.000002%, 60.000002%)" fill-opacity="1" d="M 178.96875 18.03125 C 179.382812 18.03125 179.734375 18.171875 180.015625 18.453125 C 180.296875 18.734375 180.4375 19.074219 180.4375 19.46875 C 180.4375 19.679688 180.410156 19.898438 180.359375 20.125 C 180.304688 20.34375 180.210938 20.59375 180.078125 20.875 L 178.625 24.21875 L 177.25 24.21875 L 178.125 20.65625 C 177.9375 20.53125 177.789062 20.367188 177.6875 20.15625 C 177.582031 19.9375 177.53125 19.710938 177.53125 19.46875 C 177.53125 19.0625 177.664062 18.726562 177.9375 18.453125 C 178.21875 18.171875 178.5625 18.03125 178.96875 18.03125 Z M 178.96875 18.03125 "/>
<path fill-rule="nonzero" fill="rgb(100%, 50.196081%, 0%)" fill-opacity="1" d="M 189.203125 8.40625 C 189.984375 8.40625 190.65625 8.546875 191.21875 8.828125 C 191.789062 9.101562 192.226562 9.476562 192.53125 9.953125 C 192.84375 10.421875 193 10.9375 193 11.5 C 193 12 192.890625 12.453125 192.671875 12.859375 C 192.453125 13.265625 192.160156 13.605469 191.796875 13.875 C 191.429688 14.136719 191.03125 14.308594 190.59375 14.390625 C 191.070312 14.421875 191.523438 14.558594 191.953125 14.796875 C 192.378906 15.039062 192.726562 15.375 193 15.8125 C 193.269531 16.242188 193.40625 16.777344 193.40625 17.421875 C 193.40625 18.132812 193.222656 18.773438 192.859375 19.34375 C 192.503906 19.917969 192.003906 20.371094 191.359375 20.703125 C 190.710938 21.023438 189.960938 21.1875 189.109375 21.1875 C 188.421875 21.1875 187.734375 21.054688 187.046875 20.796875 C 186.359375 20.539062 185.773438 20.117188 185.296875 19.53125 L 186.3125 18.703125 C 186.664062 19.121094 187.085938 19.433594 187.578125 19.640625 C 188.066406 19.839844 188.5625 19.9375 189.0625 19.9375 C 189.925781 19.9375 190.601562 19.714844 191.09375 19.265625 C 191.582031 18.808594 191.828125 18.195312 191.828125 17.421875 C 191.828125 16.828125 191.710938 16.367188 191.484375 16.03125 C 191.253906 15.6875 190.945312 15.445312 190.5625 15.296875 C 190.1875 15.140625 189.75 15.0625 189.25 15.0625 L 188.21875 15.0625 L 188.40625 13.875 L 189.125 13.875 C 189.53125 13.875 189.910156 13.796875 190.265625 13.640625 C 190.617188 13.484375 190.910156 13.246094 191.140625 12.921875 C 191.367188 12.601562 191.484375 12.199219 191.484375 11.71875 C 191.484375 11.03125 191.253906 10.511719 190.796875 10.15625 C 190.347656 9.792969 189.800781 9.609375 189.15625 9.609375 C 188.613281 9.609375 188.140625 9.703125 187.734375 9.890625 C 187.335938 10.078125 186.9375 10.367188 186.53125 10.75 L 185.6875 9.828125 C 186.21875 9.328125 186.78125 8.96875 187.375 8.75 C 187.96875 8.523438 188.578125 8.40625 189.203125 8.40625 Z M 189.203125 8.40625 "/>
<path fill-rule="nonzero" fill="rgb(60.000002%, 60.000002%, 60.000002%)" fill-opacity="1" d="M 200.558594 18.03125 C 200.972656 18.03125 201.324219 18.171875 201.605469 18.453125 C 201.886719 18.734375 202.027344 19.074219 202.027344 19.46875 C 202.027344 19.679688 202 19.898438 201.949219 20.125 C 201.894531 20.34375 201.800781 20.59375 201.667969 20.875 L 200.214844 24.21875 L 198.839844 24.21875 L 199.714844 20.65625 C 199.527344 20.53125 199.378906 20.367188 199.277344 20.15625 C 199.171875 19.9375 199.121094 19.710938 199.121094 19.46875 C 199.121094 19.0625 199.253906 18.726562 199.527344 18.453125 C 199.808594 18.171875 200.152344 18.03125 200.558594 18.03125 Z M 200.558594 18.03125 "/>
<path fill-rule="nonzero" fill="rgb(100%, 50.196081%, 0%)" fill-opacity="1" d="M 212.683594 8.609375 L 212.683594 20.625 L 211.167969 20.625 L 211.167969 10.234375 L 208.324219 11.96875 L 207.667969 10.890625 L 211.355469 8.609375 Z M 215.277344 19.75 L 215.277344 20.984375 L 208.121094 20.984375 L 208.121094 19.75 Z M 215.277344 19.75 "/>
<path fill-rule="nonzero" fill="rgb(60.000002%, 60.000002%, 60.000002%)" fill-opacity="1" d="M 222.152344 18.03125 C 222.566406 18.03125 222.917969 18.171875 223.199219 18.453125 C 223.480469 18.734375 223.621094 19.074219 223.621094 19.46875 C 223.621094 19.679688 223.59375 19.898438 223.542969 20.125 C 223.488281 20.34375 223.394531 20.59375 223.261719 20.875 L 221.808594 24.21875 L 220.433594 24.21875 L 221.308594 20.65625 C 221.121094 20.53125 220.972656 20.367188 220.871094 20.15625 C 220.765625 19.9375 220.714844 19.710938 220.714844 19.46875 C 220.714844 19.0625 220.847656 18.726562 221.121094 18.453125 C 221.402344 18.171875 221.746094 18.03125 222.152344 18.03125 Z M 222.152344 18.03125 "/>
<path fill-rule="nonzero" fill="rgb(100%, 50.196081%, 0%)" fill-opacity="1" d="M 232.402344 8.40625 C 233.183594 8.40625 233.847656 8.558594 234.402344 8.859375 C 234.953125 9.152344 235.378906 9.5625 235.683594 10.09375 C 235.984375 10.617188 236.136719 11.203125 236.136719 11.859375 C 236.136719 12.433594 236.035156 12.992188 235.839844 13.53125 C 235.640625 14.074219 235.324219 14.640625 234.886719 15.234375 C 234.457031 15.828125 233.890625 16.492188 233.183594 17.21875 C 232.472656 17.949219 231.609375 18.777344 230.589844 19.703125 L 236.417969 19.703125 L 236.230469 20.984375 L 228.871094 20.984375 L 228.871094 19.75 C 229.808594 18.855469 230.605469 18.074219 231.261719 17.40625 C 231.917969 16.730469 232.457031 16.140625 232.886719 15.640625 C 233.3125 15.132812 233.644531 14.671875 233.886719 14.265625 C 234.136719 13.851562 234.308594 13.453125 234.402344 13.078125 C 234.496094 12.703125 234.542969 12.3125 234.542969 11.90625 C 234.542969 11.21875 234.34375 10.671875 233.949219 10.265625 C 233.5625 9.859375 233.027344 9.65625 232.339844 9.65625 C 231.722656 9.65625 231.21875 9.765625 230.824219 9.984375 C 230.4375 10.195312 230.050781 10.527344 229.667969 10.984375 L 228.621094 10.171875 C 229.109375 9.578125 229.652344 9.136719 230.246094 8.84375 C 230.847656 8.554688 231.566406 8.40625 232.402344 8.40625 Z M 232.402344 8.40625 "/>
<path fill-rule="nonzero" fill="rgb(60.000002%, 60.000002%, 60.000002%)" fill-opacity="1" d="M 243.742188 18.03125 C 244.15625 18.03125 244.507812 18.171875 244.789062 18.453125 C 245.070312 18.734375 245.210938 19.074219 245.210938 19.46875 C 245.210938 19.679688 245.183594 19.898438 245.132812 20.125 C 245.078125 20.34375 244.984375 20.59375 244.851562 20.875 L 243.398438 24.21875 L 242.023438 24.21875 L 242.898438 20.65625 C 242.710938 20.53125 242.5625 20.367188 242.460938 20.15625 C 242.355469 19.9375 242.304688 19.710938 242.304688 19.46875 C 242.304688 19.0625 242.4375 18.726562 242.710938 18.453125 C 242.992188 18.171875 243.335938 18.03125 243.742188 18.03125 Z M 243.742188 18.03125 "/>
<path fill-rule="nonzero" fill="rgb(100%, 50.196081%, 0%)" fill-opacity="1" d="M 253.976562 8.40625 C 254.757812 8.40625 255.429688 8.546875 255.992188 8.828125 C 256.5625 9.101562 257 9.476562 257.304688 9.953125 C 257.617188 10.421875 257.773438 10.9375 257.773438 11.5 C 257.773438 12 257.664062 12.453125 257.445312 12.859375 C 257.226562 13.265625 256.933594 13.605469 256.570312 13.875 C 256.203125 14.136719 255.804688 14.308594 255.367188 14.390625 C 255.84375 14.421875 256.296875 14.558594 256.726562 14.796875 C 257.152344 15.039062 257.5 15.375 257.773438 15.8125 C 258.042969 16.242188 258.179688 16.777344 258.179688 17.421875 C 258.179688 18.132812 257.996094 18.773438 257.632812 19.34375 C 257.277344 19.917969 256.777344 20.371094 256.132812 20.703125 C 255.484375 21.023438 254.734375 21.1875 253.882812 21.1875 C 253.195312 21.1875 252.507812 21.054688 251.820312 20.796875 C 251.132812 20.539062 250.546875 20.117188 250.070312 19.53125 L 251.085938 18.703125 C 251.4375 19.121094 251.859375 19.433594 252.351562 19.640625 C 252.839844 19.839844 253.335938 19.9375 253.835938 19.9375 C 254.699219 19.9375 255.375 19.714844 255.867188 19.265625 C 256.355469 18.808594 256.601562 18.195312 256.601562 17.421875 C 256.601562 16.828125 256.484375 16.367188 256.257812 16.03125 C 256.027344 15.6875 255.71875 15.445312 255.335938 15.296875 C 254.960938 15.140625 254.523438 15.0625 254.023438 15.0625 L 252.992188 15.0625 L 253.179688 13.875 L 253.898438 13.875 C 254.304688 13.875 254.683594 13.796875 255.039062 13.640625 C 255.390625 13.484375 255.683594 13.246094 255.914062 12.921875 C 256.140625 12.601562 256.257812 12.199219 256.257812 11.71875 C 256.257812 11.03125 256.027344 10.511719 255.570312 10.15625 C 255.121094 9.792969 254.574219 9.609375 253.929688 9.609375 C 253.386719 9.609375 252.914062 9.703125 252.507812 9.890625 C 252.109375 10.078125 251.710938 10.367188 251.304688 10.75 L 250.460938 9.828125 C 250.992188 9.328125 251.554688 8.96875 252.148438 8.75 C 252.742188 8.523438 253.351562 8.40625 253.976562 8.40625 Z M 253.976562 8.40625 "/>
<path fill-rule="nonzero" fill="rgb(60.000002%, 60.000002%, 60.000002%)" fill-opacity="1" d="M 265.335938 18.03125 C 265.75 18.03125 266.101562 18.171875 266.382812 18.453125 C 266.664062 18.734375 266.804688 19.074219 266.804688 19.46875 C 266.804688 19.679688 266.777344 19.898438 266.726562 20.125 C 266.671875 20.34375 266.578125 20.59375 266.445312 20.875 L 264.992188 24.21875 L 263.617188 24.21875 L 264.492188 20.65625 C 264.304688 20.53125 264.15625 20.367188 264.054688 20.15625 C 263.949219 19.9375 263.898438 19.710938 263.898438 19.46875 C 263.898438 19.0625 264.03125 18.726562 264.304688 18.453125 C 264.585938 18.171875 264.929688 18.03125 265.335938 18.03125 Z M 265.335938 18.03125 "/>
<path fill-rule="nonzero" fill="rgb(60.000002%, 60.000002%, 60.000002%)" fill-opacity="1" d="M 276.703125 19.59375 C 276.703125 19.304688 276.777344 19.042969 276.921875 18.8125 C 277.058594 18.574219 277.246094 18.386719 277.484375 18.25 C 277.714844 18.105469 277.980469 18.03125 278.28125 18.03125 C 278.585938 18.03125 278.859375 18.105469 279.109375 18.25 C 279.351562 18.386719 279.539062 18.574219 279.671875 18.8125 C 279.808594 19.042969 279.875 19.304688 279.875 19.59375 C 279.875 19.898438 279.808594 20.167969 279.671875 20.40625 C 279.539062 20.648438 279.351562 20.839844 279.109375 20.984375 C 278.859375 21.117188 278.585938 21.1875 278.28125 21.1875 C 277.980469 21.1875 277.714844 21.117188 277.484375 20.984375 C 277.246094 20.839844 277.058594 20.648438 276.921875 20.40625 C 276.777344 20.167969 276.703125 19.898438 276.703125 19.59375 Z M 283.171875 19.59375 C 283.171875 19.304688 283.238281 19.042969 283.375 18.8125 C 283.519531 18.574219 283.707031 18.386719 283.9375 18.25 C 284.175781 18.105469 284.445312 18.03125 284.75 18.03125 C 285.050781 18.03125 285.320312 18.105469 285.5625 18.25 C 285.8125 18.386719 286.003906 18.574219 286.140625 18.8125 C 286.273438 19.042969 286.34375 19.304688 286.34375 19.59375 C 286.34375 19.898438 286.273438 20.167969 286.140625 20.40625 C 286.003906 20.648438 285.8125 20.839844 285.5625 20.984375 C 285.320312 21.117188 285.050781 21.1875 284.75 21.1875 C 284.445312 21.1875 284.175781 21.117188 283.9375 20.984375 C 283.707031 20.839844 283.519531 20.648438 283.375 20.40625 C 283.238281 20.167969 283.171875 19.898438 283.171875 19.59375 Z M 283.171875 19.59375 "/>
<path fill-rule="nonzero" fill="rgb(60.000002%, 60.000002%, 60.000002%)" fill-opacity="1" d="M 299.816406 6.3125 L 299.816406 23.0625 L 295.300781 23.0625 L 295.300781 21.78125 L 298.378906 21.78125 L 298.378906 7.625 L 295.300781 7.625 L 295.300781 6.3125 Z M 299.816406 6.3125 "/>
<path fill="none" stroke-width="2" stroke-linecap="butt" stroke-linejoin="miter" stroke="rgb(40.000001%, 40.000001%, 40.000001%)" stroke-opacity="1" stroke-miterlimit="10" d="M 119.998325 19.719111 L 149.762037 19.719111 " transform="matrix(0.749392, 0, 0, 0.749392, 0.000000000000021316, 0)"/>
<path fill-rule="nonzero" fill="rgb(40.000001%, 40.000001%, 40.000001%)" fill-opacity="1" d="M 118.222656 14.777344 L 112.230469 16.777344 L 112.230469 12.777344 Z M 118.222656 14.777344 "/>
<g clip-path="url(#clip-0)">
<path fill="none" stroke-width="2" stroke-linecap="butt" stroke-linejoin="miter" stroke="rgb(40.000001%, 40.000001%, 40.000001%)" stroke-opacity="1" stroke-miterlimit="10" d="M 157.758103 19.719111 L 149.762037 22.387942 L 149.762037 17.050281 Z M 157.758103 19.719111 " transform="matrix(0.749392, 0, 0, 0.749392, 0.000000000000021316, 0)"/>
</g>
</svg>
