<?xml version="1.0" encoding="UTF-8"?>
<svg xmlns="http://www.w3.org/2000/svg" xmlns:xlink="http://www.w3.org/1999/xlink" width="313.919983" height="54.959999" viewBox="0 0 313.919983 54.959999">
<path fill-rule="nonzero" fill="rgb(60.000002%, 60.000002%, 60.000002%)" fill-opacity="1" d="M 6.308594 24.558594 L 6.308594 7.808594 L 10.808594 7.808594 L 10.808594 9.121094 L 7.730469 9.121094 L 7.730469 23.277344 L 10.808594 23.277344 L 10.808594 24.558594 Z M 6.308594 24.558594 "/>
<path fill-rule="nonzero" fill="rgb(30.19608%, 60.000002%, 0%)" fill-opacity="1" d="M 19.886719 21.386719 C 20.355469 21.386719 20.792969 21.308594 21.199219 21.152344 C 21.613281 20.996094 21.996094 20.800781 22.339844 20.558594 L 23.074219 21.542969 C 22.667969 21.898438 22.171875 22.179688 21.589844 22.386719 C 21.003906 22.582031 20.4375 22.683594 19.886719 22.683594 C 18.9375 22.683594 18.128906 22.484375 17.464844 22.089844 C 16.808594 21.683594 16.300781 21.117188 15.949219 20.386719 C 15.605469 19.648438 15.433594 18.785156 15.433594 17.792969 C 15.433594 16.847656 15.609375 15.996094 15.964844 15.246094 C 16.316406 14.488281 16.824219 13.894531 17.480469 13.464844 C 18.144531 13.027344 18.953125 12.808594 19.902344 12.808594 C 20.503906 12.808594 21.074219 12.902344 21.605469 13.089844 C 22.136719 13.269531 22.621094 13.542969 23.058594 13.917969 L 22.324219 14.917969 C 21.925781 14.636719 21.527344 14.429688 21.121094 14.292969 C 20.714844 14.148438 20.300781 14.074219 19.886719 14.074219 C 19.0625 14.074219 18.386719 14.382812 17.855469 14.996094 C 17.332031 15.601562 17.074219 16.535156 17.074219 17.792969 C 17.074219 18.628906 17.191406 19.308594 17.433594 19.839844 C 17.683594 20.371094 18.015625 20.761719 18.433594 21.011719 C 18.859375 21.261719 19.34375 21.386719 19.886719 21.386719 Z M 19.886719 21.386719 "/>
<path fill-rule="nonzero" fill="rgb(60.000002%, 60.000002%, 60.000002%)" fill-opacity="1" d="M 29.980469 19.527344 C 30.394531 19.527344 30.746094 19.667969 31.027344 19.949219 C 31.308594 20.230469 31.449219 20.570312 31.449219 20.964844 C 31.449219 21.175781 31.421875 21.394531 31.371094 21.621094 C 31.316406 21.839844 31.222656 22.089844 31.089844 22.371094 L 29.636719 25.714844 L 28.261719 25.714844 L 29.136719 22.152344 C 28.949219 22.027344 28.800781 21.863281 28.699219 21.652344 C 28.59375 21.433594 28.542969 21.207031 28.542969 20.964844 C 28.542969 20.558594 28.675781 20.222656 28.949219 19.949219 C 29.230469 19.667969 29.574219 19.527344 29.980469 19.527344 Z M 29.980469 19.527344 "/>
<path fill-rule="nonzero" fill="rgb(0%, 40.000001%, 80.000001%)" fill-opacity="1" d="M 43.980469 20.417969 C 43.980469 20.792969 44.042969 21.070312 44.167969 21.246094 C 44.292969 21.414062 44.484375 21.539062 44.746094 21.621094 L 44.386719 22.683594 C 43.96875 22.628906 43.609375 22.5 43.308594 22.292969 C 43.003906 22.085938 42.78125 21.773438 42.636719 21.355469 C 42.300781 21.792969 41.878906 22.128906 41.371094 22.355469 C 40.859375 22.574219 40.296875 22.683594 39.683594 22.683594 C 38.734375 22.683594 37.984375 22.417969 37.433594 21.886719 C 36.890625 21.355469 36.621094 20.648438 36.621094 19.761719 C 36.621094 18.785156 37 18.035156 37.761719 17.511719 C 38.519531 16.992188 39.621094 16.730469 41.058594 16.730469 L 42.449219 16.730469 L 42.449219 15.949219 C 42.449219 15.261719 42.25 14.777344 41.855469 14.496094 C 41.457031 14.207031 40.90625 14.058594 40.199219 14.058594 C 39.886719 14.058594 39.515625 14.101562 39.089844 14.183594 C 38.671875 14.257812 38.21875 14.378906 37.730469 14.542969 L 37.339844 13.402344 C 37.921875 13.195312 38.46875 13.042969 38.980469 12.949219 C 39.488281 12.855469 39.972656 12.808594 40.433594 12.808594 C 41.609375 12.808594 42.496094 13.085938 43.089844 13.636719 C 43.683594 14.191406 43.980469 14.933594 43.980469 15.871094 Z M 40.058594 21.542969 C 40.527344 21.542969 40.972656 21.425781 41.402344 21.183594 C 41.828125 20.945312 42.175781 20.617188 42.449219 20.199219 L 42.449219 17.761719 L 41.089844 17.761719 C 40.046875 17.761719 39.308594 17.945312 38.871094 18.308594 C 38.441406 18.664062 38.230469 19.144531 38.230469 19.746094 C 38.230469 20.332031 38.378906 20.777344 38.683594 21.089844 C 38.996094 21.394531 39.453125 21.542969 40.058594 21.542969 Z M 40.058594 21.542969 "/>
<path fill-rule="nonzero" fill="rgb(60.000002%, 60.000002%, 60.000002%)" fill-opacity="1" d="M 51.574219 19.527344 C 51.988281 19.527344 52.339844 19.667969 52.621094 19.949219 C 52.902344 20.230469 53.042969 20.570312 53.042969 20.964844 C 53.042969 21.175781 53.015625 21.394531 52.964844 21.621094 C 52.910156 21.839844 52.816406 22.089844 52.683594 22.371094 L 51.230469 25.714844 L 49.855469 25.714844 L 50.730469 22.152344 C 50.542969 22.027344 50.394531 21.863281 50.292969 21.652344 C 50.1875 21.433594 50.136719 21.207031 50.136719 20.964844 C 50.136719 20.558594 50.269531 20.222656 50.542969 19.949219 C 50.824219 19.667969 51.167969 19.527344 51.574219 19.527344 Z M 51.574219 19.527344 "/>
<path fill-rule="nonzero" fill="rgb(100%, 50.196081%, 0%)" fill-opacity="1" d="M 60.289062 14.246094 C 60.640625 13.789062 61.042969 13.433594 61.492188 13.183594 C 61.949219 12.933594 62.449219 12.808594 62.992188 12.808594 C 63.835938 12.808594 64.515625 13.019531 65.039062 13.433594 C 65.558594 13.839844 65.9375 14.414062 66.179688 15.152344 C 66.417969 15.894531 66.539062 16.757812 66.539062 17.746094 C 66.539062 18.695312 66.390625 19.542969 66.101562 20.292969 C 65.820312 21.042969 65.402344 21.632812 64.851562 22.058594 C 64.296875 22.476562 63.609375 22.683594 62.789062 22.683594 C 61.695312 22.683594 60.835938 22.289062 60.210938 21.496094 L 60.101562 22.480469 L 58.789062 22.480469 L 58.789062 9.199219 L 60.289062 9.011719 Z M 62.429688 21.464844 C 63.21875 21.464844 63.828125 21.164062 64.257812 20.558594 C 64.683594 19.945312 64.898438 19.003906 64.898438 17.730469 C 64.898438 16.910156 64.8125 16.222656 64.648438 15.667969 C 64.480469 15.117188 64.230469 14.707031 63.898438 14.433594 C 63.5625 14.164062 63.152344 14.027344 62.664062 14.027344 C 62.140625 14.027344 61.679688 14.183594 61.273438 14.496094 C 60.875 14.808594 60.546875 15.160156 60.289062 15.542969 L 60.289062 20.246094 C 60.539062 20.613281 60.851562 20.910156 61.226562 21.136719 C 61.601562 21.355469 62 21.464844 62.429688 21.464844 Z M 62.429688 21.464844 "/>
<path fill-rule="nonzero" fill="rgb(60.000002%, 60.000002%, 60.000002%)" fill-opacity="1" d="M 73.164062 19.527344 C 73.578125 19.527344 73.929688 19.667969 74.210938 19.949219 C 74.492188 20.230469 74.632812 20.570312 74.632812 20.964844 C 74.632812 21.175781 74.605469 21.394531 74.554688 21.621094 C 74.5 21.839844 74.40625 22.089844 74.273438 22.371094 L 72.820312 25.714844 L 71.445312 25.714844 L 72.320312 22.152344 C 72.132812 22.027344 71.984375 21.863281 71.882812 21.652344 C 71.777344 21.433594 71.726562 21.207031 71.726562 20.964844 C 71.726562 20.558594 71.859375 20.222656 72.132812 19.949219 C 72.414062 19.667969 72.757812 19.527344 73.164062 19.527344 Z M 73.164062 19.527344 "/>
<path fill-rule="nonzero" fill="rgb(70.980394%, 45.09804%, 61.56863%)" fill-opacity="1" d="M 86.039062 9.011719 L 87.554688 9.199219 L 87.554688 22.480469 L 86.226562 22.480469 L 86.085938 21.230469 C 85.730469 21.730469 85.324219 22.101562 84.867188 22.339844 C 84.40625 22.566406 83.917969 22.683594 83.398438 22.683594 C 82.574219 22.683594 81.898438 22.480469 81.367188 22.074219 C 80.835938 21.660156 80.4375 21.082031 80.179688 20.339844 C 79.917969 19.601562 79.789062 18.742188 79.789062 17.761719 C 79.789062 16.816406 79.933594 15.972656 80.226562 15.230469 C 80.527344 14.480469 80.953125 13.894531 81.507812 13.464844 C 82.058594 13.027344 82.726562 12.808594 83.507812 12.808594 C 84.046875 12.808594 84.527344 12.910156 84.945312 13.105469 C 85.359375 13.292969 85.726562 13.570312 86.039062 13.933594 Z M 83.898438 14.027344 C 83.105469 14.027344 82.496094 14.339844 82.070312 14.964844 C 81.652344 15.582031 81.445312 16.511719 81.445312 17.761719 C 81.445312 18.574219 81.527344 19.257812 81.695312 19.808594 C 81.871094 20.363281 82.125 20.777344 82.460938 21.058594 C 82.804688 21.332031 83.21875 21.464844 83.710938 21.464844 C 84.25 21.464844 84.710938 21.316406 85.085938 21.011719 C 85.46875 20.699219 85.789062 20.351562 86.039062 19.964844 L 86.039062 15.246094 C 85.777344 14.863281 85.464844 14.566406 85.101562 14.355469 C 84.734375 14.136719 84.335938 14.027344 83.898438 14.027344 Z M 83.898438 14.027344 "/>
<path fill-rule="nonzero" fill="rgb(60.000002%, 60.000002%, 60.000002%)" fill-opacity="1" d="M 94.757812 19.527344 C 95.171875 19.527344 95.523438 19.667969 95.804688 19.949219 C 96.085938 20.230469 96.226562 20.570312 96.226562 20.964844 C 96.226562 21.175781 96.199219 21.394531 96.148438 21.621094 C 96.09375 21.839844 96 22.089844 95.867188 22.371094 L 94.414062 25.714844 L 93.039062 25.714844 L 93.914062 22.152344 C 93.726562 22.027344 93.578125 21.863281 93.476562 21.652344 C 93.371094 21.433594 93.320312 21.207031 93.320312 20.964844 C 93.320312 20.558594 93.453125 20.222656 93.726562 19.949219 C 94.007812 19.667969 94.351562 19.527344 94.757812 19.527344 Z M 94.757812 19.527344 "/>
<path fill-rule="nonzero" fill="rgb(60.000002%, 60.000002%, 60.000002%)" fill-opacity="1" d="M 106.125 21.089844 C 106.125 20.800781 106.199219 20.539062 106.34375 20.308594 C 106.480469 20.070312 106.667969 19.882812 106.90625 19.746094 C 107.136719 19.601562 107.402344 19.527344 107.703125 19.527344 C 108.007812 19.527344 108.28125 19.601562 108.53125 19.746094 C 108.773438 19.882812 108.960938 20.070312 109.09375 20.308594 C 109.230469 20.539062 109.296875 20.800781 109.296875 21.089844 C 109.296875 21.394531 109.230469 21.664062 109.09375 21.902344 C 108.960938 22.144531 108.773438 22.335938 108.53125 22.480469 C 108.28125 22.613281 108.007812 22.683594 107.703125 22.683594 C 107.402344 22.683594 107.136719 22.613281 106.90625 22.480469 C 106.667969 22.335938 106.480469 22.144531 106.34375 21.902344 C 106.199219 21.664062 106.125 21.394531 106.125 21.089844 Z M 112.59375 21.089844 C 112.59375 20.800781 112.660156 20.539062 112.796875 20.308594 C 112.941406 20.070312 113.128906 19.882812 113.359375 19.746094 C 113.597656 19.601562 113.867188 19.527344 114.171875 19.527344 C 114.472656 19.527344 114.742188 19.601562 114.984375 19.746094 C 115.234375 19.882812 115.425781 20.070312 115.5625 20.308594 C 115.695312 20.539062 115.765625 20.800781 115.765625 21.089844 C 115.765625 21.394531 115.695312 21.664062 115.5625 21.902344 C 115.425781 22.144531 115.234375 22.335938 114.984375 22.480469 C 114.742188 22.613281 114.472656 22.683594 114.171875 22.683594 C 113.867188 22.683594 113.597656 22.613281 113.359375 22.480469 C 113.128906 22.335938 112.941406 22.144531 112.796875 21.902344 C 112.660156 21.664062 112.59375 21.394531 112.59375 21.089844 Z M 112.59375 21.089844 "/>
<path fill-rule="nonzero" fill="rgb(60.000002%, 60.000002%, 60.000002%)" fill-opacity="1" d="M 6.308594 47.042969 L 6.308594 30.292969 L 10.808594 30.292969 L 10.808594 31.605469 L 7.730469 31.605469 L 7.730469 45.761719 L 10.808594 45.761719 L 10.808594 47.042969 Z M 6.308594 47.042969 "/>
<path fill-rule="nonzero" fill="rgb(0%, 40.000001%, 80.000001%)" fill-opacity="1" d="M 20.511719 32.589844 L 20.511719 44.605469 L 18.996094 44.605469 L 18.996094 34.214844 L 16.152344 35.949219 L 15.496094 34.871094 L 19.183594 32.589844 Z M 23.105469 43.730469 L 23.105469 44.964844 L 15.949219 44.964844 L 15.949219 43.730469 Z M 23.105469 43.730469 "/>
<path fill-rule="nonzero" fill="rgb(60.000002%, 60.000002%, 60.000002%)" fill-opacity="1" d="M 29.980469 42.011719 C 30.394531 42.011719 30.746094 42.152344 31.027344 42.433594 C 31.308594 42.714844 31.449219 43.054688 31.449219 43.449219 C 31.449219 43.660156 31.421875 43.878906 31.371094 44.105469 C 31.316406 44.324219 31.222656 44.574219 31.089844 44.855469 L 29.636719 48.199219 L 28.261719 48.199219 L 29.136719 44.636719 C 28.949219 44.511719 28.800781 44.347656 28.699219 44.136719 C 28.59375 43.917969 28.542969 43.691406 28.542969 43.449219 C 28.542969 43.042969 28.675781 42.707031 28.949219 42.433594 C 29.230469 42.152344 29.574219 42.011719 29.980469 42.011719 Z M 29.980469 42.011719 "/>
<path fill-rule="nonzero" fill="rgb(100%, 50.196081%, 0%)" fill-opacity="1" d="M 40.230469 32.386719 C 41.011719 32.386719 41.675781 32.539062 42.230469 32.839844 C 42.78125 33.132812 43.207031 33.542969 43.511719 34.074219 C 43.8125 34.597656 43.964844 35.183594 43.964844 35.839844 C 43.964844 36.414062 43.863281 36.972656 43.667969 37.511719 C 43.46875 38.054688 43.152344 38.621094 42.714844 39.214844 C 42.285156 39.808594 41.71875 40.472656 41.011719 41.199219 C 40.300781 41.929688 39.4375 42.757812 38.417969 43.683594 L 44.246094 43.683594 L 44.058594 44.964844 L 36.699219 44.964844 L 36.699219 43.730469 C 37.636719 42.835938 38.433594 42.054688 39.089844 41.386719 C 39.746094 40.710938 40.285156 40.121094 40.714844 39.621094 C 41.140625 39.113281 41.472656 38.652344 41.714844 38.246094 C 41.964844 37.832031 42.136719 37.433594 42.230469 37.058594 C 42.324219 36.683594 42.371094 36.292969 42.371094 35.886719 C 42.371094 35.199219 42.171875 34.652344 41.777344 34.246094 C 41.390625 33.839844 40.855469 33.636719 40.167969 33.636719 C 39.550781 33.636719 39.046875 33.746094 38.652344 33.964844 C 38.265625 34.175781 37.878906 34.507812 37.496094 34.964844 L 36.449219 34.152344 C 36.9375 33.558594 37.480469 33.117188 38.074219 32.824219 C 38.675781 32.535156 39.394531 32.386719 40.230469 32.386719 Z M 40.230469 32.386719 "/>
<path fill-rule="nonzero" fill="rgb(60.000002%, 60.000002%, 60.000002%)" fill-opacity="1" d="M 51.574219 42.011719 C 51.988281 42.011719 52.339844 42.152344 52.621094 42.433594 C 52.902344 42.714844 53.042969 43.054688 53.042969 43.449219 C 53.042969 43.660156 53.015625 43.878906 52.964844 44.105469 C 52.910156 44.324219 52.816406 44.574219 52.683594 44.855469 L 51.230469 48.199219 L 49.855469 48.199219 L 50.730469 44.636719 C 50.542969 44.511719 50.394531 44.347656 50.292969 44.136719 C 50.1875 43.917969 50.136719 43.691406 50.136719 43.449219 C 50.136719 43.042969 50.269531 42.707031 50.542969 42.433594 C 50.824219 42.152344 51.167969 42.011719 51.574219 42.011719 Z M 51.574219 42.011719 "/>
<path fill-rule="nonzero" fill="rgb(30.19608%, 60.000002%, 0%)" fill-opacity="1" d="M 62.367188 32.386719 C 63.710938 32.386719 64.71875 32.941406 65.398438 34.042969 C 66.085938 35.148438 66.429688 36.722656 66.429688 38.761719 C 66.429688 40.824219 66.085938 42.410156 65.398438 43.511719 C 64.71875 44.617188 63.710938 45.167969 62.367188 45.167969 C 61.042969 45.167969 60.039062 44.617188 59.351562 43.511719 C 58.664062 42.410156 58.320312 40.824219 58.320312 38.761719 C 58.320312 36.722656 58.664062 35.148438 59.351562 34.042969 C 60.039062 32.941406 61.042969 32.386719 62.367188 32.386719 Z M 62.367188 33.605469 C 61.605469 33.605469 61.007812 34.007812 60.570312 34.808594 C 60.132812 35.613281 59.914062 36.929688 59.914062 38.761719 C 59.914062 39.699219 59.960938 40.496094 60.054688 41.152344 C 60.15625 41.808594 60.308594 42.347656 60.507812 42.761719 C 60.703125 43.167969 60.953125 43.472656 61.257812 43.667969 C 61.570312 43.855469 61.9375 43.949219 62.367188 43.949219 C 62.886719 43.949219 63.328125 43.773438 63.695312 43.417969 C 64.070312 43.066406 64.351562 42.507812 64.539062 41.746094 C 64.734375 40.976562 64.835938 39.980469 64.835938 38.761719 C 64.835938 37.535156 64.746094 36.539062 64.570312 35.777344 C 64.402344 35.019531 64.136719 34.464844 63.773438 34.121094 C 63.417969 33.777344 62.949219 33.605469 62.367188 33.605469 Z M 64.195312 34.042969 L 64.585938 35.355469 L 60.648438 43.339844 L 60.101562 42.292969 Z M 64.195312 34.042969 "/>
<path fill-rule="nonzero" fill="rgb(60.000002%, 60.000002%, 60.000002%)" fill-opacity="1" d="M 73.164062 42.011719 C 73.578125 42.011719 73.929688 42.152344 74.210938 42.433594 C 74.492188 42.714844 74.632812 43.054688 74.632812 43.449219 C 74.632812 43.660156 74.605469 43.878906 74.554688 44.105469 C 74.5 44.324219 74.40625 44.574219 74.273438 44.855469 L 72.820312 48.199219 L 71.445312 48.199219 L 72.320312 44.636719 C 72.132812 44.511719 71.984375 44.347656 71.882812 44.136719 C 71.777344 43.917969 71.726562 43.691406 71.726562 43.449219 C 71.726562 43.042969 71.859375 42.707031 72.132812 42.433594 C 72.414062 42.152344 72.757812 42.011719 73.164062 42.011719 Z M 73.164062 42.011719 "/>
<path fill-rule="nonzero" fill="rgb(70.980394%, 45.09804%, 61.56863%)" fill-opacity="1" d="M 83.398438 32.386719 C 84.179688 32.386719 84.851562 32.527344 85.414062 32.808594 C 85.984375 33.082031 86.421875 33.457031 86.726562 33.933594 C 87.039062 34.402344 87.195312 34.917969 87.195312 35.480469 C 87.195312 35.980469 87.085938 36.433594 86.867188 36.839844 C 86.648438 37.246094 86.355469 37.585938 85.992188 37.855469 C 85.625 38.117188 85.226562 38.289062 84.789062 38.371094 C 85.265625 38.402344 85.71875 38.539062 86.148438 38.777344 C 86.574219 39.019531 86.921875 39.355469 87.195312 39.792969 C 87.464844 40.222656 87.601562 40.757812 87.601562 41.402344 C 87.601562 42.113281 87.417969 42.753906 87.054688 43.324219 C 86.699219 43.898438 86.199219 44.351562 85.554688 44.683594 C 84.90625 45.003906 84.15625 45.167969 83.304688 45.167969 C 82.617188 45.167969 81.929688 45.035156 81.242188 44.777344 C 80.554688 44.519531 79.96875 44.097656 79.492188 43.511719 L 80.507812 42.683594 C 80.859375 43.101562 81.28125 43.414062 81.773438 43.621094 C 82.261719 43.820312 82.757812 43.917969 83.257812 43.917969 C 84.121094 43.917969 84.796875 43.695312 85.289062 43.246094 C 85.777344 42.789062 86.023438 42.175781 86.023438 41.402344 C 86.023438 40.808594 85.90625 40.347656 85.679688 40.011719 C 85.449219 39.667969 85.140625 39.425781 84.757812 39.277344 C 84.382812 39.121094 83.945312 39.042969 83.445312 39.042969 L 82.414062 39.042969 L 82.601562 37.855469 L 83.320312 37.855469 C 83.726562 37.855469 84.105469 37.777344 84.460938 37.621094 C 84.8125 37.464844 85.105469 37.226562 85.335938 36.902344 C 85.5625 36.582031 85.679688 36.179688 85.679688 35.699219 C 85.679688 35.011719 85.449219 34.492188 84.992188 34.136719 C 84.542969 33.773438 83.996094 33.589844 83.351562 33.589844 C 82.808594 33.589844 82.335938 33.683594 81.929688 33.871094 C 81.53125 34.058594 81.132812 34.347656 80.726562 34.730469 L 79.882812 33.808594 C 80.414062 33.308594 80.976562 32.949219 81.570312 32.730469 C 82.164062 32.503906 82.773438 32.386719 83.398438 32.386719 Z M 83.398438 32.386719 "/>
<path fill-rule="nonzero" fill="rgb(60.000002%, 60.000002%, 60.000002%)" fill-opacity="1" d="M 94.757812 42.011719 C 95.171875 42.011719 95.523438 42.152344 95.804688 42.433594 C 96.085938 42.714844 96.226562 43.054688 96.226562 43.449219 C 96.226562 43.660156 96.199219 43.878906 96.148438 44.105469 C 96.09375 44.324219 96 44.574219 95.867188 44.855469 L 94.414062 48.199219 L 93.039062 48.199219 L 93.914062 44.636719 C 93.726562 44.511719 93.578125 44.347656 93.476562 44.136719 C 93.371094 43.917969 93.320312 43.691406 93.320312 43.449219 C 93.320312 43.042969 93.453125 42.707031 93.726562 42.433594 C 94.007812 42.152344 94.351562 42.011719 94.757812 42.011719 Z M 94.757812 42.011719 "/>
<path fill-rule="nonzero" fill="rgb(60.000002%, 60.000002%, 60.000002%)" fill-opacity="1" d="M 106.125 43.574219 C 106.125 43.285156 106.199219 43.023438 106.34375 42.792969 C 106.480469 42.554688 106.667969 42.367188 106.90625 42.230469 C 107.136719 42.085938 107.402344 42.011719 107.703125 42.011719 C 108.007812 42.011719 108.28125 42.085938 108.53125 42.230469 C 108.773438 42.367188 108.960938 42.554688 109.09375 42.792969 C 109.230469 43.023438 109.296875 43.285156 109.296875 43.574219 C 109.296875 43.878906 109.230469 44.148438 109.09375 44.386719 C 108.960938 44.628906 108.773438 44.820312 108.53125 44.964844 C 108.28125 45.097656 108.007812 45.167969 107.703125 45.167969 C 107.402344 45.167969 107.136719 45.097656 106.90625 44.964844 C 106.667969 44.820312 106.480469 44.628906 106.34375 44.386719 C 106.199219 44.148438 106.125 43.878906 106.125 43.574219 Z M 112.59375 43.574219 C 112.59375 43.285156 112.660156 43.023438 112.796875 42.792969 C 112.941406 42.554688 113.128906 42.367188 113.359375 42.230469 C 113.597656 42.085938 113.867188 42.011719 114.171875 42.011719 C 114.472656 42.011719 114.742188 42.085938 114.984375 42.230469 C 115.234375 42.367188 115.425781 42.554688 115.5625 42.792969 C 115.695312 43.023438 115.765625 43.285156 115.765625 43.574219 C 115.765625 43.878906 115.695312 44.148438 115.5625 44.386719 C 115.425781 44.628906 115.234375 44.820312 114.984375 44.964844 C 114.742188 45.097656 114.472656 45.167969 114.171875 45.167969 C 113.867188 45.167969 113.597656 45.097656 113.359375 44.964844 C 113.128906 44.820312 112.941406 44.628906 112.796875 44.386719 C 112.660156 44.148438 112.59375 43.878906 112.59375 43.574219 Z M 112.59375 43.574219 "/>
<path fill-rule="nonzero" fill="rgb(60.000002%, 60.000002%, 60.000002%)" fill-opacity="1" d="M 186.167969 35.050781 L 186.167969 18.300781 L 190.667969 18.300781 L 190.667969 19.613281 L 187.589844 19.613281 L 187.589844 33.769531 L 190.667969 33.769531 L 190.667969 35.050781 Z M 186.167969 35.050781 "/>
<path fill-rule="nonzero" fill="rgb(0%, 40.000001%, 80.000001%)" fill-opacity="1" d="M 202.246094 30.910156 C 202.246094 31.285156 202.308594 31.5625 202.433594 31.738281 C 202.558594 31.90625 202.75 32.03125 203.011719 32.113281 L 202.652344 33.175781 C 202.234375 33.121094 201.875 32.992188 201.574219 32.785156 C 201.269531 32.578125 201.046875 32.265625 200.902344 31.847656 C 200.566406 32.285156 200.144531 32.621094 199.636719 32.847656 C 199.125 33.066406 198.5625 33.175781 197.949219 33.175781 C 197 33.175781 196.25 32.910156 195.699219 32.378906 C 195.15625 31.847656 194.886719 31.140625 194.886719 30.253906 C 194.886719 29.277344 195.265625 28.527344 196.027344 28.003906 C 196.785156 27.484375 197.886719 27.222656 199.324219 27.222656 L 200.714844 27.222656 L 200.714844 26.441406 C 200.714844 25.753906 200.515625 25.269531 200.121094 24.988281 C 199.722656 24.699219 199.171875 24.550781 198.464844 24.550781 C 198.152344 24.550781 197.78125 24.59375 197.355469 24.675781 C 196.9375 24.75 196.484375 24.871094 195.996094 25.035156 L 195.605469 23.894531 C 196.1875 23.6875 196.734375 23.535156 197.246094 23.441406 C 197.753906 23.347656 198.238281 23.300781 198.699219 23.300781 C 199.875 23.300781 200.761719 23.578125 201.355469 24.128906 C 201.949219 24.683594 202.246094 25.425781 202.246094 26.363281 Z M 198.324219 32.035156 C 198.792969 32.035156 199.238281 31.917969 199.667969 31.675781 C 200.09375 31.4375 200.441406 31.109375 200.714844 30.691406 L 200.714844 28.253906 L 199.355469 28.253906 C 198.3125 28.253906 197.574219 28.4375 197.136719 28.800781 C 196.707031 29.15625 196.496094 29.636719 196.496094 30.238281 C 196.496094 30.824219 196.644531 31.269531 196.949219 31.582031 C 197.261719 31.886719 197.71875 32.035156 198.324219 32.035156 Z M 198.324219 32.035156 "/>
<path fill-rule="nonzero" fill="rgb(60.000002%, 60.000002%, 60.000002%)" fill-opacity="1" d="M 209.835938 30.019531 C 210.25 30.019531 210.601562 30.160156 210.882812 30.441406 C 211.164062 30.722656 211.304688 31.0625 211.304688 31.457031 C 211.304688 31.667969 211.277344 31.886719 211.226562 32.113281 C 211.171875 32.332031 211.078125 32.582031 210.945312 32.863281 L 209.492188 36.207031 L 208.117188 36.207031 L 208.992188 32.644531 C 208.804688 32.519531 208.65625 32.355469 208.554688 32.144531 C 208.449219 31.925781 208.398438 31.699219 208.398438 31.457031 C 208.398438 31.050781 208.53125 30.714844 208.804688 30.441406 C 209.085938 30.160156 209.429688 30.019531 209.835938 30.019531 Z M 209.835938 30.019531 "/>
<path fill-rule="nonzero" fill="rgb(100%, 50.196081%, 0%)" fill-opacity="1" d="M 218.554688 24.738281 C 218.90625 24.28125 219.308594 23.925781 219.757812 23.675781 C 220.214844 23.425781 220.714844 23.300781 221.257812 23.300781 C 222.101562 23.300781 222.78125 23.511719 223.304688 23.925781 C 223.824219 24.332031 224.203125 24.90625 224.445312 25.644531 C 224.683594 26.386719 224.804688 27.25 224.804688 28.238281 C 224.804688 29.1875 224.65625 30.035156 224.367188 30.785156 C 224.085938 31.535156 223.667969 32.125 223.117188 32.550781 C 222.5625 32.96875 221.875 33.175781 221.054688 33.175781 C 219.960938 33.175781 219.101562 32.78125 218.476562 31.988281 L 218.367188 32.972656 L 217.054688 32.972656 L 217.054688 19.691406 L 218.554688 19.503906 Z M 220.695312 31.957031 C 221.484375 31.957031 222.09375 31.65625 222.523438 31.050781 C 222.949219 30.4375 223.164062 29.496094 223.164062 28.222656 C 223.164062 27.402344 223.078125 26.714844 222.914062 26.160156 C 222.746094 25.609375 222.496094 25.199219 222.164062 24.925781 C 221.828125 24.65625 221.417969 24.519531 220.929688 24.519531 C 220.40625 24.519531 219.945312 24.675781 219.539062 24.988281 C 219.140625 25.300781 218.8125 25.652344 218.554688 26.035156 L 218.554688 30.738281 C 218.804688 31.105469 219.117188 31.402344 219.492188 31.628906 C 219.867188 31.847656 220.265625 31.957031 220.695312 31.957031 Z M 220.695312 31.957031 "/>
<path fill-rule="nonzero" fill="rgb(60.000002%, 60.000002%, 60.000002%)" fill-opacity="1" d="M 231.429688 30.019531 C 231.84375 30.019531 232.195312 30.160156 232.476562 30.441406 C 232.757812 30.722656 232.898438 31.0625 232.898438 31.457031 C 232.898438 31.667969 232.871094 31.886719 232.820312 32.113281 C 232.765625 32.332031 232.671875 32.582031 232.539062 32.863281 L 231.085938 36.207031 L 229.710938 36.207031 L 230.585938 32.644531 C 230.398438 32.519531 230.25 32.355469 230.148438 32.144531 C 230.042969 31.925781 229.992188 31.699219 229.992188 31.457031 C 229.992188 31.050781 230.125 30.714844 230.398438 30.441406 C 230.679688 30.160156 231.023438 30.019531 231.429688 30.019531 Z M 231.429688 30.019531 "/>
<path fill-rule="nonzero" fill="rgb(30.19608%, 60.000002%, 0%)" fill-opacity="1" d="M 242.929688 31.878906 C 243.398438 31.878906 243.835938 31.800781 244.242188 31.644531 C 244.65625 31.488281 245.039062 31.292969 245.382812 31.050781 L 246.117188 32.035156 C 245.710938 32.390625 245.214844 32.671875 244.632812 32.878906 C 244.046875 33.074219 243.480469 33.175781 242.929688 33.175781 C 241.980469 33.175781 241.171875 32.976562 240.507812 32.582031 C 239.851562 32.175781 239.34375 31.609375 238.992188 30.878906 C 238.648438 30.140625 238.476562 29.277344 238.476562 28.285156 C 238.476562 27.339844 238.652344 26.488281 239.007812 25.738281 C 239.359375 24.980469 239.867188 24.386719 240.523438 23.957031 C 241.1875 23.519531 241.996094 23.300781 242.945312 23.300781 C 243.546875 23.300781 244.117188 23.394531 244.648438 23.582031 C 245.179688 23.761719 245.664062 24.035156 246.101562 24.410156 L 245.367188 25.410156 C 244.96875 25.128906 244.570312 24.921875 244.164062 24.785156 C 243.757812 24.640625 243.34375 24.566406 242.929688 24.566406 C 242.105469 24.566406 241.429688 24.875 240.898438 25.488281 C 240.375 26.09375 240.117188 27.027344 240.117188 28.285156 C 240.117188 29.121094 240.234375 29.800781 240.476562 30.332031 C 240.726562 30.863281 241.058594 31.253906 241.476562 31.503906 C 241.902344 31.753906 242.386719 31.878906 242.929688 31.878906 Z M 242.929688 31.878906 "/>
<path fill-rule="nonzero" fill="rgb(60.000002%, 60.000002%, 60.000002%)" fill-opacity="1" d="M 253.023438 30.019531 C 253.4375 30.019531 253.789062 30.160156 254.070312 30.441406 C 254.351562 30.722656 254.492188 31.0625 254.492188 31.457031 C 254.492188 31.667969 254.464844 31.886719 254.414062 32.113281 C 254.359375 32.332031 254.265625 32.582031 254.132812 32.863281 L 252.679688 36.207031 L 251.304688 36.207031 L 252.179688 32.644531 C 251.992188 32.519531 251.84375 32.355469 251.742188 32.144531 C 251.636719 31.925781 251.585938 31.699219 251.585938 31.457031 C 251.585938 31.050781 251.71875 30.714844 251.992188 30.441406 C 252.273438 30.160156 252.617188 30.019531 253.023438 30.019531 Z M 253.023438 30.019531 "/>
<path fill-rule="nonzero" fill="rgb(70.980394%, 45.09804%, 61.56863%)" fill-opacity="1" d="M 265.894531 19.503906 L 267.410156 19.691406 L 267.410156 32.972656 L 266.082031 32.972656 L 265.941406 31.722656 C 265.585938 32.222656 265.179688 32.59375 264.722656 32.832031 C 264.261719 33.058594 263.773438 33.175781 263.253906 33.175781 C 262.429688 33.175781 261.753906 32.972656 261.222656 32.566406 C 260.691406 32.152344 260.292969 31.574219 260.035156 30.832031 C 259.773438 30.09375 259.644531 29.234375 259.644531 28.253906 C 259.644531 27.308594 259.789062 26.464844 260.082031 25.722656 C 260.382812 24.972656 260.808594 24.386719 261.363281 23.957031 C 261.914062 23.519531 262.582031 23.300781 263.363281 23.300781 C 263.902344 23.300781 264.382812 23.402344 264.800781 23.597656 C 265.214844 23.785156 265.582031 24.0625 265.894531 24.425781 Z M 263.753906 24.519531 C 262.960938 24.519531 262.351562 24.832031 261.925781 25.457031 C 261.507812 26.074219 261.300781 27.003906 261.300781 28.253906 C 261.300781 29.066406 261.382812 29.75 261.550781 30.300781 C 261.726562 30.855469 261.980469 31.269531 262.316406 31.550781 C 262.660156 31.824219 263.074219 31.957031 263.566406 31.957031 C 264.105469 31.957031 264.566406 31.808594 264.941406 31.503906 C 265.324219 31.191406 265.644531 30.84375 265.894531 30.457031 L 265.894531 25.738281 C 265.632812 25.355469 265.320312 25.058594 264.957031 24.847656 C 264.589844 24.628906 264.191406 24.519531 263.753906 24.519531 Z M 263.753906 24.519531 "/>
<path fill-rule="nonzero" fill="rgb(60.000002%, 60.000002%, 60.000002%)" fill-opacity="1" d="M 274.613281 30.019531 C 275.027344 30.019531 275.378906 30.160156 275.660156 30.441406 C 275.941406 30.722656 276.082031 31.0625 276.082031 31.457031 C 276.082031 31.667969 276.054688 31.886719 276.003906 32.113281 C 275.949219 32.332031 275.855469 32.582031 275.722656 32.863281 L 274.269531 36.207031 L 272.894531 36.207031 L 273.769531 32.644531 C 273.582031 32.519531 273.433594 32.355469 273.332031 32.144531 C 273.226562 31.925781 273.175781 31.699219 273.175781 31.457031 C 273.175781 31.050781 273.308594 30.714844 273.582031 30.441406 C 273.863281 30.160156 274.207031 30.019531 274.613281 30.019531 Z M 274.613281 30.019531 "/>
<path fill-rule="nonzero" fill="rgb(60.000002%, 60.000002%, 60.000002%)" fill-opacity="1" d="M 285.984375 31.582031 C 285.984375 31.292969 286.058594 31.03125 286.203125 30.800781 C 286.339844 30.5625 286.527344 30.375 286.765625 30.238281 C 286.996094 30.09375 287.261719 30.019531 287.5625 30.019531 C 287.867188 30.019531 288.140625 30.09375 288.390625 30.238281 C 288.632812 30.375 288.820312 30.5625 288.953125 30.800781 C 289.089844 31.03125 289.15625 31.292969 289.15625 31.582031 C 289.15625 31.886719 289.089844 32.15625 288.953125 32.394531 C 288.820312 32.636719 288.632812 32.828125 288.390625 32.972656 C 288.140625 33.105469 287.867188 33.175781 287.5625 33.175781 C 287.261719 33.175781 286.996094 33.105469 286.765625 32.972656 C 286.527344 32.828125 286.339844 32.636719 286.203125 32.394531 C 286.058594 32.15625 285.984375 31.886719 285.984375 31.582031 Z M 292.453125 31.582031 C 292.453125 31.292969 292.519531 31.03125 292.65625 30.800781 C 292.800781 30.5625 292.988281 30.375 293.21875 30.238281 C 293.457031 30.09375 293.726562 30.019531 294.03125 30.019531 C 294.332031 30.019531 294.601562 30.09375 294.84375 30.238281 C 295.09375 30.375 295.285156 30.5625 295.421875 30.800781 C 295.554688 31.03125 295.625 31.292969 295.625 31.582031 C 295.625 31.886719 295.554688 32.15625 295.421875 32.394531 C 295.285156 32.636719 295.09375 32.828125 294.84375 32.972656 C 294.601562 33.105469 294.332031 33.175781 294.03125 33.175781 C 293.726562 33.175781 293.457031 33.105469 293.21875 32.972656 C 292.988281 32.828125 292.800781 32.636719 292.65625 32.394531 C 292.519531 32.15625 292.453125 31.886719 292.453125 31.582031 Z M 292.453125 31.582031 "/>
<path fill="none" stroke-width="2" stroke-linecap="butt" stroke-linejoin="miter" stroke="rgb(40.000001%, 40.000001%, 40.000001%)" stroke-opacity="1" stroke-miterlimit="10" d="M 180.002657 39.677417 L 209.76072 39.677417 " transform="matrix(0.749403, 0, 0, 0.749403, 0.000000000000021316, 0)"/>
<path fill-rule="nonzero" fill="rgb(40.000001%, 40.000001%, 40.000001%)" fill-opacity="1" stroke-width="2" stroke-linecap="butt" stroke-linejoin="miter" stroke="rgb(40.000001%, 40.000001%, 40.000001%)" stroke-opacity="1" stroke-miterlimit="10" d="M 217.76188 39.677417 L 209.76072 42.35142 L 209.76072 37.008626 Z M 217.76188 39.677417 " transform="matrix(0.749403, 0, 0, 0.749403, 0.000000000000021316, 0)"/>
</svg>
