<?xml version="1.0" encoding="UTF-8"?>
<svg xmlns="http://www.w3.org/2000/svg" xmlns:xlink="http://www.w3.org/1999/xlink" width="414" height="91.919998" viewBox="0 0 414 91.919998">
<path fill-rule="nonzero" fill="rgb(60.000002%, 60.000002%, 60.000002%)" fill-opacity="1" d="M 6.3125 29.078125 L 6.3125 12.328125 L 10.828125 12.328125 L 10.828125 13.625 L 7.75 13.625 L 7.75 27.796875 L 10.828125 27.796875 L 10.828125 29.078125 Z M 6.3125 29.078125 "/>
<path fill-rule="nonzero" fill="rgb(0%, 40.000001%, 80.000001%)" fill-opacity="1" d="M 20.523438 14.609375 L 20.523438 26.640625 L 19.023438 26.640625 L 19.023438 16.25 L 16.164062 17.96875 L 15.507812 16.890625 L 19.210938 14.609375 Z M 23.117188 25.765625 L 23.117188 27 L 15.960938 27 L 15.960938 25.765625 Z M 23.117188 25.765625 "/>
<path fill-rule="nonzero" fill="rgb(60.000002%, 60.000002%, 60.000002%)" fill-opacity="1" d="M 30.015625 24.03125 C 30.421875 24.03125 30.765625 24.179688 31.046875 24.46875 C 31.328125 24.75 31.46875 25.089844 31.46875 25.484375 C 31.46875 25.695312 31.441406 25.914062 31.390625 26.140625 C 31.335938 26.359375 31.242188 26.609375 31.109375 26.890625 L 29.65625 30.234375 L 28.296875 30.234375 L 29.15625 26.671875 C 28.976562 26.546875 28.832031 26.382812 28.71875 26.171875 C 28.613281 25.953125 28.5625 25.726562 28.5625 25.484375 C 28.5625 25.078125 28.695312 24.734375 28.96875 24.453125 C 29.25 24.171875 29.597656 24.03125 30.015625 24.03125 Z M 30.015625 24.03125 "/>
<path fill-rule="nonzero" fill="rgb(30.19608%, 60.000002%, 0%)" fill-opacity="1" d="M 40.257812 14.40625 C 41.039062 14.40625 41.703125 14.558594 42.257812 14.859375 C 42.820312 15.164062 43.25 15.574219 43.554688 16.09375 C 43.855469 16.617188 44.007812 17.203125 44.007812 17.859375 C 44.007812 18.433594 43.902344 18.992188 43.695312 19.53125 C 43.496094 20.074219 43.179688 20.648438 42.742188 21.25 C 42.3125 21.84375 41.746094 22.507812 41.039062 23.234375 C 40.339844 23.953125 39.476562 24.78125 38.445312 25.71875 L 44.289062 25.71875 L 44.101562 27 L 36.726562 27 L 36.726562 25.765625 C 37.664062 24.871094 38.460938 24.089844 39.117188 23.421875 C 39.773438 22.746094 40.3125 22.15625 40.742188 21.65625 C 41.167969 21.148438 41.5 20.683594 41.742188 20.265625 C 41.992188 19.851562 42.164062 19.453125 42.257812 19.078125 C 42.359375 18.703125 42.414062 18.320312 42.414062 17.921875 C 42.414062 17.226562 42.214844 16.679688 41.820312 16.28125 C 41.421875 15.875 40.882812 15.671875 40.195312 15.671875 C 39.578125 15.671875 39.074219 15.777344 38.679688 15.984375 C 38.292969 16.195312 37.90625 16.527344 37.523438 16.984375 L 36.476562 16.1875 C 36.964844 15.585938 37.507812 15.136719 38.101562 14.84375 C 38.703125 14.554688 39.421875 14.40625 40.257812 14.40625 Z M 40.257812 14.40625 "/>
<path fill-rule="nonzero" fill="rgb(60.000002%, 60.000002%, 60.000002%)" fill-opacity="1" d="M 51.625 24.03125 C 52.03125 24.03125 52.375 24.179688 52.65625 24.46875 C 52.9375 24.75 53.078125 25.089844 53.078125 25.484375 C 53.078125 25.695312 53.050781 25.914062 53 26.140625 C 52.945312 26.359375 52.851562 26.609375 52.71875 26.890625 L 51.265625 30.234375 L 49.90625 30.234375 L 50.765625 26.671875 C 50.585938 26.546875 50.441406 26.382812 50.328125 26.171875 C 50.222656 25.953125 50.171875 25.726562 50.171875 25.484375 C 50.171875 25.078125 50.304688 24.734375 50.578125 24.453125 C 50.859375 24.171875 51.207031 24.03125 51.625 24.03125 Z M 51.625 24.03125 "/>
<path fill-rule="nonzero" fill="rgb(100%, 50.196081%, 0%)" fill-opacity="1" d="M 61.851562 14.40625 C 62.632812 14.40625 63.304688 14.546875 63.867188 14.828125 C 64.4375 15.109375 64.882812 15.484375 65.195312 15.953125 C 65.507812 16.421875 65.664062 16.9375 65.664062 17.5 C 65.664062 18 65.546875 18.453125 65.320312 18.859375 C 65.101562 19.265625 64.808594 19.605469 64.445312 19.875 C 64.078125 20.136719 63.679688 20.308594 63.242188 20.390625 C 63.730469 20.433594 64.183594 20.574219 64.601562 20.8125 C 65.027344 21.042969 65.375 21.375 65.648438 21.8125 C 65.917969 22.25 66.054688 22.789062 66.054688 23.421875 C 66.054688 24.140625 65.871094 24.789062 65.507812 25.359375 C 65.152344 25.933594 64.652344 26.386719 64.007812 26.71875 C 63.359375 27.039062 62.609375 27.203125 61.757812 27.203125 C 61.070312 27.203125 60.382812 27.070312 59.695312 26.8125 C 59.007812 26.554688 58.421875 26.132812 57.945312 25.546875 L 58.960938 24.71875 C 59.3125 25.136719 59.734375 25.449219 60.226562 25.65625 C 60.714844 25.855469 61.214844 25.953125 61.726562 25.953125 C 62.589844 25.953125 63.261719 25.730469 63.742188 25.28125 C 64.230469 24.824219 64.476562 24.203125 64.476562 23.421875 C 64.476562 22.839844 64.359375 22.375 64.132812 22.03125 C 63.914062 21.6875 63.609375 21.445312 63.226562 21.296875 C 62.839844 21.152344 62.402344 21.078125 61.914062 21.078125 L 60.867188 21.078125 L 61.054688 19.875 L 61.789062 19.875 C 62.183594 19.875 62.558594 19.804688 62.914062 19.65625 C 63.277344 19.5 63.574219 19.261719 63.804688 18.9375 C 64.03125 18.617188 64.148438 18.210938 64.148438 17.71875 C 64.148438 17.03125 63.917969 16.511719 63.460938 16.15625 C 63 15.792969 62.449219 15.609375 61.804688 15.609375 C 61.261719 15.609375 60.789062 15.710938 60.382812 15.90625 C 59.984375 16.09375 59.585938 16.382812 59.179688 16.765625 L 58.335938 15.828125 C 58.867188 15.328125 59.429688 14.96875 60.023438 14.75 C 60.617188 14.523438 61.226562 14.40625 61.851562 14.40625 Z M 61.851562 14.40625 "/>
<path fill-rule="nonzero" fill="rgb(60.000002%, 60.000002%, 60.000002%)" fill-opacity="1" d="M 73.234375 24.03125 C 73.640625 24.03125 73.984375 24.179688 74.265625 24.46875 C 74.546875 24.75 74.6875 25.089844 74.6875 25.484375 C 74.6875 25.695312 74.660156 25.914062 74.609375 26.140625 C 74.554688 26.359375 74.460938 26.609375 74.328125 26.890625 L 72.875 30.234375 L 71.515625 30.234375 L 72.375 26.671875 C 72.195312 26.546875 72.050781 26.382812 71.9375 26.171875 C 71.832031 25.953125 71.78125 25.726562 71.78125 25.484375 C 71.78125 25.078125 71.914062 24.734375 72.1875 24.453125 C 72.46875 24.171875 72.816406 24.03125 73.234375 24.03125 Z M 73.234375 24.03125 "/>
<path fill-rule="nonzero" fill="rgb(60.000002%, 60.000002%, 60.000002%)" fill-opacity="1" d="M 84.605469 25.609375 C 84.605469 25.320312 84.675781 25.058594 84.808594 24.828125 C 84.945312 24.589844 85.132812 24.398438 85.371094 24.25 C 85.613281 24.105469 85.878906 24.03125 86.167969 24.03125 C 86.480469 24.03125 86.757812 24.105469 86.996094 24.25 C 87.238281 24.398438 87.425781 24.589844 87.558594 24.828125 C 87.695312 25.058594 87.761719 25.320312 87.761719 25.609375 C 87.761719 25.914062 87.695312 26.183594 87.558594 26.421875 C 87.425781 26.664062 87.238281 26.855469 86.996094 27 C 86.757812 27.132812 86.480469 27.203125 86.167969 27.203125 C 85.878906 27.203125 85.613281 27.132812 85.371094 27 C 85.132812 26.855469 84.945312 26.664062 84.808594 26.421875 C 84.675781 26.183594 84.605469 25.914062 84.605469 25.609375 Z M 91.089844 25.609375 C 91.089844 25.320312 91.15625 25.058594 91.292969 24.828125 C 91.425781 24.589844 91.613281 24.398438 91.855469 24.25 C 92.09375 24.105469 92.359375 24.03125 92.652344 24.03125 C 92.964844 24.03125 93.238281 24.105469 93.480469 24.25 C 93.71875 24.398438 93.90625 24.589844 94.042969 24.828125 C 94.175781 25.058594 94.246094 25.320312 94.246094 25.609375 C 94.246094 25.914062 94.175781 26.183594 94.042969 26.421875 C 93.90625 26.664062 93.71875 26.855469 93.480469 27 C 93.238281 27.132812 92.964844 27.203125 92.652344 27.203125 C 92.359375 27.203125 92.09375 27.132812 91.855469 27 C 91.613281 26.855469 91.425781 26.664062 91.292969 26.421875 C 91.15625 26.183594 91.089844 25.914062 91.089844 25.609375 Z M 91.089844 25.609375 "/>
<path fill-rule="nonzero" fill="rgb(60.000002%, 60.000002%, 60.000002%)" fill-opacity="1" d="M 6.3125 50.078125 L 6.3125 33.328125 L 10.828125 33.328125 L 10.828125 34.625 L 7.75 34.625 L 7.75 48.796875 L 10.828125 48.796875 L 10.828125 50.078125 Z M 6.3125 50.078125 "/>
<path fill-rule="nonzero" fill="rgb(0%, 40.000001%, 80.000001%)" fill-opacity="1" d="M 22.398438 45.9375 C 22.398438 46.3125 22.460938 46.589844 22.585938 46.765625 C 22.710938 46.933594 22.90625 47.058594 23.179688 47.140625 L 22.804688 48.203125 C 22.398438 48.148438 22.039062 48.019531 21.726562 47.8125 C 21.421875 47.605469 21.203125 47.292969 21.070312 46.875 C 20.726562 47.3125 20.296875 47.648438 19.789062 47.875 C 19.277344 48.09375 18.714844 48.203125 18.101562 48.203125 C 17.152344 48.203125 16.402344 47.9375 15.851562 47.40625 C 15.308594 46.875 15.039062 46.167969 15.039062 45.28125 C 15.039062 44.304688 15.417969 43.554688 16.179688 43.03125 C 16.9375 42.511719 18.039062 42.25 19.476562 42.25 L 20.882812 42.25 L 20.882812 41.453125 C 20.882812 40.777344 20.679688 40.296875 20.273438 40.015625 C 19.875 39.726562 19.324219 39.578125 18.617188 39.578125 C 18.304688 39.578125 17.9375 39.617188 17.523438 39.6875 C 17.105469 39.761719 16.648438 39.886719 16.148438 40.0625 L 15.757812 38.921875 C 16.339844 38.703125 16.886719 38.554688 17.398438 38.46875 C 17.90625 38.375 18.390625 38.328125 18.851562 38.328125 C 20.039062 38.328125 20.921875 38.605469 21.507812 39.15625 C 22.101562 39.699219 22.398438 40.445312 22.398438 41.390625 Z M 18.492188 47.0625 C 18.949219 47.0625 19.390625 46.945312 19.820312 46.703125 C 20.246094 46.464844 20.601562 46.136719 20.882812 45.71875 L 20.882812 43.28125 L 19.507812 43.28125 C 18.464844 43.28125 17.730469 43.464844 17.304688 43.828125 C 16.875 44.183594 16.664062 44.664062 16.664062 45.265625 C 16.664062 45.851562 16.8125 46.296875 17.117188 46.609375 C 17.417969 46.914062 17.875 47.0625 18.492188 47.0625 Z M 18.492188 47.0625 "/>
<path fill-rule="nonzero" fill="rgb(60.000002%, 60.000002%, 60.000002%)" fill-opacity="1" d="M 30.015625 45.03125 C 30.421875 45.03125 30.765625 45.179688 31.046875 45.46875 C 31.328125 45.75 31.46875 46.089844 31.46875 46.484375 C 31.46875 46.695312 31.441406 46.914062 31.390625 47.140625 C 31.335938 47.359375 31.242188 47.609375 31.109375 47.890625 L 29.65625 51.234375 L 28.296875 51.234375 L 29.15625 47.671875 C 28.976562 47.546875 28.832031 47.382812 28.71875 47.171875 C 28.613281 46.953125 28.5625 46.726562 28.5625 46.484375 C 28.5625 46.078125 28.695312 45.734375 28.96875 45.453125 C 29.25 45.171875 29.597656 45.03125 30.015625 45.03125 Z M 30.015625 45.03125 "/>
<path fill-rule="nonzero" fill="rgb(30.19608%, 60.000002%, 0%)" fill-opacity="1" d="M 38.742188 39.75 C 39.085938 39.304688 39.480469 38.953125 39.929688 38.703125 C 40.386719 38.453125 40.886719 38.328125 41.429688 38.328125 C 42.28125 38.328125 42.96875 38.53125 43.492188 38.9375 C 44.011719 39.34375 44.390625 39.917969 44.632812 40.65625 C 44.871094 41.398438 44.992188 42.261719 44.992188 43.25 C 44.992188 44.210938 44.84375 45.0625 44.554688 45.8125 C 44.273438 46.554688 43.851562 47.136719 43.289062 47.5625 C 42.734375 47.992188 42.054688 48.203125 41.242188 48.203125 C 40.136719 48.203125 39.273438 47.808594 38.648438 47.015625 L 38.539062 48 L 37.226562 48 L 37.226562 34.703125 L 38.742188 34.515625 Z M 40.882812 46.984375 C 41.671875 46.984375 42.277344 46.679688 42.695312 46.0625 C 43.121094 45.449219 43.335938 44.511719 43.335938 43.25 C 43.335938 42.417969 43.25 41.730469 43.085938 41.1875 C 42.917969 40.636719 42.667969 40.226562 42.335938 39.953125 C 42 39.683594 41.59375 39.546875 41.117188 39.546875 C 40.585938 39.546875 40.117188 39.703125 39.710938 40.015625 C 39.3125 40.328125 38.992188 40.679688 38.742188 41.0625 L 38.742188 45.765625 C 38.980469 46.132812 39.289062 46.429688 39.664062 46.65625 C 40.039062 46.875 40.445312 46.984375 40.882812 46.984375 Z M 40.882812 46.984375 "/>
<path fill-rule="nonzero" fill="rgb(60.000002%, 60.000002%, 60.000002%)" fill-opacity="1" d="M 51.625 45.03125 C 52.03125 45.03125 52.375 45.179688 52.65625 45.46875 C 52.9375 45.75 53.078125 46.089844 53.078125 46.484375 C 53.078125 46.695312 53.050781 46.914062 53 47.140625 C 52.945312 47.359375 52.851562 47.609375 52.71875 47.890625 L 51.265625 51.234375 L 49.90625 51.234375 L 50.765625 47.671875 C 50.585938 47.546875 50.441406 47.382812 50.328125 47.171875 C 50.222656 46.953125 50.171875 46.726562 50.171875 46.484375 C 50.171875 46.078125 50.304688 45.734375 50.578125 45.453125 C 50.859375 45.171875 51.207031 45.03125 51.625 45.03125 Z M 51.625 45.03125 "/>
<path fill-rule="nonzero" fill="rgb(100%, 50.196081%, 0%)" fill-opacity="1" d="M 63.117188 46.90625 C 63.585938 46.90625 64.023438 46.828125 64.429688 46.671875 C 64.84375 46.515625 65.230469 46.320312 65.585938 46.078125 L 66.320312 47.0625 C 65.902344 47.417969 65.402344 47.699219 64.820312 47.90625 C 64.246094 48.101562 63.679688 48.203125 63.117188 48.203125 C 62.179688 48.203125 61.375 48 60.710938 47.59375 C 60.042969 47.1875 59.53125 46.621094 59.179688 45.890625 C 58.835938 45.152344 58.664062 44.289062 58.664062 43.296875 C 58.664062 42.351562 58.839844 41.5 59.195312 40.75 C 59.546875 40 60.054688 39.414062 60.710938 38.984375 C 61.375 38.546875 62.183594 38.328125 63.132812 38.328125 C 63.734375 38.328125 64.304688 38.421875 64.835938 38.609375 C 65.367188 38.789062 65.855469 39.058594 66.304688 39.421875 L 65.570312 40.4375 C 65.164062 40.15625 64.757812 39.945312 64.351562 39.796875 C 63.945312 39.652344 63.53125 39.578125 63.117188 39.578125 C 62.304688 39.578125 61.632812 39.886719 61.101562 40.5 C 60.570312 41.117188 60.304688 42.046875 60.304688 43.296875 C 60.304688 44.140625 60.421875 44.828125 60.664062 45.359375 C 60.914062 45.890625 61.246094 46.28125 61.664062 46.53125 C 62.089844 46.78125 62.574219 46.90625 63.117188 46.90625 Z M 63.117188 46.90625 "/>
<path fill-rule="nonzero" fill="rgb(60.000002%, 60.000002%, 60.000002%)" fill-opacity="1" d="M 73.234375 45.03125 C 73.640625 45.03125 73.984375 45.179688 74.265625 45.46875 C 74.546875 45.75 74.6875 46.089844 74.6875 46.484375 C 74.6875 46.695312 74.660156 46.914062 74.609375 47.140625 C 74.554688 47.359375 74.460938 47.609375 74.328125 47.890625 L 72.875 51.234375 L 71.515625 51.234375 L 72.375 47.671875 C 72.195312 47.546875 72.050781 47.382812 71.9375 47.171875 C 71.832031 46.953125 71.78125 46.726562 71.78125 46.484375 C 71.78125 46.078125 71.914062 45.734375 72.1875 45.453125 C 72.46875 45.171875 72.816406 45.03125 73.234375 45.03125 Z M 73.234375 45.03125 "/>
<path fill-rule="nonzero" fill="rgb(60.000002%, 60.000002%, 60.000002%)" fill-opacity="1" d="M 84.605469 46.609375 C 84.605469 46.320312 84.675781 46.058594 84.808594 45.828125 C 84.945312 45.589844 85.132812 45.398438 85.371094 45.25 C 85.613281 45.105469 85.878906 45.03125 86.167969 45.03125 C 86.480469 45.03125 86.757812 45.105469 86.996094 45.25 C 87.238281 45.398438 87.425781 45.589844 87.558594 45.828125 C 87.695312 46.058594 87.761719 46.320312 87.761719 46.609375 C 87.761719 46.914062 87.695312 47.183594 87.558594 47.421875 C 87.425781 47.664062 87.238281 47.855469 86.996094 48 C 86.757812 48.132812 86.480469 48.203125 86.167969 48.203125 C 85.878906 48.203125 85.613281 48.132812 85.371094 48 C 85.132812 47.855469 84.945312 47.664062 84.808594 47.421875 C 84.675781 47.183594 84.605469 46.914062 84.605469 46.609375 Z M 91.089844 46.609375 C 91.089844 46.320312 91.15625 46.058594 91.292969 45.828125 C 91.425781 45.589844 91.613281 45.398438 91.855469 45.25 C 92.09375 45.105469 92.359375 45.03125 92.652344 45.03125 C 92.964844 45.03125 93.238281 45.105469 93.480469 45.25 C 93.71875 45.398438 93.90625 45.589844 94.042969 45.828125 C 94.175781 46.058594 94.246094 46.320312 94.246094 46.609375 C 94.246094 46.914062 94.175781 47.183594 94.042969 47.421875 C 93.90625 47.664062 93.71875 47.855469 93.480469 48 C 93.238281 48.132812 92.964844 48.203125 92.652344 48.203125 C 92.359375 48.203125 92.09375 48.132812 91.855469 48 C 91.613281 47.855469 91.425781 47.664062 91.292969 47.421875 C 91.15625 47.183594 91.089844 46.914062 91.089844 46.609375 Z M 91.089844 46.609375 "/>
<path fill-rule="nonzero" fill="rgb(60.000002%, 60.000002%, 60.000002%)" fill-opacity="1" d="M 6.3125 72.578125 L 6.3125 55.828125 L 10.828125 55.828125 L 10.828125 57.125 L 7.75 57.125 L 7.75 71.296875 L 10.828125 71.296875 L 10.828125 72.578125 Z M 6.3125 72.578125 "/>
<path fill-rule="nonzero" fill="rgb(0%, 40.000001%, 80.000001%)" fill-opacity="1" d="M 18.398438 60.828125 C 18.929688 60.828125 19.390625 60.921875 19.789062 61.109375 C 20.183594 61.289062 20.511719 61.59375 20.773438 62.03125 C 21.042969 62.460938 21.242188 63.046875 21.367188 63.796875 L 21.867188 61.015625 L 23.257812 61.015625 L 22.320312 66.078125 L 22.789062 68.53125 C 22.851562 68.78125 22.9375 68.976562 23.054688 69.109375 C 23.179688 69.246094 23.359375 69.359375 23.601562 69.453125 L 23.070312 70.71875 C 22.621094 70.644531 22.25 70.476562 21.960938 70.203125 C 21.667969 69.921875 21.484375 69.527344 21.414062 69.015625 L 21.242188 68 C 21.085938 68.492188 20.875 68.9375 20.617188 69.34375 C 20.367188 69.75 20.046875 70.078125 19.664062 70.328125 C 19.289062 70.578125 18.828125 70.703125 18.289062 70.703125 C 17.214844 70.703125 16.371094 70.304688 15.757812 69.5 C 15.152344 68.699219 14.851562 67.480469 14.851562 65.84375 C 14.851562 64.867188 14.980469 64 15.242188 63.25 C 15.511719 62.492188 15.90625 61.898438 16.429688 61.46875 C 16.949219 61.042969 17.605469 60.828125 18.398438 60.828125 Z M 18.507812 62.046875 C 17.859375 62.046875 17.359375 62.375 17.007812 63.03125 C 16.664062 63.679688 16.492188 64.617188 16.492188 65.84375 C 16.492188 67.105469 16.652344 68.027344 16.976562 68.609375 C 17.308594 69.195312 17.796875 69.484375 18.445312 69.484375 C 18.664062 69.484375 18.886719 69.4375 19.117188 69.34375 C 19.355469 69.242188 19.585938 69.058594 19.804688 68.796875 C 20.03125 68.527344 20.246094 68.140625 20.445312 67.640625 C 20.652344 67.140625 20.835938 66.492188 20.992188 65.6875 C 20.824219 64.71875 20.621094 63.976562 20.382812 63.453125 C 20.152344 62.921875 19.882812 62.558594 19.570312 62.359375 C 19.257812 62.152344 18.902344 62.046875 18.507812 62.046875 Z M 18.507812 62.046875 "/>
<path fill-rule="nonzero" fill="rgb(60.000002%, 60.000002%, 60.000002%)" fill-opacity="1" d="M 30.015625 67.53125 C 30.421875 67.53125 30.765625 67.679688 31.046875 67.96875 C 31.328125 68.25 31.46875 68.589844 31.46875 68.984375 C 31.46875 69.195312 31.441406 69.414062 31.390625 69.640625 C 31.335938 69.859375 31.242188 70.109375 31.109375 70.390625 L 29.65625 73.734375 L 28.296875 73.734375 L 29.15625 70.171875 C 28.976562 70.046875 28.832031 69.882812 28.71875 69.671875 C 28.613281 69.453125 28.5625 69.226562 28.5625 68.984375 C 28.5625 68.578125 28.695312 68.234375 28.96875 67.953125 C 29.25 67.671875 29.597656 67.53125 30.015625 67.53125 Z M 30.015625 67.53125 "/>
<path fill-rule="nonzero" fill="rgb(30.19608%, 60.000002%, 0%)" fill-opacity="1" d="M 40.664062 57.03125 C 41.320312 57.03125 41.917969 57.15625 42.460938 57.40625 C 43.011719 57.65625 43.449219 58.023438 43.773438 58.5 C 44.105469 58.980469 44.273438 59.554688 44.273438 60.21875 C 44.273438 60.84375 44.148438 61.371094 43.898438 61.796875 C 43.65625 62.214844 43.328125 62.542969 42.914062 62.78125 C 42.507812 63.011719 42.058594 63.164062 41.570312 63.234375 C 41.996094 63.277344 42.429688 63.367188 42.867188 63.5 C 43.304688 63.636719 43.699219 63.839844 44.054688 64.109375 C 44.417969 64.371094 44.710938 64.726562 44.929688 65.171875 C 45.148438 65.621094 45.257812 66.183594 45.257812 66.859375 C 45.257812 67.652344 45.070312 68.335938 44.695312 68.90625 C 44.320312 69.480469 43.824219 69.921875 43.210938 70.234375 C 42.605469 70.546875 41.953125 70.703125 41.257812 70.703125 C 40.703125 70.703125 40.164062 70.597656 39.632812 70.390625 C 39.101562 70.171875 38.617188 69.851562 38.179688 69.421875 L 38.414062 68.390625 C 38.746094 68.765625 39.132812 69.042969 39.570312 69.21875 C 40.007812 69.386719 40.523438 69.46875 41.117188 69.46875 C 41.59375 69.46875 42.027344 69.371094 42.414062 69.171875 C 42.808594 68.976562 43.125 68.683594 43.367188 68.296875 C 43.605469 67.902344 43.726562 67.421875 43.726562 66.859375 C 43.726562 65.890625 43.445312 65.15625 42.882812 64.65625 C 42.328125 64.15625 41.527344 63.90625 40.476562 63.90625 L 39.507812 63.90625 L 39.679688 62.75 L 40.632812 62.75 C 41.039062 62.75 41.414062 62.667969 41.757812 62.5 C 42.101562 62.335938 42.371094 62.078125 42.570312 61.734375 C 42.777344 61.382812 42.882812 60.921875 42.882812 60.359375 C 42.882812 59.621094 42.667969 59.085938 42.242188 58.75 C 41.824219 58.40625 41.308594 58.234375 40.695312 58.234375 C 39.996094 58.234375 39.464844 58.449219 39.101562 58.875 C 38.746094 59.292969 38.570312 59.933594 38.570312 60.796875 L 38.570312 74.125 L 37.054688 74.328125 L 37.054688 60.78125 C 37.054688 59.992188 37.199219 59.320312 37.492188 58.765625 C 37.78125 58.203125 38.195312 57.777344 38.726562 57.484375 C 39.265625 57.183594 39.914062 57.03125 40.664062 57.03125 Z M 40.664062 57.03125 "/>
<path fill-rule="nonzero" fill="rgb(60.000002%, 60.000002%, 60.000002%)" fill-opacity="1" d="M 51.625 67.53125 C 52.03125 67.53125 52.375 67.679688 52.65625 67.96875 C 52.9375 68.25 53.078125 68.589844 53.078125 68.984375 C 53.078125 69.195312 53.050781 69.414062 53 69.640625 C 52.945312 69.859375 52.851562 70.109375 52.71875 70.390625 L 51.265625 73.734375 L 49.90625 73.734375 L 50.765625 70.171875 C 50.585938 70.046875 50.441406 69.882812 50.328125 69.671875 C 50.222656 69.453125 50.171875 69.226562 50.171875 68.984375 C 50.171875 68.578125 50.304688 68.234375 50.578125 67.953125 C 50.859375 67.671875 51.207031 67.53125 51.625 67.53125 Z M 51.625 67.53125 "/>
<path fill-rule="nonzero" fill="rgb(100%, 50.196081%, 0%)" fill-opacity="1" d="M 65.507812 60.8125 L 67.054688 61.15625 L 63.148438 70.1875 C 62.886719 70.78125 62.742188 71.378906 62.710938 71.984375 C 62.679688 72.597656 62.75 73.3125 62.929688 74.125 L 61.726562 74.328125 C 61.527344 73.941406 61.390625 73.507812 61.320312 73.03125 C 61.246094 72.550781 61.234375 72.0625 61.289062 71.5625 C 61.351562 71.070312 61.464844 70.601562 61.632812 70.15625 C 61.433594 69.3125 61.195312 68.453125 60.914062 67.578125 C 60.632812 66.695312 60.320312 65.84375 59.976562 65.03125 C 59.632812 64.21875 59.273438 63.496094 58.898438 62.859375 C 58.53125 62.214844 58.167969 61.726562 57.804688 61.390625 L 59.335938 60.828125 C 59.75 61.308594 60.152344 61.9375 60.539062 62.71875 C 60.933594 63.5 61.296875 64.386719 61.632812 65.375 C 61.976562 66.367188 62.265625 67.429688 62.507812 68.5625 Z M 65.507812 60.8125 "/>
<path fill-rule="nonzero" fill="rgb(60.000002%, 60.000002%, 60.000002%)" fill-opacity="1" d="M 73.234375 67.53125 C 73.640625 67.53125 73.984375 67.679688 74.265625 67.96875 C 74.546875 68.25 74.6875 68.589844 74.6875 68.984375 C 74.6875 69.195312 74.660156 69.414062 74.609375 69.640625 C 74.554688 69.859375 74.460938 70.109375 74.328125 70.390625 L 72.875 73.734375 L 71.515625 73.734375 L 72.375 70.171875 C 72.195312 70.046875 72.050781 69.882812 71.9375 69.671875 C 71.832031 69.453125 71.78125 69.226562 71.78125 68.984375 C 71.78125 68.578125 71.914062 68.234375 72.1875 67.953125 C 72.46875 67.671875 72.816406 67.53125 73.234375 67.53125 Z M 73.234375 67.53125 "/>
<path fill-rule="nonzero" fill="rgb(60.000002%, 60.000002%, 60.000002%)" fill-opacity="1" d="M 84.605469 69.109375 C 84.605469 68.820312 84.675781 68.558594 84.808594 68.328125 C 84.945312 68.089844 85.132812 67.898438 85.371094 67.75 C 85.613281 67.605469 85.878906 67.53125 86.167969 67.53125 C 86.480469 67.53125 86.757812 67.605469 86.996094 67.75 C 87.238281 67.898438 87.425781 68.089844 87.558594 68.328125 C 87.695312 68.558594 87.761719 68.820312 87.761719 69.109375 C 87.761719 69.414062 87.695312 69.683594 87.558594 69.921875 C 87.425781 70.164062 87.238281 70.355469 86.996094 70.5 C 86.757812 70.632812 86.480469 70.703125 86.167969 70.703125 C 85.878906 70.703125 85.613281 70.632812 85.371094 70.5 C 85.132812 70.355469 84.945312 70.164062 84.808594 69.921875 C 84.675781 69.683594 84.605469 69.414062 84.605469 69.109375 Z M 91.089844 69.109375 C 91.089844 68.820312 91.15625 68.558594 91.292969 68.328125 C 91.425781 68.089844 91.613281 67.898438 91.855469 67.75 C 92.09375 67.605469 92.359375 67.53125 92.652344 67.53125 C 92.964844 67.53125 93.238281 67.605469 93.480469 67.75 C 93.71875 67.898438 93.90625 68.089844 94.042969 68.328125 C 94.175781 68.558594 94.246094 68.820312 94.246094 69.109375 C 94.246094 69.414062 94.175781 69.683594 94.042969 69.921875 C 93.90625 70.164062 93.71875 70.355469 93.480469 70.5 C 93.238281 70.632812 92.964844 70.703125 92.652344 70.703125 C 92.359375 70.703125 92.09375 70.632812 91.855469 70.5 C 91.613281 70.355469 91.425781 70.164062 91.292969 69.921875 C 91.15625 69.683594 91.089844 69.414062 91.089844 69.109375 Z M 91.089844 69.109375 "/>
<path fill-rule="nonzero" fill="rgb(60.000002%, 60.000002%, 60.000002%)" fill-opacity="1" d="M 178.8125 50.078125 L 178.8125 33.328125 L 183.328125 33.328125 L 183.328125 34.625 L 180.25 34.625 L 180.25 48.796875 L 183.328125 48.796875 L 183.328125 50.078125 Z M 178.8125 50.078125 "/>
<path fill-rule="nonzero" fill="rgb(0%, 40.000001%, 80.000001%)" fill-opacity="1" d="M 193.023438 35.609375 L 193.023438 47.640625 L 191.523438 47.640625 L 191.523438 37.25 L 188.664062 38.96875 L 188.007812 37.890625 L 191.710938 35.609375 Z M 195.617188 46.765625 L 195.617188 48 L 188.460938 48 L 188.460938 46.765625 Z M 195.617188 46.765625 "/>
<path fill-rule="nonzero" fill="rgb(60.000002%, 60.000002%, 60.000002%)" fill-opacity="1" d="M 202.515625 45.03125 C 202.921875 45.03125 203.265625 45.179688 203.546875 45.46875 C 203.828125 45.75 203.96875 46.089844 203.96875 46.484375 C 203.96875 46.695312 203.941406 46.914062 203.890625 47.140625 C 203.835938 47.359375 203.742188 47.609375 203.609375 47.890625 L 202.15625 51.234375 L 200.796875 51.234375 L 201.65625 47.671875 C 201.476562 47.546875 201.332031 47.382812 201.21875 47.171875 C 201.113281 46.953125 201.0625 46.726562 201.0625 46.484375 C 201.0625 46.078125 201.195312 45.734375 201.46875 45.453125 C 201.75 45.171875 202.097656 45.03125 202.515625 45.03125 Z M 202.515625 45.03125 "/>
<path fill-rule="nonzero" fill="rgb(0%, 40.000001%, 80.000001%)" fill-opacity="1" d="M 216.507812 45.9375 C 216.507812 46.3125 216.570312 46.589844 216.695312 46.765625 C 216.820312 46.933594 217.015625 47.058594 217.289062 47.140625 L 216.914062 48.203125 C 216.507812 48.148438 216.148438 48.019531 215.835938 47.8125 C 215.53125 47.605469 215.3125 47.292969 215.179688 46.875 C 214.835938 47.3125 214.40625 47.648438 213.898438 47.875 C 213.386719 48.09375 212.824219 48.203125 212.210938 48.203125 C 211.261719 48.203125 210.511719 47.9375 209.960938 47.40625 C 209.417969 46.875 209.148438 46.167969 209.148438 45.28125 C 209.148438 44.304688 209.527344 43.554688 210.289062 43.03125 C 211.046875 42.511719 212.148438 42.25 213.585938 42.25 L 214.992188 42.25 L 214.992188 41.453125 C 214.992188 40.777344 214.789062 40.296875 214.382812 40.015625 C 213.984375 39.726562 213.433594 39.578125 212.726562 39.578125 C 212.414062 39.578125 212.046875 39.617188 211.632812 39.6875 C 211.214844 39.761719 210.757812 39.886719 210.257812 40.0625 L 209.867188 38.921875 C 210.449219 38.703125 210.996094 38.554688 211.507812 38.46875 C 212.015625 38.375 212.5 38.328125 212.960938 38.328125 C 214.148438 38.328125 215.03125 38.605469 215.617188 39.15625 C 216.210938 39.699219 216.507812 40.445312 216.507812 41.390625 Z M 212.601562 47.0625 C 213.058594 47.0625 213.5 46.945312 213.929688 46.703125 C 214.355469 46.464844 214.710938 46.136719 214.992188 45.71875 L 214.992188 43.28125 L 213.617188 43.28125 C 212.574219 43.28125 211.839844 43.464844 211.414062 43.828125 C 210.984375 44.183594 210.773438 44.664062 210.773438 45.265625 C 210.773438 45.851562 210.921875 46.296875 211.226562 46.609375 C 211.527344 46.914062 211.984375 47.0625 212.601562 47.0625 Z M 212.601562 47.0625 "/>
<path fill-rule="nonzero" fill="rgb(60.000002%, 60.000002%, 60.000002%)" fill-opacity="1" d="M 224.125 45.03125 C 224.53125 45.03125 224.875 45.179688 225.15625 45.46875 C 225.4375 45.75 225.578125 46.089844 225.578125 46.484375 C 225.578125 46.695312 225.550781 46.914062 225.5 47.140625 C 225.445312 47.359375 225.351562 47.609375 225.21875 47.890625 L 223.765625 51.234375 L 222.40625 51.234375 L 223.265625 47.671875 C 223.085938 47.546875 222.941406 47.382812 222.828125 47.171875 C 222.722656 46.953125 222.671875 46.726562 222.671875 46.484375 C 222.671875 46.078125 222.804688 45.734375 223.078125 45.453125 C 223.359375 45.171875 223.707031 45.03125 224.125 45.03125 Z M 224.125 45.03125 "/>
<path fill-rule="nonzero" fill="rgb(0%, 40.000001%, 80.000001%)" fill-opacity="1" d="M 234.117188 38.328125 C 234.648438 38.328125 235.109375 38.421875 235.507812 38.609375 C 235.902344 38.789062 236.230469 39.09375 236.492188 39.53125 C 236.761719 39.960938 236.960938 40.546875 237.085938 41.296875 L 237.585938 38.515625 L 238.976562 38.515625 L 238.039062 43.578125 L 238.507812 46.03125 C 238.570312 46.28125 238.65625 46.476562 238.773438 46.609375 C 238.898438 46.746094 239.078125 46.859375 239.320312 46.953125 L 238.789062 48.21875 C 238.339844 48.144531 237.96875 47.976562 237.679688 47.703125 C 237.386719 47.421875 237.203125 47.027344 237.132812 46.515625 L 236.960938 45.5 C 236.804688 45.992188 236.59375 46.4375 236.335938 46.84375 C 236.085938 47.25 235.765625 47.578125 235.382812 47.828125 C 235.007812 48.078125 234.546875 48.203125 234.007812 48.203125 C 232.933594 48.203125 232.089844 47.804688 231.476562 47 C 230.871094 46.199219 230.570312 44.980469 230.570312 43.34375 C 230.570312 42.367188 230.699219 41.5 230.960938 40.75 C 231.230469 39.992188 231.625 39.398438 232.148438 38.96875 C 232.667969 38.542969 233.324219 38.328125 234.117188 38.328125 Z M 234.226562 39.546875 C 233.578125 39.546875 233.078125 39.875 232.726562 40.53125 C 232.382812 41.179688 232.210938 42.117188 232.210938 43.34375 C 232.210938 44.605469 232.371094 45.527344 232.695312 46.109375 C 233.027344 46.695312 233.515625 46.984375 234.164062 46.984375 C 234.382812 46.984375 234.605469 46.9375 234.835938 46.84375 C 235.074219 46.742188 235.304688 46.558594 235.523438 46.296875 C 235.75 46.027344 235.964844 45.640625 236.164062 45.140625 C 236.371094 44.640625 236.554688 43.992188 236.710938 43.1875 C 236.542969 42.21875 236.339844 41.476562 236.101562 40.953125 C 235.871094 40.421875 235.601562 40.058594 235.289062 39.859375 C 234.976562 39.652344 234.621094 39.546875 234.226562 39.546875 Z M 234.226562 39.546875 "/>
<path fill-rule="nonzero" fill="rgb(60.000002%, 60.000002%, 60.000002%)" fill-opacity="1" d="M 245.734375 45.03125 C 246.140625 45.03125 246.484375 45.179688 246.765625 45.46875 C 247.046875 45.75 247.1875 46.089844 247.1875 46.484375 C 247.1875 46.695312 247.160156 46.914062 247.109375 47.140625 C 247.054688 47.359375 246.960938 47.609375 246.828125 47.890625 L 245.375 51.234375 L 244.015625 51.234375 L 244.875 47.671875 C 244.695312 47.546875 244.550781 47.382812 244.4375 47.171875 C 244.332031 46.953125 244.28125 46.726562 244.28125 46.484375 C 244.28125 46.078125 244.414062 45.734375 244.6875 45.453125 C 244.96875 45.171875 245.316406 45.03125 245.734375 45.03125 Z M 245.734375 45.03125 "/>
<path fill-rule="nonzero" fill="rgb(30.19608%, 60.000002%, 0%)" fill-opacity="1" d="M 255.976562 35.40625 C 256.757812 35.40625 257.421875 35.558594 257.976562 35.859375 C 258.539062 36.164062 258.96875 36.574219 259.273438 37.09375 C 259.574219 37.617188 259.726562 38.203125 259.726562 38.859375 C 259.726562 39.433594 259.621094 39.992188 259.414062 40.53125 C 259.214844 41.074219 258.898438 41.648438 258.460938 42.25 C 258.03125 42.84375 257.464844 43.507812 256.757812 44.234375 C 256.058594 44.953125 255.195312 45.78125 254.164062 46.71875 L 260.007812 46.71875 L 259.820312 48 L 252.445312 48 L 252.445312 46.765625 C 253.382812 45.871094 254.179688 45.089844 254.835938 44.421875 C 255.492188 43.746094 256.03125 43.15625 256.460938 42.65625 C 256.886719 42.148438 257.21875 41.683594 257.460938 41.265625 C 257.710938 40.851562 257.882812 40.453125 257.976562 40.078125 C 258.078125 39.703125 258.132812 39.320312 258.132812 38.921875 C 258.132812 38.226562 257.933594 37.679688 257.539062 37.28125 C 257.140625 36.875 256.601562 36.671875 255.914062 36.671875 C 255.296875 36.671875 254.792969 36.777344 254.398438 36.984375 C 254.011719 37.195312 253.625 37.527344 253.242188 37.984375 L 252.195312 37.1875 C 252.683594 36.585938 253.226562 36.136719 253.820312 35.84375 C 254.421875 35.554688 255.140625 35.40625 255.976562 35.40625 Z M 255.976562 35.40625 "/>
<path fill-rule="nonzero" fill="rgb(60.000002%, 60.000002%, 60.000002%)" fill-opacity="1" d="M 267.34375 45.03125 C 267.75 45.03125 268.09375 45.179688 268.375 45.46875 C 268.65625 45.75 268.796875 46.089844 268.796875 46.484375 C 268.796875 46.695312 268.769531 46.914062 268.71875 47.140625 C 268.664062 47.359375 268.570312 47.609375 268.4375 47.890625 L 266.984375 51.234375 L 265.625 51.234375 L 266.484375 47.671875 C 266.304688 47.546875 266.160156 47.382812 266.046875 47.171875 C 265.941406 46.953125 265.890625 46.726562 265.890625 46.484375 C 265.890625 46.078125 266.023438 45.734375 266.296875 45.453125 C 266.578125 45.171875 266.925781 45.03125 267.34375 45.03125 Z M 267.34375 45.03125 "/>
<path fill-rule="nonzero" fill="rgb(30.19608%, 60.000002%, 0%)" fill-opacity="1" d="M 276.070312 39.75 C 276.414062 39.304688 276.808594 38.953125 277.257812 38.703125 C 277.714844 38.453125 278.214844 38.328125 278.757812 38.328125 C 279.609375 38.328125 280.296875 38.53125 280.820312 38.9375 C 281.339844 39.34375 281.71875 39.917969 281.960938 40.65625 C 282.199219 41.398438 282.320312 42.261719 282.320312 43.25 C 282.320312 44.210938 282.171875 45.0625 281.882812 45.8125 C 281.601562 46.554688 281.179688 47.136719 280.617188 47.5625 C 280.0625 47.992188 279.382812 48.203125 278.570312 48.203125 C 277.464844 48.203125 276.601562 47.808594 275.976562 47.015625 L 275.867188 48 L 274.554688 48 L 274.554688 34.703125 L 276.070312 34.515625 Z M 278.210938 46.984375 C 279 46.984375 279.605469 46.679688 280.023438 46.0625 C 280.449219 45.449219 280.664062 44.511719 280.664062 43.25 C 280.664062 42.417969 280.578125 41.730469 280.414062 41.1875 C 280.246094 40.636719 279.996094 40.226562 279.664062 39.953125 C 279.328125 39.683594 278.921875 39.546875 278.445312 39.546875 C 277.914062 39.546875 277.445312 39.703125 277.039062 40.015625 C 276.640625 40.328125 276.320312 40.679688 276.070312 41.0625 L 276.070312 45.765625 C 276.308594 46.132812 276.617188 46.429688 276.992188 46.65625 C 277.367188 46.875 277.773438 46.984375 278.210938 46.984375 Z M 278.210938 46.984375 "/>
<path fill-rule="nonzero" fill="rgb(60.000002%, 60.000002%, 60.000002%)" fill-opacity="1" d="M 288.953125 45.03125 C 289.359375 45.03125 289.703125 45.179688 289.984375 45.46875 C 290.265625 45.75 290.40625 46.089844 290.40625 46.484375 C 290.40625 46.695312 290.378906 46.914062 290.328125 47.140625 C 290.273438 47.359375 290.179688 47.609375 290.046875 47.890625 L 288.59375 51.234375 L 287.234375 51.234375 L 288.09375 47.671875 C 287.914062 47.546875 287.769531 47.382812 287.65625 47.171875 C 287.550781 46.953125 287.5 46.726562 287.5 46.484375 C 287.5 46.078125 287.632812 45.734375 287.90625 45.453125 C 288.1875 45.171875 288.535156 45.03125 288.953125 45.03125 Z M 288.953125 45.03125 "/>
<path fill-rule="nonzero" fill="rgb(30.19608%, 60.000002%, 0%)" fill-opacity="1" d="M 299.601562 34.53125 C 300.257812 34.53125 300.855469 34.65625 301.398438 34.90625 C 301.949219 35.15625 302.386719 35.523438 302.710938 36 C 303.042969 36.480469 303.210938 37.054688 303.210938 37.71875 C 303.210938 38.34375 303.085938 38.871094 302.835938 39.296875 C 302.59375 39.714844 302.265625 40.042969 301.851562 40.28125 C 301.445312 40.511719 300.996094 40.664062 300.507812 40.734375 C 300.933594 40.777344 301.367188 40.867188 301.804688 41 C 302.242188 41.136719 302.636719 41.339844 302.992188 41.609375 C 303.355469 41.871094 303.648438 42.226562 303.867188 42.671875 C 304.085938 43.121094 304.195312 43.683594 304.195312 44.359375 C 304.195312 45.152344 304.007812 45.835938 303.632812 46.40625 C 303.257812 46.980469 302.761719 47.421875 302.148438 47.734375 C 301.542969 48.046875 300.890625 48.203125 300.195312 48.203125 C 299.640625 48.203125 299.101562 48.097656 298.570312 47.890625 C 298.039062 47.671875 297.554688 47.351562 297.117188 46.921875 L 297.351562 45.890625 C 297.683594 46.265625 298.070312 46.542969 298.507812 46.71875 C 298.945312 46.886719 299.460938 46.96875 300.054688 46.96875 C 300.53125 46.96875 300.964844 46.871094 301.351562 46.671875 C 301.746094 46.476562 302.0625 46.183594 302.304688 45.796875 C 302.542969 45.402344 302.664062 44.921875 302.664062 44.359375 C 302.664062 43.390625 302.382812 42.65625 301.820312 42.15625 C 301.265625 41.65625 300.464844 41.40625 299.414062 41.40625 L 298.445312 41.40625 L 298.617188 40.25 L 299.570312 40.25 C 299.976562 40.25 300.351562 40.167969 300.695312 40 C 301.039062 39.835938 301.308594 39.578125 301.507812 39.234375 C 301.714844 38.882812 301.820312 38.421875 301.820312 37.859375 C 301.820312 37.121094 301.605469 36.585938 301.179688 36.25 C 300.761719 35.90625 300.246094 35.734375 299.632812 35.734375 C 298.933594 35.734375 298.402344 35.949219 298.039062 36.375 C 297.683594 36.792969 297.507812 37.433594 297.507812 38.296875 L 297.507812 51.625 L 295.992188 51.828125 L 295.992188 38.28125 C 295.992188 37.492188 296.136719 36.820312 296.429688 36.265625 C 296.71875 35.703125 297.132812 35.277344 297.664062 34.984375 C 298.203125 34.683594 298.851562 34.53125 299.601562 34.53125 Z M 299.601562 34.53125 "/>
<path fill-rule="nonzero" fill="rgb(60.000002%, 60.000002%, 60.000002%)" fill-opacity="1" d="M 310.5625 45.03125 C 310.96875 45.03125 311.3125 45.179688 311.59375 45.46875 C 311.875 45.75 312.015625 46.089844 312.015625 46.484375 C 312.015625 46.695312 311.988281 46.914062 311.9375 47.140625 C 311.882812 47.359375 311.789062 47.609375 311.65625 47.890625 L 310.203125 51.234375 L 308.84375 51.234375 L 309.703125 47.671875 C 309.523438 47.546875 309.378906 47.382812 309.265625 47.171875 C 309.160156 46.953125 309.109375 46.726562 309.109375 46.484375 C 309.109375 46.078125 309.242188 45.734375 309.515625 45.453125 C 309.796875 45.171875 310.144531 45.03125 310.5625 45.03125 Z M 310.5625 45.03125 "/>
<path fill-rule="nonzero" fill="rgb(100%, 50.196081%, 0%)" fill-opacity="1" d="M 320.789062 35.40625 C 321.570312 35.40625 322.242188 35.546875 322.804688 35.828125 C 323.375 36.109375 323.820312 36.484375 324.132812 36.953125 C 324.445312 37.421875 324.601562 37.9375 324.601562 38.5 C 324.601562 39 324.484375 39.453125 324.257812 39.859375 C 324.039062 40.265625 323.746094 40.605469 323.382812 40.875 C 323.015625 41.136719 322.617188 41.308594 322.179688 41.390625 C 322.667969 41.433594 323.121094 41.574219 323.539062 41.8125 C 323.964844 42.042969 324.3125 42.375 324.585938 42.8125 C 324.855469 43.25 324.992188 43.789062 324.992188 44.421875 C 324.992188 45.140625 324.808594 45.789062 324.445312 46.359375 C 324.089844 46.933594 323.589844 47.386719 322.945312 47.71875 C 322.296875 48.039062 321.546875 48.203125 320.695312 48.203125 C 320.007812 48.203125 319.320312 48.070312 318.632812 47.8125 C 317.945312 47.554688 317.359375 47.132812 316.882812 46.546875 L 317.898438 45.71875 C 318.25 46.136719 318.671875 46.449219 319.164062 46.65625 C 319.652344 46.855469 320.152344 46.953125 320.664062 46.953125 C 321.527344 46.953125 322.199219 46.730469 322.679688 46.28125 C 323.167969 45.824219 323.414062 45.203125 323.414062 44.421875 C 323.414062 43.839844 323.296875 43.375 323.070312 43.03125 C 322.851562 42.6875 322.546875 42.445312 322.164062 42.296875 C 321.777344 42.152344 321.339844 42.078125 320.851562 42.078125 L 319.804688 42.078125 L 319.992188 40.875 L 320.726562 40.875 C 321.121094 40.875 321.496094 40.804688 321.851562 40.65625 C 322.214844 40.5 322.511719 40.261719 322.742188 39.9375 C 322.96875 39.617188 323.085938 39.210938 323.085938 38.71875 C 323.085938 38.03125 322.855469 37.511719 322.398438 37.15625 C 321.9375 36.792969 321.386719 36.609375 320.742188 36.609375 C 320.199219 36.609375 319.726562 36.710938 319.320312 36.90625 C 318.921875 37.09375 318.523438 37.382812 318.117188 37.765625 L 317.273438 36.828125 C 317.804688 36.328125 318.367188 35.96875 318.960938 35.75 C 319.554688 35.523438 320.164062 35.40625 320.789062 35.40625 Z M 320.789062 35.40625 "/>
<path fill-rule="nonzero" fill="rgb(60.000002%, 60.000002%, 60.000002%)" fill-opacity="1" d="M 332.171875 45.03125 C 332.578125 45.03125 332.921875 45.179688 333.203125 45.46875 C 333.484375 45.75 333.625 46.089844 333.625 46.484375 C 333.625 46.695312 333.597656 46.914062 333.546875 47.140625 C 333.492188 47.359375 333.398438 47.609375 333.265625 47.890625 L 331.8125 51.234375 L 330.453125 51.234375 L 331.3125 47.671875 C 331.132812 47.546875 330.988281 47.382812 330.875 47.171875 C 330.769531 46.953125 330.71875 46.726562 330.71875 46.484375 C 330.71875 46.078125 330.851562 45.734375 331.125 45.453125 C 331.40625 45.171875 331.753906 45.03125 332.171875 45.03125 Z M 332.171875 45.03125 "/>
<path fill-rule="nonzero" fill="rgb(100%, 50.196081%, 0%)" fill-opacity="1" d="M 343.664062 46.90625 C 344.132812 46.90625 344.570312 46.828125 344.976562 46.671875 C 345.390625 46.515625 345.777344 46.320312 346.132812 46.078125 L 346.867188 47.0625 C 346.449219 47.417969 345.949219 47.699219 345.367188 47.90625 C 344.792969 48.101562 344.226562 48.203125 343.664062 48.203125 C 342.726562 48.203125 341.921875 48 341.257812 47.59375 C 340.589844 47.1875 340.078125 46.621094 339.726562 45.890625 C 339.382812 45.152344 339.210938 44.289062 339.210938 43.296875 C 339.210938 42.351562 339.386719 41.5 339.742188 40.75 C 340.09375 40 340.601562 39.414062 341.257812 38.984375 C 341.921875 38.546875 342.730469 38.328125 343.679688 38.328125 C 344.28125 38.328125 344.851562 38.421875 345.382812 38.609375 C 345.914062 38.789062 346.402344 39.058594 346.851562 39.421875 L 346.117188 40.4375 C 345.710938 40.15625 345.304688 39.945312 344.898438 39.796875 C 344.492188 39.652344 344.078125 39.578125 343.664062 39.578125 C 342.851562 39.578125 342.179688 39.886719 341.648438 40.5 C 341.117188 41.117188 340.851562 42.046875 340.851562 43.296875 C 340.851562 44.140625 340.96875 44.828125 341.210938 45.359375 C 341.460938 45.890625 341.792969 46.28125 342.210938 46.53125 C 342.636719 46.78125 343.121094 46.90625 343.664062 46.90625 Z M 343.664062 46.90625 "/>
<path fill-rule="nonzero" fill="rgb(60.000002%, 60.000002%, 60.000002%)" fill-opacity="1" d="M 353.78125 45.03125 C 354.1875 45.03125 354.53125 45.179688 354.8125 45.46875 C 355.09375 45.75 355.234375 46.089844 355.234375 46.484375 C 355.234375 46.695312 355.207031 46.914062 355.15625 47.140625 C 355.101562 47.359375 355.007812 47.609375 354.875 47.890625 L 353.421875 51.234375 L 352.0625 51.234375 L 352.921875 47.671875 C 352.742188 47.546875 352.597656 47.382812 352.484375 47.171875 C 352.378906 46.953125 352.328125 46.726562 352.328125 46.484375 C 352.328125 46.078125 352.460938 45.734375 352.734375 45.453125 C 353.015625 45.171875 353.363281 45.03125 353.78125 45.03125 Z M 353.78125 45.03125 "/>
<path fill-rule="nonzero" fill="rgb(100%, 50.196081%, 0%)" fill-opacity="1" d="M 367.664062 38.3125 L 369.210938 38.65625 L 365.304688 47.6875 C 365.042969 48.28125 364.898438 48.878906 364.867188 49.484375 C 364.835938 50.097656 364.90625 50.8125 365.085938 51.625 L 363.882812 51.828125 C 363.683594 51.441406 363.546875 51.007812 363.476562 50.53125 C 363.402344 50.050781 363.390625 49.5625 363.445312 49.0625 C 363.507812 48.570312 363.621094 48.101562 363.789062 47.65625 C 363.589844 46.8125 363.351562 45.953125 363.070312 45.078125 C 362.789062 44.195312 362.476562 43.34375 362.132812 42.53125 C 361.789062 41.71875 361.429688 40.996094 361.054688 40.359375 C 360.6875 39.714844 360.324219 39.226562 359.960938 38.890625 L 361.492188 38.328125 C 361.90625 38.808594 362.308594 39.4375 362.695312 40.21875 C 363.089844 41 363.453125 41.886719 363.789062 42.875 C 364.132812 43.867188 364.421875 44.929688 364.664062 46.0625 Z M 367.664062 38.3125 "/>
<path fill-rule="nonzero" fill="rgb(60.000002%, 60.000002%, 60.000002%)" fill-opacity="1" d="M 375.390625 45.03125 C 375.796875 45.03125 376.140625 45.179688 376.421875 45.46875 C 376.703125 45.75 376.84375 46.089844 376.84375 46.484375 C 376.84375 46.695312 376.816406 46.914062 376.765625 47.140625 C 376.710938 47.359375 376.617188 47.609375 376.484375 47.890625 L 375.03125 51.234375 L 373.671875 51.234375 L 374.53125 47.671875 C 374.351562 47.546875 374.207031 47.382812 374.09375 47.171875 C 373.988281 46.953125 373.9375 46.726562 373.9375 46.484375 C 373.9375 46.078125 374.070312 45.734375 374.34375 45.453125 C 374.625 45.171875 374.972656 45.03125 375.390625 45.03125 Z M 375.390625 45.03125 "/>
<path fill-rule="nonzero" fill="rgb(60.000002%, 60.000002%, 60.000002%)" fill-opacity="1" d="M 386.757812 46.609375 C 386.757812 46.320312 386.828125 46.058594 386.960938 45.828125 C 387.097656 45.589844 387.285156 45.398438 387.523438 45.25 C 387.765625 45.105469 388.03125 45.03125 388.320312 45.03125 C 388.632812 45.03125 388.910156 45.105469 389.148438 45.25 C 389.390625 45.398438 389.578125 45.589844 389.710938 45.828125 C 389.847656 46.058594 389.914062 46.320312 389.914062 46.609375 C 389.914062 46.914062 389.847656 47.183594 389.710938 47.421875 C 389.578125 47.664062 389.390625 47.855469 389.148438 48 C 388.910156 48.132812 388.632812 48.203125 388.320312 48.203125 C 388.03125 48.203125 387.765625 48.132812 387.523438 48 C 387.285156 47.855469 387.097656 47.664062 386.960938 47.421875 C 386.828125 47.183594 386.757812 46.914062 386.757812 46.609375 Z M 393.242188 46.609375 C 393.242188 46.320312 393.308594 46.058594 393.445312 45.828125 C 393.578125 45.589844 393.765625 45.398438 394.007812 45.25 C 394.246094 45.105469 394.511719 45.03125 394.804688 45.03125 C 395.117188 45.03125 395.390625 45.105469 395.632812 45.25 C 395.871094 45.398438 396.058594 45.589844 396.195312 45.828125 C 396.328125 46.058594 396.398438 46.320312 396.398438 46.609375 C 396.398438 46.914062 396.328125 47.183594 396.195312 47.421875 C 396.058594 47.664062 395.871094 47.855469 395.632812 48 C 395.390625 48.132812 395.117188 48.203125 394.804688 48.203125 C 394.511719 48.203125 394.246094 48.132812 394.007812 48 C 393.765625 47.855469 393.578125 47.664062 393.445312 47.421875 C 393.308594 47.183594 393.242188 46.914062 393.242188 46.609375 Z M 393.242188 46.609375 "/>
<path fill="none" stroke-width="2" stroke-linecap="butt" stroke-linejoin="miter" stroke="rgb(40.000001%, 40.000001%, 40.000001%)" stroke-opacity="1" stroke-miterlimit="10" d="M 160 59.5 L 189.760417 59.5 " transform="matrix(0.75, 0, 0, 0.75, 0, 0)"/>
<path fill-rule="nonzero" fill="rgb(40.000001%, 40.000001%, 40.000001%)" fill-opacity="1" stroke-width="2" stroke-linecap="butt" stroke-linejoin="miter" stroke="rgb(40.000001%, 40.000001%, 40.000001%)" stroke-opacity="1" stroke-miterlimit="10" d="M 197.760417 59.5 L 189.760417 62.171875 L 189.760417 56.828125 Z M 197.760417 59.5 " transform="matrix(0.75, 0, 0, 0.75, 0, 0)"/>
</svg>
