<?xml version="1.0" encoding="UTF-8"?>
<svg xmlns="http://www.w3.org/2000/svg" xmlns:xlink="http://www.w3.org/1999/xlink" width="196.080002" height="131.039993" viewBox="0 0 196.080002 131.039993">
<path fill-rule="nonzero" fill="rgb(60.000002%, 60.000002%, 60.000002%)" fill-opacity="1" d="M 6.316406 18.597656 L 6.316406 1.832031 L 10.832031 1.832031 L 10.832031 3.128906 L 7.753906 3.128906 L 7.753906 17.316406 L 10.832031 17.316406 L 10.832031 18.597656 Z M 6.316406 18.597656 "/>
<path fill-rule="nonzero" fill="rgb(30.19608%, 60.000002%, 0%)" fill-opacity="1" d="M 19.214844 3.910156 C 19.953125 3.910156 20.589844 4.046875 21.121094 4.316406 C 21.652344 4.578125 22.058594 4.921875 22.339844 5.347656 C 22.621094 5.765625 22.761719 6.214844 22.761719 6.691406 C 22.761719 7.265625 22.652344 7.734375 22.433594 8.097656 C 22.222656 8.464844 21.957031 8.769531 21.636719 9.019531 C 21.3125 9.269531 20.988281 9.515625 20.667969 9.753906 C 20.34375 9.996094 20.074219 10.277344 19.855469 10.597656 C 19.636719 10.910156 19.527344 11.3125 19.527344 11.800781 L 19.527344 12.425781 L 17.996094 12.425781 L 17.996094 11.722656 C 17.996094 11.140625 18.097656 10.65625 18.308594 10.269531 C 18.527344 9.886719 18.796875 9.558594 19.121094 9.285156 C 19.441406 9.015625 19.761719 8.765625 20.074219 8.535156 C 20.394531 8.308594 20.660156 8.058594 20.871094 7.785156 C 21.089844 7.515625 21.199219 7.183594 21.199219 6.785156 C 21.199219 6.277344 20.996094 5.878906 20.589844 5.597656 C 20.183594 5.316406 19.675781 5.175781 19.074219 5.175781 C 18.644531 5.175781 18.203125 5.28125 17.746094 5.488281 C 17.296875 5.699219 16.886719 6.03125 16.511719 6.488281 L 15.433594 5.707031 C 15.964844 5.082031 16.546875 4.628906 17.183594 4.347656 C 17.816406 4.058594 18.496094 3.910156 19.214844 3.910156 Z M 18.808594 14.316406 C 19.152344 14.316406 19.4375 14.4375 19.667969 14.675781 C 19.90625 14.90625 20.027344 15.183594 20.027344 15.503906 C 20.027344 15.847656 19.90625 16.140625 19.667969 16.378906 C 19.4375 16.605469 19.152344 16.722656 18.808594 16.722656 C 18.472656 16.722656 18.191406 16.605469 17.964844 16.378906 C 17.734375 16.140625 17.621094 15.847656 17.621094 15.503906 C 17.621094 15.183594 17.734375 14.90625 17.964844 14.675781 C 18.191406 14.4375 18.472656 14.316406 18.808594 14.316406 Z M 18.808594 14.316406 "/>
<path fill-rule="nonzero" fill="rgb(60.000002%, 60.000002%, 60.000002%)" fill-opacity="1" d="M 30.046875 13.550781 C 30.460938 13.550781 30.804688 13.699219 31.078125 13.988281 C 31.359375 14.269531 31.5 14.609375 31.5 15.003906 C 31.5 15.214844 31.472656 15.433594 31.421875 15.660156 C 31.367188 15.878906 31.28125 16.128906 31.15625 16.410156 L 29.6875 19.753906 L 28.328125 19.753906 L 29.1875 16.191406 C 29.007812 16.066406 28.867188 15.902344 28.765625 15.691406 C 28.660156 15.472656 28.609375 15.246094 28.609375 15.003906 C 28.609375 14.597656 28.742188 14.253906 29.015625 13.972656 C 29.296875 13.691406 29.640625 13.550781 30.046875 13.550781 Z M 30.046875 13.550781 "/>
<path fill-rule="nonzero" fill="rgb(30.19608%, 60.000002%, 0%)" fill-opacity="1" d="M 19.214844 26.441406 C 19.953125 26.441406 20.589844 26.578125 21.121094 26.847656 C 21.652344 27.109375 22.058594 27.453125 22.339844 27.878906 C 22.621094 28.296875 22.761719 28.746094 22.761719 29.222656 C 22.761719 29.796875 22.652344 30.265625 22.433594 30.628906 C 22.222656 30.996094 21.957031 31.300781 21.636719 31.550781 C 21.3125 31.800781 20.988281 32.046875 20.667969 32.285156 C 20.34375 32.527344 20.074219 32.808594 19.855469 33.128906 C 19.636719 33.441406 19.527344 33.84375 19.527344 34.332031 L 19.527344 34.957031 L 17.996094 34.957031 L 17.996094 34.253906 C 17.996094 33.671875 18.097656 33.1875 18.308594 32.800781 C 18.527344 32.417969 18.796875 32.089844 19.121094 31.816406 C 19.441406 31.546875 19.761719 31.296875 20.074219 31.066406 C 20.394531 30.839844 20.660156 30.589844 20.871094 30.316406 C 21.089844 30.046875 21.199219 29.714844 21.199219 29.316406 C 21.199219 28.808594 20.996094 28.410156 20.589844 28.128906 C 20.183594 27.847656 19.675781 27.707031 19.074219 27.707031 C 18.644531 27.707031 18.203125 27.8125 17.746094 28.019531 C 17.296875 28.230469 16.886719 28.5625 16.511719 29.019531 L 15.433594 28.238281 C 15.964844 27.613281 16.546875 27.160156 17.183594 26.878906 C 17.816406 26.589844 18.496094 26.441406 19.214844 26.441406 Z M 18.808594 36.847656 C 19.152344 36.847656 19.4375 36.96875 19.667969 37.207031 C 19.90625 37.4375 20.027344 37.714844 20.027344 38.035156 C 20.027344 38.378906 19.90625 38.671875 19.667969 38.910156 C 19.4375 39.136719 19.152344 39.253906 18.808594 39.253906 C 18.472656 39.253906 18.191406 39.136719 17.964844 38.910156 C 17.734375 38.671875 17.621094 38.378906 17.621094 38.035156 C 17.621094 37.714844 17.734375 37.4375 17.964844 37.207031 C 18.191406 36.96875 18.472656 36.847656 18.808594 36.847656 Z M 18.808594 36.847656 "/>
<path fill-rule="nonzero" fill="rgb(60.000002%, 60.000002%, 60.000002%)" fill-opacity="1" d="M 30.046875 36.082031 C 30.460938 36.082031 30.804688 36.230469 31.078125 36.519531 C 31.359375 36.800781 31.5 37.140625 31.5 37.535156 C 31.5 37.746094 31.472656 37.964844 31.421875 38.191406 C 31.367188 38.410156 31.28125 38.660156 31.15625 38.941406 L 29.6875 42.285156 L 28.328125 42.285156 L 29.1875 38.722656 C 29.007812 38.597656 28.867188 38.433594 28.765625 38.222656 C 28.660156 38.003906 28.609375 37.777344 28.609375 37.535156 C 28.609375 37.128906 28.742188 36.785156 29.015625 36.503906 C 29.296875 36.222656 29.640625 36.082031 30.046875 36.082031 Z M 30.046875 36.082031 "/>
<path fill-rule="nonzero" fill="rgb(30.19608%, 60.000002%, 0%)" fill-opacity="1" d="M 19.214844 47.46875 C 19.953125 47.46875 20.589844 47.605469 21.121094 47.875 C 21.652344 48.136719 22.058594 48.480469 22.339844 48.90625 C 22.621094 49.324219 22.761719 49.773438 22.761719 50.25 C 22.761719 50.824219 22.652344 51.292969 22.433594 51.65625 C 22.222656 52.023438 21.957031 52.328125 21.636719 52.578125 C 21.3125 52.828125 20.988281 53.074219 20.667969 53.3125 C 20.34375 53.554688 20.074219 53.835938 19.855469 54.15625 C 19.636719 54.46875 19.527344 54.871094 19.527344 55.359375 L 19.527344 55.984375 L 17.996094 55.984375 L 17.996094 55.28125 C 17.996094 54.699219 18.097656 54.214844 18.308594 53.828125 C 18.527344 53.445312 18.796875 53.117188 19.121094 52.84375 C 19.441406 52.574219 19.761719 52.324219 20.074219 52.09375 C 20.394531 51.867188 20.660156 51.617188 20.871094 51.34375 C 21.089844 51.074219 21.199219 50.742188 21.199219 50.34375 C 21.199219 49.835938 20.996094 49.4375 20.589844 49.15625 C 20.183594 48.875 19.675781 48.734375 19.074219 48.734375 C 18.644531 48.734375 18.203125 48.839844 17.746094 49.046875 C 17.296875 49.257812 16.886719 49.589844 16.511719 50.046875 L 15.433594 49.265625 C 15.964844 48.640625 16.546875 48.1875 17.183594 47.90625 C 17.816406 47.617188 18.496094 47.46875 19.214844 47.46875 Z M 18.808594 57.875 C 19.152344 57.875 19.4375 57.996094 19.667969 58.234375 C 19.90625 58.464844 20.027344 58.742188 20.027344 59.0625 C 20.027344 59.40625 19.90625 59.699219 19.667969 59.9375 C 19.4375 60.164062 19.152344 60.28125 18.808594 60.28125 C 18.472656 60.28125 18.191406 60.164062 17.964844 59.9375 C 17.734375 59.699219 17.621094 59.40625 17.621094 59.0625 C 17.621094 58.742188 17.734375 58.464844 17.964844 58.234375 C 18.191406 57.996094 18.472656 57.875 18.808594 57.875 Z M 18.808594 57.875 "/>
<path fill-rule="nonzero" fill="rgb(60.000002%, 60.000002%, 60.000002%)" fill-opacity="1" d="M 30.046875 57.109375 C 30.460938 57.109375 30.804688 57.257812 31.078125 57.546875 C 31.359375 57.828125 31.5 58.167969 31.5 58.5625 C 31.5 58.773438 31.472656 58.992188 31.421875 59.21875 C 31.367188 59.4375 31.28125 59.6875 31.15625 59.96875 L 29.6875 63.3125 L 28.328125 63.3125 L 29.1875 59.75 C 29.007812 59.625 28.867188 59.460938 28.765625 59.25 C 28.660156 59.03125 28.609375 58.804688 28.609375 58.5625 C 28.609375 58.15625 28.742188 57.8125 29.015625 57.53125 C 29.296875 57.25 29.640625 57.109375 30.046875 57.109375 Z M 30.046875 57.109375 "/>
<path fill-rule="nonzero" fill="rgb(60.000002%, 60.000002%, 60.000002%)" fill-opacity="1" d="M 80.960938 55.109375 L 80.960938 53.765625 L 89.695312 53.765625 L 89.695312 55.109375 Z M 80.960938 55.109375 "/>
<path fill-rule="nonzero" fill="rgb(60.000002%, 60.000002%, 60.000002%)" fill-opacity="1" d="M 96.726562 55.109375 L 89.335938 55.109375 L 89.335938 53.765625 L 96.726562 53.765625 Z M 93.226562 48.953125 L 98.132812 54.4375 L 93.226562 59.921875 L 92.101562 58.96875 L 94.679688 56.140625 C 94.917969 55.882812 95.109375 55.679688 95.257812 55.53125 C 95.414062 55.386719 95.605469 55.246094 95.835938 55.109375 L 95.835938 53.765625 C 95.605469 53.632812 95.414062 53.496094 95.257812 53.359375 C 95.109375 53.214844 94.917969 53.007812 94.679688 52.734375 L 92.101562 49.90625 Z M 93.226562 48.953125 "/>
<path fill-rule="nonzero" fill="rgb(30.19608%, 60.000002%, 0%)" fill-opacity="1" d="M 19.214844 69.996094 C 19.953125 69.996094 20.589844 70.132812 21.121094 70.402344 C 21.652344 70.664062 22.058594 71.007812 22.339844 71.433594 C 22.621094 71.851562 22.761719 72.300781 22.761719 72.777344 C 22.761719 73.351562 22.652344 73.820312 22.433594 74.183594 C 22.222656 74.550781 21.957031 74.855469 21.636719 75.105469 C 21.3125 75.355469 20.988281 75.601562 20.667969 75.839844 C 20.34375 76.082031 20.074219 76.363281 19.855469 76.683594 C 19.636719 76.996094 19.527344 77.398438 19.527344 77.886719 L 19.527344 78.511719 L 17.996094 78.511719 L 17.996094 77.808594 C 17.996094 77.226562 18.097656 76.742188 18.308594 76.355469 C 18.527344 75.972656 18.796875 75.644531 19.121094 75.371094 C 19.441406 75.101562 19.761719 74.851562 20.074219 74.621094 C 20.394531 74.394531 20.660156 74.144531 20.871094 73.871094 C 21.089844 73.601562 21.199219 73.269531 21.199219 72.871094 C 21.199219 72.363281 20.996094 71.964844 20.589844 71.683594 C 20.183594 71.402344 19.675781 71.261719 19.074219 71.261719 C 18.644531 71.261719 18.203125 71.367188 17.746094 71.574219 C 17.296875 71.785156 16.886719 72.117188 16.511719 72.574219 L 15.433594 71.792969 C 15.964844 71.167969 16.546875 70.714844 17.183594 70.433594 C 17.816406 70.144531 18.496094 69.996094 19.214844 69.996094 Z M 18.808594 80.402344 C 19.152344 80.402344 19.4375 80.523438 19.667969 80.761719 C 19.90625 80.992188 20.027344 81.269531 20.027344 81.589844 C 20.027344 81.933594 19.90625 82.226562 19.667969 82.464844 C 19.4375 82.691406 19.152344 82.808594 18.808594 82.808594 C 18.472656 82.808594 18.191406 82.691406 17.964844 82.464844 C 17.734375 82.226562 17.621094 81.933594 17.621094 81.589844 C 17.621094 81.269531 17.734375 80.992188 17.964844 80.761719 C 18.191406 80.523438 18.472656 80.402344 18.808594 80.402344 Z M 18.808594 80.402344 "/>
<path fill-rule="nonzero" fill="rgb(60.000002%, 60.000002%, 60.000002%)" fill-opacity="1" d="M 30.046875 79.636719 C 30.460938 79.636719 30.804688 79.785156 31.078125 80.074219 C 31.359375 80.355469 31.5 80.695312 31.5 81.089844 C 31.5 81.300781 31.472656 81.519531 31.421875 81.746094 C 31.367188 81.964844 31.28125 82.214844 31.15625 82.496094 L 29.6875 85.839844 L 28.328125 85.839844 L 29.1875 82.277344 C 29.007812 82.152344 28.867188 81.988281 28.765625 81.777344 C 28.660156 81.558594 28.609375 81.332031 28.609375 81.089844 C 28.609375 80.683594 28.742188 80.339844 29.015625 80.058594 C 29.296875 79.777344 29.640625 79.636719 30.046875 79.636719 Z M 30.046875 79.636719 "/>
<path fill-rule="nonzero" fill="rgb(30.19608%, 60.000002%, 0%)" fill-opacity="1" d="M 19.214844 91.023438 C 19.953125 91.023438 20.589844 91.160156 21.121094 91.429688 C 21.652344 91.691406 22.058594 92.035156 22.339844 92.460938 C 22.621094 92.878906 22.761719 93.328125 22.761719 93.804688 C 22.761719 94.378906 22.652344 94.847656 22.433594 95.210938 C 22.222656 95.578125 21.957031 95.882812 21.636719 96.132812 C 21.3125 96.382812 20.988281 96.628906 20.667969 96.867188 C 20.34375 97.109375 20.074219 97.390625 19.855469 97.710938 C 19.636719 98.023438 19.527344 98.425781 19.527344 98.914062 L 19.527344 99.539062 L 17.996094 99.539062 L 17.996094 98.835938 C 17.996094 98.253906 18.097656 97.769531 18.308594 97.382812 C 18.527344 97 18.796875 96.671875 19.121094 96.398438 C 19.441406 96.128906 19.761719 95.878906 20.074219 95.648438 C 20.394531 95.421875 20.660156 95.171875 20.871094 94.898438 C 21.089844 94.628906 21.199219 94.296875 21.199219 93.898438 C 21.199219 93.390625 20.996094 92.992188 20.589844 92.710938 C 20.183594 92.429688 19.675781 92.289062 19.074219 92.289062 C 18.644531 92.289062 18.203125 92.394531 17.746094 92.601562 C 17.296875 92.8125 16.886719 93.144531 16.511719 93.601562 L 15.433594 92.820312 C 15.964844 92.195312 16.546875 91.742188 17.183594 91.460938 C 17.816406 91.171875 18.496094 91.023438 19.214844 91.023438 Z M 18.808594 101.429688 C 19.152344 101.429688 19.4375 101.550781 19.667969 101.789062 C 19.90625 102.019531 20.027344 102.296875 20.027344 102.617188 C 20.027344 102.960938 19.90625 103.253906 19.667969 103.492188 C 19.4375 103.71875 19.152344 103.835938 18.808594 103.835938 C 18.472656 103.835938 18.191406 103.71875 17.964844 103.492188 C 17.734375 103.253906 17.621094 102.960938 17.621094 102.617188 C 17.621094 102.296875 17.734375 102.019531 17.964844 101.789062 C 18.191406 101.550781 18.472656 101.429688 18.808594 101.429688 Z M 18.808594 101.429688 "/>
<path fill-rule="nonzero" fill="rgb(60.000002%, 60.000002%, 60.000002%)" fill-opacity="1" d="M 30.046875 100.664062 C 30.460938 100.664062 30.804688 100.8125 31.078125 101.101562 C 31.359375 101.382812 31.5 101.722656 31.5 102.117188 C 31.5 102.328125 31.472656 102.546875 31.421875 102.773438 C 31.367188 102.992188 31.28125 103.242188 31.15625 103.523438 L 29.6875 106.867188 L 28.328125 106.867188 L 29.1875 103.304688 C 29.007812 103.179688 28.867188 103.015625 28.765625 102.804688 C 28.660156 102.585938 28.609375 102.359375 28.609375 102.117188 C 28.609375 101.710938 28.742188 101.367188 29.015625 101.085938 C 29.296875 100.804688 29.640625 100.664062 30.046875 100.664062 Z M 30.046875 100.664062 "/>
<path fill-rule="nonzero" fill="rgb(60.000002%, 60.000002%, 60.000002%)" fill-opacity="1" d="M 17.65625 123.269531 C 17.65625 122.980469 17.726562 122.714844 17.859375 122.472656 C 17.996094 122.234375 18.183594 122.046875 18.421875 121.910156 C 18.664062 121.765625 18.933594 121.691406 19.234375 121.691406 C 19.539062 121.691406 19.808594 121.765625 20.046875 121.910156 C 20.289062 122.046875 20.480469 122.234375 20.625 122.472656 C 20.761719 122.714844 20.828125 122.980469 20.828125 123.269531 C 20.828125 123.5625 20.761719 123.832031 20.625 124.082031 C 20.480469 124.324219 20.289062 124.515625 20.046875 124.660156 C 19.808594 124.792969 19.539062 124.863281 19.234375 124.863281 C 18.933594 124.863281 18.664062 124.792969 18.421875 124.660156 C 18.183594 124.515625 17.996094 124.324219 17.859375 124.082031 C 17.726562 123.832031 17.65625 123.5625 17.65625 123.269531 Z M 24.875 123.269531 C 24.875 122.980469 24.941406 122.714844 25.078125 122.472656 C 25.210938 122.234375 25.398438 122.046875 25.640625 121.910156 C 25.878906 121.765625 26.148438 121.691406 26.453125 121.691406 C 26.753906 121.691406 27.023438 121.765625 27.265625 121.910156 C 27.503906 122.046875 27.691406 122.234375 27.828125 122.472656 C 27.972656 122.714844 28.046875 122.980469 28.046875 123.269531 C 28.046875 123.5625 27.972656 123.832031 27.828125 124.082031 C 27.691406 124.324219 27.503906 124.515625 27.265625 124.660156 C 27.023438 124.792969 26.753906 124.863281 26.453125 124.863281 C 26.148438 124.863281 25.878906 124.792969 25.640625 124.660156 C 25.398438 124.515625 25.210938 124.324219 25.078125 124.082031 C 24.941406 123.832031 24.875 123.5625 24.875 123.269531 Z M 10.453125 123.269531 C 10.453125 122.980469 10.523438 122.714844 10.65625 122.472656 C 10.792969 122.234375 10.980469 122.046875 11.21875 121.910156 C 11.460938 121.765625 11.730469 121.691406 12.03125 121.691406 C 12.335938 121.691406 12.605469 121.765625 12.84375 121.910156 C 13.085938 122.046875 13.277344 122.234375 13.421875 122.472656 C 13.558594 122.714844 13.625 122.980469 13.625 123.269531 C 13.625 123.5625 13.558594 123.832031 13.421875 124.082031 C 13.277344 124.324219 13.085938 124.515625 12.84375 124.660156 C 12.605469 124.792969 12.335938 124.863281 12.03125 124.863281 C 11.730469 124.863281 11.460938 124.792969 11.21875 124.660156 C 10.980469 124.515625 10.792969 124.324219 10.65625 124.082031 C 10.523438 123.832031 10.453125 123.5625 10.453125 123.269531 Z M 10.453125 123.269531 "/>
<path fill-rule="nonzero" fill="rgb(60.000002%, 60.000002%, 60.000002%)" fill-opacity="1" d="M 126.46875 18.597656 L 126.46875 1.832031 L 130.984375 1.832031 L 130.984375 3.128906 L 127.90625 3.128906 L 127.90625 17.316406 L 130.984375 17.316406 L 130.984375 18.597656 Z M 126.46875 18.597656 "/>
<path fill-rule="nonzero" fill="rgb(30.19608%, 60.000002%, 0%)" fill-opacity="1" d="M 142.585938 14.441406 C 142.585938 14.828125 142.648438 15.109375 142.773438 15.285156 C 142.898438 15.453125 143.089844 15.578125 143.351562 15.660156 L 142.992188 16.722656 C 142.574219 16.667969 142.214844 16.539062 141.914062 16.332031 C 141.609375 16.125 141.386719 15.8125 141.242188 15.394531 C 140.898438 15.832031 140.46875 16.167969 139.960938 16.394531 C 139.449219 16.613281 138.886719 16.722656 138.273438 16.722656 C 137.324219 16.722656 136.574219 16.457031 136.023438 15.925781 C 135.480469 15.394531 135.210938 14.6875 135.210938 13.800781 C 135.210938 12.824219 135.589844 12.074219 136.351562 11.550781 C 137.109375 11.03125 138.214844 10.769531 139.664062 10.769531 L 141.054688 10.769531 L 141.054688 9.972656 C 141.054688 9.285156 140.851562 8.800781 140.445312 8.519531 C 140.046875 8.230469 139.496094 8.082031 138.789062 8.082031 C 138.476562 8.082031 138.109375 8.125 137.695312 8.207031 C 137.277344 8.28125 136.820312 8.40625 136.320312 8.582031 L 135.929688 7.425781 C 136.511719 7.21875 137.058594 7.066406 137.570312 6.972656 C 138.078125 6.878906 138.5625 6.832031 139.023438 6.832031 C 140.210938 6.832031 141.101562 7.109375 141.695312 7.660156 C 142.289062 8.214844 142.585938 8.957031 142.585938 9.894531 Z M 138.664062 15.566406 C 139.132812 15.566406 139.578125 15.453125 140.007812 15.222656 C 140.433594 14.984375 140.78125 14.65625 141.054688 14.238281 L 141.054688 11.785156 L 139.695312 11.785156 C 138.640625 11.785156 137.902344 11.96875 137.476562 12.332031 C 137.046875 12.699219 136.835938 13.183594 136.835938 13.785156 C 136.835938 14.371094 136.984375 14.8125 137.289062 15.113281 C 137.589844 15.417969 138.046875 15.566406 138.664062 15.566406 Z M 138.664062 15.566406 "/>
<path fill-rule="nonzero" fill="rgb(60.000002%, 60.000002%, 60.000002%)" fill-opacity="1" d="M 150.199219 13.550781 C 150.613281 13.550781 150.957031 13.699219 151.230469 13.988281 C 151.511719 14.269531 151.652344 14.609375 151.652344 15.003906 C 151.652344 15.214844 151.625 15.433594 151.574219 15.660156 C 151.519531 15.878906 151.433594 16.128906 151.308594 16.410156 L 149.839844 19.753906 L 148.480469 19.753906 L 149.339844 16.191406 C 149.160156 16.066406 149.019531 15.902344 148.917969 15.691406 C 148.8125 15.472656 148.761719 15.246094 148.761719 15.003906 C 148.761719 14.597656 148.894531 14.253906 149.167969 13.972656 C 149.449219 13.691406 149.792969 13.550781 150.199219 13.550781 Z M 150.199219 13.550781 "/>
<path fill-rule="nonzero" fill="rgb(30.19608%, 60.000002%, 0%)" fill-opacity="1" d="M 137.304688 30.800781 C 137.648438 30.34375 138.042969 29.988281 138.492188 29.738281 C 138.949219 29.488281 139.453125 29.363281 140.007812 29.363281 C 140.851562 29.363281 141.53125 29.574219 142.054688 29.988281 C 142.574219 30.394531 142.953125 30.96875 143.195312 31.707031 C 143.433594 32.449219 143.554688 33.3125 143.554688 34.300781 C 143.554688 35.261719 143.40625 36.113281 143.117188 36.863281 C 142.835938 37.605469 142.414062 38.1875 141.851562 38.613281 C 141.296875 39.042969 140.617188 39.253906 139.804688 39.253906 C 138.699219 39.253906 137.839844 38.859375 137.226562 38.066406 L 137.117188 39.050781 L 135.789062 39.050781 L 135.789062 25.738281 L 137.304688 25.550781 Z M 139.445312 38.035156 C 140.234375 38.035156 140.84375 37.730469 141.273438 37.113281 C 141.699219 36.5 141.914062 35.5625 141.914062 34.300781 C 141.914062 33.46875 141.828125 32.78125 141.664062 32.238281 C 141.496094 31.6875 141.246094 31.277344 140.914062 31.003906 C 140.578125 30.722656 140.167969 30.582031 139.679688 30.582031 C 139.148438 30.582031 138.683594 30.746094 138.289062 31.066406 C 137.890625 31.378906 137.5625 31.730469 137.304688 32.113281 L 137.304688 36.800781 C 137.542969 37.175781 137.851562 37.480469 138.226562 37.707031 C 138.601562 37.925781 139.007812 38.035156 139.445312 38.035156 Z M 139.445312 38.035156 "/>
<path fill-rule="nonzero" fill="rgb(60.000002%, 60.000002%, 60.000002%)" fill-opacity="1" d="M 150.199219 36.082031 C 150.613281 36.082031 150.957031 36.230469 151.230469 36.519531 C 151.511719 36.800781 151.652344 37.140625 151.652344 37.535156 C 151.652344 37.746094 151.625 37.964844 151.574219 38.191406 C 151.519531 38.410156 151.433594 38.660156 151.308594 38.941406 L 149.839844 42.285156 L 148.480469 42.285156 L 149.339844 38.722656 C 149.160156 38.597656 149.019531 38.433594 148.917969 38.222656 C 148.8125 38.003906 148.761719 37.777344 148.761719 37.535156 C 148.761719 37.128906 148.894531 36.785156 149.167969 36.503906 C 149.449219 36.222656 149.792969 36.082031 150.199219 36.082031 Z M 150.199219 36.082031 "/>
<path fill-rule="nonzero" fill="rgb(30.19608%, 60.000002%, 0%)" fill-opacity="1" d="M 144.292969 54.734375 C 144.292969 55.527344 144.128906 56.273438 143.808594 56.96875 C 143.464844 57.699219 142.984375 58.289062 142.371094 58.734375 L 143.183594 59.375 L 140.574219 60.078125 L 140.808594 57.46875 L 141.542969 58.046875 C 142.300781 57.382812 142.683594 56.453125 142.683594 55.265625 C 142.683594 53.734375 141.953125 52.539062 140.496094 51.671875 L 141.417969 49.875 C 142.324219 50.3125 143.03125 50.984375 143.542969 51.890625 C 144.042969 52.765625 144.292969 53.714844 144.292969 54.734375 Z M 138.699219 58.28125 L 137.761719 60.078125 C 136.875 59.640625 136.171875 58.96875 135.652344 58.0625 C 135.152344 57.1875 134.902344 56.242188 134.902344 55.21875 C 134.902344 54.429688 135.0625 53.683594 135.386719 52.984375 C 135.730469 52.257812 136.203125 51.667969 136.808594 51.21875 L 135.996094 50.578125 L 138.621094 49.875 L 138.371094 52.484375 L 137.652344 51.90625 C 136.890625 52.574219 136.511719 53.507812 136.511719 54.703125 C 136.511719 56.226562 137.238281 57.417969 138.699219 58.28125 Z M 138.699219 58.28125 "/>
<path fill-rule="nonzero" fill="rgb(60.000002%, 60.000002%, 60.000002%)" fill-opacity="1" d="M 152.59375 57.109375 C 153.007812 57.109375 153.351562 57.257812 153.625 57.546875 C 153.90625 57.828125 154.046875 58.167969 154.046875 58.5625 C 154.046875 58.773438 154.019531 58.992188 153.96875 59.21875 C 153.914062 59.4375 153.828125 59.6875 153.703125 59.96875 L 152.234375 63.3125 L 150.875 63.3125 L 151.734375 59.75 C 151.554688 59.625 151.414062 59.460938 151.3125 59.25 C 151.207031 59.03125 151.15625 58.804688 151.15625 58.5625 C 151.15625 58.15625 151.289062 57.8125 151.5625 57.53125 C 151.84375 57.25 152.1875 57.109375 152.59375 57.109375 Z M 152.59375 57.109375 "/>
<path fill-rule="nonzero" fill="rgb(30.19608%, 60.000002%, 0%)" fill-opacity="1" d="M 144.292969 77.261719 C 144.292969 78.054688 144.128906 78.800781 143.808594 79.496094 C 143.464844 80.226562 142.984375 80.816406 142.371094 81.261719 L 143.183594 81.902344 L 140.574219 82.605469 L 140.808594 79.996094 L 141.542969 80.574219 C 142.300781 79.910156 142.683594 78.980469 142.683594 77.792969 C 142.683594 76.261719 141.953125 75.066406 140.496094 74.199219 L 141.417969 72.402344 C 142.324219 72.839844 143.03125 73.511719 143.542969 74.417969 C 144.042969 75.292969 144.292969 76.242188 144.292969 77.261719 Z M 138.699219 80.808594 L 137.761719 82.605469 C 136.875 82.167969 136.171875 81.496094 135.652344 80.589844 C 135.152344 79.714844 134.902344 78.769531 134.902344 77.746094 C 134.902344 76.957031 135.0625 76.210938 135.386719 75.511719 C 135.730469 74.785156 136.203125 74.195312 136.808594 73.746094 L 135.996094 73.105469 L 138.621094 72.402344 L 138.371094 75.011719 L 137.652344 74.433594 C 136.890625 75.101562 136.511719 76.035156 136.511719 77.230469 C 136.511719 78.753906 137.238281 79.945312 138.699219 80.808594 Z M 138.699219 80.808594 "/>
<path fill-rule="nonzero" fill="rgb(60.000002%, 60.000002%, 60.000002%)" fill-opacity="1" d="M 152.59375 79.636719 C 153.007812 79.636719 153.351562 79.785156 153.625 80.074219 C 153.90625 80.355469 154.046875 80.695312 154.046875 81.089844 C 154.046875 81.300781 154.019531 81.519531 153.96875 81.746094 C 153.914062 81.964844 153.828125 82.214844 153.703125 82.496094 L 152.234375 85.839844 L 150.875 85.839844 L 151.734375 82.277344 C 151.554688 82.152344 151.414062 81.988281 151.3125 81.777344 C 151.207031 81.558594 151.15625 81.332031 151.15625 81.089844 C 151.15625 80.683594 151.289062 80.339844 151.5625 80.058594 C 151.84375 79.777344 152.1875 79.636719 152.59375 79.636719 Z M 152.59375 79.636719 "/>
<path fill-rule="nonzero" fill="rgb(30.19608%, 60.000002%, 0%)" fill-opacity="1" d="M 139.367188 91.023438 C 140.105469 91.023438 140.742188 91.160156 141.273438 91.429688 C 141.804688 91.691406 142.210938 92.035156 142.492188 92.460938 C 142.773438 92.878906 142.914062 93.328125 142.914062 93.804688 C 142.914062 94.378906 142.804688 94.847656 142.585938 95.210938 C 142.375 95.578125 142.109375 95.882812 141.789062 96.132812 C 141.464844 96.382812 141.140625 96.628906 140.820312 96.867188 C 140.496094 97.109375 140.226562 97.390625 140.007812 97.710938 C 139.789062 98.023438 139.679688 98.425781 139.679688 98.914062 L 139.679688 99.539062 L 138.148438 99.539062 L 138.148438 98.835938 C 138.148438 98.253906 138.25 97.769531 138.460938 97.382812 C 138.679688 97 138.949219 96.671875 139.273438 96.398438 C 139.59375 96.128906 139.914062 95.878906 140.226562 95.648438 C 140.546875 95.421875 140.8125 95.171875 141.023438 94.898438 C 141.242188 94.628906 141.351562 94.296875 141.351562 93.898438 C 141.351562 93.390625 141.148438 92.992188 140.742188 92.710938 C 140.335938 92.429688 139.828125 92.289062 139.226562 92.289062 C 138.796875 92.289062 138.355469 92.394531 137.898438 92.601562 C 137.449219 92.8125 137.039062 93.144531 136.664062 93.601562 L 135.585938 92.820312 C 136.117188 92.195312 136.699219 91.742188 137.335938 91.460938 C 137.96875 91.171875 138.648438 91.023438 139.367188 91.023438 Z M 138.960938 101.429688 C 139.304688 101.429688 139.589844 101.550781 139.820312 101.789062 C 140.058594 102.019531 140.179688 102.296875 140.179688 102.617188 C 140.179688 102.960938 140.058594 103.253906 139.820312 103.492188 C 139.589844 103.71875 139.304688 103.835938 138.960938 103.835938 C 138.625 103.835938 138.34375 103.71875 138.117188 103.492188 C 137.886719 103.253906 137.773438 102.960938 137.773438 102.617188 C 137.773438 102.296875 137.886719 102.019531 138.117188 101.789062 C 138.34375 101.550781 138.625 101.429688 138.960938 101.429688 Z M 138.960938 101.429688 "/>
<path fill-rule="nonzero" fill="rgb(60.000002%, 60.000002%, 60.000002%)" fill-opacity="1" d="M 150.199219 100.664062 C 150.613281 100.664062 150.957031 100.8125 151.230469 101.101562 C 151.511719 101.382812 151.652344 101.722656 151.652344 102.117188 C 151.652344 102.328125 151.625 102.546875 151.574219 102.773438 C 151.519531 102.992188 151.433594 103.242188 151.308594 103.523438 L 149.839844 106.867188 L 148.480469 106.867188 L 149.339844 103.304688 C 149.160156 103.179688 149.019531 103.015625 148.917969 102.804688 C 148.8125 102.585938 148.761719 102.359375 148.761719 102.117188 C 148.761719 101.710938 148.894531 101.367188 149.167969 101.085938 C 149.449219 100.804688 149.792969 100.664062 150.199219 100.664062 Z M 150.199219 100.664062 "/>
<path fill-rule="nonzero" fill="rgb(60.000002%, 60.000002%, 60.000002%)" fill-opacity="1" d="M 137.808594 123.269531 C 137.808594 122.980469 137.878906 122.714844 138.011719 122.472656 C 138.148438 122.234375 138.335938 122.046875 138.574219 121.910156 C 138.816406 121.765625 139.085938 121.691406 139.386719 121.691406 C 139.691406 121.691406 139.960938 121.765625 140.199219 121.910156 C 140.441406 122.046875 140.632812 122.234375 140.777344 122.472656 C 140.914062 122.714844 140.980469 122.980469 140.980469 123.269531 C 140.980469 123.5625 140.914062 123.832031 140.777344 124.082031 C 140.632812 124.324219 140.441406 124.515625 140.199219 124.660156 C 139.960938 124.792969 139.691406 124.863281 139.386719 124.863281 C 139.085938 124.863281 138.816406 124.792969 138.574219 124.660156 C 138.335938 124.515625 138.148438 124.324219 138.011719 124.082031 C 137.878906 123.832031 137.808594 123.5625 137.808594 123.269531 Z M 145.027344 123.269531 C 145.027344 122.980469 145.09375 122.714844 145.230469 122.472656 C 145.363281 122.234375 145.550781 122.046875 145.792969 121.910156 C 146.03125 121.765625 146.300781 121.691406 146.605469 121.691406 C 146.90625 121.691406 147.175781 121.765625 147.417969 121.910156 C 147.65625 122.046875 147.84375 122.234375 147.980469 122.472656 C 148.125 122.714844 148.199219 122.980469 148.199219 123.269531 C 148.199219 123.5625 148.125 123.832031 147.980469 124.082031 C 147.84375 124.324219 147.65625 124.515625 147.417969 124.660156 C 147.175781 124.792969 146.90625 124.863281 146.605469 124.863281 C 146.300781 124.863281 146.03125 124.792969 145.792969 124.660156 C 145.550781 124.515625 145.363281 124.324219 145.230469 124.082031 C 145.09375 123.832031 145.027344 123.5625 145.027344 123.269531 Z M 130.605469 123.269531 C 130.605469 122.980469 130.675781 122.714844 130.808594 122.472656 C 130.945312 122.234375 131.132812 122.046875 131.371094 121.910156 C 131.613281 121.765625 131.882812 121.691406 132.183594 121.691406 C 132.488281 121.691406 132.757812 121.765625 132.996094 121.910156 C 133.238281 122.046875 133.429688 122.234375 133.574219 122.472656 C 133.710938 122.714844 133.777344 122.980469 133.777344 123.269531 C 133.777344 123.5625 133.710938 123.832031 133.574219 124.082031 C 133.429688 124.324219 133.238281 124.515625 132.996094 124.660156 C 132.757812 124.792969 132.488281 124.863281 132.183594 124.863281 C 131.882812 124.863281 131.613281 124.792969 131.371094 124.660156 C 131.132812 124.515625 130.945312 124.324219 130.808594 124.082031 C 130.675781 123.832031 130.605469 123.5625 130.605469 123.269531 Z M 130.605469 123.269531 "/>
</svg>
