<?xml version="1.0" encoding="UTF-8"?>
<svg xmlns="http://www.w3.org/2000/svg" xmlns:xlink="http://www.w3.org/1999/xlink" width="360.959991" height="31.92" viewBox="0 0 360.959991 31.92">
<defs>
<clipPath id="clip-0">
<path clip-rule="nonzero" d="M 121 0 L 170 0 L 170 30.769531 L 121 30.769531 Z M 121 0 "/>
</clipPath>
</defs>
<path fill-rule="nonzero" fill="rgb(60.000002%, 60.000002%, 60.000002%)" fill-opacity="1" d="M 6.316406 23.09375 L 6.316406 6.328125 L 10.832031 6.328125 L 10.832031 7.625 L 7.753906 7.625 L 7.753906 21.8125 L 10.832031 21.8125 L 10.832031 23.09375 Z M 6.316406 23.09375 "/>
<path fill-rule="nonzero" fill="rgb(100%, 50.196081%, 0%)" fill-opacity="1" d="M 20.546875 8.609375 L 20.546875 20.65625 L 19.03125 20.65625 L 19.03125 10.25 L 16.1875 11.984375 L 15.53125 10.90625 L 19.21875 8.609375 Z M 23.140625 19.78125 L 23.140625 21.015625 L 15.96875 21.015625 L 15.96875 19.78125 Z M 23.140625 19.78125 "/>
<path fill-rule="nonzero" fill="rgb(60.000002%, 60.000002%, 60.000002%)" fill-opacity="1" d="M 30.03125 18.046875 C 30.445312 18.046875 30.789062 18.195312 31.0625 18.484375 C 31.34375 18.765625 31.484375 19.105469 31.484375 19.5 C 31.484375 19.710938 31.457031 19.929688 31.40625 20.15625 C 31.351562 20.375 31.265625 20.625 31.140625 20.90625 L 29.671875 24.25 L 28.3125 24.25 L 29.171875 20.6875 C 28.992188 20.5625 28.851562 20.398438 28.75 20.1875 C 28.644531 19.96875 28.59375 19.742188 28.59375 19.5 C 28.59375 19.09375 28.726562 18.75 29 18.46875 C 29.28125 18.1875 29.625 18.046875 30.03125 18.046875 Z M 30.03125 18.046875 "/>
<path fill-rule="nonzero" fill="rgb(100%, 50.196081%, 0%)" fill-opacity="1" d="M 40.296875 8.40625 C 41.078125 8.40625 41.742188 8.558594 42.296875 8.859375 C 42.847656 9.164062 43.273438 9.574219 43.578125 10.09375 C 43.878906 10.617188 44.03125 11.210938 44.03125 11.875 C 44.03125 12.449219 43.929688 13.007812 43.734375 13.546875 C 43.535156 14.089844 43.21875 14.664062 42.78125 15.265625 C 42.34375 15.859375 41.769531 16.523438 41.0625 17.25 C 40.363281 17.96875 39.5 18.796875 38.46875 19.734375 L 44.3125 19.734375 L 44.125 21.015625 L 36.75 21.015625 L 36.75 19.78125 C 37.6875 18.886719 38.484375 18.105469 39.140625 17.4375 C 39.796875 16.761719 40.335938 16.171875 40.765625 15.671875 C 41.203125 15.164062 41.539062 14.699219 41.78125 14.28125 C 42.019531 13.867188 42.1875 13.46875 42.28125 13.09375 C 42.382812 12.71875 42.4375 12.328125 42.4375 11.921875 C 42.4375 11.226562 42.238281 10.679688 41.84375 10.28125 C 41.445312 9.875 40.90625 9.671875 40.21875 9.671875 C 39.601562 9.671875 39.097656 9.78125 38.703125 10 C 38.316406 10.210938 37.929688 10.542969 37.546875 11 L 36.5 10.1875 C 36.988281 9.585938 37.535156 9.136719 38.140625 8.84375 C 38.742188 8.554688 39.460938 8.40625 40.296875 8.40625 Z M 40.296875 8.40625 "/>
<path fill-rule="nonzero" fill="rgb(60.000002%, 60.000002%, 60.000002%)" fill-opacity="1" d="M 51.65625 18.046875 C 52.070312 18.046875 52.414062 18.195312 52.6875 18.484375 C 52.96875 18.765625 53.109375 19.105469 53.109375 19.5 C 53.109375 19.710938 53.082031 19.929688 53.03125 20.15625 C 52.976562 20.375 52.890625 20.625 52.765625 20.90625 L 51.296875 24.25 L 49.9375 24.25 L 50.796875 20.6875 C 50.617188 20.5625 50.476562 20.398438 50.375 20.1875 C 50.269531 19.96875 50.21875 19.742188 50.21875 19.5 C 50.21875 19.09375 50.351562 18.75 50.625 18.46875 C 50.90625 18.1875 51.25 18.046875 51.65625 18.046875 Z M 51.65625 18.046875 "/>
<path fill-rule="nonzero" fill="rgb(100%, 50.196081%, 0%)" fill-opacity="1" d="M 61.90625 8.40625 C 62.6875 8.40625 63.359375 8.546875 63.921875 8.828125 C 64.484375 9.109375 64.921875 9.492188 65.234375 9.96875 C 65.546875 10.4375 65.703125 10.953125 65.703125 11.515625 C 65.703125 12.015625 65.59375 12.46875 65.375 12.875 C 65.15625 13.28125 64.859375 13.621094 64.484375 13.890625 C 64.117188 14.152344 63.71875 14.324219 63.28125 14.40625 C 63.769531 14.4375 64.226562 14.574219 64.65625 14.8125 C 65.082031 15.054688 65.429688 15.390625 65.703125 15.828125 C 65.972656 16.257812 66.109375 16.792969 66.109375 17.4375 C 66.109375 18.15625 65.925781 18.804688 65.5625 19.375 C 65.207031 19.949219 64.707031 20.402344 64.0625 20.734375 C 63.414062 21.054688 62.660156 21.21875 61.796875 21.21875 C 61.109375 21.21875 60.421875 21.085938 59.734375 20.828125 C 59.046875 20.570312 58.460938 20.148438 57.984375 19.5625 L 59.015625 18.734375 C 59.367188 19.152344 59.789062 19.464844 60.28125 19.671875 C 60.769531 19.871094 61.265625 19.96875 61.765625 19.96875 C 62.628906 19.96875 63.300781 19.746094 63.78125 19.296875 C 64.269531 18.839844 64.515625 18.21875 64.515625 17.4375 C 64.515625 16.855469 64.398438 16.390625 64.171875 16.046875 C 63.953125 15.703125 63.648438 15.460938 63.265625 15.3125 C 62.878906 15.167969 62.441406 15.09375 61.953125 15.09375 L 60.90625 15.09375 L 61.09375 13.890625 L 61.828125 13.890625 C 62.234375 13.890625 62.613281 13.820312 62.96875 13.671875 C 63.320312 13.515625 63.613281 13.277344 63.84375 12.953125 C 64.070312 12.621094 64.1875 12.214844 64.1875 11.734375 C 64.1875 11.046875 63.957031 10.527344 63.5 10.171875 C 63.039062 9.808594 62.488281 9.625 61.84375 9.625 C 61.300781 9.625 60.828125 9.71875 60.421875 9.90625 C 60.023438 10.09375 59.625 10.382812 59.21875 10.765625 L 58.375 9.84375 C 58.90625 9.34375 59.46875 8.980469 60.0625 8.75 C 60.65625 8.523438 61.269531 8.40625 61.90625 8.40625 Z M 61.90625 8.40625 "/>
<path fill-rule="nonzero" fill="rgb(60.000002%, 60.000002%, 60.000002%)" fill-opacity="1" d="M 73.28125 18.046875 C 73.695312 18.046875 74.039062 18.195312 74.3125 18.484375 C 74.59375 18.765625 74.734375 19.105469 74.734375 19.5 C 74.734375 19.710938 74.707031 19.929688 74.65625 20.15625 C 74.601562 20.375 74.515625 20.625 74.390625 20.90625 L 72.921875 24.25 L 71.5625 24.25 L 72.421875 20.6875 C 72.242188 20.5625 72.101562 20.398438 72 20.1875 C 71.894531 19.96875 71.84375 19.742188 71.84375 19.5 C 71.84375 19.09375 71.976562 18.75 72.25 18.46875 C 72.53125 18.1875 72.875 18.046875 73.28125 18.046875 Z M 73.28125 18.046875 "/>
<path fill-rule="nonzero" fill="rgb(60.000002%, 60.000002%, 60.000002%)" fill-opacity="1" d="M 84.667969 19.625 C 84.667969 19.335938 84.738281 19.070312 84.871094 18.828125 C 85.007812 18.589844 85.195312 18.402344 85.433594 18.265625 C 85.675781 18.121094 85.945312 18.046875 86.246094 18.046875 C 86.550781 18.046875 86.820312 18.121094 87.058594 18.265625 C 87.300781 18.402344 87.492188 18.589844 87.636719 18.828125 C 87.773438 19.070312 87.839844 19.335938 87.839844 19.625 C 87.839844 19.917969 87.773438 20.1875 87.636719 20.4375 C 87.492188 20.679688 87.300781 20.871094 87.058594 21.015625 C 86.820312 21.148438 86.550781 21.21875 86.246094 21.21875 C 85.945312 21.21875 85.675781 21.148438 85.433594 21.015625 C 85.195312 20.871094 85.007812 20.679688 84.871094 20.4375 C 84.738281 20.1875 84.667969 19.917969 84.667969 19.625 Z M 91.152344 19.625 C 91.152344 19.335938 91.21875 19.070312 91.355469 18.828125 C 91.488281 18.589844 91.675781 18.402344 91.917969 18.265625 C 92.15625 18.121094 92.425781 18.046875 92.730469 18.046875 C 93.03125 18.046875 93.300781 18.121094 93.542969 18.265625 C 93.78125 18.402344 93.96875 18.589844 94.105469 18.828125 C 94.25 19.070312 94.324219 19.335938 94.324219 19.625 C 94.324219 19.917969 94.25 20.1875 94.105469 20.4375 C 93.96875 20.679688 93.78125 20.871094 93.542969 21.015625 C 93.300781 21.148438 93.03125 21.21875 92.730469 21.21875 C 92.425781 21.21875 92.15625 21.148438 91.917969 21.015625 C 91.675781 20.871094 91.488281 20.679688 91.355469 20.4375 C 91.21875 20.1875 91.152344 19.917969 91.152344 19.625 Z M 91.152344 19.625 "/>
<path fill-rule="nonzero" fill="rgb(60.000002%, 60.000002%, 60.000002%)" fill-opacity="1" d="M 171.429688 23.09375 L 171.429688 6.328125 L 175.945312 6.328125 L 175.945312 7.625 L 172.867188 7.625 L 172.867188 21.8125 L 175.945312 21.8125 L 175.945312 23.09375 Z M 171.429688 23.09375 "/>
<path fill-rule="nonzero" fill="rgb(0%, 49.803922%, 100%)" fill-opacity="1" d="M 186.335938 7.515625 C 186.84375 7.515625 187.308594 7.5625 187.726562 7.65625 C 188.140625 7.75 188.539062 7.875 188.914062 8.03125 L 188.429688 9.15625 C 188.117188 9.03125 187.789062 8.9375 187.445312 8.875 C 187.109375 8.804688 186.757812 8.765625 186.382812 8.765625 C 185.726562 8.765625 185.230469 8.898438 184.898438 9.15625 C 184.5625 9.417969 184.398438 9.8125 184.398438 10.34375 L 184.398438 12.265625 L 187.617188 12.265625 L 187.445312 13.453125 L 184.398438 13.453125 L 184.398438 21.015625 L 182.882812 21.015625 L 182.882812 13.453125 L 180.617188 13.453125 L 180.617188 12.265625 L 182.882812 12.265625 L 182.882812 10.375 C 182.882812 9.792969 183.03125 9.289062 183.335938 8.859375 C 183.636719 8.433594 184.046875 8.105469 184.570312 7.875 C 185.101562 7.636719 185.6875 7.515625 186.335938 7.515625 Z M 186.335938 7.515625 "/>
<path fill-rule="nonzero" fill="rgb(60.000002%, 60.000002%, 60.000002%)" fill-opacity="1" d="M 193.570312 14.703125 C 193.570312 15.640625 193.648438 16.484375 193.804688 17.234375 C 193.96875 17.976562 194.210938 18.652344 194.523438 19.265625 C 194.84375 19.882812 195.246094 20.464844 195.726562 21.015625 C 196.214844 21.578125 196.78125 22.140625 197.429688 22.703125 L 196.632812 23.53125 C 195.664062 22.738281 194.828125 21.921875 194.132812 21.078125 C 193.433594 20.246094 192.902344 19.320312 192.539062 18.296875 C 192.171875 17.265625 191.992188 16.070312 191.992188 14.703125 C 191.992188 13.339844 192.171875 12.148438 192.539062 11.125 C 192.902344 10.09375 193.433594 9.164062 194.132812 8.328125 C 194.828125 7.496094 195.664062 6.679688 196.632812 5.875 L 197.429688 6.71875 C 196.773438 7.292969 196.203125 7.859375 195.726562 8.421875 C 195.246094 8.976562 194.84375 9.558594 194.523438 10.171875 C 194.210938 10.777344 193.96875 11.449219 193.804688 12.1875 C 193.648438 12.929688 193.570312 13.765625 193.570312 14.703125 Z M 193.570312 14.703125 "/>
<path fill-rule="nonzero" fill="rgb(100%, 50.196081%, 0%)" fill-opacity="1" d="M 207.289062 8.609375 L 207.289062 20.65625 L 205.773438 20.65625 L 205.773438 10.25 L 202.929688 11.984375 L 202.273438 10.90625 L 205.960938 8.609375 Z M 209.882812 19.78125 L 209.882812 21.015625 L 202.710938 21.015625 L 202.710938 19.78125 Z M 209.882812 19.78125 "/>
<path fill-rule="nonzero" fill="rgb(60.000002%, 60.000002%, 60.000002%)" fill-opacity="1" d="M 218.347656 14.703125 C 218.347656 13.765625 218.261719 12.929688 218.097656 12.1875 C 217.941406 11.449219 217.699219 10.777344 217.378906 10.171875 C 217.066406 9.558594 216.664062 8.976562 216.175781 8.421875 C 215.695312 7.859375 215.132812 7.292969 214.488281 6.71875 L 215.285156 5.875 C 216.261719 6.679688 217.097656 7.496094 217.785156 8.328125 C 218.472656 9.164062 218.996094 10.09375 219.363281 11.125 C 219.738281 12.148438 219.925781 13.339844 219.925781 14.703125 C 219.925781 16.070312 219.738281 17.265625 219.363281 18.296875 C 218.996094 19.320312 218.472656 20.246094 217.785156 21.078125 C 217.097656 21.921875 216.261719 22.738281 215.285156 23.53125 L 214.488281 22.703125 C 215.132812 22.140625 215.695312 21.578125 216.175781 21.015625 C 216.664062 20.464844 217.066406 19.882812 217.378906 19.265625 C 217.699219 18.652344 217.941406 17.976562 218.097656 17.234375 C 218.261719 16.484375 218.347656 15.640625 218.347656 14.703125 Z M 218.347656 14.703125 "/>
<path fill-rule="nonzero" fill="rgb(60.000002%, 60.000002%, 60.000002%)" fill-opacity="1" d="M 227.582031 18.046875 C 227.996094 18.046875 228.339844 18.195312 228.613281 18.484375 C 228.894531 18.765625 229.035156 19.105469 229.035156 19.5 C 229.035156 19.710938 229.007812 19.929688 228.957031 20.15625 C 228.902344 20.375 228.816406 20.625 228.691406 20.90625 L 227.222656 24.25 L 225.863281 24.25 L 226.722656 20.6875 C 226.542969 20.5625 226.402344 20.398438 226.300781 20.1875 C 226.195312 19.96875 226.144531 19.742188 226.144531 19.5 C 226.144531 19.09375 226.277344 18.75 226.550781 18.46875 C 226.832031 18.1875 227.175781 18.046875 227.582031 18.046875 Z M 227.582031 18.046875 "/>
<path fill-rule="nonzero" fill="rgb(0%, 49.803922%, 100%)" fill-opacity="1" d="M 240.394531 7.515625 C 240.902344 7.515625 241.367188 7.5625 241.785156 7.65625 C 242.199219 7.75 242.597656 7.875 242.972656 8.03125 L 242.488281 9.15625 C 242.175781 9.03125 241.847656 8.9375 241.503906 8.875 C 241.167969 8.804688 240.816406 8.765625 240.441406 8.765625 C 239.785156 8.765625 239.289062 8.898438 238.957031 9.15625 C 238.621094 9.417969 238.457031 9.8125 238.457031 10.34375 L 238.457031 12.265625 L 241.675781 12.265625 L 241.503906 13.453125 L 238.457031 13.453125 L 238.457031 21.015625 L 236.941406 21.015625 L 236.941406 13.453125 L 234.675781 13.453125 L 234.675781 12.265625 L 236.941406 12.265625 L 236.941406 10.375 C 236.941406 9.792969 237.089844 9.289062 237.394531 8.859375 C 237.695312 8.433594 238.105469 8.105469 238.628906 7.875 C 239.160156 7.636719 239.746094 7.515625 240.394531 7.515625 Z M 240.394531 7.515625 "/>
<path fill-rule="nonzero" fill="rgb(60.000002%, 60.000002%, 60.000002%)" fill-opacity="1" d="M 247.628906 14.703125 C 247.628906 15.640625 247.707031 16.484375 247.863281 17.234375 C 248.027344 17.976562 248.269531 18.652344 248.582031 19.265625 C 248.902344 19.882812 249.304688 20.464844 249.785156 21.015625 C 250.273438 21.578125 250.839844 22.140625 251.488281 22.703125 L 250.691406 23.53125 C 249.722656 22.738281 248.886719 21.921875 248.191406 21.078125 C 247.492188 20.246094 246.960938 19.320312 246.597656 18.296875 C 246.230469 17.265625 246.050781 16.070312 246.050781 14.703125 C 246.050781 13.339844 246.230469 12.148438 246.597656 11.125 C 246.960938 10.09375 247.492188 9.164062 248.191406 8.328125 C 248.886719 7.496094 249.722656 6.679688 250.691406 5.875 L 251.488281 6.71875 C 250.832031 7.292969 250.261719 7.859375 249.785156 8.421875 C 249.304688 8.976562 248.902344 9.558594 248.582031 10.171875 C 248.269531 10.777344 248.027344 11.449219 247.863281 12.1875 C 247.707031 12.929688 247.628906 13.765625 247.628906 14.703125 Z M 247.628906 14.703125 "/>
<path fill-rule="nonzero" fill="rgb(100%, 50.196081%, 0%)" fill-opacity="1" d="M 259.472656 8.40625 C 260.253906 8.40625 260.917969 8.558594 261.472656 8.859375 C 262.023438 9.164062 262.449219 9.574219 262.753906 10.09375 C 263.054688 10.617188 263.207031 11.210938 263.207031 11.875 C 263.207031 12.449219 263.105469 13.007812 262.910156 13.546875 C 262.710938 14.089844 262.394531 14.664062 261.957031 15.265625 C 261.519531 15.859375 260.945312 16.523438 260.238281 17.25 C 259.539062 17.96875 258.675781 18.796875 257.644531 19.734375 L 263.488281 19.734375 L 263.300781 21.015625 L 255.925781 21.015625 L 255.925781 19.78125 C 256.863281 18.886719 257.660156 18.105469 258.316406 17.4375 C 258.972656 16.761719 259.511719 16.171875 259.941406 15.671875 C 260.378906 15.164062 260.714844 14.699219 260.957031 14.28125 C 261.195312 13.867188 261.363281 13.46875 261.457031 13.09375 C 261.558594 12.71875 261.613281 12.328125 261.613281 11.921875 C 261.613281 11.226562 261.414062 10.679688 261.019531 10.28125 C 260.621094 9.875 260.082031 9.671875 259.394531 9.671875 C 258.777344 9.671875 258.273438 9.78125 257.878906 10 C 257.492188 10.210938 257.105469 10.542969 256.722656 11 L 255.675781 10.1875 C 256.164062 9.585938 256.710938 9.136719 257.316406 8.84375 C 257.917969 8.554688 258.636719 8.40625 259.472656 8.40625 Z M 259.472656 8.40625 "/>
<path fill-rule="nonzero" fill="rgb(60.000002%, 60.000002%, 60.000002%)" fill-opacity="1" d="M 272.410156 14.703125 C 272.410156 13.765625 272.324219 12.929688 272.160156 12.1875 C 272.003906 11.449219 271.761719 10.777344 271.441406 10.171875 C 271.128906 9.558594 270.726562 8.976562 270.238281 8.421875 C 269.757812 7.859375 269.195312 7.292969 268.550781 6.71875 L 269.347656 5.875 C 270.324219 6.679688 271.160156 7.496094 271.847656 8.328125 C 272.535156 9.164062 273.058594 10.09375 273.425781 11.125 C 273.800781 12.148438 273.988281 13.339844 273.988281 14.703125 C 273.988281 16.070312 273.800781 17.265625 273.425781 18.296875 C 273.058594 19.320312 272.535156 20.246094 271.847656 21.078125 C 271.160156 21.921875 270.324219 22.738281 269.347656 23.53125 L 268.550781 22.703125 C 269.195312 22.140625 269.757812 21.578125 270.238281 21.015625 C 270.726562 20.464844 271.128906 19.882812 271.441406 19.265625 C 271.761719 18.652344 272.003906 17.976562 272.160156 17.234375 C 272.324219 16.484375 272.410156 15.640625 272.410156 14.703125 Z M 272.410156 14.703125 "/>
<path fill-rule="nonzero" fill="rgb(60.000002%, 60.000002%, 60.000002%)" fill-opacity="1" d="M 281.644531 18.046875 C 282.058594 18.046875 282.402344 18.195312 282.675781 18.484375 C 282.957031 18.765625 283.097656 19.105469 283.097656 19.5 C 283.097656 19.710938 283.070312 19.929688 283.019531 20.15625 C 282.964844 20.375 282.878906 20.625 282.753906 20.90625 L 281.285156 24.25 L 279.925781 24.25 L 280.785156 20.6875 C 280.605469 20.5625 280.464844 20.398438 280.363281 20.1875 C 280.257812 19.96875 280.207031 19.742188 280.207031 19.5 C 280.207031 19.09375 280.339844 18.75 280.613281 18.46875 C 280.894531 18.1875 281.238281 18.046875 281.644531 18.046875 Z M 281.644531 18.046875 "/>
<path fill-rule="nonzero" fill="rgb(0%, 49.803922%, 100%)" fill-opacity="1" d="M 294.457031 7.515625 C 294.964844 7.515625 295.429688 7.5625 295.847656 7.65625 C 296.261719 7.75 296.660156 7.875 297.035156 8.03125 L 296.550781 9.15625 C 296.238281 9.03125 295.910156 8.9375 295.566406 8.875 C 295.230469 8.804688 294.878906 8.765625 294.503906 8.765625 C 293.847656 8.765625 293.351562 8.898438 293.019531 9.15625 C 292.683594 9.417969 292.519531 9.8125 292.519531 10.34375 L 292.519531 12.265625 L 295.738281 12.265625 L 295.566406 13.453125 L 292.519531 13.453125 L 292.519531 21.015625 L 291.003906 21.015625 L 291.003906 13.453125 L 288.738281 13.453125 L 288.738281 12.265625 L 291.003906 12.265625 L 291.003906 10.375 C 291.003906 9.792969 291.152344 9.289062 291.457031 8.859375 C 291.757812 8.433594 292.167969 8.105469 292.691406 7.875 C 293.222656 7.636719 293.808594 7.515625 294.457031 7.515625 Z M 294.457031 7.515625 "/>
<path fill-rule="nonzero" fill="rgb(60.000002%, 60.000002%, 60.000002%)" fill-opacity="1" d="M 301.691406 14.703125 C 301.691406 15.640625 301.769531 16.484375 301.925781 17.234375 C 302.089844 17.976562 302.332031 18.652344 302.644531 19.265625 C 302.964844 19.882812 303.367188 20.464844 303.847656 21.015625 C 304.335938 21.578125 304.902344 22.140625 305.550781 22.703125 L 304.753906 23.53125 C 303.785156 22.738281 302.949219 21.921875 302.253906 21.078125 C 301.554688 20.246094 301.023438 19.320312 300.660156 18.296875 C 300.292969 17.265625 300.113281 16.070312 300.113281 14.703125 C 300.113281 13.339844 300.292969 12.148438 300.660156 11.125 C 301.023438 10.09375 301.554688 9.164062 302.253906 8.328125 C 302.949219 7.496094 303.785156 6.679688 304.753906 5.875 L 305.550781 6.71875 C 304.894531 7.292969 304.324219 7.859375 303.847656 8.421875 C 303.367188 8.976562 302.964844 9.558594 302.644531 10.171875 C 302.332031 10.777344 302.089844 11.449219 301.925781 12.1875 C 301.769531 12.929688 301.691406 13.765625 301.691406 14.703125 Z M 301.691406 14.703125 "/>
<path fill-rule="nonzero" fill="rgb(100%, 50.196081%, 0%)" fill-opacity="1" d="M 313.519531 8.40625 C 314.300781 8.40625 314.972656 8.546875 315.535156 8.828125 C 316.097656 9.109375 316.535156 9.492188 316.847656 9.96875 C 317.160156 10.4375 317.316406 10.953125 317.316406 11.515625 C 317.316406 12.015625 317.207031 12.46875 316.988281 12.875 C 316.769531 13.28125 316.472656 13.621094 316.097656 13.890625 C 315.730469 14.152344 315.332031 14.324219 314.894531 14.40625 C 315.382812 14.4375 315.839844 14.574219 316.269531 14.8125 C 316.695312 15.054688 317.042969 15.390625 317.316406 15.828125 C 317.585938 16.257812 317.722656 16.792969 317.722656 17.4375 C 317.722656 18.15625 317.539062 18.804688 317.175781 19.375 C 316.820312 19.949219 316.320312 20.402344 315.675781 20.734375 C 315.027344 21.054688 314.273438 21.21875 313.410156 21.21875 C 312.722656 21.21875 312.035156 21.085938 311.347656 20.828125 C 310.660156 20.570312 310.074219 20.148438 309.597656 19.5625 L 310.628906 18.734375 C 310.980469 19.152344 311.402344 19.464844 311.894531 19.671875 C 312.382812 19.871094 312.878906 19.96875 313.378906 19.96875 C 314.242188 19.96875 314.914062 19.746094 315.394531 19.296875 C 315.882812 18.839844 316.128906 18.21875 316.128906 17.4375 C 316.128906 16.855469 316.011719 16.390625 315.785156 16.046875 C 315.566406 15.703125 315.261719 15.460938 314.878906 15.3125 C 314.492188 15.167969 314.054688 15.09375 313.566406 15.09375 L 312.519531 15.09375 L 312.707031 13.890625 L 313.441406 13.890625 C 313.847656 13.890625 314.226562 13.820312 314.582031 13.671875 C 314.933594 13.515625 315.226562 13.277344 315.457031 12.953125 C 315.683594 12.621094 315.800781 12.214844 315.800781 11.734375 C 315.800781 11.046875 315.570312 10.527344 315.113281 10.171875 C 314.652344 9.808594 314.101562 9.625 313.457031 9.625 C 312.914062 9.625 312.441406 9.71875 312.035156 9.90625 C 311.636719 10.09375 311.238281 10.382812 310.832031 10.765625 L 309.988281 9.84375 C 310.519531 9.34375 311.082031 8.980469 311.675781 8.75 C 312.269531 8.523438 312.882812 8.40625 313.519531 8.40625 Z M 313.519531 8.40625 "/>
<path fill-rule="nonzero" fill="rgb(60.000002%, 60.000002%, 60.000002%)" fill-opacity="1" d="M 326.472656 14.703125 C 326.472656 13.765625 326.386719 12.929688 326.222656 12.1875 C 326.066406 11.449219 325.824219 10.777344 325.503906 10.171875 C 325.191406 9.558594 324.789062 8.976562 324.300781 8.421875 C 323.820312 7.859375 323.257812 7.292969 322.613281 6.71875 L 323.410156 5.875 C 324.386719 6.679688 325.222656 7.496094 325.910156 8.328125 C 326.597656 9.164062 327.121094 10.09375 327.488281 11.125 C 327.863281 12.148438 328.050781 13.339844 328.050781 14.703125 C 328.050781 16.070312 327.863281 17.265625 327.488281 18.296875 C 327.121094 19.320312 326.597656 20.246094 325.910156 21.078125 C 325.222656 21.921875 324.386719 22.738281 323.410156 23.53125 L 322.613281 22.703125 C 323.257812 22.140625 323.820312 21.578125 324.300781 21.015625 C 324.789062 20.464844 325.191406 19.882812 325.503906 19.265625 C 325.824219 18.652344 326.066406 17.976562 326.222656 17.234375 C 326.386719 16.484375 326.472656 15.640625 326.472656 14.703125 Z M 326.472656 14.703125 "/>
<path fill-rule="nonzero" fill="rgb(60.000002%, 60.000002%, 60.000002%)" fill-opacity="1" d="M 335.707031 18.046875 C 336.121094 18.046875 336.464844 18.195312 336.738281 18.484375 C 337.019531 18.765625 337.160156 19.105469 337.160156 19.5 C 337.160156 19.710938 337.132812 19.929688 337.082031 20.15625 C 337.027344 20.375 336.941406 20.625 336.816406 20.90625 L 335.347656 24.25 L 333.988281 24.25 L 334.847656 20.6875 C 334.667969 20.5625 334.527344 20.398438 334.425781 20.1875 C 334.320312 19.96875 334.269531 19.742188 334.269531 19.5 C 334.269531 19.09375 334.402344 18.75 334.675781 18.46875 C 334.957031 18.1875 335.300781 18.046875 335.707031 18.046875 Z M 335.707031 18.046875 "/>
<path fill-rule="nonzero" fill="rgb(60.000002%, 60.000002%, 60.000002%)" fill-opacity="1" d="M 347.089844 19.625 C 347.089844 19.335938 347.160156 19.070312 347.292969 18.828125 C 347.429688 18.589844 347.617188 18.402344 347.855469 18.265625 C 348.097656 18.121094 348.367188 18.046875 348.667969 18.046875 C 348.972656 18.046875 349.242188 18.121094 349.480469 18.265625 C 349.722656 18.402344 349.914062 18.589844 350.058594 18.828125 C 350.195312 19.070312 350.261719 19.335938 350.261719 19.625 C 350.261719 19.917969 350.195312 20.1875 350.058594 20.4375 C 349.914062 20.679688 349.722656 20.871094 349.480469 21.015625 C 349.242188 21.148438 348.972656 21.21875 348.667969 21.21875 C 348.367188 21.21875 348.097656 21.148438 347.855469 21.015625 C 347.617188 20.871094 347.429688 20.679688 347.292969 20.4375 C 347.160156 20.1875 347.089844 19.917969 347.089844 19.625 Z M 353.574219 19.625 C 353.574219 19.335938 353.640625 19.070312 353.777344 18.828125 C 353.910156 18.589844 354.097656 18.402344 354.339844 18.265625 C 354.578125 18.121094 354.847656 18.046875 355.152344 18.046875 C 355.453125 18.046875 355.722656 18.121094 355.964844 18.265625 C 356.203125 18.402344 356.390625 18.589844 356.527344 18.828125 C 356.671875 19.070312 356.746094 19.335938 356.746094 19.625 C 356.746094 19.917969 356.671875 20.1875 356.527344 20.4375 C 356.390625 20.679688 356.203125 20.871094 355.964844 21.015625 C 355.722656 21.148438 355.453125 21.21875 355.152344 21.21875 C 354.847656 21.21875 354.578125 21.148438 354.339844 21.015625 C 354.097656 20.871094 353.910156 20.679688 353.777344 20.4375 C 353.640625 20.1875 353.574219 19.917969 353.574219 19.625 Z M 353.574219 19.625 "/>
<path fill="none" stroke-width="2" stroke-linecap="butt" stroke-linejoin="miter" stroke="rgb(40.000001%, 40.000001%, 40.000001%)" stroke-opacity="1" stroke-miterlimit="10" d="M 159.998445 20.001757 L 189.759061 20.001757 " transform="matrix(0.75052, 0, 0, 0.75052, 0, 0)"/>
<path fill-rule="nonzero" fill="rgb(40.000001%, 40.000001%, 40.000001%)" fill-opacity="1" d="M 148.421875 15.011719 L 142.417969 17.015625 L 142.417969 13.007812 Z M 148.421875 15.011719 "/>
<g clip-path="url(#clip-0)">
<path fill="none" stroke-width="2" stroke-linecap="butt" stroke-linejoin="miter" stroke="rgb(40.000001%, 40.000001%, 40.000001%)" stroke-opacity="1" stroke-miterlimit="10" d="M 197.758723 20.001757 L 189.759061 22.671781 L 189.759061 17.331734 Z M 197.758723 20.001757 " transform="matrix(0.75052, 0, 0, 0.75052, 0, 0)"/>
</g>
</svg>
