<?xml version="1.0" encoding="UTF-8"?>
<svg xmlns="http://www.w3.org/2000/svg" xmlns:xlink="http://www.w3.org/1999/xlink" width="286.079987" height="138.959991" viewBox="0 0 286.079987 138.959991">
<path fill-rule="nonzero" fill="rgb(60.000002%, 60.000002%, 60.000002%)" fill-opacity="1" d="M 6.316406 29.101562 L 6.316406 12.335938 L 10.832031 12.335938 L 10.832031 13.632812 L 7.753906 13.632812 L 7.753906 27.820312 L 10.832031 27.820312 L 10.832031 29.101562 Z M 6.316406 29.101562 "/>
<path fill-rule="nonzero" fill="rgb(100%, 50.196081%, 0%)" fill-opacity="1" d="M 20.550781 14.617188 L 20.550781 26.664062 L 19.035156 26.664062 L 19.035156 16.257812 L 16.191406 17.992188 L 15.535156 16.914062 L 19.222656 14.617188 Z M 23.144531 25.789062 L 23.144531 27.023438 L 15.972656 27.023438 L 15.972656 25.789062 Z M 23.144531 25.789062 "/>
<path fill-rule="nonzero" fill="rgb(60.000002%, 60.000002%, 60.000002%)" fill-opacity="1" d="M 30.039062 24.054688 C 30.453125 24.054688 30.796875 24.203125 31.070312 24.492188 C 31.351562 24.773438 31.492188 25.113281 31.492188 25.507812 C 31.492188 25.71875 31.464844 25.9375 31.414062 26.164062 C 31.359375 26.382812 31.273438 26.632812 31.148438 26.914062 L 29.679688 30.257812 L 28.320312 30.257812 L 29.179688 26.695312 C 29 26.570312 28.859375 26.40625 28.757812 26.195312 C 28.652344 25.976562 28.601562 25.75 28.601562 25.507812 C 28.601562 25.101562 28.734375 24.757812 29.007812 24.476562 C 29.289062 24.195312 29.632812 24.054688 30.039062 24.054688 Z M 30.039062 24.054688 "/>
<path fill-rule="nonzero" fill="rgb(100%, 50.196081%, 0%)" fill-opacity="1" d="M 40.304688 14.414062 C 41.085938 14.414062 41.75 14.566406 42.304688 14.867188 C 42.855469 15.171875 43.28125 15.582031 43.585938 16.101562 C 43.886719 16.625 44.039062 17.21875 44.039062 17.882812 C 44.039062 18.457031 43.9375 19.015625 43.742188 19.554688 C 43.542969 20.097656 43.226562 20.671875 42.789062 21.273438 C 42.351562 21.867188 41.777344 22.53125 41.070312 23.257812 C 40.371094 23.976562 39.507812 24.804688 38.476562 25.742188 L 44.320312 25.742188 L 44.132812 27.023438 L 36.757812 27.023438 L 36.757812 25.789062 C 37.695312 24.894531 38.492188 24.113281 39.148438 23.445312 C 39.804688 22.769531 40.34375 22.179688 40.773438 21.679688 C 41.210938 21.171875 41.546875 20.707031 41.789062 20.289062 C 42.027344 19.875 42.195312 19.476562 42.289062 19.101562 C 42.390625 18.726562 42.445312 18.335938 42.445312 17.929688 C 42.445312 17.234375 42.246094 16.6875 41.851562 16.289062 C 41.453125 15.882812 40.914062 15.679688 40.226562 15.679688 C 39.609375 15.679688 39.105469 15.789062 38.710938 16.007812 C 38.324219 16.21875 37.9375 16.550781 37.554688 17.007812 L 36.507812 16.195312 C 36.996094 15.59375 37.542969 15.144531 38.148438 14.851562 C 38.75 14.5625 39.46875 14.414062 40.304688 14.414062 Z M 40.304688 14.414062 "/>
<path fill-rule="nonzero" fill="rgb(60.000002%, 60.000002%, 60.000002%)" fill-opacity="1" d="M 51.664062 24.054688 C 52.078125 24.054688 52.421875 24.203125 52.695312 24.492188 C 52.976562 24.773438 53.117188 25.113281 53.117188 25.507812 C 53.117188 25.71875 53.089844 25.9375 53.039062 26.164062 C 52.984375 26.382812 52.898438 26.632812 52.773438 26.914062 L 51.304688 30.257812 L 49.945312 30.257812 L 50.804688 26.695312 C 50.625 26.570312 50.484375 26.40625 50.382812 26.195312 C 50.277344 25.976562 50.226562 25.75 50.226562 25.507812 C 50.226562 25.101562 50.359375 24.757812 50.632812 24.476562 C 50.914062 24.195312 51.257812 24.054688 51.664062 24.054688 Z M 51.664062 24.054688 "/>
<path fill-rule="nonzero" fill="rgb(100%, 50.196081%, 0%)" fill-opacity="1" d="M 61.917969 14.414062 C 62.699219 14.414062 63.371094 14.554688 63.933594 14.835938 C 64.496094 15.117188 64.933594 15.5 65.246094 15.976562 C 65.558594 16.445312 65.714844 16.960938 65.714844 17.523438 C 65.714844 18.023438 65.605469 18.476562 65.386719 18.882812 C 65.167969 19.289062 64.871094 19.628906 64.496094 19.898438 C 64.128906 20.160156 63.730469 20.332031 63.292969 20.414062 C 63.78125 20.445312 64.238281 20.582031 64.667969 20.820312 C 65.09375 21.0625 65.441406 21.398438 65.714844 21.835938 C 65.984375 22.265625 66.121094 22.800781 66.121094 23.445312 C 66.121094 24.164062 65.9375 24.8125 65.574219 25.382812 C 65.21875 25.957031 64.71875 26.410156 64.074219 26.742188 C 63.425781 27.0625 62.671875 27.226562 61.808594 27.226562 C 61.121094 27.226562 60.433594 27.09375 59.746094 26.835938 C 59.058594 26.578125 58.472656 26.15625 57.996094 25.570312 L 59.027344 24.742188 C 59.378906 25.160156 59.800781 25.472656 60.292969 25.679688 C 60.78125 25.878906 61.277344 25.976562 61.777344 25.976562 C 62.640625 25.976562 63.3125 25.753906 63.792969 25.304688 C 64.28125 24.847656 64.527344 24.226562 64.527344 23.445312 C 64.527344 22.863281 64.410156 22.398438 64.183594 22.054688 C 63.964844 21.710938 63.660156 21.46875 63.277344 21.320312 C 62.890625 21.175781 62.453125 21.101562 61.964844 21.101562 L 60.917969 21.101562 L 61.105469 19.898438 L 61.839844 19.898438 C 62.246094 19.898438 62.625 19.828125 62.980469 19.679688 C 63.332031 19.523438 63.625 19.285156 63.855469 18.960938 C 64.082031 18.628906 64.199219 18.222656 64.199219 17.742188 C 64.199219 17.054688 63.96875 16.535156 63.511719 16.179688 C 63.050781 15.816406 62.5 15.632812 61.855469 15.632812 C 61.3125 15.632812 60.839844 15.726562 60.433594 15.914062 C 60.035156 16.101562 59.636719 16.390625 59.230469 16.773438 L 58.386719 15.851562 C 58.917969 15.351562 59.480469 14.988281 60.074219 14.757812 C 60.667969 14.53125 61.28125 14.414062 61.917969 14.414062 Z M 61.917969 14.414062 "/>
<path fill-rule="nonzero" fill="rgb(60.000002%, 60.000002%, 60.000002%)" fill-opacity="1" d="M 73.292969 24.054688 C 73.707031 24.054688 74.050781 24.203125 74.324219 24.492188 C 74.605469 24.773438 74.746094 25.113281 74.746094 25.507812 C 74.746094 25.71875 74.71875 25.9375 74.667969 26.164062 C 74.613281 26.382812 74.527344 26.632812 74.402344 26.914062 L 72.933594 30.257812 L 71.574219 30.257812 L 72.433594 26.695312 C 72.253906 26.570312 72.113281 26.40625 72.011719 26.195312 C 71.90625 25.976562 71.855469 25.75 71.855469 25.507812 C 71.855469 25.101562 71.988281 24.757812 72.261719 24.476562 C 72.542969 24.195312 72.886719 24.054688 73.292969 24.054688 Z M 73.292969 24.054688 "/>
<path fill-rule="nonzero" fill="rgb(100%, 50.196081%, 0%)" fill-opacity="1" d="M 83.640625 14.414062 L 84.90625 14.945312 L 81.609375 22.804688 L 88.21875 22.804688 L 88.21875 24.007812 L 80 24.007812 L 80 22.914062 Z M 86.625 19.273438 L 86.625 27.023438 L 85.15625 27.023438 L 85.15625 23.085938 L 85.359375 19.273438 Z M 86.625 19.273438 "/>
<path fill-rule="nonzero" fill="rgb(60.000002%, 60.000002%, 60.000002%)" fill-opacity="1" d="M 94.921875 24.054688 C 95.335938 24.054688 95.679688 24.203125 95.953125 24.492188 C 96.234375 24.773438 96.375 25.113281 96.375 25.507812 C 96.375 25.71875 96.347656 25.9375 96.296875 26.164062 C 96.242188 26.382812 96.15625 26.632812 96.03125 26.914062 L 94.5625 30.257812 L 93.203125 30.257812 L 94.0625 26.695312 C 93.882812 26.570312 93.742188 26.40625 93.640625 26.195312 C 93.535156 25.976562 93.484375 25.75 93.484375 25.507812 C 93.484375 25.101562 93.617188 24.757812 93.890625 24.476562 C 94.171875 24.195312 94.515625 24.054688 94.921875 24.054688 Z M 94.921875 24.054688 "/>
<path fill-rule="nonzero" fill="rgb(100%, 50.196081%, 0%)" fill-opacity="1" d="M 109.109375 14.617188 L 108.875 15.820312 L 103.96875 15.820312 L 103.96875 19.742188 C 104.351562 19.535156 104.710938 19.394531 105.046875 19.320312 C 105.390625 19.25 105.75 19.210938 106.125 19.210938 C 106.789062 19.210938 107.378906 19.363281 107.890625 19.664062 C 108.398438 19.96875 108.796875 20.410156 109.078125 20.992188 C 109.359375 21.578125 109.5 22.28125 109.5 23.101562 C 109.5 23.925781 109.328125 24.648438 108.984375 25.273438 C 108.640625 25.898438 108.15625 26.382812 107.53125 26.726562 C 106.90625 27.058594 106.164062 27.226562 105.3125 27.226562 C 104.5625 27.226562 103.894531 27.09375 103.3125 26.835938 C 102.726562 26.578125 102.195312 26.210938 101.71875 25.742188 L 102.65625 24.835938 C 103.03125 25.222656 103.4375 25.507812 103.875 25.695312 C 104.3125 25.882812 104.796875 25.976562 105.328125 25.976562 C 106.140625 25.976562 106.773438 25.734375 107.234375 25.242188 C 107.691406 24.742188 107.921875 24.015625 107.921875 23.054688 C 107.921875 22.390625 107.820312 21.863281 107.625 21.476562 C 107.425781 21.09375 107.15625 20.816406 106.8125 20.648438 C 106.476562 20.484375 106.101562 20.398438 105.6875 20.398438 C 105.320312 20.398438 105 20.4375 104.71875 20.507812 C 104.4375 20.582031 104.113281 20.6875 103.75 20.820312 L 102.53125 20.820312 L 102.53125 14.617188 Z M 109.109375 14.617188 "/>
<path fill-rule="nonzero" fill="rgb(60.000002%, 60.000002%, 60.000002%)" fill-opacity="1" d="M 116.550781 24.054688 C 116.964844 24.054688 117.308594 24.203125 117.582031 24.492188 C 117.863281 24.773438 118.003906 25.113281 118.003906 25.507812 C 118.003906 25.71875 117.976562 25.9375 117.925781 26.164062 C 117.871094 26.382812 117.785156 26.632812 117.660156 26.914062 L 116.191406 30.257812 L 114.832031 30.257812 L 115.691406 26.695312 C 115.511719 26.570312 115.371094 26.40625 115.269531 26.195312 C 115.164062 25.976562 115.113281 25.75 115.113281 25.507812 C 115.113281 25.101562 115.246094 24.757812 115.519531 24.476562 C 115.800781 24.195312 116.144531 24.054688 116.550781 24.054688 Z M 116.550781 24.054688 "/>
<path fill-rule="nonzero" fill="rgb(100%, 50.196081%, 0%)" fill-opacity="1" d="M 128.003906 14.414062 C 128.480469 14.414062 128.917969 14.476562 129.316406 14.601562 C 129.722656 14.726562 130.101562 14.910156 130.457031 15.148438 L 129.863281 16.164062 C 129.582031 16 129.277344 15.875 128.957031 15.789062 C 128.644531 15.695312 128.316406 15.648438 127.972656 15.648438 C 127.316406 15.648438 126.753906 15.875 126.285156 16.320312 C 125.824219 16.757812 125.476562 17.378906 125.238281 18.179688 C 125.007812 18.984375 124.898438 19.921875 124.910156 20.992188 L 124.925781 21.585938 C 124.925781 23.109375 125.121094 24.226562 125.519531 24.945312 C 125.925781 25.65625 126.585938 26.007812 127.503906 26.007812 C 128.285156 26.007812 128.871094 25.734375 129.269531 25.179688 C 129.664062 24.617188 129.863281 23.851562 129.863281 22.882812 C 129.863281 22.207031 129.769531 21.675781 129.582031 21.289062 C 129.394531 20.894531 129.132812 20.613281 128.800781 20.445312 C 128.476562 20.269531 128.097656 20.179688 127.660156 20.179688 C 127.011719 20.179688 126.445312 20.375 125.957031 20.757812 C 125.464844 21.144531 125.066406 21.640625 124.753906 22.242188 L 124.722656 20.914062 C 125.128906 20.21875 125.589844 19.71875 126.113281 19.414062 C 126.644531 19.101562 127.238281 18.945312 127.894531 18.945312 C 128.539062 18.945312 129.121094 19.085938 129.644531 19.367188 C 130.175781 19.648438 130.601562 20.082031 130.925781 20.664062 C 131.246094 21.238281 131.410156 21.96875 131.410156 22.851562 C 131.410156 23.769531 131.230469 24.554688 130.878906 25.210938 C 130.535156 25.859375 130.066406 26.359375 129.472656 26.710938 C 128.878906 27.054688 128.222656 27.226562 127.503906 27.226562 C 126.742188 27.226562 126.101562 27.085938 125.582031 26.804688 C 125.058594 26.515625 124.636719 26.101562 124.316406 25.570312 C 123.992188 25.039062 123.757812 24.40625 123.613281 23.664062 C 123.464844 22.914062 123.394531 22.082031 123.394531 21.164062 C 123.394531 19.789062 123.570312 18.601562 123.925781 17.601562 C 124.289062 16.59375 124.816406 15.8125 125.503906 15.257812 C 126.191406 14.695312 127.023438 14.414062 128.003906 14.414062 Z M 128.003906 14.414062 "/>
<path fill-rule="nonzero" fill="rgb(60.000002%, 60.000002%, 60.000002%)" fill-opacity="1" d="M 138.179688 24.054688 C 138.59375 24.054688 138.9375 24.203125 139.210938 24.492188 C 139.492188 24.773438 139.632812 25.113281 139.632812 25.507812 C 139.632812 25.71875 139.605469 25.9375 139.554688 26.164062 C 139.5 26.382812 139.414062 26.632812 139.289062 26.914062 L 137.820312 30.257812 L 136.460938 30.257812 L 137.320312 26.695312 C 137.140625 26.570312 137 26.40625 136.898438 26.195312 C 136.792969 25.976562 136.742188 25.75 136.742188 25.507812 C 136.742188 25.101562 136.875 24.757812 137.148438 24.476562 C 137.429688 24.195312 137.773438 24.054688 138.179688 24.054688 Z M 138.179688 24.054688 "/>
<path fill-rule="nonzero" fill="rgb(100%, 50.196081%, 0%)" fill-opacity="1" d="M 147.742188 27.195312 L 146.320312 26.757812 L 151.164062 15.882812 L 145.335938 15.882812 L 145.335938 14.617188 L 152.679688 14.617188 L 152.679688 15.789062 Z M 147.742188 27.195312 "/>
<path fill-rule="nonzero" fill="rgb(60.000002%, 60.000002%, 60.000002%)" fill-opacity="1" d="M 159.808594 24.054688 C 160.222656 24.054688 160.566406 24.203125 160.839844 24.492188 C 161.121094 24.773438 161.261719 25.113281 161.261719 25.507812 C 161.261719 25.71875 161.234375 25.9375 161.183594 26.164062 C 161.128906 26.382812 161.042969 26.632812 160.917969 26.914062 L 159.449219 30.257812 L 158.089844 30.257812 L 158.949219 26.695312 C 158.769531 26.570312 158.628906 26.40625 158.527344 26.195312 C 158.421875 25.976562 158.371094 25.75 158.371094 25.507812 C 158.371094 25.101562 158.503906 24.757812 158.777344 24.476562 C 159.058594 24.195312 159.402344 24.054688 159.808594 24.054688 Z M 159.808594 24.054688 "/>
<path fill-rule="nonzero" fill="rgb(60.000002%, 60.000002%, 60.000002%)" fill-opacity="1" d="M 171.195312 25.632812 C 171.195312 25.34375 171.265625 25.078125 171.398438 24.835938 C 171.535156 24.597656 171.722656 24.410156 171.960938 24.273438 C 172.203125 24.128906 172.472656 24.054688 172.773438 24.054688 C 173.078125 24.054688 173.347656 24.128906 173.585938 24.273438 C 173.828125 24.410156 174.019531 24.597656 174.164062 24.835938 C 174.300781 25.078125 174.367188 25.34375 174.367188 25.632812 C 174.367188 25.925781 174.300781 26.195312 174.164062 26.445312 C 174.019531 26.6875 173.828125 26.878906 173.585938 27.023438 C 173.347656 27.15625 173.078125 27.226562 172.773438 27.226562 C 172.472656 27.226562 172.203125 27.15625 171.960938 27.023438 C 171.722656 26.878906 171.535156 26.6875 171.398438 26.445312 C 171.265625 26.195312 171.195312 25.925781 171.195312 25.632812 Z M 177.679688 25.632812 C 177.679688 25.34375 177.746094 25.078125 177.882812 24.835938 C 178.015625 24.597656 178.203125 24.410156 178.445312 24.273438 C 178.683594 24.128906 178.953125 24.054688 179.257812 24.054688 C 179.558594 24.054688 179.828125 24.128906 180.070312 24.273438 C 180.308594 24.410156 180.496094 24.597656 180.632812 24.835938 C 180.777344 25.078125 180.851562 25.34375 180.851562 25.632812 C 180.851562 25.925781 180.777344 26.195312 180.632812 26.445312 C 180.496094 26.6875 180.308594 26.878906 180.070312 27.023438 C 179.828125 27.15625 179.558594 27.226562 179.257812 27.226562 C 178.953125 27.226562 178.683594 27.15625 178.445312 27.023438 C 178.203125 26.878906 178.015625 26.6875 177.882812 26.445312 C 177.746094 26.195312 177.679688 25.925781 177.679688 25.632812 Z M 177.679688 25.632812 "/>
<path fill-rule="nonzero" fill="rgb(60.000002%, 60.000002%, 60.000002%)" fill-opacity="1" d="M 6.316406 134.195312 L 6.316406 117.429688 L 10.832031 117.429688 L 10.832031 118.726562 L 7.753906 118.726562 L 7.753906 132.914062 L 10.832031 132.914062 L 10.832031 134.195312 Z M 6.316406 134.195312 "/>
<path fill-rule="nonzero" fill="rgb(100%, 50.196081%, 0%)" fill-opacity="1" d="M 20.550781 119.710938 L 20.550781 131.757812 L 19.035156 131.757812 L 19.035156 121.351562 L 16.191406 123.085938 L 15.535156 122.007812 L 19.222656 119.710938 Z M 23.144531 130.882812 L 23.144531 132.117188 L 15.972656 132.117188 L 15.972656 130.882812 Z M 23.144531 130.882812 "/>
<path fill-rule="nonzero" fill="rgb(60.000002%, 60.000002%, 60.000002%)" fill-opacity="1" d="M 30.039062 129.148438 C 30.453125 129.148438 30.796875 129.296875 31.070312 129.585938 C 31.351562 129.867188 31.492188 130.207031 31.492188 130.601562 C 31.492188 130.8125 31.464844 131.03125 31.414062 131.257812 C 31.359375 131.476562 31.273438 131.726562 31.148438 132.007812 L 29.679688 135.351562 L 28.320312 135.351562 L 29.179688 131.789062 C 29 131.664062 28.859375 131.5 28.757812 131.289062 C 28.652344 131.070312 28.601562 130.84375 28.601562 130.601562 C 28.601562 130.195312 28.734375 129.851562 29.007812 129.570312 C 29.289062 129.289062 29.632812 129.148438 30.039062 129.148438 Z M 30.039062 129.148438 "/>
<path fill-rule="nonzero" fill="rgb(100%, 50.196081%, 0%)" fill-opacity="1" d="M 40.304688 119.507812 C 41.085938 119.507812 41.75 119.660156 42.304688 119.960938 C 42.855469 120.265625 43.28125 120.675781 43.585938 121.195312 C 43.886719 121.71875 44.039062 122.3125 44.039062 122.976562 C 44.039062 123.550781 43.9375 124.109375 43.742188 124.648438 C 43.542969 125.191406 43.226562 125.765625 42.789062 126.367188 C 42.351562 126.960938 41.777344 127.625 41.070312 128.351562 C 40.371094 129.070312 39.507812 129.898438 38.476562 130.835938 L 44.320312 130.835938 L 44.132812 132.117188 L 36.757812 132.117188 L 36.757812 130.882812 C 37.695312 129.988281 38.492188 129.207031 39.148438 128.539062 C 39.804688 127.863281 40.34375 127.273438 40.773438 126.773438 C 41.210938 126.265625 41.546875 125.800781 41.789062 125.382812 C 42.027344 124.96875 42.195312 124.570312 42.289062 124.195312 C 42.390625 123.820312 42.445312 123.429688 42.445312 123.023438 C 42.445312 122.328125 42.246094 121.78125 41.851562 121.382812 C 41.453125 120.976562 40.914062 120.773438 40.226562 120.773438 C 39.609375 120.773438 39.105469 120.882812 38.710938 121.101562 C 38.324219 121.3125 37.9375 121.644531 37.554688 122.101562 L 36.507812 121.289062 C 36.996094 120.6875 37.542969 120.238281 38.148438 119.945312 C 38.75 119.65625 39.46875 119.507812 40.304688 119.507812 Z M 40.304688 119.507812 "/>
<path fill-rule="nonzero" fill="rgb(60.000002%, 60.000002%, 60.000002%)" fill-opacity="1" d="M 51.664062 129.148438 C 52.078125 129.148438 52.421875 129.296875 52.695312 129.585938 C 52.976562 129.867188 53.117188 130.207031 53.117188 130.601562 C 53.117188 130.8125 53.089844 131.03125 53.039062 131.257812 C 52.984375 131.476562 52.898438 131.726562 52.773438 132.007812 L 51.304688 135.351562 L 49.945312 135.351562 L 50.804688 131.789062 C 50.625 131.664062 50.484375 131.5 50.382812 131.289062 C 50.277344 131.070312 50.226562 130.84375 50.226562 130.601562 C 50.226562 130.195312 50.359375 129.851562 50.632812 129.570312 C 50.914062 129.289062 51.257812 129.148438 51.664062 129.148438 Z M 51.664062 129.148438 "/>
<path fill-rule="nonzero" fill="rgb(100%, 50.196081%, 0%)" fill-opacity="1" d="M 61.917969 119.507812 C 62.699219 119.507812 63.371094 119.648438 63.933594 119.929688 C 64.496094 120.210938 64.933594 120.59375 65.246094 121.070312 C 65.558594 121.539062 65.714844 122.054688 65.714844 122.617188 C 65.714844 123.117188 65.605469 123.570312 65.386719 123.976562 C 65.167969 124.382812 64.871094 124.722656 64.496094 124.992188 C 64.128906 125.253906 63.730469 125.425781 63.292969 125.507812 C 63.78125 125.539062 64.238281 125.675781 64.667969 125.914062 C 65.09375 126.15625 65.441406 126.492188 65.714844 126.929688 C 65.984375 127.359375 66.121094 127.894531 66.121094 128.539062 C 66.121094 129.257812 65.9375 129.90625 65.574219 130.476562 C 65.21875 131.050781 64.71875 131.503906 64.074219 131.835938 C 63.425781 132.15625 62.671875 132.320312 61.808594 132.320312 C 61.121094 132.320312 60.433594 132.1875 59.746094 131.929688 C 59.058594 131.671875 58.472656 131.25 57.996094 130.664062 L 59.027344 129.835938 C 59.378906 130.253906 59.800781 130.566406 60.292969 130.773438 C 60.78125 130.972656 61.277344 131.070312 61.777344 131.070312 C 62.640625 131.070312 63.3125 130.847656 63.792969 130.398438 C 64.28125 129.941406 64.527344 129.320312 64.527344 128.539062 C 64.527344 127.957031 64.410156 127.492188 64.183594 127.148438 C 63.964844 126.804688 63.660156 126.5625 63.277344 126.414062 C 62.890625 126.269531 62.453125 126.195312 61.964844 126.195312 L 60.917969 126.195312 L 61.105469 124.992188 L 61.839844 124.992188 C 62.246094 124.992188 62.625 124.921875 62.980469 124.773438 C 63.332031 124.617188 63.625 124.378906 63.855469 124.054688 C 64.082031 123.722656 64.199219 123.316406 64.199219 122.835938 C 64.199219 122.148438 63.96875 121.628906 63.511719 121.273438 C 63.050781 120.910156 62.5 120.726562 61.855469 120.726562 C 61.3125 120.726562 60.839844 120.820312 60.433594 121.007812 C 60.035156 121.195312 59.636719 121.484375 59.230469 121.867188 L 58.386719 120.945312 C 58.917969 120.445312 59.480469 120.082031 60.074219 119.851562 C 60.667969 119.625 61.28125 119.507812 61.917969 119.507812 Z M 61.917969 119.507812 "/>
<path fill-rule="nonzero" fill="rgb(60.000002%, 60.000002%, 60.000002%)" fill-opacity="1" d="M 75.386719 117.429688 L 75.386719 134.195312 L 70.871094 134.195312 L 70.871094 132.914062 L 73.949219 132.914062 L 73.949219 118.726562 L 70.871094 118.726562 L 70.871094 117.429688 Z M 75.386719 117.429688 "/>
<path fill-rule="nonzero" fill="rgb(60.000002%, 60.000002%, 60.000002%)" fill-opacity="1" d="M 84.101562 129.148438 C 84.515625 129.148438 84.859375 129.296875 85.132812 129.585938 C 85.414062 129.867188 85.554688 130.207031 85.554688 130.601562 C 85.554688 130.8125 85.527344 131.03125 85.476562 131.257812 C 85.421875 131.476562 85.335938 131.726562 85.210938 132.007812 L 83.742188 135.351562 L 82.382812 135.351562 L 83.242188 131.789062 C 83.0625 131.664062 82.921875 131.5 82.820312 131.289062 C 82.714844 131.070312 82.664062 130.84375 82.664062 130.601562 C 82.664062 130.195312 82.796875 129.851562 83.070312 129.570312 C 83.351562 129.289062 83.695312 129.148438 84.101562 129.148438 Z M 84.101562 129.148438 "/>
<path fill-rule="nonzero" fill="rgb(60.000002%, 60.000002%, 60.000002%)" fill-opacity="1" d="M 92.820312 134.195312 L 92.820312 117.429688 L 97.335938 117.429688 L 97.335938 118.726562 L 94.257812 118.726562 L 94.257812 132.914062 L 97.335938 132.914062 L 97.335938 134.195312 Z M 92.820312 134.195312 "/>
<path fill-rule="nonzero" fill="rgb(100%, 50.196081%, 0%)" fill-opacity="1" d="M 105.265625 119.507812 L 106.53125 120.039062 L 103.234375 127.898438 L 109.84375 127.898438 L 109.84375 129.101562 L 101.625 129.101562 L 101.625 128.007812 Z M 108.25 124.367188 L 108.25 132.117188 L 106.78125 132.117188 L 106.78125 128.179688 L 106.984375 124.367188 Z M 108.25 124.367188 "/>
<path fill-rule="nonzero" fill="rgb(60.000002%, 60.000002%, 60.000002%)" fill-opacity="1" d="M 118.644531 117.429688 L 118.644531 134.195312 L 114.128906 134.195312 L 114.128906 132.914062 L 117.207031 132.914062 L 117.207031 118.726562 L 114.128906 118.726562 L 114.128906 117.429688 Z M 118.644531 117.429688 "/>
<path fill-rule="nonzero" fill="rgb(60.000002%, 60.000002%, 60.000002%)" fill-opacity="1" d="M 127.363281 129.148438 C 127.777344 129.148438 128.121094 129.296875 128.394531 129.585938 C 128.675781 129.867188 128.816406 130.207031 128.816406 130.601562 C 128.816406 130.8125 128.789062 131.03125 128.738281 131.257812 C 128.683594 131.476562 128.597656 131.726562 128.472656 132.007812 L 127.003906 135.351562 L 125.644531 135.351562 L 126.503906 131.789062 C 126.324219 131.664062 126.183594 131.5 126.082031 131.289062 C 125.976562 131.070312 125.925781 130.84375 125.925781 130.601562 C 125.925781 130.195312 126.058594 129.851562 126.332031 129.570312 C 126.613281 129.289062 126.957031 129.148438 127.363281 129.148438 Z M 127.363281 129.148438 "/>
<path fill-rule="nonzero" fill="rgb(60.000002%, 60.000002%, 60.000002%)" fill-opacity="1" d="M 136.082031 134.195312 L 136.082031 117.429688 L 140.597656 117.429688 L 140.597656 118.726562 L 137.519531 118.726562 L 137.519531 132.914062 L 140.597656 132.914062 L 140.597656 134.195312 Z M 136.082031 134.195312 "/>
<path fill-rule="nonzero" fill="rgb(100%, 50.196081%, 0%)" fill-opacity="1" d="M 152.367188 119.710938 L 152.132812 120.914062 L 147.226562 120.914062 L 147.226562 124.835938 C 147.609375 124.628906 147.96875 124.488281 148.304688 124.414062 C 148.648438 124.34375 149.007812 124.304688 149.382812 124.304688 C 150.046875 124.304688 150.636719 124.457031 151.148438 124.757812 C 151.65625 125.0625 152.054688 125.503906 152.335938 126.085938 C 152.617188 126.671875 152.757812 127.375 152.757812 128.195312 C 152.757812 129.019531 152.585938 129.742188 152.242188 130.367188 C 151.898438 130.992188 151.414062 131.476562 150.789062 131.820312 C 150.164062 132.152344 149.421875 132.320312 148.570312 132.320312 C 147.820312 132.320312 147.152344 132.1875 146.570312 131.929688 C 145.984375 131.671875 145.453125 131.304688 144.976562 130.835938 L 145.914062 129.929688 C 146.289062 130.316406 146.695312 130.601562 147.132812 130.789062 C 147.570312 130.976562 148.054688 131.070312 148.585938 131.070312 C 149.398438 131.070312 150.03125 130.828125 150.492188 130.335938 C 150.949219 129.835938 151.179688 129.109375 151.179688 128.148438 C 151.179688 127.484375 151.078125 126.957031 150.882812 126.570312 C 150.683594 126.1875 150.414062 125.910156 150.070312 125.742188 C 149.734375 125.578125 149.359375 125.492188 148.945312 125.492188 C 148.578125 125.492188 148.257812 125.53125 147.976562 125.601562 C 147.695312 125.675781 147.371094 125.78125 147.007812 125.914062 L 145.789062 125.914062 L 145.789062 119.710938 Z M 152.367188 119.710938 "/>
<path fill-rule="nonzero" fill="rgb(60.000002%, 60.000002%, 60.000002%)" fill-opacity="1" d="M 159.808594 129.148438 C 160.222656 129.148438 160.566406 129.296875 160.839844 129.585938 C 161.121094 129.867188 161.261719 130.207031 161.261719 130.601562 C 161.261719 130.8125 161.234375 131.03125 161.183594 131.257812 C 161.128906 131.476562 161.042969 131.726562 160.917969 132.007812 L 159.449219 135.351562 L 158.089844 135.351562 L 158.949219 131.789062 C 158.769531 131.664062 158.628906 131.5 158.527344 131.289062 C 158.421875 131.070312 158.371094 130.84375 158.371094 130.601562 C 158.371094 130.195312 158.503906 129.851562 158.777344 129.570312 C 159.058594 129.289062 159.402344 129.148438 159.808594 129.148438 Z M 159.808594 129.148438 "/>
<path fill-rule="nonzero" fill="rgb(100%, 50.196081%, 0%)" fill-opacity="1" d="M 171.261719 119.507812 C 171.738281 119.507812 172.175781 119.570312 172.574219 119.695312 C 172.980469 119.820312 173.359375 120.003906 173.714844 120.242188 L 173.121094 121.257812 C 172.839844 121.09375 172.535156 120.96875 172.214844 120.882812 C 171.902344 120.789062 171.574219 120.742188 171.230469 120.742188 C 170.574219 120.742188 170.011719 120.96875 169.542969 121.414062 C 169.082031 121.851562 168.734375 122.472656 168.496094 123.273438 C 168.265625 124.078125 168.15625 125.015625 168.167969 126.085938 L 168.183594 126.679688 C 168.183594 128.203125 168.378906 129.320312 168.777344 130.039062 C 169.183594 130.75 169.84375 131.101562 170.761719 131.101562 C 171.542969 131.101562 172.128906 130.828125 172.527344 130.273438 C 172.921875 129.710938 173.121094 128.945312 173.121094 127.976562 C 173.121094 127.300781 173.027344 126.769531 172.839844 126.382812 C 172.652344 125.988281 172.390625 125.707031 172.058594 125.539062 C 171.734375 125.363281 171.355469 125.273438 170.917969 125.273438 C 170.269531 125.273438 169.703125 125.46875 169.214844 125.851562 C 168.722656 126.238281 168.324219 126.734375 168.011719 127.335938 L 167.980469 126.007812 C 168.386719 125.3125 168.847656 124.8125 169.371094 124.507812 C 169.902344 124.195312 170.496094 124.039062 171.152344 124.039062 C 171.796875 124.039062 172.378906 124.179688 172.902344 124.460938 C 173.433594 124.742188 173.859375 125.175781 174.183594 125.757812 C 174.503906 126.332031 174.667969 127.0625 174.667969 127.945312 C 174.667969 128.863281 174.488281 129.648438 174.136719 130.304688 C 173.792969 130.953125 173.324219 131.453125 172.730469 131.804688 C 172.136719 132.148438 171.480469 132.320312 170.761719 132.320312 C 170 132.320312 169.359375 132.179688 168.839844 131.898438 C 168.316406 131.609375 167.894531 131.195312 167.574219 130.664062 C 167.25 130.132812 167.015625 129.5 166.871094 128.757812 C 166.722656 128.007812 166.652344 127.175781 166.652344 126.257812 C 166.652344 124.882812 166.828125 123.695312 167.183594 122.695312 C 167.546875 121.6875 168.074219 120.90625 168.761719 120.351562 C 169.449219 119.789062 170.28125 119.507812 171.261719 119.507812 Z M 171.261719 119.507812 "/>
<path fill-rule="nonzero" fill="rgb(60.000002%, 60.000002%, 60.000002%)" fill-opacity="1" d="M 183.527344 117.429688 L 183.527344 134.195312 L 179.011719 134.195312 L 179.011719 132.914062 L 182.089844 132.914062 L 182.089844 118.726562 L 179.011719 118.726562 L 179.011719 117.429688 Z M 183.527344 117.429688 "/>
<path fill-rule="nonzero" fill="rgb(60.000002%, 60.000002%, 60.000002%)" fill-opacity="1" d="M 192.246094 129.148438 C 192.660156 129.148438 193.003906 129.296875 193.277344 129.585938 C 193.558594 129.867188 193.699219 130.207031 193.699219 130.601562 C 193.699219 130.8125 193.671875 131.03125 193.621094 131.257812 C 193.566406 131.476562 193.480469 131.726562 193.355469 132.007812 L 191.886719 135.351562 L 190.527344 135.351562 L 191.386719 131.789062 C 191.207031 131.664062 191.066406 131.5 190.964844 131.289062 C 190.859375 131.070312 190.808594 130.84375 190.808594 130.601562 C 190.808594 130.195312 190.941406 129.851562 191.214844 129.570312 C 191.496094 129.289062 191.839844 129.148438 192.246094 129.148438 Z M 192.246094 129.148438 "/>
<path fill-rule="nonzero" fill="rgb(60.000002%, 60.000002%, 60.000002%)" fill-opacity="1" d="M 200.960938 134.195312 L 200.960938 117.429688 L 205.476562 117.429688 L 205.476562 118.726562 L 202.398438 118.726562 L 202.398438 132.914062 L 205.476562 132.914062 L 205.476562 134.195312 Z M 200.960938 134.195312 "/>
<path fill-rule="nonzero" fill="rgb(100%, 50.196081%, 0%)" fill-opacity="1" d="M 212.628906 132.289062 L 211.207031 131.851562 L 216.050781 120.976562 L 210.222656 120.976562 L 210.222656 119.710938 L 217.566406 119.710938 L 217.566406 120.882812 Z M 212.628906 132.289062 "/>
<path fill-rule="nonzero" fill="rgb(60.000002%, 60.000002%, 60.000002%)" fill-opacity="1" d="M 224.691406 129.148438 C 225.105469 129.148438 225.449219 129.296875 225.722656 129.585938 C 226.003906 129.867188 226.144531 130.207031 226.144531 130.601562 C 226.144531 130.8125 226.117188 131.03125 226.066406 131.257812 C 226.011719 131.476562 225.925781 131.726562 225.800781 132.007812 L 224.332031 135.351562 L 222.972656 135.351562 L 223.832031 131.789062 C 223.652344 131.664062 223.511719 131.5 223.410156 131.289062 C 223.304688 131.070312 223.253906 130.84375 223.253906 130.601562 C 223.253906 130.195312 223.386719 129.851562 223.660156 129.570312 C 223.941406 129.289062 224.285156 129.148438 224.691406 129.148438 Z M 224.691406 129.148438 "/>
<path fill-rule="nonzero" fill="rgb(100%, 50.196081%, 0%)" fill-opacity="1" d="M 236.082031 130.726562 C 236.082031 130.4375 236.152344 130.171875 236.285156 129.929688 C 236.421875 129.691406 236.609375 129.503906 236.847656 129.367188 C 237.089844 129.222656 237.359375 129.148438 237.660156 129.148438 C 237.964844 129.148438 238.234375 129.222656 238.472656 129.367188 C 238.714844 129.503906 238.90625 129.691406 239.050781 129.929688 C 239.1875 130.171875 239.253906 130.4375 239.253906 130.726562 C 239.253906 131.019531 239.1875 131.289062 239.050781 131.539062 C 238.90625 131.78125 238.714844 131.972656 238.472656 132.117188 C 238.234375 132.25 237.964844 132.320312 237.660156 132.320312 C 237.359375 132.320312 237.089844 132.25 236.847656 132.117188 C 236.609375 131.972656 236.421875 131.78125 236.285156 131.539062 C 236.152344 131.289062 236.082031 131.019531 236.082031 130.726562 Z M 242.566406 130.726562 C 242.566406 130.4375 242.632812 130.171875 242.769531 129.929688 C 242.902344 129.691406 243.089844 129.503906 243.332031 129.367188 C 243.570312 129.222656 243.839844 129.148438 244.144531 129.148438 C 244.445312 129.148438 244.714844 129.222656 244.957031 129.367188 C 245.195312 129.503906 245.382812 129.691406 245.519531 129.929688 C 245.664062 130.171875 245.738281 130.4375 245.738281 130.726562 C 245.738281 131.019531 245.664062 131.289062 245.519531 131.539062 C 245.382812 131.78125 245.195312 131.972656 244.957031 132.117188 C 244.714844 132.25 244.445312 132.320312 244.144531 132.320312 C 243.839844 132.320312 243.570312 132.25 243.332031 132.117188 C 243.089844 131.972656 242.902344 131.78125 242.769531 131.539062 C 242.632812 131.289062 242.566406 131.019531 242.566406 130.726562 Z M 242.566406 130.726562 "/>
<path fill-rule="nonzero" fill="rgb(60.000002%, 60.000002%, 60.000002%)" fill-opacity="1" d="M 6.316406 59.128906 L 6.316406 42.363281 L 10.832031 42.363281 L 10.832031 43.660156 L 7.753906 43.660156 L 7.753906 57.847656 L 10.832031 57.847656 L 10.832031 59.128906 Z M 6.316406 59.128906 "/>
<path fill-rule="nonzero" fill="rgb(100%, 50.196081%, 0%)" fill-opacity="1" d="M 18.660156 44.441406 C 19.441406 44.441406 20.113281 44.582031 20.675781 44.863281 C 21.238281 45.144531 21.675781 45.527344 21.988281 46.003906 C 22.300781 46.472656 22.457031 46.988281 22.457031 47.550781 C 22.457031 48.050781 22.347656 48.503906 22.128906 48.910156 C 21.910156 49.316406 21.613281 49.65625 21.238281 49.925781 C 20.871094 50.1875 20.472656 50.359375 20.035156 50.441406 C 20.523438 50.472656 20.980469 50.609375 21.410156 50.847656 C 21.835938 51.089844 22.183594 51.425781 22.457031 51.863281 C 22.726562 52.292969 22.863281 52.828125 22.863281 53.472656 C 22.863281 54.191406 22.679688 54.839844 22.316406 55.410156 C 21.960938 55.984375 21.460938 56.4375 20.816406 56.769531 C 20.167969 57.089844 19.414062 57.253906 18.550781 57.253906 C 17.863281 57.253906 17.175781 57.121094 16.488281 56.863281 C 15.800781 56.605469 15.214844 56.183594 14.738281 55.597656 L 15.769531 54.769531 C 16.121094 55.1875 16.542969 55.5 17.035156 55.707031 C 17.523438 55.90625 18.019531 56.003906 18.519531 56.003906 C 19.382812 56.003906 20.054688 55.78125 20.535156 55.332031 C 21.023438 54.875 21.269531 54.253906 21.269531 53.472656 C 21.269531 52.890625 21.152344 52.425781 20.925781 52.082031 C 20.707031 51.738281 20.402344 51.496094 20.019531 51.347656 C 19.632812 51.203125 19.195312 51.128906 18.707031 51.128906 L 17.660156 51.128906 L 17.847656 49.925781 L 18.582031 49.925781 C 18.988281 49.925781 19.367188 49.855469 19.722656 49.707031 C 20.074219 49.550781 20.367188 49.3125 20.597656 48.988281 C 20.824219 48.65625 20.941406 48.25 20.941406 47.769531 C 20.941406 47.082031 20.710938 46.5625 20.253906 46.207031 C 19.792969 45.84375 19.242188 45.660156 18.597656 45.660156 C 18.054688 45.660156 17.582031 45.753906 17.175781 45.941406 C 16.777344 46.128906 16.378906 46.417969 15.972656 46.800781 L 15.128906 45.878906 C 15.660156 45.378906 16.222656 45.015625 16.816406 44.785156 C 17.410156 44.558594 18.023438 44.441406 18.660156 44.441406 Z M 18.660156 44.441406 "/>
<path fill-rule="nonzero" fill="rgb(60.000002%, 60.000002%, 60.000002%)" fill-opacity="1" d="M 73.292969 54.082031 C 73.707031 54.082031 74.050781 54.230469 74.324219 54.519531 C 74.605469 54.800781 74.746094 55.140625 74.746094 55.535156 C 74.746094 55.746094 74.71875 55.964844 74.667969 56.191406 C 74.613281 56.410156 74.527344 56.660156 74.402344 56.941406 L 72.933594 60.285156 L 71.574219 60.285156 L 72.433594 56.722656 C 72.253906 56.597656 72.113281 56.433594 72.011719 56.222656 C 71.90625 56.003906 71.855469 55.777344 71.855469 55.535156 C 71.855469 55.128906 71.988281 54.785156 72.261719 54.503906 C 72.542969 54.222656 72.886719 54.082031 73.292969 54.082031 Z M 73.292969 54.082031 "/>
<path fill-rule="nonzero" fill="rgb(100%, 50.196081%, 0%)" fill-opacity="1" d="M 85.4375 44.644531 L 85.4375 56.691406 L 83.921875 56.691406 L 83.921875 46.285156 L 81.078125 48.019531 L 80.421875 46.941406 L 84.109375 44.644531 Z M 88.03125 55.816406 L 88.03125 57.050781 L 80.859375 57.050781 L 80.859375 55.816406 Z M 88.03125 55.816406 "/>
<path fill-rule="nonzero" fill="rgb(60.000002%, 60.000002%, 60.000002%)" fill-opacity="1" d="M 94.921875 54.082031 C 95.335938 54.082031 95.679688 54.230469 95.953125 54.519531 C 96.234375 54.800781 96.375 55.140625 96.375 55.535156 C 96.375 55.746094 96.347656 55.964844 96.296875 56.191406 C 96.242188 56.410156 96.15625 56.660156 96.03125 56.941406 L 94.5625 60.285156 L 93.203125 60.285156 L 94.0625 56.722656 C 93.882812 56.597656 93.742188 56.433594 93.640625 56.222656 C 93.535156 56.003906 93.484375 55.777344 93.484375 55.535156 C 93.484375 55.128906 93.617188 54.785156 93.890625 54.503906 C 94.171875 54.222656 94.515625 54.082031 94.921875 54.082031 Z M 94.921875 54.082031 "/>
<path fill-rule="nonzero" fill="rgb(100%, 50.196081%, 0%)" fill-opacity="1" d="M 105.1875 44.441406 C 105.96875 44.441406 106.632812 44.59375 107.1875 44.894531 C 107.738281 45.199219 108.164062 45.609375 108.46875 46.128906 C 108.769531 46.652344 108.921875 47.246094 108.921875 47.910156 C 108.921875 48.484375 108.820312 49.042969 108.625 49.582031 C 108.425781 50.125 108.109375 50.699219 107.671875 51.300781 C 107.234375 51.894531 106.660156 52.558594 105.953125 53.285156 C 105.253906 54.003906 104.390625 54.832031 103.359375 55.769531 L 109.203125 55.769531 L 109.015625 57.050781 L 101.640625 57.050781 L 101.640625 55.816406 C 102.578125 54.921875 103.375 54.140625 104.03125 53.472656 C 104.6875 52.796875 105.226562 52.207031 105.65625 51.707031 C 106.09375 51.199219 106.429688 50.734375 106.671875 50.316406 C 106.910156 49.902344 107.078125 49.503906 107.171875 49.128906 C 107.273438 48.753906 107.328125 48.363281 107.328125 47.957031 C 107.328125 47.261719 107.128906 46.714844 106.734375 46.316406 C 106.335938 45.910156 105.796875 45.707031 105.109375 45.707031 C 104.492188 45.707031 103.988281 45.816406 103.59375 46.035156 C 103.207031 46.246094 102.820312 46.578125 102.4375 47.035156 L 101.390625 46.222656 C 101.878906 45.621094 102.425781 45.171875 103.03125 44.878906 C 103.632812 44.589844 104.351562 44.441406 105.1875 44.441406 Z M 105.1875 44.441406 "/>
<path fill-rule="nonzero" fill="rgb(60.000002%, 60.000002%, 60.000002%)" fill-opacity="1" d="M 138.167969 54.082031 C 138.582031 54.082031 138.925781 54.230469 139.199219 54.519531 C 139.480469 54.800781 139.621094 55.140625 139.621094 55.535156 C 139.621094 55.746094 139.59375 55.964844 139.542969 56.191406 C 139.488281 56.410156 139.402344 56.660156 139.277344 56.941406 L 137.808594 60.285156 L 136.449219 60.285156 L 137.308594 56.722656 C 137.128906 56.597656 136.988281 56.433594 136.886719 56.222656 C 136.78125 56.003906 136.730469 55.777344 136.730469 55.535156 C 136.730469 55.128906 136.863281 54.785156 137.136719 54.503906 C 137.417969 54.222656 137.761719 54.082031 138.167969 54.082031 Z M 138.167969 54.082031 "/>
<path fill-rule="nonzero" fill="rgb(60.000002%, 60.000002%, 60.000002%)" fill-opacity="1" d="M 149.566406 55.660156 C 149.566406 55.371094 149.636719 55.105469 149.769531 54.863281 C 149.90625 54.625 150.09375 54.4375 150.332031 54.300781 C 150.574219 54.15625 150.84375 54.082031 151.144531 54.082031 C 151.449219 54.082031 151.71875 54.15625 151.957031 54.300781 C 152.199219 54.4375 152.390625 54.625 152.535156 54.863281 C 152.671875 55.105469 152.738281 55.371094 152.738281 55.660156 C 152.738281 55.953125 152.671875 56.222656 152.535156 56.472656 C 152.390625 56.714844 152.199219 56.90625 151.957031 57.050781 C 151.71875 57.183594 151.449219 57.253906 151.144531 57.253906 C 150.84375 57.253906 150.574219 57.183594 150.332031 57.050781 C 150.09375 56.90625 149.90625 56.714844 149.769531 56.472656 C 149.636719 56.222656 149.566406 55.953125 149.566406 55.660156 Z M 156.050781 55.660156 C 156.050781 55.371094 156.117188 55.105469 156.253906 54.863281 C 156.386719 54.625 156.574219 54.4375 156.816406 54.300781 C 157.054688 54.15625 157.324219 54.082031 157.628906 54.082031 C 157.929688 54.082031 158.199219 54.15625 158.441406 54.300781 C 158.679688 54.4375 158.867188 54.625 159.003906 54.863281 C 159.148438 55.105469 159.222656 55.371094 159.222656 55.660156 C 159.222656 55.953125 159.148438 56.222656 159.003906 56.472656 C 158.867188 56.714844 158.679688 56.90625 158.441406 57.050781 C 158.199219 57.183594 157.929688 57.253906 157.628906 57.253906 C 157.324219 57.253906 157.054688 57.183594 156.816406 57.050781 C 156.574219 56.90625 156.386719 56.714844 156.253906 56.472656 C 156.117188 56.222656 156.050781 55.953125 156.050781 55.660156 Z M 156.050781 55.660156 "/>
<path fill="none" stroke-width="2" stroke-linecap="butt" stroke-linejoin="miter" stroke="rgb(40.000001%, 40.000001%, 40.000001%)" stroke-opacity="1" stroke-miterlimit="10" d="M 119.999206 100.001073 L 119.999206 129.7615 " transform="matrix(0.750656, 0, 0, 0.750656, 0, 0)"/>
<path fill-rule="nonzero" fill="rgb(40.000001%, 40.000001%, 40.000001%)" fill-opacity="1" stroke-width="2" stroke-linecap="butt" stroke-linejoin="miter" stroke="rgb(40.000001%, 40.000001%, 40.000001%)" stroke-opacity="1" stroke-miterlimit="10" d="M 119.999206 137.759713 L 117.329666 129.7615 L 122.668746 129.7615 Z M 119.999206 137.759713 " transform="matrix(0.750656, 0, 0, 0.750656, 0, 0)"/>
</svg>
