<?xml version="1.0" encoding="UTF-8"?>
<svg xmlns="http://www.w3.org/2000/svg" xmlns:xlink="http://www.w3.org/1999/xlink" width="300.959991" height="121.919998" viewBox="0 0 300.959991 121.919998">
<path fill-rule="nonzero" fill="rgb(60.000002%, 60.000002%, 60.000002%)" fill-opacity="1" d="M 6.316406 29.101562 L 6.316406 12.335938 L 10.832031 12.335938 L 10.832031 13.632812 L 7.753906 13.632812 L 7.753906 27.820312 L 10.832031 27.820312 L 10.832031 29.101562 Z M 6.316406 29.101562 "/>
<path fill-rule="nonzero" fill="rgb(30.19608%, 60.000002%, 0%)" fill-opacity="1" d="M 20.550781 14.617188 L 20.550781 26.664062 L 19.035156 26.664062 L 19.035156 16.257812 L 16.191406 17.992188 L 15.535156 16.914062 L 19.222656 14.617188 Z M 23.144531 25.789062 L 23.144531 27.023438 L 15.972656 27.023438 L 15.972656 25.789062 Z M 23.144531 25.789062 "/>
<path fill-rule="nonzero" fill="rgb(60.000002%, 60.000002%, 60.000002%)" fill-opacity="1" d="M 30.035156 24.054688 C 30.449219 24.054688 30.792969 24.203125 31.066406 24.492188 C 31.347656 24.773438 31.488281 25.113281 31.488281 25.507812 C 31.488281 25.71875 31.460938 25.9375 31.410156 26.164062 C 31.355469 26.382812 31.269531 26.632812 31.144531 26.914062 L 29.675781 30.257812 L 28.316406 30.257812 L 29.175781 26.695312 C 28.996094 26.570312 28.855469 26.40625 28.753906 26.195312 C 28.648438 25.976562 28.597656 25.75 28.597656 25.507812 C 28.597656 25.101562 28.730469 24.757812 29.003906 24.476562 C 29.285156 24.195312 29.628906 24.054688 30.035156 24.054688 Z M 30.035156 24.054688 "/>
<path fill-rule="nonzero" fill="rgb(30.19608%, 60.000002%, 0%)" fill-opacity="1" d="M 40.304688 14.414062 C 41.085938 14.414062 41.75 14.566406 42.304688 14.867188 C 42.855469 15.171875 43.28125 15.582031 43.585938 16.101562 C 43.886719 16.625 44.039062 17.21875 44.039062 17.882812 C 44.039062 18.457031 43.9375 19.015625 43.742188 19.554688 C 43.542969 20.097656 43.226562 20.671875 42.789062 21.273438 C 42.351562 21.867188 41.777344 22.53125 41.070312 23.257812 C 40.371094 23.976562 39.507812 24.804688 38.476562 25.742188 L 44.320312 25.742188 L 44.132812 27.023438 L 36.757812 27.023438 L 36.757812 25.789062 C 37.695312 24.894531 38.492188 24.113281 39.148438 23.445312 C 39.804688 22.769531 40.34375 22.179688 40.773438 21.679688 C 41.210938 21.171875 41.546875 20.707031 41.789062 20.289062 C 42.027344 19.875 42.195312 19.476562 42.289062 19.101562 C 42.390625 18.726562 42.445312 18.335938 42.445312 17.929688 C 42.445312 17.234375 42.246094 16.6875 41.851562 16.289062 C 41.453125 15.882812 40.914062 15.679688 40.226562 15.679688 C 39.609375 15.679688 39.105469 15.789062 38.710938 16.007812 C 38.324219 16.21875 37.9375 16.550781 37.554688 17.007812 L 36.507812 16.195312 C 36.996094 15.59375 37.542969 15.144531 38.148438 14.851562 C 38.75 14.5625 39.46875 14.414062 40.304688 14.414062 Z M 40.304688 14.414062 "/>
<path fill-rule="nonzero" fill="rgb(60.000002%, 60.000002%, 60.000002%)" fill-opacity="1" d="M 51.664062 24.054688 C 52.078125 24.054688 52.421875 24.203125 52.695312 24.492188 C 52.976562 24.773438 53.117188 25.113281 53.117188 25.507812 C 53.117188 25.71875 53.089844 25.9375 53.039062 26.164062 C 52.984375 26.382812 52.898438 26.632812 52.773438 26.914062 L 51.304688 30.257812 L 49.945312 30.257812 L 50.804688 26.695312 C 50.625 26.570312 50.484375 26.40625 50.382812 26.195312 C 50.277344 25.976562 50.226562 25.75 50.226562 25.507812 C 50.226562 25.101562 50.359375 24.757812 50.632812 24.476562 C 50.914062 24.195312 51.257812 24.054688 51.664062 24.054688 Z M 51.664062 24.054688 "/>
<path fill-rule="nonzero" fill="rgb(30.19608%, 60.000002%, 0%)" fill-opacity="1" d="M 61.914062 14.414062 C 62.695312 14.414062 63.367188 14.554688 63.929688 14.835938 C 64.492188 15.117188 64.929688 15.5 65.242188 15.976562 C 65.554688 16.445312 65.710938 16.960938 65.710938 17.523438 C 65.710938 18.023438 65.601562 18.476562 65.382812 18.882812 C 65.164062 19.289062 64.867188 19.628906 64.492188 19.898438 C 64.125 20.160156 63.726562 20.332031 63.289062 20.414062 C 63.777344 20.445312 64.234375 20.582031 64.664062 20.820312 C 65.089844 21.0625 65.4375 21.398438 65.710938 21.835938 C 65.980469 22.265625 66.117188 22.800781 66.117188 23.445312 C 66.117188 24.164062 65.933594 24.8125 65.570312 25.382812 C 65.214844 25.957031 64.714844 26.410156 64.070312 26.742188 C 63.421875 27.0625 62.667969 27.226562 61.804688 27.226562 C 61.117188 27.226562 60.429688 27.09375 59.742188 26.835938 C 59.054688 26.578125 58.46875 26.15625 57.992188 25.570312 L 59.023438 24.742188 C 59.375 25.160156 59.796875 25.472656 60.289062 25.679688 C 60.777344 25.878906 61.273438 25.976562 61.773438 25.976562 C 62.636719 25.976562 63.308594 25.753906 63.789062 25.304688 C 64.277344 24.847656 64.523438 24.226562 64.523438 23.445312 C 64.523438 22.863281 64.40625 22.398438 64.179688 22.054688 C 63.960938 21.710938 63.65625 21.46875 63.273438 21.320312 C 62.886719 21.175781 62.449219 21.101562 61.960938 21.101562 L 60.914062 21.101562 L 61.101562 19.898438 L 61.835938 19.898438 C 62.242188 19.898438 62.621094 19.828125 62.976562 19.679688 C 63.328125 19.523438 63.621094 19.285156 63.851562 18.960938 C 64.078125 18.628906 64.195312 18.222656 64.195312 17.742188 C 64.195312 17.054688 63.964844 16.535156 63.507812 16.179688 C 63.046875 15.816406 62.496094 15.632812 61.851562 15.632812 C 61.308594 15.632812 60.835938 15.726562 60.429688 15.914062 C 60.03125 16.101562 59.632812 16.390625 59.226562 16.773438 L 58.382812 15.851562 C 58.914062 15.351562 59.476562 14.988281 60.070312 14.757812 C 60.664062 14.53125 61.277344 14.414062 61.914062 14.414062 Z M 61.914062 14.414062 "/>
<path fill-rule="nonzero" fill="rgb(60.000002%, 60.000002%, 60.000002%)" fill-opacity="1" d="M 73.289062 24.054688 C 73.703125 24.054688 74.046875 24.203125 74.320312 24.492188 C 74.601562 24.773438 74.742188 25.113281 74.742188 25.507812 C 74.742188 25.71875 74.714844 25.9375 74.664062 26.164062 C 74.609375 26.382812 74.523438 26.632812 74.398438 26.914062 L 72.929688 30.257812 L 71.570312 30.257812 L 72.429688 26.695312 C 72.25 26.570312 72.109375 26.40625 72.007812 26.195312 C 71.902344 25.976562 71.851562 25.75 71.851562 25.507812 C 71.851562 25.101562 71.984375 24.757812 72.257812 24.476562 C 72.539062 24.195312 72.882812 24.054688 73.289062 24.054688 Z M 73.289062 24.054688 "/>
<path fill-rule="nonzero" fill="rgb(30.19608%, 60.000002%, 0%)" fill-opacity="1" d="M 84.679688 25.632812 C 84.679688 25.34375 84.75 25.078125 84.882812 24.835938 C 85.019531 24.597656 85.207031 24.410156 85.445312 24.273438 C 85.6875 24.128906 85.957031 24.054688 86.257812 24.054688 C 86.5625 24.054688 86.832031 24.128906 87.070312 24.273438 C 87.3125 24.410156 87.503906 24.597656 87.648438 24.835938 C 87.785156 25.078125 87.851562 25.34375 87.851562 25.632812 C 87.851562 25.925781 87.785156 26.195312 87.648438 26.445312 C 87.503906 26.6875 87.3125 26.878906 87.070312 27.023438 C 86.832031 27.15625 86.5625 27.226562 86.257812 27.226562 C 85.957031 27.226562 85.6875 27.15625 85.445312 27.023438 C 85.207031 26.878906 85.019531 26.6875 84.882812 26.445312 C 84.75 26.195312 84.679688 25.925781 84.679688 25.632812 Z M 91.164062 25.632812 C 91.164062 25.34375 91.230469 25.078125 91.367188 24.835938 C 91.5 24.597656 91.6875 24.410156 91.929688 24.273438 C 92.167969 24.128906 92.4375 24.054688 92.742188 24.054688 C 93.042969 24.054688 93.3125 24.128906 93.554688 24.273438 C 93.792969 24.410156 93.980469 24.597656 94.117188 24.835938 C 94.261719 25.078125 94.335938 25.34375 94.335938 25.632812 C 94.335938 25.925781 94.261719 26.195312 94.117188 26.445312 C 93.980469 26.6875 93.792969 26.878906 93.554688 27.023438 C 93.3125 27.15625 93.042969 27.226562 92.742188 27.226562 C 92.4375 27.226562 92.167969 27.15625 91.929688 27.023438 C 91.6875 26.878906 91.5 26.6875 91.367188 26.445312 C 91.230469 26.195312 91.164062 25.925781 91.164062 25.632812 Z M 91.164062 25.632812 "/>
<path fill-rule="nonzero" fill="rgb(60.000002%, 60.000002%, 60.000002%)" fill-opacity="1" d="M 107.824219 12.335938 L 107.824219 29.101562 L 103.308594 29.101562 L 103.308594 27.820312 L 106.386719 27.820312 L 106.386719 13.632812 L 103.308594 13.632812 L 103.308594 12.335938 Z M 107.824219 12.335938 "/>
<path fill-rule="nonzero" fill="rgb(60.000002%, 60.000002%, 60.000002%)" fill-opacity="1" d="M 6.316406 50.117188 L 6.316406 33.351562 L 10.832031 33.351562 L 10.832031 34.648438 L 7.753906 34.648438 L 7.753906 48.835938 L 10.832031 48.835938 L 10.832031 50.117188 Z M 6.316406 50.117188 "/>
<path fill-rule="nonzero" fill="rgb(100%, 50.196081%, 0%)" fill-opacity="1" d="M 22.425781 45.960938 C 22.425781 46.347656 22.488281 46.628906 22.613281 46.804688 C 22.738281 46.972656 22.929688 47.097656 23.191406 47.179688 L 22.832031 48.242188 C 22.414062 48.1875 22.054688 48.058594 21.753906 47.851562 C 21.449219 47.644531 21.226562 47.332031 21.082031 46.914062 C 20.738281 47.351562 20.308594 47.6875 19.800781 47.914062 C 19.289062 48.132812 18.726562 48.242188 18.113281 48.242188 C 17.164062 48.242188 16.414062 47.976562 15.863281 47.445312 C 15.320312 46.914062 15.050781 46.207031 15.050781 45.320312 C 15.050781 44.34375 15.429688 43.59375 16.191406 43.070312 C 16.949219 42.550781 18.054688 42.289062 19.503906 42.289062 L 20.894531 42.289062 L 20.894531 41.492188 C 20.894531 40.804688 20.691406 40.320312 20.285156 40.039062 C 19.886719 39.75 19.335938 39.601562 18.628906 39.601562 C 18.316406 39.601562 17.949219 39.644531 17.535156 39.726562 C 17.117188 39.800781 16.660156 39.925781 16.160156 40.101562 L 15.769531 38.945312 C 16.351562 38.738281 16.898438 38.585938 17.410156 38.492188 C 17.917969 38.398438 18.402344 38.351562 18.863281 38.351562 C 20.050781 38.351562 20.941406 38.628906 21.535156 39.179688 C 22.128906 39.734375 22.425781 40.476562 22.425781 41.414062 Z M 18.503906 47.085938 C 18.972656 47.085938 19.417969 46.972656 19.847656 46.742188 C 20.273438 46.503906 20.621094 46.175781 20.894531 45.757812 L 20.894531 43.304688 L 19.535156 43.304688 C 18.480469 43.304688 17.742188 43.488281 17.316406 43.851562 C 16.886719 44.21875 16.675781 44.703125 16.675781 45.304688 C 16.675781 45.890625 16.824219 46.332031 17.128906 46.632812 C 17.429688 46.9375 17.886719 47.085938 18.503906 47.085938 Z M 18.503906 47.085938 "/>
<path fill-rule="nonzero" fill="rgb(60.000002%, 60.000002%, 60.000002%)" fill-opacity="1" d="M 30.035156 45.070312 C 30.449219 45.070312 30.792969 45.21875 31.066406 45.507812 C 31.347656 45.789062 31.488281 46.128906 31.488281 46.523438 C 31.488281 46.734375 31.460938 46.953125 31.410156 47.179688 C 31.355469 47.398438 31.269531 47.648438 31.144531 47.929688 L 29.675781 51.273438 L 28.316406 51.273438 L 29.175781 47.710938 C 28.996094 47.585938 28.855469 47.421875 28.753906 47.210938 C 28.648438 46.992188 28.597656 46.765625 28.597656 46.523438 C 28.597656 46.117188 28.730469 45.773438 29.003906 45.492188 C 29.285156 45.210938 29.628906 45.070312 30.035156 45.070312 Z M 30.035156 45.070312 "/>
<path fill-rule="nonzero" fill="rgb(100%, 50.196081%, 0%)" fill-opacity="1" d="M 38.773438 39.789062 C 39.117188 39.332031 39.511719 38.976562 39.960938 38.726562 C 40.417969 38.476562 40.921875 38.351562 41.476562 38.351562 C 42.320312 38.351562 43 38.5625 43.523438 38.976562 C 44.042969 39.382812 44.421875 39.957031 44.664062 40.695312 C 44.902344 41.4375 45.023438 42.300781 45.023438 43.289062 C 45.023438 44.25 44.875 45.101562 44.585938 45.851562 C 44.304688 46.59375 43.882812 47.175781 43.320312 47.601562 C 42.765625 48.03125 42.085938 48.242188 41.273438 48.242188 C 40.167969 48.242188 39.308594 47.847656 38.695312 47.054688 L 38.585938 48.039062 L 37.257812 48.039062 L 37.257812 34.726562 L 38.773438 34.539062 Z M 40.914062 47.023438 C 41.703125 47.023438 42.3125 46.71875 42.742188 46.101562 C 43.167969 45.488281 43.382812 44.550781 43.382812 43.289062 C 43.382812 42.457031 43.296875 41.769531 43.132812 41.226562 C 42.964844 40.675781 42.714844 40.265625 42.382812 39.992188 C 42.046875 39.710938 41.636719 39.570312 41.148438 39.570312 C 40.617188 39.570312 40.152344 39.734375 39.757812 40.054688 C 39.359375 40.367188 39.03125 40.71875 38.773438 41.101562 L 38.773438 45.789062 C 39.011719 46.164062 39.320312 46.46875 39.695312 46.695312 C 40.070312 46.914062 40.476562 47.023438 40.914062 47.023438 Z M 40.914062 47.023438 "/>
<path fill-rule="nonzero" fill="rgb(60.000002%, 60.000002%, 60.000002%)" fill-opacity="1" d="M 51.664062 45.070312 C 52.078125 45.070312 52.421875 45.21875 52.695312 45.507812 C 52.976562 45.789062 53.117188 46.128906 53.117188 46.523438 C 53.117188 46.734375 53.089844 46.953125 53.039062 47.179688 C 52.984375 47.398438 52.898438 47.648438 52.773438 47.929688 L 51.304688 51.273438 L 49.945312 51.273438 L 50.804688 47.710938 C 50.625 47.585938 50.484375 47.421875 50.382812 47.210938 C 50.277344 46.992188 50.226562 46.765625 50.226562 46.523438 C 50.226562 46.117188 50.359375 45.773438 50.632812 45.492188 C 50.914062 45.210938 51.257812 45.070312 51.664062 45.070312 Z M 51.664062 45.070312 "/>
<path fill-rule="nonzero" fill="rgb(100%, 50.196081%, 0%)" fill-opacity="1" d="M 63.164062 46.945312 C 63.640625 46.945312 64.085938 46.867188 64.492188 46.710938 C 64.90625 46.554688 65.289062 46.359375 65.632812 46.117188 L 66.382812 47.101562 C 65.964844 47.457031 65.464844 47.738281 64.882812 47.945312 C 64.296875 48.140625 63.726562 48.242188 63.164062 48.242188 C 62.226562 48.242188 61.421875 48.039062 60.757812 47.632812 C 60.089844 47.226562 59.585938 46.660156 59.242188 45.929688 C 58.898438 45.191406 58.726562 44.328125 58.726562 43.335938 C 58.726562 42.390625 58.898438 41.539062 59.242188 40.789062 C 59.59375 40.03125 60.101562 39.4375 60.757812 39.007812 C 61.421875 38.570312 62.230469 38.351562 63.179688 38.351562 C 63.792969 38.351562 64.367188 38.445312 64.898438 38.632812 C 65.429688 38.8125 65.914062 39.085938 66.351562 39.460938 L 65.617188 40.460938 C 65.210938 40.179688 64.804688 39.972656 64.398438 39.835938 C 64 39.691406 63.589844 39.617188 63.164062 39.617188 C 62.351562 39.617188 61.679688 39.925781 61.148438 40.539062 C 60.617188 41.15625 60.351562 42.085938 60.351562 43.335938 C 60.351562 44.179688 60.46875 44.867188 60.710938 45.398438 C 60.960938 45.929688 61.292969 46.320312 61.710938 46.570312 C 62.136719 46.820312 62.621094 46.945312 63.164062 46.945312 Z M 63.164062 46.945312 "/>
<path fill-rule="nonzero" fill="rgb(60.000002%, 60.000002%, 60.000002%)" fill-opacity="1" d="M 73.289062 45.070312 C 73.703125 45.070312 74.046875 45.21875 74.320312 45.507812 C 74.601562 45.789062 74.742188 46.128906 74.742188 46.523438 C 74.742188 46.734375 74.714844 46.953125 74.664062 47.179688 C 74.609375 47.398438 74.523438 47.648438 74.398438 47.929688 L 72.929688 51.273438 L 71.570312 51.273438 L 72.429688 47.710938 C 72.25 47.585938 72.109375 47.421875 72.007812 47.210938 C 71.902344 46.992188 71.851562 46.765625 71.851562 46.523438 C 71.851562 46.117188 71.984375 45.773438 72.257812 45.492188 C 72.539062 45.210938 72.882812 45.070312 73.289062 45.070312 Z M 73.289062 45.070312 "/>
<path fill-rule="nonzero" fill="rgb(100%, 50.196081%, 0%)" fill-opacity="1" d="M 84.679688 46.648438 C 84.679688 46.359375 84.75 46.09375 84.882812 45.851562 C 85.019531 45.613281 85.207031 45.425781 85.445312 45.289062 C 85.6875 45.144531 85.957031 45.070312 86.257812 45.070312 C 86.5625 45.070312 86.832031 45.144531 87.070312 45.289062 C 87.3125 45.425781 87.503906 45.613281 87.648438 45.851562 C 87.785156 46.09375 87.851562 46.359375 87.851562 46.648438 C 87.851562 46.941406 87.785156 47.210938 87.648438 47.460938 C 87.503906 47.703125 87.3125 47.894531 87.070312 48.039062 C 86.832031 48.171875 86.5625 48.242188 86.257812 48.242188 C 85.957031 48.242188 85.6875 48.171875 85.445312 48.039062 C 85.207031 47.894531 85.019531 47.703125 84.882812 47.460938 C 84.75 47.210938 84.679688 46.941406 84.679688 46.648438 Z M 91.164062 46.648438 C 91.164062 46.359375 91.230469 46.09375 91.367188 45.851562 C 91.5 45.613281 91.6875 45.425781 91.929688 45.289062 C 92.167969 45.144531 92.4375 45.070312 92.742188 45.070312 C 93.042969 45.070312 93.3125 45.144531 93.554688 45.289062 C 93.792969 45.425781 93.980469 45.613281 94.117188 45.851562 C 94.261719 46.09375 94.335938 46.359375 94.335938 46.648438 C 94.335938 46.941406 94.261719 47.210938 94.117188 47.460938 C 93.980469 47.703125 93.792969 47.894531 93.554688 48.039062 C 93.3125 48.171875 93.042969 48.242188 92.742188 48.242188 C 92.4375 48.242188 92.167969 48.171875 91.929688 48.039062 C 91.6875 47.894531 91.5 47.703125 91.367188 47.460938 C 91.230469 47.210938 91.164062 46.941406 91.164062 46.648438 Z M 91.164062 46.648438 "/>
<path fill-rule="nonzero" fill="rgb(60.000002%, 60.000002%, 60.000002%)" fill-opacity="1" d="M 107.824219 33.351562 L 107.824219 50.117188 L 103.308594 50.117188 L 103.308594 48.835938 L 106.386719 48.835938 L 106.386719 34.648438 L 103.308594 34.648438 L 103.308594 33.351562 Z M 107.824219 33.351562 "/>
<path fill-rule="nonzero" fill="rgb(60.000002%, 60.000002%, 60.000002%)" fill-opacity="1" d="M 6.316406 72.636719 L 6.316406 55.871094 L 10.832031 55.871094 L 10.832031 57.167969 L 7.753906 57.167969 L 7.753906 71.355469 L 10.832031 71.355469 L 10.832031 72.636719 Z M 6.316406 72.636719 "/>
<path fill-rule="nonzero" fill="rgb(0%, 49.803922%, 100%)" fill-opacity="1" d="M 18.410156 60.871094 C 18.941406 60.871094 19.402344 60.964844 19.800781 61.152344 C 20.195312 61.332031 20.527344 61.636719 20.800781 62.074219 C 21.070312 62.503906 21.269531 63.097656 21.394531 63.855469 L 21.894531 61.074219 L 23.269531 61.074219 L 22.347656 66.121094 L 22.816406 68.589844 C 22.867188 68.839844 22.957031 69.035156 23.082031 69.167969 C 23.207031 69.304688 23.382812 69.417969 23.613281 69.511719 L 23.082031 70.777344 C 22.632812 70.703125 22.261719 70.535156 21.972656 70.261719 C 21.691406 69.980469 21.507812 69.585938 21.425781 69.074219 L 21.269531 68.058594 C 21.101562 68.539062 20.886719 68.988281 20.628906 69.402344 C 20.378906 69.808594 20.066406 70.136719 19.691406 70.386719 C 19.316406 70.636719 18.855469 70.761719 18.316406 70.761719 C 17.230469 70.761719 16.382812 70.363281 15.769531 69.558594 C 15.164062 68.757812 14.863281 67.539062 14.863281 65.902344 C 14.863281 64.925781 14.992188 64.058594 15.253906 63.308594 C 15.523438 62.550781 15.917969 61.957031 16.441406 61.527344 C 16.960938 61.089844 17.617188 60.871094 18.410156 60.871094 Z M 18.535156 62.089844 C 17.878906 62.089844 17.371094 62.417969 17.019531 63.074219 C 16.675781 63.722656 16.503906 64.664062 16.503906 65.902344 C 16.503906 67.152344 16.664062 68.074219 16.988281 68.667969 C 17.320312 69.253906 17.808594 69.542969 18.457031 69.542969 C 18.675781 69.542969 18.898438 69.496094 19.128906 69.402344 C 19.367188 69.300781 19.597656 69.117188 19.816406 68.855469 C 20.042969 68.585938 20.261719 68.199219 20.472656 67.699219 C 20.679688 67.199219 20.855469 66.550781 21.003906 65.746094 C 20.835938 64.777344 20.632812 64.027344 20.394531 63.496094 C 20.164062 62.964844 19.894531 62.601562 19.582031 62.402344 C 19.277344 62.195312 18.929688 62.089844 18.535156 62.089844 Z M 18.535156 62.089844 "/>
<path fill-rule="nonzero" fill="rgb(60.000002%, 60.000002%, 60.000002%)" fill-opacity="1" d="M 30.035156 67.589844 C 30.449219 67.589844 30.792969 67.738281 31.066406 68.027344 C 31.347656 68.308594 31.488281 68.648438 31.488281 69.042969 C 31.488281 69.253906 31.460938 69.472656 31.410156 69.699219 C 31.355469 69.917969 31.269531 70.167969 31.144531 70.449219 L 29.675781 73.792969 L 28.316406 73.792969 L 29.175781 70.230469 C 28.996094 70.105469 28.855469 69.941406 28.753906 69.730469 C 28.648438 69.511719 28.597656 69.285156 28.597656 69.042969 C 28.597656 68.636719 28.730469 68.292969 29.003906 68.011719 C 29.285156 67.730469 29.628906 67.589844 30.035156 67.589844 Z M 30.035156 67.589844 "/>
<path fill-rule="nonzero" fill="rgb(0%, 49.803922%, 100%)" fill-opacity="1" d="M 40.695312 57.074219 C 41.351562 57.074219 41.949219 57.199219 42.492188 57.449219 C 43.042969 57.699219 43.484375 58.066406 43.820312 58.542969 C 44.152344 59.023438 44.320312 59.597656 44.320312 60.261719 C 44.320312 60.898438 44.195312 61.429688 43.945312 61.855469 C 43.703125 62.273438 43.375 62.601562 42.960938 62.839844 C 42.554688 63.070312 42.101562 63.222656 41.601562 63.292969 C 42.027344 63.335938 42.460938 63.425781 42.898438 63.558594 C 43.335938 63.683594 43.734375 63.882812 44.101562 64.152344 C 44.464844 64.414062 44.757812 64.769531 44.976562 65.214844 C 45.195312 65.664062 45.304688 66.230469 45.304688 66.917969 C 45.304688 67.710938 45.109375 68.394531 44.726562 68.964844 C 44.351562 69.539062 43.859375 69.980469 43.257812 70.292969 C 42.652344 70.605469 42 70.761719 41.304688 70.761719 C 40.742188 70.761719 40.195312 70.65625 39.664062 70.449219 C 39.140625 70.230469 38.65625 69.910156 38.210938 69.480469 L 38.460938 68.449219 C 38.78125 68.824219 39.164062 69.101562 39.601562 69.277344 C 40.039062 69.445312 40.558594 69.527344 41.164062 69.527344 C 41.632812 69.527344 42.0625 69.429688 42.460938 69.230469 C 42.855469 69.035156 43.167969 68.742188 43.398438 68.355469 C 43.636719 67.960938 43.757812 67.480469 43.757812 66.917969 C 43.757812 65.949219 43.476562 65.214844 42.914062 64.714844 C 42.359375 64.214844 41.5625 63.964844 40.523438 63.964844 L 39.539062 63.964844 L 39.710938 62.808594 L 40.664062 62.808594 C 41.078125 62.808594 41.453125 62.726562 41.789062 62.558594 C 42.132812 62.394531 42.402344 62.132812 42.601562 61.777344 C 42.808594 61.425781 42.914062 60.964844 42.914062 60.402344 C 42.914062 59.664062 42.703125 59.128906 42.289062 58.792969 C 41.871094 58.449219 41.351562 58.277344 40.726562 58.277344 C 40.027344 58.277344 39.496094 58.492188 39.132812 58.917969 C 38.777344 59.335938 38.601562 59.980469 38.601562 60.855469 L 38.601562 74.183594 L 37.085938 74.386719 L 37.085938 60.824219 C 37.085938 60.042969 37.230469 59.378906 37.523438 58.824219 C 37.8125 58.261719 38.226562 57.832031 38.757812 57.527344 C 39.296875 57.226562 39.945312 57.074219 40.695312 57.074219 Z M 40.695312 57.074219 "/>
<path fill-rule="nonzero" fill="rgb(60.000002%, 60.000002%, 60.000002%)" fill-opacity="1" d="M 51.664062 67.589844 C 52.078125 67.589844 52.421875 67.738281 52.695312 68.027344 C 52.976562 68.308594 53.117188 68.648438 53.117188 69.042969 C 53.117188 69.253906 53.089844 69.472656 53.039062 69.699219 C 52.984375 69.917969 52.898438 70.167969 52.773438 70.449219 L 51.304688 73.792969 L 49.945312 73.792969 L 50.804688 70.230469 C 50.625 70.105469 50.484375 69.941406 50.382812 69.730469 C 50.277344 69.511719 50.226562 69.285156 50.226562 69.042969 C 50.226562 68.636719 50.359375 68.292969 50.632812 68.011719 C 50.914062 67.730469 51.257812 67.589844 51.664062 67.589844 Z M 51.664062 67.589844 "/>
<path fill-rule="nonzero" fill="rgb(0%, 49.803922%, 100%)" fill-opacity="1" d="M 65.570312 60.855469 L 67.101562 61.199219 L 63.210938 70.246094 C 62.949219 70.839844 62.796875 71.441406 62.757812 72.058594 C 62.726562 72.671875 62.804688 73.378906 62.992188 74.183594 L 61.773438 74.386719 C 61.574219 74 61.4375 73.566406 61.367188 73.089844 C 61.304688 72.609375 61.296875 72.121094 61.351562 71.621094 C 61.402344 71.128906 61.515625 70.660156 61.695312 70.214844 C 61.496094 69.371094 61.25 68.507812 60.960938 67.621094 C 60.679688 66.738281 60.367188 65.894531 60.023438 65.089844 C 59.679688 64.277344 59.320312 63.554688 58.945312 62.917969 C 58.578125 62.273438 58.214844 61.777344 57.851562 61.433594 L 59.382812 60.886719 C 59.796875 61.367188 60.199219 61.996094 60.585938 62.777344 C 60.980469 63.558594 61.34375 64.445312 61.679688 65.433594 C 62.023438 66.425781 62.3125 67.488281 62.554688 68.621094 Z M 65.570312 60.855469 "/>
<path fill-rule="nonzero" fill="rgb(60.000002%, 60.000002%, 60.000002%)" fill-opacity="1" d="M 73.289062 67.589844 C 73.703125 67.589844 74.046875 67.738281 74.320312 68.027344 C 74.601562 68.308594 74.742188 68.648438 74.742188 69.042969 C 74.742188 69.253906 74.714844 69.472656 74.664062 69.699219 C 74.609375 69.917969 74.523438 70.167969 74.398438 70.449219 L 72.929688 73.792969 L 71.570312 73.792969 L 72.429688 70.230469 C 72.25 70.105469 72.109375 69.941406 72.007812 69.730469 C 71.902344 69.511719 71.851562 69.285156 71.851562 69.042969 C 71.851562 68.636719 71.984375 68.292969 72.257812 68.011719 C 72.539062 67.730469 72.882812 67.589844 73.289062 67.589844 Z M 73.289062 67.589844 "/>
<path fill-rule="nonzero" fill="rgb(0%, 49.803922%, 100%)" fill-opacity="1" d="M 84.679688 69.167969 C 84.679688 68.878906 84.75 68.613281 84.882812 68.371094 C 85.019531 68.132812 85.207031 67.945312 85.445312 67.808594 C 85.6875 67.664062 85.957031 67.589844 86.257812 67.589844 C 86.5625 67.589844 86.832031 67.664062 87.070312 67.808594 C 87.3125 67.945312 87.503906 68.132812 87.648438 68.371094 C 87.785156 68.613281 87.851562 68.878906 87.851562 69.167969 C 87.851562 69.460938 87.785156 69.730469 87.648438 69.980469 C 87.503906 70.222656 87.3125 70.414062 87.070312 70.558594 C 86.832031 70.691406 86.5625 70.761719 86.257812 70.761719 C 85.957031 70.761719 85.6875 70.691406 85.445312 70.558594 C 85.207031 70.414062 85.019531 70.222656 84.882812 69.980469 C 84.75 69.730469 84.679688 69.460938 84.679688 69.167969 Z M 91.164062 69.167969 C 91.164062 68.878906 91.230469 68.613281 91.367188 68.371094 C 91.5 68.132812 91.6875 67.945312 91.929688 67.808594 C 92.167969 67.664062 92.4375 67.589844 92.742188 67.589844 C 93.042969 67.589844 93.3125 67.664062 93.554688 67.808594 C 93.792969 67.945312 93.980469 68.132812 94.117188 68.371094 C 94.261719 68.613281 94.335938 68.878906 94.335938 69.167969 C 94.335938 69.460938 94.261719 69.730469 94.117188 69.980469 C 93.980469 70.222656 93.792969 70.414062 93.554688 70.558594 C 93.3125 70.691406 93.042969 70.761719 92.742188 70.761719 C 92.4375 70.761719 92.167969 70.691406 91.929688 70.558594 C 91.6875 70.414062 91.5 70.222656 91.367188 69.980469 C 91.230469 69.730469 91.164062 69.460938 91.164062 69.167969 Z M 91.164062 69.167969 "/>
<path fill-rule="nonzero" fill="rgb(60.000002%, 60.000002%, 60.000002%)" fill-opacity="1" d="M 107.824219 55.871094 L 107.824219 72.636719 L 103.308594 72.636719 L 103.308594 71.355469 L 106.386719 71.355469 L 106.386719 57.167969 L 103.308594 57.167969 L 103.308594 55.871094 Z M 107.824219 55.871094 "/>
<path fill-rule="nonzero" fill="rgb(60.000002%, 60.000002%, 60.000002%)" fill-opacity="1" d="M 6.316406 116.171875 L 6.316406 99.40625 L 10.832031 99.40625 L 10.832031 100.703125 L 7.753906 100.703125 L 7.753906 114.890625 L 10.832031 114.890625 L 10.832031 116.171875 Z M 6.316406 116.171875 "/>
<path fill-rule="nonzero" fill="rgb(30.19608%, 60.000002%, 0%)" fill-opacity="1" d="M 19.222656 101.484375 C 20.554688 101.484375 21.566406 102.042969 22.253906 103.15625 C 22.941406 104.261719 23.285156 105.839844 23.285156 107.890625 C 23.285156 109.953125 22.941406 111.539062 22.253906 112.640625 C 21.566406 113.746094 20.554688 114.296875 19.222656 114.296875 C 17.886719 114.296875 16.878906 113.746094 16.191406 112.640625 C 15.503906 111.539062 15.160156 109.953125 15.160156 107.890625 C 15.160156 105.839844 15.503906 104.261719 16.191406 103.15625 C 16.878906 102.042969 17.886719 101.484375 19.222656 101.484375 Z M 19.222656 102.703125 C 18.460938 102.703125 17.863281 103.109375 17.425781 103.921875 C 16.988281 104.726562 16.769531 106.046875 16.769531 107.890625 C 16.769531 108.820312 16.816406 109.617188 16.910156 110.28125 C 17.003906 110.9375 17.148438 111.476562 17.347656 111.890625 C 17.554688 112.296875 17.808594 112.601562 18.113281 112.796875 C 18.425781 112.984375 18.792969 113.078125 19.222656 113.078125 C 19.730469 113.078125 20.167969 112.902344 20.535156 112.546875 C 20.910156 112.195312 21.195312 111.636719 21.394531 110.875 C 21.589844 110.105469 21.691406 109.109375 21.691406 107.890625 C 21.691406 106.652344 21.601562 105.652344 21.425781 104.890625 C 21.257812 104.132812 20.992188 103.578125 20.628906 103.234375 C 20.261719 102.882812 19.792969 102.703125 19.222656 102.703125 Z M 21.050781 103.15625 L 21.441406 104.46875 L 17.503906 112.46875 L 16.941406 111.40625 Z M 21.050781 103.15625 "/>
<path fill-rule="nonzero" fill="rgb(60.000002%, 60.000002%, 60.000002%)" fill-opacity="1" d="M 30.035156 111.125 C 30.449219 111.125 30.792969 111.273438 31.066406 111.5625 C 31.347656 111.84375 31.488281 112.183594 31.488281 112.578125 C 31.488281 112.789062 31.460938 113.007812 31.410156 113.234375 C 31.355469 113.453125 31.269531 113.703125 31.144531 113.984375 L 29.675781 117.328125 L 28.316406 117.328125 L 29.175781 113.765625 C 28.996094 113.640625 28.855469 113.476562 28.753906 113.265625 C 28.648438 113.046875 28.597656 112.820312 28.597656 112.578125 C 28.597656 112.171875 28.730469 111.828125 29.003906 111.546875 C 29.285156 111.265625 29.628906 111.125 30.035156 111.125 Z M 30.035156 111.125 "/>
<path fill-rule="nonzero" fill="rgb(0%, 49.803922%, 100%)" fill-opacity="1" d="M 40.304688 101.484375 C 41.085938 101.484375 41.75 101.636719 42.304688 101.9375 C 42.855469 102.242188 43.28125 102.652344 43.585938 103.171875 C 43.886719 103.695312 44.039062 104.289062 44.039062 104.953125 C 44.039062 105.527344 43.9375 106.085938 43.742188 106.625 C 43.542969 107.167969 43.226562 107.742188 42.789062 108.34375 C 42.351562 108.9375 41.777344 109.601562 41.070312 110.328125 C 40.371094 111.046875 39.507812 111.875 38.476562 112.8125 L 44.320312 112.8125 L 44.132812 114.09375 L 36.757812 114.09375 L 36.757812 112.859375 C 37.695312 111.964844 38.492188 111.183594 39.148438 110.515625 C 39.804688 109.839844 40.34375 109.25 40.773438 108.75 C 41.210938 108.242188 41.546875 107.777344 41.789062 107.359375 C 42.027344 106.945312 42.195312 106.546875 42.289062 106.171875 C 42.390625 105.796875 42.445312 105.40625 42.445312 105 C 42.445312 104.304688 42.246094 103.757812 41.851562 103.359375 C 41.453125 102.953125 40.914062 102.75 40.226562 102.75 C 39.609375 102.75 39.105469 102.859375 38.710938 103.078125 C 38.324219 103.289062 37.9375 103.621094 37.554688 104.078125 L 36.507812 103.265625 C 36.996094 102.664062 37.542969 102.214844 38.148438 101.921875 C 38.75 101.632812 39.46875 101.484375 40.304688 101.484375 Z M 40.304688 101.484375 "/>
<path fill-rule="nonzero" fill="rgb(60.000002%, 60.000002%, 60.000002%)" fill-opacity="1" d="M 51.664062 111.125 C 52.078125 111.125 52.421875 111.273438 52.695312 111.5625 C 52.976562 111.84375 53.117188 112.183594 53.117188 112.578125 C 53.117188 112.789062 53.089844 113.007812 53.039062 113.234375 C 52.984375 113.453125 52.898438 113.703125 52.773438 113.984375 L 51.304688 117.328125 L 49.945312 117.328125 L 50.804688 113.765625 C 50.625 113.640625 50.484375 113.476562 50.382812 113.265625 C 50.277344 113.046875 50.226562 112.820312 50.226562 112.578125 C 50.226562 112.171875 50.359375 111.828125 50.632812 111.546875 C 50.914062 111.265625 51.257812 111.125 51.664062 111.125 Z M 51.664062 111.125 "/>
<path fill-rule="nonzero" fill="rgb(100%, 50.196081%, 0%)" fill-opacity="1" d="M 63.804688 101.6875 L 63.804688 113.734375 L 62.289062 113.734375 L 62.289062 103.328125 L 59.445312 105.0625 L 58.789062 103.984375 L 62.476562 101.6875 Z M 66.398438 112.859375 L 66.398438 114.09375 L 59.226562 114.09375 L 59.226562 112.859375 Z M 66.398438 112.859375 "/>
<path fill-rule="nonzero" fill="rgb(60.000002%, 60.000002%, 60.000002%)" fill-opacity="1" d="M 73.289062 111.125 C 73.703125 111.125 74.046875 111.273438 74.320312 111.5625 C 74.601562 111.84375 74.742188 112.183594 74.742188 112.578125 C 74.742188 112.789062 74.714844 113.007812 74.664062 113.234375 C 74.609375 113.453125 74.523438 113.703125 74.398438 113.984375 L 72.929688 117.328125 L 71.570312 117.328125 L 72.429688 113.765625 C 72.25 113.640625 72.109375 113.476562 72.007812 113.265625 C 71.902344 113.046875 71.851562 112.820312 71.851562 112.578125 C 71.851562 112.171875 71.984375 111.828125 72.257812 111.546875 C 72.539062 111.265625 72.882812 111.125 73.289062 111.125 Z M 73.289062 111.125 "/>
<path fill-rule="nonzero" fill="rgb(60.000002%, 60.000002%, 60.000002%)" fill-opacity="1" d="M 84.675781 112.703125 C 84.675781 112.414062 84.746094 112.148438 84.878906 111.90625 C 85.015625 111.667969 85.203125 111.480469 85.441406 111.34375 C 85.683594 111.199219 85.953125 111.125 86.253906 111.125 C 86.558594 111.125 86.828125 111.199219 87.066406 111.34375 C 87.308594 111.480469 87.5 111.667969 87.644531 111.90625 C 87.78125 112.148438 87.847656 112.414062 87.847656 112.703125 C 87.847656 112.996094 87.78125 113.265625 87.644531 113.515625 C 87.5 113.757812 87.308594 113.949219 87.066406 114.09375 C 86.828125 114.226562 86.558594 114.296875 86.253906 114.296875 C 85.953125 114.296875 85.683594 114.226562 85.441406 114.09375 C 85.203125 113.949219 85.015625 113.757812 84.878906 113.515625 C 84.746094 113.265625 84.675781 112.996094 84.675781 112.703125 Z M 91.160156 112.703125 C 91.160156 112.414062 91.226562 112.148438 91.363281 111.90625 C 91.496094 111.667969 91.683594 111.480469 91.925781 111.34375 C 92.164062 111.199219 92.433594 111.125 92.738281 111.125 C 93.039062 111.125 93.308594 111.199219 93.550781 111.34375 C 93.789062 111.480469 93.976562 111.667969 94.113281 111.90625 C 94.257812 112.148438 94.332031 112.414062 94.332031 112.703125 C 94.332031 112.996094 94.257812 113.265625 94.113281 113.515625 C 93.976562 113.757812 93.789062 113.949219 93.550781 114.09375 C 93.308594 114.226562 93.039062 114.296875 92.738281 114.296875 C 92.433594 114.296875 92.164062 114.226562 91.925781 114.09375 C 91.683594 113.949219 91.496094 113.757812 91.363281 113.515625 C 91.226562 113.265625 91.160156 112.996094 91.160156 112.703125 Z M 91.160156 112.703125 "/>
<path fill-rule="nonzero" fill="rgb(60.000002%, 60.000002%, 60.000002%)" fill-opacity="1" d="M 107.824219 99.40625 L 107.824219 116.171875 L 103.308594 116.171875 L 103.308594 114.890625 L 106.386719 114.890625 L 106.386719 100.703125 L 103.308594 100.703125 L 103.308594 99.40625 Z M 107.824219 99.40625 "/>
<path fill="none" stroke-width="2" stroke-linecap="butt" stroke-linejoin="miter" stroke="rgb(40.000001%, 40.000001%, 40.000001%)" stroke-opacity="1" stroke-miterlimit="10" d="M 180.001523 79.720239 L 209.758056 79.720239 " transform="matrix(0.750623, 0, 0, 0.750623, 0, 0)"/>
<path fill-rule="nonzero" fill="rgb(40.000001%, 40.000001%, 40.000001%)" fill-opacity="1" stroke-width="2" stroke-linecap="butt" stroke-linejoin="miter" stroke="rgb(40.000001%, 40.000001%, 40.000001%)" stroke-opacity="1" stroke-miterlimit="10" d="M 217.761824 79.720239 L 209.758056 82.389896 L 209.758056 77.050581 Z M 217.761824 79.720239 " transform="matrix(0.750623, 0, 0, 0.750623, 0, 0)"/>
<path fill-rule="nonzero" fill="rgb(60.000002%, 60.000002%, 60.000002%)" fill-opacity="1" d="M 186.464844 68.132812 L 186.464844 51.367188 L 190.980469 51.367188 L 190.980469 52.664062 L 187.902344 52.664062 L 187.902344 66.851562 L 190.980469 66.851562 L 190.980469 68.132812 Z M 186.464844 68.132812 "/>
<path fill-rule="nonzero" fill="rgb(30.19608%, 60.000002%, 0%)" fill-opacity="1" d="M 199.371094 53.445312 C 200.703125 53.445312 201.714844 54.003906 202.402344 55.117188 C 203.089844 56.222656 203.433594 57.800781 203.433594 59.851562 C 203.433594 61.914062 203.089844 63.5 202.402344 64.601562 C 201.714844 65.707031 200.703125 66.257812 199.371094 66.257812 C 198.035156 66.257812 197.027344 65.707031 196.339844 64.601562 C 195.652344 63.5 195.308594 61.914062 195.308594 59.851562 C 195.308594 57.800781 195.652344 56.222656 196.339844 55.117188 C 197.027344 54.003906 198.035156 53.445312 199.371094 53.445312 Z M 199.371094 54.664062 C 198.609375 54.664062 198.011719 55.070312 197.574219 55.882812 C 197.136719 56.6875 196.917969 58.007812 196.917969 59.851562 C 196.917969 60.78125 196.964844 61.578125 197.058594 62.242188 C 197.152344 62.898438 197.296875 63.4375 197.496094 63.851562 C 197.703125 64.257812 197.957031 64.5625 198.261719 64.757812 C 198.574219 64.945312 198.941406 65.039062 199.371094 65.039062 C 199.878906 65.039062 200.316406 64.863281 200.683594 64.507812 C 201.058594 64.15625 201.34375 63.597656 201.542969 62.835938 C 201.738281 62.066406 201.839844 61.070312 201.839844 59.851562 C 201.839844 58.613281 201.75 57.613281 201.574219 56.851562 C 201.40625 56.09375 201.140625 55.539062 200.777344 55.195312 C 200.410156 54.84375 199.941406 54.664062 199.371094 54.664062 Z M 201.199219 55.117188 L 201.589844 56.429688 L 197.652344 64.429688 L 197.089844 63.367188 Z M 201.199219 55.117188 "/>
<path fill-rule="nonzero" fill="rgb(60.000002%, 60.000002%, 60.000002%)" fill-opacity="1" d="M 210.1875 63.085938 C 210.601562 63.085938 210.945312 63.234375 211.21875 63.523438 C 211.5 63.804688 211.640625 64.144531 211.640625 64.539062 C 211.640625 64.75 211.613281 64.96875 211.5625 65.195312 C 211.507812 65.414062 211.421875 65.664062 211.296875 65.945312 L 209.828125 69.289062 L 208.46875 69.289062 L 209.328125 65.726562 C 209.148438 65.601562 209.007812 65.4375 208.90625 65.226562 C 208.800781 65.007812 208.75 64.78125 208.75 64.539062 C 208.75 64.132812 208.882812 63.789062 209.15625 63.507812 C 209.4375 63.226562 209.78125 63.085938 210.1875 63.085938 Z M 210.1875 63.085938 "/>
<path fill-rule="nonzero" fill="rgb(0%, 49.803922%, 100%)" fill-opacity="1" d="M 220.84375 52.570312 C 221.5 52.570312 222.097656 52.695312 222.640625 52.945312 C 223.191406 53.195312 223.632812 53.5625 223.96875 54.039062 C 224.300781 54.519531 224.46875 55.09375 224.46875 55.757812 C 224.46875 56.394531 224.34375 56.925781 224.09375 57.351562 C 223.851562 57.769531 223.523438 58.097656 223.109375 58.335938 C 222.703125 58.566406 222.25 58.71875 221.75 58.789062 C 222.175781 58.832031 222.609375 58.921875 223.046875 59.054688 C 223.484375 59.179688 223.882812 59.378906 224.25 59.648438 C 224.613281 59.910156 224.90625 60.265625 225.125 60.710938 C 225.34375 61.160156 225.453125 61.726562 225.453125 62.414062 C 225.453125 63.207031 225.257812 63.890625 224.875 64.460938 C 224.5 65.035156 224.007812 65.476562 223.40625 65.789062 C 222.800781 66.101562 222.148438 66.257812 221.453125 66.257812 C 220.890625 66.257812 220.34375 66.152344 219.8125 65.945312 C 219.289062 65.726562 218.804688 65.40625 218.359375 64.976562 L 218.609375 63.945312 C 218.929688 64.320312 219.3125 64.597656 219.75 64.773438 C 220.1875 64.941406 220.707031 65.023438 221.3125 65.023438 C 221.78125 65.023438 222.210938 64.925781 222.609375 64.726562 C 223.003906 64.53125 223.316406 64.238281 223.546875 63.851562 C 223.785156 63.457031 223.90625 62.976562 223.90625 62.414062 C 223.90625 61.445312 223.625 60.710938 223.0625 60.210938 C 222.507812 59.710938 221.710938 59.460938 220.671875 59.460938 L 219.6875 59.460938 L 219.859375 58.304688 L 220.8125 58.304688 C 221.226562 58.304688 221.601562 58.222656 221.9375 58.054688 C 222.28125 57.890625 222.550781 57.628906 222.75 57.273438 C 222.957031 56.921875 223.0625 56.460938 223.0625 55.898438 C 223.0625 55.160156 222.851562 54.625 222.4375 54.289062 C 222.019531 53.945312 221.5 53.773438 220.875 53.773438 C 220.175781 53.773438 219.644531 53.988281 219.28125 54.414062 C 218.925781 54.832031 218.75 55.476562 218.75 56.351562 L 218.75 69.679688 L 217.234375 69.882812 L 217.234375 56.320312 C 217.234375 55.539062 217.378906 54.875 217.671875 54.320312 C 217.960938 53.757812 218.375 53.328125 218.90625 53.023438 C 219.445312 52.722656 220.09375 52.570312 220.84375 52.570312 Z M 220.84375 52.570312 "/>
<path fill-rule="nonzero" fill="rgb(60.000002%, 60.000002%, 60.000002%)" fill-opacity="1" d="M 231.8125 63.085938 C 232.226562 63.085938 232.570312 63.234375 232.84375 63.523438 C 233.125 63.804688 233.265625 64.144531 233.265625 64.539062 C 233.265625 64.75 233.238281 64.96875 233.1875 65.195312 C 233.132812 65.414062 233.046875 65.664062 232.921875 65.945312 L 231.453125 69.289062 L 230.09375 69.289062 L 230.953125 65.726562 C 230.773438 65.601562 230.632812 65.4375 230.53125 65.226562 C 230.425781 65.007812 230.375 64.78125 230.375 64.539062 C 230.375 64.132812 230.507812 63.789062 230.78125 63.507812 C 231.0625 63.226562 231.40625 63.085938 231.8125 63.085938 Z M 231.8125 63.085938 "/>
<path fill-rule="nonzero" fill="rgb(100%, 50.196081%, 0%)" fill-opacity="1" d="M 243.3125 64.960938 C 243.789062 64.960938 244.234375 64.882812 244.640625 64.726562 C 245.054688 64.570312 245.4375 64.375 245.78125 64.132812 L 246.53125 65.117188 C 246.113281 65.472656 245.613281 65.753906 245.03125 65.960938 C 244.445312 66.15625 243.875 66.257812 243.3125 66.257812 C 242.375 66.257812 241.570312 66.054688 240.90625 65.648438 C 240.238281 65.242188 239.734375 64.675781 239.390625 63.945312 C 239.046875 63.207031 238.875 62.34375 238.875 61.351562 C 238.875 60.40625 239.046875 59.554688 239.390625 58.804688 C 239.742188 58.046875 240.25 57.453125 240.90625 57.023438 C 241.570312 56.585938 242.378906 56.367188 243.328125 56.367188 C 243.941406 56.367188 244.515625 56.460938 245.046875 56.648438 C 245.578125 56.828125 246.0625 57.101562 246.5 57.476562 L 245.765625 58.476562 C 245.359375 58.195312 244.953125 57.988281 244.546875 57.851562 C 244.148438 57.707031 243.738281 57.632812 243.3125 57.632812 C 242.5 57.632812 241.828125 57.941406 241.296875 58.554688 C 240.765625 59.171875 240.5 60.101562 240.5 61.351562 C 240.5 62.195312 240.617188 62.882812 240.859375 63.414062 C 241.109375 63.945312 241.441406 64.335938 241.859375 64.585938 C 242.285156 64.835938 242.769531 64.960938 243.3125 64.960938 Z M 243.3125 64.960938 "/>
<path fill-rule="nonzero" fill="rgb(60.000002%, 60.000002%, 60.000002%)" fill-opacity="1" d="M 253.441406 63.085938 C 253.855469 63.085938 254.199219 63.234375 254.472656 63.523438 C 254.753906 63.804688 254.894531 64.144531 254.894531 64.539062 C 254.894531 64.75 254.867188 64.96875 254.816406 65.195312 C 254.761719 65.414062 254.675781 65.664062 254.550781 65.945312 L 253.082031 69.289062 L 251.722656 69.289062 L 252.582031 65.726562 C 252.402344 65.601562 252.261719 65.4375 252.160156 65.226562 C 252.054688 65.007812 252.003906 64.78125 252.003906 64.539062 C 252.003906 64.132812 252.136719 63.789062 252.410156 63.507812 C 252.691406 63.226562 253.035156 63.085938 253.441406 63.085938 Z M 253.441406 63.085938 "/>
<path fill-rule="nonzero" fill="rgb(60.000002%, 60.000002%, 60.000002%)" fill-opacity="1" d="M 264.824219 64.664062 C 264.824219 64.375 264.894531 64.109375 265.027344 63.867188 C 265.164062 63.628906 265.351562 63.441406 265.589844 63.304688 C 265.832031 63.160156 266.101562 63.085938 266.402344 63.085938 C 266.707031 63.085938 266.976562 63.160156 267.214844 63.304688 C 267.457031 63.441406 267.648438 63.628906 267.792969 63.867188 C 267.929688 64.109375 267.996094 64.375 267.996094 64.664062 C 267.996094 64.957031 267.929688 65.226562 267.792969 65.476562 C 267.648438 65.71875 267.457031 65.910156 267.214844 66.054688 C 266.976562 66.1875 266.707031 66.257812 266.402344 66.257812 C 266.101562 66.257812 265.832031 66.1875 265.589844 66.054688 C 265.351562 65.910156 265.164062 65.71875 265.027344 65.476562 C 264.894531 65.226562 264.824219 64.957031 264.824219 64.664062 Z M 271.308594 64.664062 C 271.308594 64.375 271.375 64.109375 271.511719 63.867188 C 271.644531 63.628906 271.832031 63.441406 272.074219 63.304688 C 272.3125 63.160156 272.582031 63.085938 272.886719 63.085938 C 273.1875 63.085938 273.457031 63.160156 273.699219 63.304688 C 273.9375 63.441406 274.125 63.628906 274.261719 63.867188 C 274.40625 64.109375 274.480469 64.375 274.480469 64.664062 C 274.480469 64.957031 274.40625 65.226562 274.261719 65.476562 C 274.125 65.71875 273.9375 65.910156 273.699219 66.054688 C 273.457031 66.1875 273.1875 66.257812 272.886719 66.257812 C 272.582031 66.257812 272.3125 66.1875 272.074219 66.054688 C 271.832031 65.910156 271.644531 65.71875 271.511719 65.476562 C 271.375 65.226562 271.308594 64.957031 271.308594 64.664062 Z M 271.308594 64.664062 "/>
<path fill-rule="nonzero" fill="rgb(60.000002%, 60.000002%, 60.000002%)" fill-opacity="1" d="M 287.976562 51.367188 L 287.976562 68.132812 L 283.460938 68.132812 L 283.460938 66.851562 L 286.539062 66.851562 L 286.539062 52.664062 L 283.460938 52.664062 L 283.460938 51.367188 Z M 287.976562 51.367188 "/>
</svg>
