<?xml version="1.0" encoding="UTF-8"?>
<svg xmlns="http://www.w3.org/2000/svg" xmlns:xlink="http://www.w3.org/1999/xlink" width="226.080002" height="151.919998" viewBox="0 0 226.080002 151.919998">
<path fill-rule="nonzero" fill="rgb(100%, 50.196081%, 0%)" fill-opacity="1" d="M 20.554688 14.625 L 20.554688 26.671875 L 19.039062 26.671875 L 19.039062 16.265625 L 16.195312 18 L 15.539062 16.921875 L 19.226562 14.625 Z M 23.148438 25.796875 L 23.148438 27.03125 L 15.976562 27.03125 L 15.976562 25.796875 Z M 23.148438 25.796875 "/>
<path fill-rule="nonzero" fill="rgb(60.000002%, 60.000002%, 60.000002%)" fill-opacity="1" d="M 30.042969 24.0625 C 30.457031 24.0625 30.800781 24.210938 31.074219 24.5 C 31.355469 24.78125 31.496094 25.121094 31.496094 25.515625 C 31.496094 25.726562 31.46875 25.945312 31.417969 26.171875 C 31.363281 26.390625 31.277344 26.640625 31.152344 26.921875 L 29.683594 30.265625 L 28.324219 30.265625 L 29.183594 26.703125 C 29.003906 26.578125 28.863281 26.414062 28.761719 26.203125 C 28.65625 25.984375 28.605469 25.757812 28.605469 25.515625 C 28.605469 25.109375 28.738281 24.765625 29.011719 24.484375 C 29.292969 24.203125 29.636719 24.0625 30.042969 24.0625 Z M 30.042969 24.0625 "/>
<path fill-rule="nonzero" fill="rgb(60.000002%, 60.000002%, 60.000002%)" fill-opacity="1" d="M 37.761719 16.328125 L 44.683594 20.609375 L 44.683594 22.15625 L 37.855469 26.4375 L 37.027344 25.3125 L 43.386719 21.390625 L 37.027344 17.46875 Z M 37.761719 16.328125 "/>
<path fill-rule="nonzero" fill="rgb(100%, 50.196081%, 0%)" fill-opacity="1" d="M 61.90625 35.445312 C 62.6875 35.445312 63.359375 35.585938 63.921875 35.867188 C 64.484375 36.148438 64.921875 36.53125 65.234375 37.007812 C 65.546875 37.476562 65.703125 37.992188 65.703125 38.554688 C 65.703125 39.054688 65.59375 39.507812 65.375 39.914062 C 65.15625 40.320312 64.859375 40.660156 64.484375 40.929688 C 64.117188 41.191406 63.71875 41.363281 63.28125 41.445312 C 63.769531 41.476562 64.226562 41.613281 64.65625 41.851562 C 65.082031 42.09375 65.429688 42.429688 65.703125 42.867188 C 65.972656 43.296875 66.109375 43.832031 66.109375 44.476562 C 66.109375 45.195312 65.925781 45.84375 65.5625 46.414062 C 65.207031 46.988281 64.707031 47.441406 64.0625 47.773438 C 63.414062 48.09375 62.660156 48.257812 61.796875 48.257812 C 61.109375 48.257812 60.421875 48.125 59.734375 47.867188 C 59.046875 47.609375 58.460938 47.1875 57.984375 46.601562 L 59.015625 45.773438 C 59.367188 46.191406 59.789062 46.503906 60.28125 46.710938 C 60.769531 46.910156 61.265625 47.007812 61.765625 47.007812 C 62.628906 47.007812 63.300781 46.785156 63.78125 46.335938 C 64.269531 45.878906 64.515625 45.257812 64.515625 44.476562 C 64.515625 43.894531 64.398438 43.429688 64.171875 43.085938 C 63.953125 42.742188 63.648438 42.5 63.265625 42.351562 C 62.878906 42.207031 62.441406 42.132812 61.953125 42.132812 L 60.90625 42.132812 L 61.09375 40.929688 L 61.828125 40.929688 C 62.234375 40.929688 62.613281 40.859375 62.96875 40.710938 C 63.320312 40.554688 63.613281 40.316406 63.84375 39.992188 C 64.070312 39.660156 64.1875 39.253906 64.1875 38.773438 C 64.1875 38.085938 63.957031 37.566406 63.5 37.210938 C 63.039062 36.847656 62.488281 36.664062 61.84375 36.664062 C 61.300781 36.664062 60.828125 36.757812 60.421875 36.945312 C 60.023438 37.132812 59.625 37.421875 59.21875 37.804688 L 58.375 36.882812 C 58.90625 36.382812 59.46875 36.019531 60.0625 35.789062 C 60.65625 35.5625 61.269531 35.445312 61.90625 35.445312 Z M 61.90625 35.445312 "/>
<path fill-rule="nonzero" fill="rgb(60.000002%, 60.000002%, 60.000002%)" fill-opacity="1" d="M 73.285156 45.085938 C 73.699219 45.085938 74.042969 45.234375 74.316406 45.523438 C 74.597656 45.804688 74.738281 46.144531 74.738281 46.539062 C 74.738281 46.75 74.710938 46.96875 74.660156 47.195312 C 74.605469 47.414062 74.519531 47.664062 74.394531 47.945312 L 72.925781 51.289062 L 71.566406 51.289062 L 72.425781 47.726562 C 72.246094 47.601562 72.105469 47.4375 72.003906 47.226562 C 71.898438 47.007812 71.847656 46.78125 71.847656 46.539062 C 71.847656 46.132812 71.980469 45.789062 72.253906 45.507812 C 72.535156 45.226562 72.878906 45.085938 73.285156 45.085938 Z M 73.285156 45.085938 "/>
<path fill-rule="nonzero" fill="rgb(60.000002%, 60.000002%, 60.000002%)" fill-opacity="1" d="M 81.003906 37.351562 L 87.925781 41.632812 L 87.925781 43.179688 L 81.097656 47.460938 L 80.269531 46.335938 L 86.628906 42.414062 L 80.269531 38.492188 Z M 81.003906 37.351562 "/>
<path fill-rule="nonzero" fill="rgb(60.000002%, 60.000002%, 60.000002%)" fill-opacity="1" d="M 94.917969 45.085938 C 95.332031 45.085938 95.675781 45.234375 95.949219 45.523438 C 96.230469 45.804688 96.371094 46.144531 96.371094 46.539062 C 96.371094 46.75 96.34375 46.96875 96.292969 47.195312 C 96.238281 47.414062 96.152344 47.664062 96.027344 47.945312 L 94.558594 51.289062 L 93.199219 51.289062 L 94.058594 47.726562 C 93.878906 47.601562 93.738281 47.4375 93.636719 47.226562 C 93.53125 47.007812 93.480469 46.78125 93.480469 46.539062 C 93.480469 46.132812 93.613281 45.789062 93.886719 45.507812 C 94.167969 45.226562 94.511719 45.085938 94.917969 45.085938 Z M 94.917969 45.085938 "/>
<path fill-rule="nonzero" fill="rgb(60.000002%, 60.000002%, 60.000002%)" fill-opacity="1" d="M 102.636719 37.351562 L 109.558594 41.632812 L 109.558594 43.179688 L 102.730469 47.460938 L 101.902344 46.335938 L 108.261719 42.414062 L 101.902344 38.492188 Z M 102.636719 37.351562 "/>
<path fill-rule="nonzero" fill="rgb(60.000002%, 60.000002%, 60.000002%)" fill-opacity="1" d="M 116.550781 45.085938 C 116.964844 45.085938 117.308594 45.234375 117.582031 45.523438 C 117.863281 45.804688 118.003906 46.144531 118.003906 46.539062 C 118.003906 46.75 117.976562 46.96875 117.925781 47.195312 C 117.871094 47.414062 117.785156 47.664062 117.660156 47.945312 L 116.191406 51.289062 L 114.832031 51.289062 L 115.691406 47.726562 C 115.511719 47.601562 115.371094 47.4375 115.269531 47.226562 C 115.164062 47.007812 115.113281 46.78125 115.113281 46.539062 C 115.113281 46.132812 115.246094 45.789062 115.519531 45.507812 C 115.800781 45.226562 116.144531 45.085938 116.550781 45.085938 Z M 116.550781 45.085938 "/>
<path fill-rule="nonzero" fill="rgb(60.000002%, 60.000002%, 60.000002%)" fill-opacity="1" d="M 124.269531 37.351562 L 131.191406 41.632812 L 131.191406 43.179688 L 124.363281 47.460938 L 123.535156 46.335938 L 129.894531 42.414062 L 123.535156 38.492188 Z M 124.269531 37.351562 "/>
<path fill-rule="nonzero" fill="rgb(100%, 50.196081%, 0%)" fill-opacity="1" d="M 147.730469 70.75 L 146.308594 70.3125 L 151.152344 59.4375 L 145.324219 59.4375 L 145.324219 58.171875 L 152.667969 58.171875 L 152.667969 59.34375 Z M 147.730469 70.75 "/>
<path fill-rule="nonzero" fill="rgb(60.000002%, 60.000002%, 60.000002%)" fill-opacity="1" d="M 159.796875 67.609375 C 160.210938 67.609375 160.554688 67.757812 160.828125 68.046875 C 161.109375 68.328125 161.25 68.667969 161.25 69.0625 C 161.25 69.273438 161.222656 69.492188 161.171875 69.71875 C 161.117188 69.9375 161.03125 70.1875 160.90625 70.46875 L 159.4375 73.8125 L 158.078125 73.8125 L 158.9375 70.25 C 158.757812 70.125 158.617188 69.960938 158.515625 69.75 C 158.410156 69.53125 158.359375 69.304688 158.359375 69.0625 C 158.359375 68.65625 158.492188 68.3125 158.765625 68.03125 C 159.046875 67.75 159.390625 67.609375 159.796875 67.609375 Z M 159.796875 67.609375 "/>
<path fill-rule="nonzero" fill="rgb(60.000002%, 60.000002%, 60.000002%)" fill-opacity="1" d="M 167.515625 59.875 L 174.4375 64.15625 L 174.4375 65.703125 L 167.609375 69.984375 L 166.78125 68.859375 L 173.140625 64.9375 L 166.78125 61.015625 Z M 167.515625 59.875 "/>
<path fill-rule="nonzero" fill="rgb(60.000002%, 60.000002%, 60.000002%)" fill-opacity="1" d="M 6.316406 137.226562 L 6.316406 120.460938 L 10.832031 120.460938 L 10.832031 121.757812 L 7.753906 121.757812 L 7.753906 135.945312 L 10.832031 135.945312 L 10.832031 137.226562 Z M 6.316406 137.226562 "/>
<path fill-rule="nonzero" fill="rgb(60.000002%, 60.000002%, 60.000002%)" fill-opacity="1" d="M 19.898438 120.023438 L 23.304688 125.648438 L 21.664062 125.648438 L 19.210938 121.382812 L 16.773438 125.648438 L 15.148438 125.648438 L 18.554688 120.023438 Z M 19.898438 120.023438 "/>
<path fill-rule="nonzero" fill="rgb(60.000002%, 60.000002%, 60.000002%)" fill-opacity="1" d="M 30.042969 132.179688 C 30.457031 132.179688 30.800781 132.328125 31.074219 132.617188 C 31.355469 132.898438 31.496094 133.238281 31.496094 133.632812 C 31.496094 133.84375 31.46875 134.0625 31.417969 134.289062 C 31.363281 134.507812 31.277344 134.757812 31.152344 135.039062 L 29.683594 138.382812 L 28.324219 138.382812 L 29.183594 134.820312 C 29.003906 134.695312 28.863281 134.53125 28.761719 134.320312 C 28.65625 134.101562 28.605469 133.875 28.605469 133.632812 C 28.605469 133.226562 28.738281 132.882812 29.011719 132.601562 C 29.292969 132.320312 29.636719 132.179688 30.042969 132.179688 Z M 30.042969 132.179688 "/>
<path fill-rule="nonzero" fill="rgb(60.000002%, 60.000002%, 60.000002%)" fill-opacity="1" d="M 41.527344 120.023438 L 44.933594 125.648438 L 43.292969 125.648438 L 40.839844 121.382812 L 38.402344 125.648438 L 36.777344 125.648438 L 40.183594 120.023438 Z M 41.527344 120.023438 "/>
<path fill-rule="nonzero" fill="rgb(60.000002%, 60.000002%, 60.000002%)" fill-opacity="1" d="M 51.667969 132.179688 C 52.082031 132.179688 52.425781 132.328125 52.699219 132.617188 C 52.980469 132.898438 53.121094 133.238281 53.121094 133.632812 C 53.121094 133.84375 53.09375 134.0625 53.042969 134.289062 C 52.988281 134.507812 52.902344 134.757812 52.777344 135.039062 L 51.308594 138.382812 L 49.949219 138.382812 L 50.808594 134.820312 C 50.628906 134.695312 50.488281 134.53125 50.386719 134.320312 C 50.28125 134.101562 50.230469 133.875 50.230469 133.632812 C 50.230469 133.226562 50.363281 132.882812 50.636719 132.601562 C 50.917969 132.320312 51.261719 132.179688 51.667969 132.179688 Z M 51.667969 132.179688 "/>
<path fill-rule="nonzero" fill="rgb(60.000002%, 60.000002%, 60.000002%)" fill-opacity="1" d="M 63.164062 120.023438 L 66.570312 125.648438 L 64.929688 125.648438 L 62.476562 121.382812 L 60.039062 125.648438 L 58.414062 125.648438 L 61.820312 120.023438 Z M 63.164062 120.023438 "/>
<path fill-rule="nonzero" fill="rgb(60.000002%, 60.000002%, 60.000002%)" fill-opacity="1" d="M 73.308594 132.179688 C 73.722656 132.179688 74.066406 132.328125 74.339844 132.617188 C 74.621094 132.898438 74.761719 133.238281 74.761719 133.632812 C 74.761719 133.84375 74.734375 134.0625 74.683594 134.289062 C 74.628906 134.507812 74.542969 134.757812 74.417969 135.039062 L 72.949219 138.382812 L 71.589844 138.382812 L 72.449219 134.820312 C 72.269531 134.695312 72.128906 134.53125 72.027344 134.320312 C 71.921875 134.101562 71.871094 133.875 71.871094 133.632812 C 71.871094 133.226562 72.003906 132.882812 72.277344 132.601562 C 72.558594 132.320312 72.902344 132.179688 73.308594 132.179688 Z M 73.308594 132.179688 "/>
<path fill-rule="nonzero" fill="rgb(60.000002%, 60.000002%, 60.000002%)" fill-opacity="1" d="M 84.792969 120.023438 L 88.199219 125.648438 L 86.558594 125.648438 L 84.105469 121.382812 L 81.667969 125.648438 L 80.042969 125.648438 L 83.449219 120.023438 Z M 84.792969 120.023438 "/>
<path fill-rule="nonzero" fill="rgb(60.000002%, 60.000002%, 60.000002%)" fill-opacity="1" d="M 94.933594 132.179688 C 95.347656 132.179688 95.691406 132.328125 95.964844 132.617188 C 96.246094 132.898438 96.386719 133.238281 96.386719 133.632812 C 96.386719 133.84375 96.359375 134.0625 96.308594 134.289062 C 96.253906 134.507812 96.167969 134.757812 96.042969 135.039062 L 94.574219 138.382812 L 93.214844 138.382812 L 94.074219 134.820312 C 93.894531 134.695312 93.753906 134.53125 93.652344 134.320312 C 93.546875 134.101562 93.496094 133.875 93.496094 133.632812 C 93.496094 133.226562 93.628906 132.882812 93.902344 132.601562 C 94.183594 132.320312 94.527344 132.179688 94.933594 132.179688 Z M 94.933594 132.179688 "/>
<path fill-rule="nonzero" fill="rgb(60.000002%, 60.000002%, 60.000002%)" fill-opacity="1" d="M 106.417969 120.023438 L 109.824219 125.648438 L 108.183594 125.648438 L 105.730469 121.382812 L 103.292969 125.648438 L 101.667969 125.648438 L 105.074219 120.023438 Z M 106.417969 120.023438 "/>
<path fill-rule="nonzero" fill="rgb(60.000002%, 60.000002%, 60.000002%)" fill-opacity="1" d="M 116.558594 132.179688 C 116.972656 132.179688 117.316406 132.328125 117.589844 132.617188 C 117.871094 132.898438 118.011719 133.238281 118.011719 133.632812 C 118.011719 133.84375 117.984375 134.0625 117.933594 134.289062 C 117.878906 134.507812 117.792969 134.757812 117.667969 135.039062 L 116.199219 138.382812 L 114.839844 138.382812 L 115.699219 134.820312 C 115.519531 134.695312 115.378906 134.53125 115.277344 134.320312 C 115.171875 134.101562 115.121094 133.875 115.121094 133.632812 C 115.121094 133.226562 115.253906 132.882812 115.527344 132.601562 C 115.808594 132.320312 116.152344 132.179688 116.558594 132.179688 Z M 116.558594 132.179688 "/>
<path fill-rule="nonzero" fill="rgb(60.000002%, 60.000002%, 60.000002%)" fill-opacity="1" d="M 128.042969 120.023438 L 131.449219 125.648438 L 129.808594 125.648438 L 127.355469 121.382812 L 124.917969 125.648438 L 123.292969 125.648438 L 126.699219 120.023438 Z M 128.042969 120.023438 "/>
<path fill-rule="nonzero" fill="rgb(60.000002%, 60.000002%, 60.000002%)" fill-opacity="1" d="M 138.179688 132.179688 C 138.59375 132.179688 138.9375 132.328125 139.210938 132.617188 C 139.492188 132.898438 139.632812 133.238281 139.632812 133.632812 C 139.632812 133.84375 139.605469 134.0625 139.554688 134.289062 C 139.5 134.507812 139.414062 134.757812 139.289062 135.039062 L 137.820312 138.382812 L 136.460938 138.382812 L 137.320312 134.820312 C 137.140625 134.695312 137 134.53125 136.898438 134.320312 C 136.792969 134.101562 136.742188 133.875 136.742188 133.632812 C 136.742188 133.226562 136.875 132.882812 137.148438 132.601562 C 137.429688 132.320312 137.773438 132.179688 138.179688 132.179688 Z M 138.179688 132.179688 "/>
<path fill-rule="nonzero" fill="rgb(60.000002%, 60.000002%, 60.000002%)" fill-opacity="1" d="M 149.675781 120.023438 L 153.082031 125.648438 L 151.441406 125.648438 L 148.988281 121.382812 L 146.550781 125.648438 L 144.925781 125.648438 L 148.332031 120.023438 Z M 149.675781 120.023438 "/>
<path fill-rule="nonzero" fill="rgb(60.000002%, 60.000002%, 60.000002%)" fill-opacity="1" d="M 159.820312 132.179688 C 160.234375 132.179688 160.578125 132.328125 160.851562 132.617188 C 161.132812 132.898438 161.273438 133.238281 161.273438 133.632812 C 161.273438 133.84375 161.246094 134.0625 161.195312 134.289062 C 161.140625 134.507812 161.054688 134.757812 160.929688 135.039062 L 159.460938 138.382812 L 158.101562 138.382812 L 158.960938 134.820312 C 158.78125 134.695312 158.640625 134.53125 158.539062 134.320312 C 158.433594 134.101562 158.382812 133.875 158.382812 133.632812 C 158.382812 133.226562 158.515625 132.882812 158.789062 132.601562 C 159.070312 132.320312 159.414062 132.179688 159.820312 132.179688 Z M 159.820312 132.179688 "/>
<path fill-rule="nonzero" fill="rgb(60.000002%, 60.000002%, 60.000002%)" fill-opacity="1" d="M 171.304688 120.023438 L 174.710938 125.648438 L 173.070312 125.648438 L 170.617188 121.382812 L 168.179688 125.648438 L 166.554688 125.648438 L 169.960938 120.023438 Z M 171.304688 120.023438 "/>
<path fill-rule="nonzero" fill="rgb(60.000002%, 60.000002%, 60.000002%)" fill-opacity="1" d="M 181.441406 132.179688 C 181.855469 132.179688 182.199219 132.328125 182.472656 132.617188 C 182.753906 132.898438 182.894531 133.238281 182.894531 133.632812 C 182.894531 133.84375 182.867188 134.0625 182.816406 134.289062 C 182.761719 134.507812 182.675781 134.757812 182.550781 135.039062 L 181.082031 138.382812 L 179.722656 138.382812 L 180.582031 134.820312 C 180.402344 134.695312 180.261719 134.53125 180.160156 134.320312 C 180.054688 134.101562 180.003906 133.875 180.003906 133.632812 C 180.003906 133.226562 180.136719 132.882812 180.410156 132.601562 C 180.691406 132.320312 181.035156 132.179688 181.441406 132.179688 Z M 181.441406 132.179688 "/>
<path fill-rule="nonzero" fill="rgb(60.000002%, 60.000002%, 60.000002%)" fill-opacity="1" d="M 192.832031 133.757812 C 192.832031 133.46875 192.902344 133.203125 193.035156 132.960938 C 193.171875 132.722656 193.359375 132.535156 193.597656 132.398438 C 193.839844 132.253906 194.109375 132.179688 194.410156 132.179688 C 194.714844 132.179688 194.984375 132.253906 195.222656 132.398438 C 195.464844 132.535156 195.65625 132.722656 195.800781 132.960938 C 195.9375 133.203125 196.003906 133.46875 196.003906 133.757812 C 196.003906 134.050781 195.9375 134.320312 195.800781 134.570312 C 195.65625 134.8125 195.464844 135.003906 195.222656 135.148438 C 194.984375 135.28125 194.714844 135.351562 194.410156 135.351562 C 194.109375 135.351562 193.839844 135.28125 193.597656 135.148438 C 193.359375 135.003906 193.171875 134.8125 193.035156 134.570312 C 192.902344 134.320312 192.832031 134.050781 192.832031 133.757812 Z M 199.316406 133.757812 C 199.316406 133.46875 199.382812 133.203125 199.519531 132.960938 C 199.652344 132.722656 199.839844 132.535156 200.082031 132.398438 C 200.320312 132.253906 200.589844 132.179688 200.894531 132.179688 C 201.195312 132.179688 201.464844 132.253906 201.707031 132.398438 C 201.945312 132.535156 202.132812 132.722656 202.269531 132.960938 C 202.414062 133.203125 202.488281 133.46875 202.488281 133.757812 C 202.488281 134.050781 202.414062 134.320312 202.269531 134.570312 C 202.132812 134.8125 201.945312 135.003906 201.707031 135.148438 C 201.464844 135.28125 201.195312 135.351562 200.894531 135.351562 C 200.589844 135.351562 200.320312 135.28125 200.082031 135.148438 C 199.839844 135.003906 199.652344 134.8125 199.519531 134.570312 C 199.382812 134.320312 199.316406 134.050781 199.316406 133.757812 Z M 199.316406 133.757812 "/>
<path fill="none" stroke-width="2" stroke-linecap="butt" stroke-linejoin="miter" stroke="rgb(40.000001%, 40.000001%, 40.000001%)" stroke-opacity="1" stroke-miterlimit="10" d="M 120.002453 99.998576 L 120.002453 129.762472 " transform="matrix(0.750831, 0, 0, 0.750831, 0, 0)"/>
<path fill-rule="nonzero" fill="rgb(40.000001%, 40.000001%, 40.000001%)" fill-opacity="1" stroke-width="2" stroke-linecap="butt" stroke-linejoin="miter" stroke="rgb(40.000001%, 40.000001%, 40.000001%)" stroke-opacity="1" stroke-miterlimit="10" d="M 120.002453 137.75882 L 117.328332 129.762472 L 122.67137 129.762472 Z M 120.002453 137.75882 " transform="matrix(0.750831, 0, 0, 0.750831, 0, 0)"/>
</svg>
